%TF.GenerationSoftware,KiCad,Pcbnew,7.0.1*%
%TF.CreationDate,2023-03-20T12:44:14-07:00*%
%TF.ProjectId,Bluetooth Multimeter,426c7565-746f-46f7-9468-204d756c7469,rev?*%
%TF.SameCoordinates,Original*%
%TF.FileFunction,Copper,L1,Top*%
%TF.FilePolarity,Positive*%
%FSLAX46Y46*%
G04 Gerber Fmt 4.6, Leading zero omitted, Abs format (unit mm)*
G04 Created by KiCad (PCBNEW 7.0.1) date 2023-03-20 12:44:14*
%MOMM*%
%LPD*%
G01*
G04 APERTURE LIST*
%TA.AperFunction,ComponentPad*%
%ADD10C,1.600000*%
%TD*%
%TA.AperFunction,ComponentPad*%
%ADD11O,1.600000X1.600000*%
%TD*%
%TA.AperFunction,ComponentPad*%
%ADD12C,5.000000*%
%TD*%
%TA.AperFunction,ComponentPad*%
%ADD13C,3.810000*%
%TD*%
%TA.AperFunction,ComponentPad*%
%ADD14R,1.320000X1.320000*%
%TD*%
%TA.AperFunction,ComponentPad*%
%ADD15C,1.320000*%
%TD*%
%TA.AperFunction,ComponentPad*%
%ADD16R,2.000000X2.000000*%
%TD*%
%TA.AperFunction,ComponentPad*%
%ADD17C,2.000000*%
%TD*%
%TA.AperFunction,ComponentPad*%
%ADD18R,1.600000X1.600000*%
%TD*%
%TA.AperFunction,ComponentPad*%
%ADD19R,1.700000X1.700000*%
%TD*%
%TA.AperFunction,ComponentPad*%
%ADD20R,2.200000X2.200000*%
%TD*%
%TA.AperFunction,ComponentPad*%
%ADD21O,2.200000X2.200000*%
%TD*%
%TA.AperFunction,ComponentPad*%
%ADD22C,3.000000*%
%TD*%
%TA.AperFunction,ComponentPad*%
%ADD23O,1.700000X1.700000*%
%TD*%
%TA.AperFunction,ComponentPad*%
%ADD24C,1.500000*%
%TD*%
%TA.AperFunction,ComponentPad*%
%ADD25C,1.700000*%
%TD*%
%TA.AperFunction,ViaPad*%
%ADD26C,1.000000*%
%TD*%
%TA.AperFunction,Conductor*%
%ADD27C,0.400000*%
%TD*%
%TA.AperFunction,Conductor*%
%ADD28C,7.000000*%
%TD*%
G04 APERTURE END LIST*
D10*
%TO.P,R1,1*%
%TO.N,/Input Common*%
X167386000Y-135353000D03*
D11*
%TO.P,R1,2*%
%TO.N,/mA ADC In*%
X167386000Y-137893000D03*
%TD*%
D12*
%TO.P,F2,1*%
%TO.N,/A In*%
X125679200Y-126492000D03*
%TO.P,F2,2*%
X139674600Y-126492000D03*
%TO.P,F2,3*%
%TO.N,/A ADC In*%
X155930600Y-126492000D03*
%TO.P,F2,4*%
X169926000Y-126492000D03*
%TD*%
D13*
%TO.P,F1,1*%
%TO.N,/mA In*%
X129032000Y-139446000D03*
%TO.P,F1,2*%
X136652000Y-139446000D03*
%TO.P,F1,3*%
%TO.N,/mA ADC In*%
X155448000Y-139446000D03*
%TO.P,F1,4*%
X163068000Y-139446000D03*
%TD*%
D14*
%TO.P,RN1,1,9M*%
%TO.N,unconnected-(RN1-9M-Pad1)*%
X122936000Y-116586000D03*
D15*
%TO.P,RN1,2,900k*%
%TO.N,/V{slash}Ohm In*%
X135636000Y-116586000D03*
%TO.P,RN1,3,90k*%
%TO.N,Net-(K2-COM)*%
X138176000Y-116586000D03*
%TO.P,RN1,4,9k*%
%TO.N,Net-(K3-COM)*%
X140716000Y-116586000D03*
%TO.P,RN1,5,1k*%
%TO.N,Net-(K4-COM)*%
X143256000Y-116586000D03*
%TO.P,RN1,6,COM*%
%TO.N,/Ohm Vout*%
X145796000Y-116586000D03*
%TD*%
D16*
%TO.P,K3,1,COM*%
%TO.N,Net-(K3-COM)*%
X139192000Y-110490000D03*
D17*
%TO.P,K3,3,K*%
%TO.N,/High Range Control*%
X139192000Y-105410000D03*
%TO.P,K3,5,A*%
%TO.N,GND*%
X139192000Y-100330000D03*
%TO.P,K3,7,NO*%
%TO.N,/V{slash}Ohm ADC In*%
X139192000Y-95250000D03*
%TD*%
D18*
%TO.P,D6,1,K*%
%TO.N,/Med Range Control*%
X128270000Y-102108000D03*
D11*
%TO.P,D6,2,A*%
%TO.N,GND*%
X128270000Y-94488000D03*
%TD*%
D19*
%TO.P,J4,1,Pin_1*%
%TO.N,/A In*%
X121412000Y-121412000D03*
%TD*%
D20*
%TO.P,D2,1,K*%
%TO.N,/mA ADC In*%
X163068000Y-106934000D03*
D21*
%TO.P,D2,2,A*%
%TO.N,/Input Common*%
X163068000Y-117094000D03*
%TD*%
D19*
%TO.P,J7,1,Pin_1*%
%TO.N,GND*%
X172974000Y-61976000D03*
%TD*%
D18*
%TO.P,D9,1,K*%
%TO.N,/V{slash}Ohm Control*%
X159766000Y-96774000D03*
D11*
%TO.P,D9,2,A*%
%TO.N,GND*%
X159766000Y-104394000D03*
%TD*%
D16*
%TO.P,K5,1,COM*%
%TO.N,/Ohm Vout*%
X154686000Y-110490000D03*
D17*
%TO.P,K5,3,K*%
%TO.N,/V{slash}Ohm Control*%
X154686000Y-105410000D03*
%TO.P,K5,5,A*%
%TO.N,GND*%
X154686000Y-100330000D03*
%TO.P,K5,7,NO*%
%TO.N,/Input Common*%
X154686000Y-95250000D03*
%TD*%
D20*
%TO.P,D1,1,K*%
%TO.N,/Input Common*%
X159766000Y-117094000D03*
D21*
%TO.P,D1,2,A*%
%TO.N,/mA ADC In*%
X159766000Y-106934000D03*
%TD*%
D19*
%TO.P,J3,1,Pin_1*%
%TO.N,/mA In*%
X121412000Y-131826000D03*
%TD*%
D22*
%TO.P,R2,1*%
%TO.N,/A ADC In*%
X170180000Y-116616000D03*
%TO.P,R2,2*%
%TO.N,/Input Common*%
X170180000Y-88616000D03*
%TD*%
D19*
%TO.P,J1,1,Pin_1*%
%TO.N,/V{slash}Ohm In*%
X174244000Y-121412000D03*
%TD*%
%TO.P,J2,1,Pin_1*%
%TO.N,/Input Common*%
X173990000Y-132080000D03*
%TD*%
%TO.P,J6,1,Pin_1*%
%TO.N,+3.3V*%
X122682000Y-61976000D03*
%TD*%
D18*
%TO.P,D8,1,K*%
%TO.N,/UH Range Control*%
X143764000Y-102108000D03*
D11*
%TO.P,D8,2,A*%
%TO.N,GND*%
X143764000Y-94488000D03*
%TD*%
D18*
%TO.P,D7,1,K*%
%TO.N,/High Range Control*%
X143764000Y-112014000D03*
D11*
%TO.P,D7,2,A*%
%TO.N,GND*%
X143764000Y-104394000D03*
%TD*%
D16*
%TO.P,K1,1,COM*%
%TO.N,/V{slash}Ohm In*%
X123698000Y-110490000D03*
D17*
%TO.P,K1,3,K*%
%TO.N,/Low Range Control*%
X123698000Y-105410000D03*
%TO.P,K1,5,A*%
%TO.N,GND*%
X123698000Y-100330000D03*
%TO.P,K1,7,NO*%
%TO.N,/V{slash}Ohm ADC In*%
X123698000Y-95250000D03*
%TD*%
D19*
%TO.P,J5,1,Pin_1*%
%TO.N,/V{slash}Ohm ADC In*%
X131821000Y-87122000D03*
D23*
%TO.P,J5,2,Pin_2*%
%TO.N,/Input Common*%
X134361000Y-87122000D03*
%TD*%
D19*
%TO.P,DS1,1,T_IRQ*%
%TO.N,/TOUCH IRQ*%
X131318000Y-56388000D03*
D23*
%TO.P,DS1,2,T_DO(MISO)*%
%TO.N,/MISO*%
X133858000Y-56388000D03*
%TO.P,DS1,3,T_DIN(MOSI)*%
%TO.N,/MOSI*%
X136398000Y-56388000D03*
%TO.P,DS1,4,T_CS*%
%TO.N,/TOUCH CS*%
X138938000Y-56388000D03*
%TO.P,DS1,5,T_CLK(SCK)*%
%TO.N,/SCK*%
X141478000Y-56388000D03*
%TO.P,DS1,6,SDO(MISO)*%
%TO.N,/MISO*%
X144018000Y-56388000D03*
%TO.P,DS1,7,LED*%
%TO.N,+3.3V*%
X146558000Y-56388000D03*
%TO.P,DS1,8,SCK*%
%TO.N,/SCK*%
X149098000Y-56388000D03*
%TO.P,DS1,9,SDI(MOSI)*%
%TO.N,/MOSI*%
X151638000Y-56388000D03*
%TO.P,DS1,10,DC*%
%TO.N,/TFT DC*%
X154178000Y-56388000D03*
%TO.P,DS1,11,RESET*%
%TO.N,GND*%
X156718000Y-56388000D03*
%TO.P,DS1,12,CS*%
%TO.N,/TFT CS*%
X159258000Y-56388000D03*
%TO.P,DS1,13,GND*%
%TO.N,GND*%
X161798000Y-56388000D03*
%TO.P,DS1,14,VCC*%
%TO.N,+3.3V*%
X164338000Y-56388000D03*
%TD*%
D20*
%TO.P,D4,1,K*%
%TO.N,/A ADC In*%
X163576000Y-93980000D03*
D21*
%TO.P,D4,2,A*%
%TO.N,/Input Common*%
X163576000Y-83820000D03*
%TD*%
D24*
%TO.P,LS1,1*%
%TO.N,/Speaker Control*%
X167132000Y-75692000D03*
%TO.P,LS1,2*%
%TO.N,GND*%
X167132000Y-70692000D03*
%TD*%
D18*
%TO.P,D5,1,K*%
%TO.N,/Low Range Control*%
X128270000Y-112014000D03*
D11*
%TO.P,D5,2,A*%
%TO.N,GND*%
X128270000Y-104394000D03*
%TD*%
D19*
%TO.P,U1,1,Reset*%
%TO.N,unconnected-(U1-Reset-Pad1)*%
X121666000Y-82550000D03*
D25*
%TO.P,U1,2,3.3V*%
%TO.N,+3.3V*%
X124206000Y-82550000D03*
%TO.P,U1,3,Enable*%
%TO.N,unconnected-(U1-Enable-Pad3)*%
X126746000Y-82550000D03*
%TO.P,U1,4,VHI*%
%TO.N,unconnected-(U1-VHI-Pad4)*%
X129286000Y-82550000D03*
%TO.P,U1,5,A0/14*%
%TO.N,/V{slash}Ohm ADC In*%
X131826000Y-82550000D03*
%TO.P,U1,6,A1/15*%
%TO.N,/Input Common*%
X134366000Y-82550000D03*
%TO.P,U1,7,A2/16*%
%TO.N,/Ohm Vout*%
X136906000Y-82550000D03*
%TO.P,U1,8,A3/17*%
%TO.N,/mA ADC In*%
X139446000Y-82550000D03*
%TO.P,U1,9,A4/18*%
%TO.N,/A ADC In*%
X141986000Y-82550000D03*
%TO.P,U1,10,A5/19*%
%TO.N,/Speaker Control*%
X144526000Y-82550000D03*
%TO.P,U1,11,SCK/25*%
%TO.N,/SCK*%
X147066000Y-82550000D03*
%TO.P,U1,12,MOSI/24*%
%TO.N,/MOSI*%
X149606000Y-82550000D03*
%TO.P,U1,13,MISO/23*%
%TO.N,/MISO*%
X152146000Y-82550000D03*
%TO.P,U1,14,D2/2*%
%TO.N,/TFT CS*%
X154686000Y-82550000D03*
%TO.P,U1,15,RX/0*%
%TO.N,unconnected-(U1-RX{slash}0-Pad15)*%
X154686000Y-67310000D03*
%TO.P,U1,16,TX/1*%
%TO.N,unconnected-(U1-TX{slash}1-Pad16)*%
X152146000Y-67310000D03*
%TO.P,U1,17,SDA/21*%
%TO.N,/TFT DC*%
X149606000Y-67310000D03*
%TO.P,U1,18,SCL/22*%
%TO.N,/TOUCH CS*%
X147066000Y-67310000D03*
%TO.P,U1,19,D5/5!*%
%TO.N,unconnected-(U1-D5{slash}5!-Pad19)*%
X144526000Y-67310000D03*
%TO.P,U1,20,D7/7*%
%TO.N,/TOUCH IRQ*%
X141986000Y-67310000D03*
%TO.P,U1,21,D9/9*%
%TO.N,/V{slash}Ohm Control*%
X139446000Y-67310000D03*
%TO.P,U1,22,D10/10*%
%TO.N,/UH Range Control*%
X136906000Y-67310000D03*
%TO.P,U1,23,D11/11*%
%TO.N,/High Range Control*%
X134366000Y-67310000D03*
%TO.P,U1,24,D12/12*%
%TO.N,/Med Range Control*%
X131826000Y-67310000D03*
%TO.P,U1,25,D13/13*%
%TO.N,/Low Range Control*%
X129286000Y-67310000D03*
%TO.P,U1,26,VBUS*%
%TO.N,unconnected-(U1-VBUS-Pad26)*%
X126746000Y-67310000D03*
%TO.P,U1,27,GND*%
%TO.N,GND*%
X124206000Y-67310000D03*
%TO.P,U1,28,VBAT*%
%TO.N,unconnected-(U1-VBAT-Pad28)*%
X121666000Y-67310000D03*
%TD*%
D16*
%TO.P,K2,1,COM*%
%TO.N,Net-(K2-COM)*%
X132842000Y-110490000D03*
D17*
%TO.P,K2,3,K*%
%TO.N,/Med Range Control*%
X132842000Y-105410000D03*
%TO.P,K2,5,A*%
%TO.N,GND*%
X132842000Y-100330000D03*
%TO.P,K2,7,NO*%
%TO.N,/V{slash}Ohm ADC In*%
X132842000Y-95250000D03*
%TD*%
D16*
%TO.P,K4,1,COM*%
%TO.N,Net-(K4-COM)*%
X148336000Y-110490000D03*
D17*
%TO.P,K4,3,K*%
%TO.N,/UH Range Control*%
X148336000Y-105410000D03*
%TO.P,K4,5,A*%
%TO.N,GND*%
X148336000Y-100330000D03*
%TO.P,K4,7,NO*%
%TO.N,/V{slash}Ohm ADC In*%
X148336000Y-95250000D03*
%TD*%
D20*
%TO.P,D3,1,K*%
%TO.N,/Input Common*%
X160274000Y-83820000D03*
D21*
%TO.P,D3,2,A*%
%TO.N,/A ADC In*%
X160274000Y-93980000D03*
%TD*%
D26*
%TO.N,/V{slash}Ohm In*%
X174244000Y-128270000D03*
X167640000Y-142748000D03*
%TO.N,+3.3V*%
X164338000Y-59182000D03*
X146558000Y-59182000D03*
X128524000Y-59182000D03*
%TO.N,GND*%
X156718000Y-60452000D03*
X161798000Y-60492000D03*
X131064000Y-60452000D03*
%TO.N,/Input Common*%
X150622000Y-89660957D03*
X134361000Y-89657000D03*
%TO.N,/mA ADC In*%
X140716000Y-88392000D03*
%TO.N,/A ADC In*%
X144526000Y-87122000D03*
%TO.N,/MISO*%
X143510000Y-61468000D03*
X138938000Y-61468000D03*
%TO.N,/V{slash}Ohm ADC In*%
X131821000Y-91186000D03*
X139446000Y-91440000D03*
%TO.N,/Ohm Vout*%
X136892500Y-90561500D03*
X150749000Y-114427000D03*
%TD*%
D27*
%TO.N,/Ohm Vout*%
X144272000Y-90424000D02*
X137030000Y-90424000D01*
X145796000Y-91948000D02*
X144272000Y-90424000D01*
X145796000Y-112522000D02*
X145796000Y-91948000D01*
X150749000Y-114427000D02*
X147701000Y-114427000D01*
X147701000Y-114427000D02*
X145796000Y-112522000D01*
X137030000Y-90424000D02*
X136892500Y-90561500D01*
%TO.N,/V{slash}Ohm In*%
X172720000Y-134493000D02*
X172720000Y-129794000D01*
X167640000Y-142748000D02*
X167640000Y-139573000D01*
X167640000Y-139573000D02*
X172720000Y-134493000D01*
X172720000Y-129794000D02*
X174244000Y-128270000D01*
D28*
%TO.N,/A ADC In*%
X167894000Y-124460000D02*
X169926000Y-126492000D01*
X167894000Y-118902000D02*
X167894000Y-124460000D01*
X170180000Y-116616000D02*
X167894000Y-118902000D01*
X155930600Y-126492000D02*
X169926000Y-126492000D01*
D27*
%TO.N,+3.3V*%
X146558000Y-59182000D02*
X128524000Y-59182000D01*
X164338000Y-59182000D02*
X146558000Y-59182000D01*
%TO.N,GND*%
X141732000Y-92456000D02*
X143764000Y-94488000D01*
X128270000Y-94488000D02*
X130302000Y-92456000D01*
X130302000Y-92456000D02*
X141732000Y-92456000D01*
X131064000Y-60452000D02*
X156718000Y-60452000D01*
X128016000Y-90170000D02*
X128016000Y-75946000D01*
X125496000Y-66020000D02*
X131064000Y-60452000D01*
X156758000Y-60492000D02*
X156718000Y-60452000D01*
X128016000Y-75946000D02*
X125496000Y-73426000D01*
X161798000Y-60492000D02*
X156758000Y-60492000D01*
X125496000Y-73426000D02*
X125496000Y-66020000D01*
X130302000Y-92456000D02*
X128016000Y-90170000D01*
%TO.N,/Input Common*%
X150622000Y-89660957D02*
X150620957Y-89662000D01*
X150620957Y-89662000D02*
X134366000Y-89662000D01*
X134366000Y-89662000D02*
X134361000Y-89657000D01*
%TO.N,/mA ADC In*%
X159766000Y-106934000D02*
X156464000Y-103632000D01*
X151499371Y-88392000D02*
X140716000Y-88392000D01*
X156464000Y-93356629D02*
X151499371Y-88392000D01*
X156464000Y-103632000D02*
X156464000Y-93356629D01*
D28*
%TO.N,/A ADC In*%
X168656000Y-95504000D02*
X165100000Y-91948000D01*
D27*
X144526000Y-87122000D02*
X155956000Y-87122000D01*
D28*
X170180000Y-95504000D02*
X168656000Y-95504000D01*
X165100000Y-91948000D02*
X160782000Y-91948000D01*
D27*
X155956000Y-87122000D02*
X160782000Y-91948000D01*
D28*
X170180000Y-116616000D02*
X170180000Y-95504000D01*
D27*
%TO.N,/MISO*%
X138938000Y-61468000D02*
X143510000Y-61468000D01*
%TO.N,/V{slash}Ohm ADC In*%
X132096500Y-91461500D02*
X131821000Y-91186000D01*
X139446000Y-91440000D02*
X139424500Y-91461500D01*
X139424500Y-91461500D02*
X132096500Y-91461500D01*
%TD*%
%TA.AperFunction,NonConductor*%
G36*
X129460231Y-53405325D02*
G01*
X129580053Y-53454667D01*
X129683129Y-53533198D01*
X129762510Y-53635621D01*
X129812840Y-53755031D01*
X129830728Y-53883373D01*
X129814966Y-54011994D01*
X129766617Y-54132220D01*
X129688941Y-54235942D01*
X129612580Y-54296141D01*
X129593108Y-54312632D01*
X129593106Y-54312634D01*
X129403350Y-54473350D01*
X129242634Y-54663106D01*
X129242632Y-54663108D01*
X129242632Y-54663109D01*
X129115345Y-54876724D01*
X129115343Y-54876727D01*
X129115344Y-54876727D01*
X129024950Y-55108386D01*
X128973919Y-55351763D01*
X128973919Y-55351767D01*
X128967500Y-55455158D01*
X128967500Y-56680084D01*
X128952000Y-56803490D01*
X128906462Y-56919229D01*
X128833715Y-57020111D01*
X128738280Y-57099869D01*
X128626084Y-57153548D01*
X128504099Y-57177813D01*
X128238567Y-57196804D01*
X127958957Y-57257629D01*
X127690835Y-57357634D01*
X127439684Y-57494773D01*
X127187261Y-57683735D01*
X127069043Y-57749351D01*
X126937550Y-57780821D01*
X126802435Y-57775836D01*
X126673619Y-57734761D01*
X126560557Y-57660612D01*
X126471552Y-57558833D01*
X126413138Y-57436896D01*
X126389603Y-57303753D01*
X126402673Y-57169186D01*
X126403923Y-57163914D01*
X126444500Y-56816759D01*
X126444500Y-56467241D01*
X126403923Y-56120086D01*
X126323319Y-55779989D01*
X126203777Y-55451549D01*
X126046913Y-55139207D01*
X125854849Y-54847189D01*
X125700388Y-54663109D01*
X125630183Y-54579441D01*
X125422852Y-54383835D01*
X125375953Y-54339588D01*
X125306332Y-54287757D01*
X125207944Y-54190633D01*
X125139980Y-54070235D01*
X125107661Y-53935810D01*
X125113468Y-53797676D01*
X125156956Y-53666437D01*
X125234785Y-53552169D01*
X125340982Y-53463642D01*
X125467394Y-53407653D01*
X125604317Y-53388500D01*
X129331745Y-53388500D01*
X129460231Y-53405325D01*
G37*
%TD.AperFunction*%
%TA.AperFunction,NonConductor*%
G36*
X126151950Y-58519222D02*
G01*
X126280772Y-58571387D01*
X126390209Y-58657058D01*
X126471772Y-58769590D01*
X126519135Y-58900253D01*
X126528623Y-59038911D01*
X126518389Y-59181998D01*
X126538804Y-59467432D01*
X126599629Y-59747042D01*
X126699634Y-60015164D01*
X126836771Y-60266311D01*
X126836774Y-60266315D01*
X127008261Y-60495395D01*
X127210605Y-60697739D01*
X127437453Y-60867555D01*
X127537882Y-60967985D01*
X127605950Y-61092642D01*
X127636141Y-61231426D01*
X127626008Y-61373094D01*
X127576374Y-61506169D01*
X127491258Y-61619870D01*
X125884346Y-63226783D01*
X125781000Y-63306084D01*
X125660651Y-63355934D01*
X125531500Y-63372937D01*
X125402349Y-63355934D01*
X125282000Y-63306084D01*
X125178654Y-63226783D01*
X125099353Y-63123437D01*
X125049503Y-63003088D01*
X125032500Y-62873937D01*
X125032500Y-61043158D01*
X125032499Y-61043157D01*
X125026081Y-60939763D01*
X124975050Y-60696386D01*
X124884656Y-60464727D01*
X124757366Y-60251106D01*
X124629454Y-60100082D01*
X124557940Y-59988364D01*
X124518385Y-59861742D01*
X124513591Y-59729173D01*
X124543896Y-59600025D01*
X124607159Y-59483426D01*
X124698908Y-59387616D01*
X124769406Y-59345316D01*
X124767734Y-59342420D01*
X124792897Y-59327891D01*
X124792904Y-59327889D01*
X125095596Y-59153130D01*
X125375953Y-58944412D01*
X125630183Y-58704558D01*
X125648637Y-58682565D01*
X125751925Y-58589579D01*
X125876857Y-58528685D01*
X126013738Y-58504610D01*
X126151950Y-58519222D01*
G37*
%TD.AperFunction*%
%TA.AperFunction,NonConductor*%
G36*
X123049312Y-69374891D02*
G01*
X123156697Y-69413314D01*
X123304573Y-69486238D01*
X123428089Y-69528166D01*
X123456899Y-69537946D01*
X123568276Y-69591968D01*
X123662927Y-69671743D01*
X123735030Y-69772362D01*
X123780146Y-69887634D01*
X123795500Y-70010464D01*
X123795500Y-73278310D01*
X123793055Y-73314720D01*
X123795408Y-73437487D01*
X123795500Y-73447047D01*
X123795500Y-73491185D01*
X123795651Y-73493153D01*
X123797022Y-73521774D01*
X123798312Y-73589100D01*
X123802628Y-73613889D01*
X123808558Y-73661268D01*
X123810484Y-73686345D01*
X123825827Y-73751911D01*
X123831555Y-73780003D01*
X123843107Y-73846342D01*
X123851152Y-73870168D01*
X123864248Y-73916099D01*
X123869977Y-73940581D01*
X123895153Y-74003048D01*
X123905100Y-74029934D01*
X123926642Y-74093729D01*
X123938228Y-74116044D01*
X123958184Y-74159441D01*
X123967583Y-74182761D01*
X124002001Y-74240656D01*
X124015932Y-74265700D01*
X124043630Y-74319043D01*
X124046964Y-74325465D01*
X124061820Y-74345750D01*
X124088161Y-74385583D01*
X124101016Y-74407206D01*
X124143863Y-74459161D01*
X124161462Y-74481796D01*
X124201248Y-74536119D01*
X124219020Y-74553890D01*
X124251148Y-74589251D01*
X124267148Y-74608652D01*
X124317422Y-74653456D01*
X124338269Y-74673139D01*
X126169346Y-76504216D01*
X126248647Y-76607562D01*
X126298497Y-76727911D01*
X126315500Y-76857062D01*
X126315500Y-79856325D01*
X126300146Y-79979155D01*
X126255030Y-80094427D01*
X126182927Y-80195046D01*
X126088276Y-80274821D01*
X125976900Y-80328843D01*
X125844569Y-80373763D01*
X125696701Y-80446684D01*
X125589311Y-80485109D01*
X125476000Y-80498144D01*
X125362689Y-80485109D01*
X125255299Y-80446684D01*
X125107426Y-80373761D01*
X124815662Y-80274721D01*
X124815661Y-80274720D01*
X124815659Y-80274720D01*
X124714472Y-80254592D01*
X124513459Y-80214608D01*
X124206000Y-80194457D01*
X123898540Y-80214608D01*
X123596336Y-80274721D01*
X123444991Y-80326096D01*
X123331507Y-80350368D01*
X123215485Y-80347769D01*
X123103207Y-80318443D01*
X122945614Y-80256950D01*
X122702237Y-80205919D01*
X122598842Y-80199500D01*
X120895000Y-80199500D01*
X120765849Y-80182497D01*
X120645500Y-80132647D01*
X120542154Y-80053346D01*
X120462853Y-79950000D01*
X120413003Y-79829651D01*
X120396000Y-79700500D01*
X120396000Y-70057478D01*
X120414232Y-69923826D01*
X120467594Y-69799941D01*
X120552189Y-69694875D01*
X120661833Y-69616304D01*
X120788515Y-69569972D01*
X120922979Y-69559263D01*
X121024260Y-69578917D01*
X121024264Y-69578899D01*
X121028216Y-69579685D01*
X121055398Y-69584960D01*
X121056341Y-69585280D01*
X121358540Y-69645391D01*
X121666000Y-69665543D01*
X121973460Y-69645391D01*
X122275659Y-69585280D01*
X122567427Y-69486238D01*
X122715302Y-69413314D01*
X122822688Y-69374891D01*
X122936000Y-69361855D01*
X123049312Y-69374891D01*
G37*
%TD.AperFunction*%
%TA.AperFunction,NonConductor*%
G36*
X157287811Y-83460480D02*
G01*
X157412602Y-83507915D01*
X157520351Y-83586739D01*
X157603344Y-83691310D01*
X157655641Y-83814142D01*
X157673500Y-83946445D01*
X157673500Y-85002842D01*
X157679919Y-85106237D01*
X157701978Y-85211443D01*
X157711910Y-85340043D01*
X157688544Y-85466899D01*
X157633442Y-85583527D01*
X157550286Y-85682135D01*
X157444633Y-85756133D01*
X157323541Y-85800577D01*
X157195103Y-85812496D01*
X157067901Y-85791095D01*
X156950435Y-85737804D01*
X156906536Y-85710555D01*
X156882615Y-85694737D01*
X156873088Y-85688036D01*
X156839902Y-85664693D01*
X156827542Y-85655999D01*
X156805006Y-85644841D01*
X156763267Y-85621623D01*
X156741903Y-85608362D01*
X156679945Y-85582000D01*
X156653896Y-85570022D01*
X156593547Y-85540141D01*
X156593446Y-85540109D01*
X156569574Y-85532554D01*
X156524769Y-85515975D01*
X156501638Y-85506133D01*
X156436373Y-85489536D01*
X156408811Y-85481678D01*
X156344605Y-85461359D01*
X156344603Y-85461358D01*
X156344601Y-85461358D01*
X156319754Y-85457520D01*
X156272969Y-85447981D01*
X156258186Y-85444222D01*
X156248583Y-85441780D01*
X156234045Y-85440383D01*
X156191037Y-85436251D01*
X156058896Y-85404994D01*
X155940071Y-85339268D01*
X155843366Y-85243941D01*
X155775940Y-85126072D01*
X155742789Y-84994390D01*
X155746366Y-84858646D01*
X155786406Y-84728892D01*
X155859945Y-84614737D01*
X155961530Y-84524639D01*
X156119964Y-84418778D01*
X156351620Y-84215620D01*
X156554778Y-83983964D01*
X156725960Y-83727772D01*
X156726962Y-83725739D01*
X156801493Y-83614983D01*
X156902725Y-83527949D01*
X157023410Y-83470869D01*
X157154909Y-83447830D01*
X157287811Y-83460480D01*
G37*
%TD.AperFunction*%
%TA.AperFunction,NonConductor*%
G36*
X140829310Y-84614890D02*
G01*
X140936701Y-84653316D01*
X141077011Y-84722509D01*
X141084573Y-84726238D01*
X141376341Y-84825280D01*
X141678540Y-84885391D01*
X141986000Y-84905543D01*
X142293460Y-84885391D01*
X142595659Y-84825280D01*
X142685465Y-84794794D01*
X142816481Y-84769180D01*
X142949605Y-84779218D01*
X143075304Y-84824193D01*
X143184580Y-84900886D01*
X143269610Y-85003807D01*
X143324310Y-85125589D01*
X143344763Y-85257515D01*
X143329506Y-85390143D01*
X143279630Y-85513979D01*
X143198706Y-85620159D01*
X143010264Y-85808601D01*
X142838771Y-86037688D01*
X142701634Y-86288835D01*
X142672524Y-86366883D01*
X142616896Y-86474157D01*
X142537113Y-86564914D01*
X142437853Y-86633832D01*
X142324937Y-86676868D01*
X142204986Y-86691500D01*
X141903369Y-86691500D01*
X141779963Y-86676000D01*
X141664223Y-86630462D01*
X141549161Y-86567633D01*
X141400918Y-86512341D01*
X141281042Y-86467629D01*
X141001432Y-86406804D01*
X140716000Y-86386389D01*
X140430567Y-86406804D01*
X140150957Y-86467629D01*
X139882835Y-86567634D01*
X139631688Y-86704771D01*
X139402602Y-86876263D01*
X139200263Y-87078602D01*
X139028771Y-87307688D01*
X138891634Y-87558835D01*
X138862524Y-87636883D01*
X138806896Y-87744157D01*
X138727113Y-87834914D01*
X138627853Y-87903832D01*
X138514937Y-87946868D01*
X138394986Y-87961500D01*
X137194297Y-87961500D01*
X137059896Y-87943060D01*
X136935429Y-87889101D01*
X136830095Y-87803613D01*
X136751679Y-87692913D01*
X136705976Y-87565183D01*
X136696365Y-87429865D01*
X136704372Y-87307688D01*
X136716543Y-87122000D01*
X136696391Y-86814540D01*
X136636280Y-86512341D01*
X136537238Y-86220573D01*
X136400960Y-85944229D01*
X136229778Y-85688036D01*
X136229774Y-85688032D01*
X136214180Y-85664693D01*
X136154005Y-85540109D01*
X136130351Y-85403790D01*
X136145038Y-85266217D01*
X136196937Y-85137964D01*
X136282058Y-85028892D01*
X136393857Y-84947385D01*
X136523739Y-84899710D01*
X136661719Y-84889532D01*
X136906000Y-84905543D01*
X137213460Y-84885391D01*
X137515659Y-84825280D01*
X137807427Y-84726238D01*
X137955300Y-84653315D01*
X138062686Y-84614891D01*
X138175998Y-84601855D01*
X138289310Y-84614890D01*
X138396701Y-84653316D01*
X138537011Y-84722509D01*
X138544573Y-84726238D01*
X138836341Y-84825280D01*
X139138540Y-84885391D01*
X139446000Y-84905543D01*
X139753460Y-84885391D01*
X140055659Y-84825280D01*
X140347427Y-84726238D01*
X140495300Y-84653315D01*
X140602686Y-84614891D01*
X140715998Y-84601855D01*
X140829310Y-84614890D01*
G37*
%TD.AperFunction*%
%TA.AperFunction,NonConductor*%
G36*
X170188606Y-53407653D02*
G01*
X170315018Y-53463642D01*
X170421215Y-53552169D01*
X170499044Y-53666437D01*
X170542532Y-53797676D01*
X170548339Y-53935810D01*
X170516020Y-54070235D01*
X170448056Y-54190633D01*
X170349667Y-54287757D01*
X170316253Y-54312634D01*
X170280042Y-54339592D01*
X170025816Y-54579441D01*
X169801152Y-54847187D01*
X169609085Y-55139208D01*
X169452224Y-55451546D01*
X169332681Y-55779987D01*
X169252076Y-56120089D01*
X169211500Y-56467242D01*
X169211500Y-56816758D01*
X169252076Y-57163910D01*
X169332681Y-57504012D01*
X169452224Y-57832453D01*
X169609085Y-58144791D01*
X169801152Y-58436812D01*
X170025816Y-58704558D01*
X170280047Y-58944413D01*
X170554335Y-59148611D01*
X170560404Y-59153130D01*
X170863096Y-59327889D01*
X170863101Y-59327891D01*
X170888266Y-59342420D01*
X170886593Y-59345316D01*
X170957108Y-59387629D01*
X171048851Y-59483440D01*
X171112108Y-59600038D01*
X171142409Y-59729183D01*
X171137613Y-59861748D01*
X171098058Y-59988366D01*
X171026542Y-60100085D01*
X170898634Y-60251106D01*
X170898632Y-60251108D01*
X170898632Y-60251109D01*
X170771345Y-60464724D01*
X170771343Y-60464727D01*
X170771344Y-60464727D01*
X170680950Y-60696386D01*
X170629919Y-60939763D01*
X170623500Y-61043158D01*
X170623500Y-62908842D01*
X170629919Y-63012237D01*
X170680950Y-63255614D01*
X170771344Y-63487273D01*
X170898634Y-63700894D01*
X171059350Y-63890650D01*
X171249106Y-64051366D01*
X171462727Y-64178656D01*
X171694386Y-64269050D01*
X171937763Y-64320081D01*
X172041158Y-64326500D01*
X173906842Y-64326500D01*
X174010237Y-64320081D01*
X174253614Y-64269050D01*
X174485273Y-64178656D01*
X174505573Y-64166559D01*
X174626046Y-64114825D01*
X174755842Y-64096256D01*
X174885994Y-64112137D01*
X175007516Y-64161373D01*
X175112018Y-64240564D01*
X175192284Y-64344241D01*
X175242774Y-64465248D01*
X175260000Y-64595229D01*
X175260000Y-92452898D01*
X175240670Y-92590441D01*
X175184176Y-92717328D01*
X175094896Y-92823728D01*
X174979746Y-92901397D01*
X174847649Y-92944317D01*
X174708839Y-92949164D01*
X174574070Y-92915562D01*
X174453783Y-92846114D01*
X174357301Y-92746203D01*
X174298034Y-92664629D01*
X174285282Y-92646222D01*
X174229569Y-92561820D01*
X174229567Y-92561817D01*
X174166483Y-92482712D01*
X174152948Y-92464935D01*
X174093489Y-92383097D01*
X174026935Y-92306920D01*
X174012613Y-92289766D01*
X173949529Y-92210661D01*
X173949527Y-92210659D01*
X173949520Y-92210650D01*
X173879634Y-92137555D01*
X173864527Y-92121028D01*
X173810585Y-92059287D01*
X173797979Y-92044858D01*
X173797974Y-92044853D01*
X173724873Y-91974961D01*
X173709036Y-91959125D01*
X173639145Y-91886024D01*
X173639142Y-91886021D01*
X173562958Y-91819461D01*
X173546445Y-91804367D01*
X173526080Y-91784896D01*
X173473339Y-91734471D01*
X173473334Y-91734467D01*
X173473332Y-91734465D01*
X173394266Y-91671411D01*
X173377081Y-91657065D01*
X173300900Y-91590508D01*
X173219080Y-91531062D01*
X173201269Y-91517501D01*
X173122186Y-91454435D01*
X173094075Y-91435879D01*
X173037756Y-91398703D01*
X173019361Y-91385959D01*
X173008406Y-91378000D01*
X172937537Y-91326510D01*
X172850721Y-91274640D01*
X172831758Y-91262725D01*
X172747337Y-91206999D01*
X172716784Y-91190558D01*
X172617152Y-91119981D01*
X172537642Y-91027323D01*
X172483014Y-90918129D01*
X172456537Y-90798938D01*
X172459799Y-90676885D01*
X172492602Y-90559278D01*
X172552980Y-90453162D01*
X172691130Y-90267596D01*
X172865889Y-89964904D01*
X173004326Y-89643971D01*
X173104569Y-89309136D01*
X173165262Y-88964927D01*
X173185585Y-88616000D01*
X173165262Y-88267073D01*
X173104569Y-87922864D01*
X173004326Y-87588029D01*
X172865889Y-87267096D01*
X172691130Y-86964404D01*
X172666080Y-86930756D01*
X172482413Y-86684047D01*
X172242558Y-86429816D01*
X171993188Y-86220571D01*
X171974811Y-86205151D01*
X171805053Y-86093499D01*
X171682791Y-86013085D01*
X171370453Y-85856224D01*
X171370452Y-85856223D01*
X171370451Y-85856223D01*
X171217564Y-85800577D01*
X171042012Y-85736681D01*
X170701910Y-85656076D01*
X170394619Y-85620159D01*
X170354759Y-85615500D01*
X170005241Y-85615500D01*
X169965381Y-85620159D01*
X169658089Y-85656076D01*
X169317987Y-85736681D01*
X168989546Y-85856224D01*
X168677208Y-86013085D01*
X168385187Y-86205152D01*
X168117441Y-86429816D01*
X167877586Y-86684047D01*
X167668868Y-86964406D01*
X167592188Y-87097219D01*
X167519856Y-87193457D01*
X167426579Y-87269570D01*
X167317788Y-87321128D01*
X167199815Y-87345130D01*
X167079527Y-87340178D01*
X166963925Y-87306562D01*
X166901843Y-87280027D01*
X166858821Y-87261639D01*
X166858818Y-87261638D01*
X166821351Y-87249463D01*
X166789796Y-87238022D01*
X166753236Y-87223357D01*
X166653666Y-87193457D01*
X166597220Y-87176507D01*
X166586561Y-87173175D01*
X166505925Y-87146975D01*
X166431658Y-87122845D01*
X166427956Y-87122000D01*
X166393246Y-87114077D01*
X166360787Y-87105509D01*
X166323054Y-87094178D01*
X166163452Y-87061499D01*
X166152554Y-87059140D01*
X166055821Y-87037062D01*
X165993771Y-87022900D01*
X165962011Y-87018598D01*
X165954728Y-87017611D01*
X165921640Y-87011989D01*
X165883040Y-87004086D01*
X165721171Y-86985847D01*
X165710066Y-86984469D01*
X165548691Y-86962610D01*
X165509341Y-86960843D01*
X165475866Y-86958209D01*
X165436717Y-86953798D01*
X165355553Y-86951976D01*
X165273899Y-86950143D01*
X165262719Y-86949767D01*
X165222336Y-86947954D01*
X165212223Y-86947500D01*
X165212222Y-86947500D01*
X165201040Y-86946998D01*
X165201123Y-86945141D01*
X165090999Y-86930756D01*
X164971422Y-86881648D01*
X164868471Y-86803472D01*
X164789056Y-86701473D01*
X164738507Y-86582497D01*
X164720215Y-86454529D01*
X164735409Y-86326157D01*
X164783069Y-86205994D01*
X164859996Y-86102107D01*
X164961027Y-86021465D01*
X164974886Y-86013087D01*
X165055952Y-85964081D01*
X165303602Y-85770060D01*
X165526060Y-85547602D01*
X165720081Y-85299952D01*
X165882837Y-85030721D01*
X166011954Y-84743835D01*
X166105549Y-84443478D01*
X166162258Y-84134029D01*
X166181253Y-83820000D01*
X166162258Y-83505971D01*
X166105549Y-83196522D01*
X166011954Y-82896165D01*
X165882837Y-82609279D01*
X165720081Y-82340048D01*
X165681173Y-82290386D01*
X165526058Y-82092395D01*
X165303604Y-81869941D01*
X165055954Y-81675920D01*
X164786718Y-81513161D01*
X164499834Y-81384045D01*
X164199476Y-81290450D01*
X163890033Y-81233742D01*
X163576000Y-81214747D01*
X163261966Y-81233742D01*
X162952523Y-81290450D01*
X162652161Y-81384047D01*
X162553665Y-81428376D01*
X162439598Y-81464020D01*
X162320327Y-81471520D01*
X162202693Y-81450446D01*
X162093445Y-81402006D01*
X162035273Y-81367344D01*
X161803614Y-81276950D01*
X161560237Y-81225919D01*
X161456842Y-81219500D01*
X159091158Y-81219500D01*
X158987763Y-81225919D01*
X158793061Y-81266743D01*
X158744385Y-81276950D01*
X158512724Y-81367345D01*
X158373263Y-81450446D01*
X158299106Y-81494634D01*
X158154443Y-81617158D01*
X158109350Y-81655350D01*
X157948633Y-81845107D01*
X157852592Y-82006286D01*
X157763622Y-82116377D01*
X157647320Y-82197056D01*
X157513042Y-82241833D01*
X157371593Y-82247103D01*
X157234355Y-82212444D01*
X157112371Y-82140644D01*
X157015455Y-82037480D01*
X156951406Y-81911253D01*
X156871521Y-81675920D01*
X156862238Y-81648573D01*
X156725960Y-81372229D01*
X156657911Y-81270386D01*
X156554780Y-81116038D01*
X156486979Y-81038727D01*
X156351620Y-80884380D01*
X156119964Y-80681222D01*
X155955999Y-80571664D01*
X155863774Y-80510041D01*
X155813217Y-80485109D01*
X155587427Y-80373762D01*
X155587423Y-80373760D01*
X155587422Y-80373760D01*
X155295662Y-80274721D01*
X155295661Y-80274720D01*
X155295659Y-80274720D01*
X155194472Y-80254592D01*
X154993459Y-80214608D01*
X154686000Y-80194457D01*
X154378540Y-80214608D01*
X154127614Y-80264521D01*
X154076341Y-80274720D01*
X154076339Y-80274720D01*
X154076337Y-80274721D01*
X153784573Y-80373761D01*
X153636701Y-80446684D01*
X153529311Y-80485109D01*
X153416000Y-80498144D01*
X153302689Y-80485109D01*
X153195299Y-80446684D01*
X153047426Y-80373761D01*
X152755662Y-80274721D01*
X152755661Y-80274720D01*
X152755659Y-80274720D01*
X152654472Y-80254592D01*
X152453459Y-80214608D01*
X152146000Y-80194457D01*
X151838540Y-80214608D01*
X151587614Y-80264521D01*
X151536341Y-80274720D01*
X151536339Y-80274720D01*
X151536337Y-80274721D01*
X151244573Y-80373761D01*
X151096701Y-80446684D01*
X150989311Y-80485109D01*
X150876000Y-80498144D01*
X150762689Y-80485109D01*
X150655299Y-80446684D01*
X150507426Y-80373761D01*
X150215662Y-80274721D01*
X150215661Y-80274720D01*
X150215659Y-80274720D01*
X150114472Y-80254592D01*
X149913459Y-80214608D01*
X149606000Y-80194457D01*
X149298540Y-80214608D01*
X149047614Y-80264521D01*
X148996341Y-80274720D01*
X148996339Y-80274720D01*
X148996337Y-80274721D01*
X148704573Y-80373761D01*
X148556701Y-80446684D01*
X148449311Y-80485109D01*
X148336000Y-80498144D01*
X148222689Y-80485109D01*
X148115299Y-80446684D01*
X147967426Y-80373761D01*
X147675662Y-80274721D01*
X147675661Y-80274720D01*
X147675659Y-80274720D01*
X147574472Y-80254592D01*
X147373459Y-80214608D01*
X147066000Y-80194457D01*
X146758540Y-80214608D01*
X146507614Y-80264521D01*
X146456341Y-80274720D01*
X146456339Y-80274720D01*
X146456337Y-80274721D01*
X146164573Y-80373761D01*
X146016701Y-80446684D01*
X145909311Y-80485109D01*
X145796000Y-80498144D01*
X145682689Y-80485109D01*
X145575299Y-80446684D01*
X145427426Y-80373761D01*
X145135662Y-80274721D01*
X145135661Y-80274720D01*
X145135659Y-80274720D01*
X145034472Y-80254592D01*
X144833459Y-80214608D01*
X144526000Y-80194457D01*
X144218540Y-80214608D01*
X143967614Y-80264521D01*
X143916341Y-80274720D01*
X143916339Y-80274720D01*
X143916337Y-80274721D01*
X143624573Y-80373761D01*
X143476701Y-80446684D01*
X143369311Y-80485109D01*
X143256000Y-80498144D01*
X143142689Y-80485109D01*
X143035299Y-80446684D01*
X142887426Y-80373761D01*
X142595662Y-80274721D01*
X142595661Y-80274720D01*
X142595659Y-80274720D01*
X142494472Y-80254592D01*
X142293459Y-80214608D01*
X141986000Y-80194457D01*
X141678540Y-80214608D01*
X141427614Y-80264521D01*
X141376341Y-80274720D01*
X141376339Y-80274720D01*
X141376337Y-80274721D01*
X141084573Y-80373761D01*
X140936701Y-80446684D01*
X140829311Y-80485109D01*
X140716000Y-80498144D01*
X140602689Y-80485109D01*
X140495299Y-80446684D01*
X140347426Y-80373761D01*
X140055662Y-80274721D01*
X140055661Y-80274720D01*
X140055659Y-80274720D01*
X139954472Y-80254592D01*
X139753459Y-80214608D01*
X139446000Y-80194457D01*
X139138540Y-80214608D01*
X138887614Y-80264521D01*
X138836341Y-80274720D01*
X138836339Y-80274720D01*
X138836337Y-80274721D01*
X138544573Y-80373761D01*
X138396701Y-80446684D01*
X138289311Y-80485109D01*
X138176000Y-80498144D01*
X138062689Y-80485109D01*
X137955299Y-80446684D01*
X137807426Y-80373761D01*
X137515662Y-80274721D01*
X137515661Y-80274720D01*
X137515659Y-80274720D01*
X137414472Y-80254592D01*
X137213459Y-80214608D01*
X136906000Y-80194457D01*
X136598540Y-80214608D01*
X136347614Y-80264521D01*
X136296341Y-80274720D01*
X136296339Y-80274720D01*
X136296337Y-80274721D01*
X136004573Y-80373761D01*
X135856701Y-80446684D01*
X135749311Y-80485109D01*
X135636000Y-80498144D01*
X135522689Y-80485109D01*
X135415299Y-80446684D01*
X135267426Y-80373761D01*
X134975662Y-80274721D01*
X134975661Y-80274720D01*
X134975659Y-80274720D01*
X134874472Y-80254592D01*
X134673459Y-80214608D01*
X134366000Y-80194457D01*
X134058540Y-80214608D01*
X133807614Y-80264521D01*
X133756341Y-80274720D01*
X133756339Y-80274720D01*
X133756337Y-80274721D01*
X133464573Y-80373761D01*
X133316701Y-80446684D01*
X133209311Y-80485109D01*
X133096000Y-80498144D01*
X132982689Y-80485109D01*
X132875299Y-80446684D01*
X132727426Y-80373761D01*
X132435662Y-80274721D01*
X132435661Y-80274720D01*
X132435659Y-80274720D01*
X132334472Y-80254592D01*
X132133459Y-80214608D01*
X131826000Y-80194457D01*
X131518540Y-80214608D01*
X131267614Y-80264521D01*
X131216341Y-80274720D01*
X131216339Y-80274720D01*
X131216337Y-80274721D01*
X130924573Y-80373761D01*
X130776701Y-80446684D01*
X130669311Y-80485109D01*
X130556000Y-80498144D01*
X130442689Y-80485109D01*
X130335299Y-80446684D01*
X130187430Y-80373763D01*
X130055100Y-80328843D01*
X129943724Y-80274821D01*
X129849073Y-80195046D01*
X129776970Y-80094427D01*
X129731854Y-79979155D01*
X129716500Y-79856325D01*
X129716500Y-76093690D01*
X129718944Y-76057279D01*
X129716592Y-75934513D01*
X129716500Y-75924953D01*
X129716500Y-75880829D01*
X129716351Y-75878890D01*
X129714976Y-75850219D01*
X129713687Y-75782896D01*
X129709371Y-75758112D01*
X129703440Y-75710727D01*
X129702003Y-75691999D01*
X164876671Y-75691999D01*
X164895966Y-75986381D01*
X164917311Y-76093690D01*
X164953519Y-76275722D01*
X165048348Y-76555077D01*
X165178828Y-76819665D01*
X165342727Y-77064957D01*
X165342729Y-77064959D01*
X165537241Y-77286758D01*
X165693346Y-77423658D01*
X165759043Y-77481273D01*
X166004335Y-77645172D01*
X166268923Y-77775652D01*
X166548278Y-77870481D01*
X166837620Y-77928034D01*
X167132000Y-77947329D01*
X167426380Y-77928034D01*
X167715722Y-77870481D01*
X167995077Y-77775652D01*
X168259665Y-77645172D01*
X168504957Y-77481273D01*
X168726758Y-77286758D01*
X168921273Y-77064957D01*
X169085172Y-76819665D01*
X169215652Y-76555077D01*
X169310481Y-76275722D01*
X169368034Y-75986380D01*
X169387329Y-75692000D01*
X169368034Y-75397620D01*
X169310481Y-75108278D01*
X169215652Y-74828923D01*
X169085172Y-74564336D01*
X168980183Y-74407208D01*
X168921275Y-74319045D01*
X168726754Y-74097238D01*
X168504959Y-73902729D01*
X168504960Y-73902729D01*
X168504957Y-73902727D01*
X168259665Y-73738828D01*
X168259663Y-73738827D01*
X168058326Y-73639538D01*
X167943920Y-73561733D01*
X167855276Y-73455504D01*
X167799209Y-73329017D01*
X167780029Y-73191997D01*
X167799210Y-73054977D01*
X167855278Y-72928491D01*
X167943923Y-72822263D01*
X168058320Y-72744464D01*
X168259665Y-72645172D01*
X168504957Y-72481273D01*
X168726758Y-72286758D01*
X168921273Y-72064957D01*
X169085172Y-71819665D01*
X169215652Y-71555077D01*
X169310481Y-71275722D01*
X169368034Y-70986380D01*
X169387329Y-70692000D01*
X169368034Y-70397620D01*
X169310481Y-70108278D01*
X169215652Y-69828923D01*
X169085172Y-69564336D01*
X169058465Y-69524366D01*
X168921275Y-69319045D01*
X168726754Y-69097238D01*
X168504959Y-68902729D01*
X168504960Y-68902729D01*
X168504957Y-68902727D01*
X168267349Y-68743962D01*
X168259667Y-68738829D01*
X168259663Y-68738827D01*
X167995077Y-68608348D01*
X167715722Y-68513519D01*
X167586282Y-68487772D01*
X167426381Y-68455966D01*
X167132000Y-68436671D01*
X166837618Y-68455966D01*
X166548277Y-68513519D01*
X166268919Y-68608349D01*
X166004336Y-68738827D01*
X165759045Y-68902724D01*
X165537242Y-69097242D01*
X165342724Y-69319045D01*
X165178827Y-69564336D01*
X165048349Y-69828919D01*
X164970763Y-70057478D01*
X164953519Y-70108278D01*
X164895966Y-70397620D01*
X164876671Y-70692000D01*
X164895966Y-70986380D01*
X164953519Y-71275722D01*
X165048348Y-71555077D01*
X165178828Y-71819665D01*
X165342727Y-72064957D01*
X165342729Y-72064959D01*
X165537241Y-72286758D01*
X165693346Y-72423658D01*
X165759043Y-72481273D01*
X166002714Y-72644089D01*
X166004338Y-72645174D01*
X166205672Y-72744461D01*
X166320078Y-72822265D01*
X166408722Y-72928494D01*
X166464789Y-73054980D01*
X166483970Y-73192000D01*
X166464790Y-73329019D01*
X166408722Y-73455505D01*
X166320079Y-73561734D01*
X166205673Y-73639539D01*
X166004334Y-73738828D01*
X165759045Y-73902724D01*
X165537242Y-74097242D01*
X165342724Y-74319045D01*
X165178827Y-74564336D01*
X165048349Y-74828919D01*
X164953519Y-75108277D01*
X164895966Y-75397618D01*
X164876671Y-75691999D01*
X129702003Y-75691999D01*
X129701516Y-75685656D01*
X129686163Y-75620049D01*
X129680443Y-75591991D01*
X129668892Y-75525658D01*
X129660852Y-75501849D01*
X129647748Y-75455890D01*
X129642021Y-75431415D01*
X129642021Y-75431414D01*
X129616840Y-75368936D01*
X129606900Y-75342072D01*
X129585357Y-75278270D01*
X129573768Y-75255949D01*
X129553811Y-75212550D01*
X129544414Y-75189234D01*
X129544413Y-75189233D01*
X129509994Y-75131338D01*
X129496078Y-75106321D01*
X129465036Y-75046535D01*
X129450176Y-75026246D01*
X129423835Y-74986410D01*
X129410984Y-74964794D01*
X129368140Y-74912843D01*
X129350538Y-74890204D01*
X129310750Y-74835879D01*
X129292973Y-74818102D01*
X129260846Y-74782741D01*
X129244854Y-74763349D01*
X129194576Y-74718542D01*
X129173728Y-74698858D01*
X127342654Y-72867784D01*
X127263353Y-72764438D01*
X127213503Y-72644089D01*
X127196500Y-72514938D01*
X127196500Y-69996885D01*
X127211854Y-69874054D01*
X127256971Y-69758782D01*
X127329074Y-69658163D01*
X127423726Y-69578388D01*
X127535096Y-69524369D01*
X127647427Y-69486238D01*
X127795302Y-69413314D01*
X127902688Y-69374891D01*
X128016000Y-69361855D01*
X128129312Y-69374891D01*
X128236697Y-69413314D01*
X128384573Y-69486238D01*
X128676341Y-69585280D01*
X128978540Y-69645391D01*
X129286000Y-69665543D01*
X129593460Y-69645391D01*
X129895659Y-69585280D01*
X130187427Y-69486238D01*
X130335302Y-69413314D01*
X130442688Y-69374891D01*
X130556000Y-69361855D01*
X130669312Y-69374891D01*
X130776697Y-69413314D01*
X130924573Y-69486238D01*
X131216341Y-69585280D01*
X131518540Y-69645391D01*
X131826000Y-69665543D01*
X132133460Y-69645391D01*
X132435659Y-69585280D01*
X132727427Y-69486238D01*
X132875302Y-69413314D01*
X132982688Y-69374891D01*
X133096000Y-69361855D01*
X133209312Y-69374891D01*
X133316697Y-69413314D01*
X133464573Y-69486238D01*
X133756341Y-69585280D01*
X134058540Y-69645391D01*
X134366000Y-69665543D01*
X134673460Y-69645391D01*
X134975659Y-69585280D01*
X135267427Y-69486238D01*
X135415302Y-69413314D01*
X135522688Y-69374891D01*
X135636000Y-69361855D01*
X135749312Y-69374891D01*
X135856697Y-69413314D01*
X136004573Y-69486238D01*
X136296341Y-69585280D01*
X136598540Y-69645391D01*
X136906000Y-69665543D01*
X137213460Y-69645391D01*
X137515659Y-69585280D01*
X137807427Y-69486238D01*
X137955302Y-69413314D01*
X138062688Y-69374891D01*
X138176000Y-69361855D01*
X138289312Y-69374891D01*
X138396697Y-69413314D01*
X138544573Y-69486238D01*
X138836341Y-69585280D01*
X139138540Y-69645391D01*
X139446000Y-69665543D01*
X139753460Y-69645391D01*
X140055659Y-69585280D01*
X140347427Y-69486238D01*
X140495302Y-69413314D01*
X140602688Y-69374891D01*
X140716000Y-69361855D01*
X140829312Y-69374891D01*
X140936697Y-69413314D01*
X141084573Y-69486238D01*
X141376341Y-69585280D01*
X141678540Y-69645391D01*
X141986000Y-69665543D01*
X142293460Y-69645391D01*
X142595659Y-69585280D01*
X142887427Y-69486238D01*
X143035302Y-69413314D01*
X143142688Y-69374891D01*
X143256000Y-69361855D01*
X143369312Y-69374891D01*
X143476697Y-69413314D01*
X143624573Y-69486238D01*
X143916341Y-69585280D01*
X144218540Y-69645391D01*
X144526000Y-69665543D01*
X144833460Y-69645391D01*
X145135659Y-69585280D01*
X145427427Y-69486238D01*
X145575302Y-69413314D01*
X145682688Y-69374891D01*
X145796000Y-69361855D01*
X145909312Y-69374891D01*
X146016697Y-69413314D01*
X146164573Y-69486238D01*
X146456341Y-69585280D01*
X146758540Y-69645391D01*
X147066000Y-69665543D01*
X147373460Y-69645391D01*
X147675659Y-69585280D01*
X147967427Y-69486238D01*
X148115302Y-69413314D01*
X148222688Y-69374891D01*
X148336000Y-69361855D01*
X148449312Y-69374891D01*
X148556697Y-69413314D01*
X148704573Y-69486238D01*
X148996341Y-69585280D01*
X149298540Y-69645391D01*
X149606000Y-69665543D01*
X149913460Y-69645391D01*
X150215659Y-69585280D01*
X150507427Y-69486238D01*
X150655302Y-69413314D01*
X150762688Y-69374891D01*
X150876000Y-69361855D01*
X150989312Y-69374891D01*
X151096697Y-69413314D01*
X151244573Y-69486238D01*
X151536341Y-69585280D01*
X151838540Y-69645391D01*
X152146000Y-69665543D01*
X152453460Y-69645391D01*
X152755659Y-69585280D01*
X153047427Y-69486238D01*
X153195302Y-69413314D01*
X153302688Y-69374891D01*
X153416000Y-69361855D01*
X153529312Y-69374891D01*
X153636697Y-69413314D01*
X153784573Y-69486238D01*
X154076341Y-69585280D01*
X154378540Y-69645391D01*
X154686000Y-69665543D01*
X154993460Y-69645391D01*
X155295659Y-69585280D01*
X155587427Y-69486238D01*
X155863772Y-69349960D01*
X156119964Y-69178778D01*
X156351620Y-68975620D01*
X156554778Y-68743964D01*
X156725960Y-68487772D01*
X156862238Y-68211427D01*
X156961280Y-67919659D01*
X157021391Y-67617460D01*
X157041543Y-67310000D01*
X157021391Y-67002540D01*
X156961280Y-66700341D01*
X156862238Y-66408573D01*
X156725960Y-66132229D01*
X156725959Y-66132228D01*
X156554780Y-65876038D01*
X156514664Y-65830295D01*
X156351620Y-65644380D01*
X156119964Y-65441222D01*
X155955999Y-65331664D01*
X155863774Y-65270041D01*
X155735298Y-65206684D01*
X155587427Y-65133762D01*
X155587423Y-65133760D01*
X155587422Y-65133760D01*
X155295662Y-65034721D01*
X155295661Y-65034720D01*
X155295659Y-65034720D01*
X155194472Y-65014592D01*
X154993459Y-64974608D01*
X154686000Y-64954457D01*
X154378540Y-64974608D01*
X154127614Y-65024521D01*
X154076341Y-65034720D01*
X154076339Y-65034720D01*
X154076337Y-65034721D01*
X153784573Y-65133761D01*
X153636701Y-65206684D01*
X153529311Y-65245109D01*
X153416000Y-65258144D01*
X153302689Y-65245109D01*
X153195299Y-65206684D01*
X153047426Y-65133761D01*
X152755662Y-65034721D01*
X152755661Y-65034720D01*
X152755659Y-65034720D01*
X152654472Y-65014592D01*
X152453459Y-64974608D01*
X152146000Y-64954457D01*
X151838540Y-64974608D01*
X151587614Y-65024521D01*
X151536341Y-65034720D01*
X151536339Y-65034720D01*
X151536337Y-65034721D01*
X151244573Y-65133761D01*
X151096701Y-65206684D01*
X150989311Y-65245109D01*
X150876000Y-65258144D01*
X150762689Y-65245109D01*
X150655299Y-65206684D01*
X150507426Y-65133761D01*
X150215662Y-65034721D01*
X150215661Y-65034720D01*
X150215659Y-65034720D01*
X150114472Y-65014592D01*
X149913459Y-64974608D01*
X149606000Y-64954457D01*
X149298540Y-64974608D01*
X149047614Y-65024521D01*
X148996341Y-65034720D01*
X148996339Y-65034720D01*
X148996337Y-65034721D01*
X148704573Y-65133761D01*
X148556701Y-65206684D01*
X148449311Y-65245109D01*
X148336000Y-65258144D01*
X148222689Y-65245109D01*
X148115299Y-65206684D01*
X147967426Y-65133761D01*
X147675662Y-65034721D01*
X147675661Y-65034720D01*
X147675659Y-65034720D01*
X147574472Y-65014592D01*
X147373459Y-64974608D01*
X147066000Y-64954457D01*
X146758540Y-64974608D01*
X146507614Y-65024521D01*
X146456341Y-65034720D01*
X146456339Y-65034720D01*
X146456337Y-65034721D01*
X146164573Y-65133761D01*
X146016701Y-65206684D01*
X145909311Y-65245109D01*
X145796000Y-65258144D01*
X145682689Y-65245109D01*
X145575299Y-65206684D01*
X145427426Y-65133761D01*
X145135662Y-65034721D01*
X145135661Y-65034720D01*
X145135659Y-65034720D01*
X145034472Y-65014592D01*
X144833459Y-64974608D01*
X144526000Y-64954457D01*
X144218540Y-64974608D01*
X143967614Y-65024521D01*
X143916341Y-65034720D01*
X143916339Y-65034720D01*
X143916337Y-65034721D01*
X143624573Y-65133761D01*
X143476701Y-65206684D01*
X143369311Y-65245109D01*
X143256000Y-65258144D01*
X143142689Y-65245109D01*
X143035299Y-65206684D01*
X142887426Y-65133761D01*
X142595662Y-65034721D01*
X142595661Y-65034720D01*
X142595659Y-65034720D01*
X142494472Y-65014592D01*
X142293459Y-64974608D01*
X141986000Y-64954457D01*
X141678540Y-64974608D01*
X141427614Y-65024521D01*
X141376341Y-65034720D01*
X141376339Y-65034720D01*
X141376337Y-65034721D01*
X141084573Y-65133761D01*
X140936701Y-65206684D01*
X140829311Y-65245109D01*
X140716000Y-65258144D01*
X140602689Y-65245109D01*
X140495299Y-65206684D01*
X140347426Y-65133761D01*
X140055662Y-65034721D01*
X140055661Y-65034720D01*
X140055659Y-65034720D01*
X139954472Y-65014592D01*
X139753459Y-64974608D01*
X139446000Y-64954457D01*
X139138540Y-64974608D01*
X138887614Y-65024521D01*
X138836341Y-65034720D01*
X138836339Y-65034720D01*
X138836337Y-65034721D01*
X138544573Y-65133761D01*
X138396701Y-65206684D01*
X138289311Y-65245109D01*
X138176000Y-65258144D01*
X138062689Y-65245109D01*
X137955299Y-65206684D01*
X137807426Y-65133761D01*
X137515662Y-65034721D01*
X137515661Y-65034720D01*
X137515659Y-65034720D01*
X137414472Y-65014592D01*
X137213459Y-64974608D01*
X136906000Y-64954457D01*
X136598540Y-64974608D01*
X136347614Y-65024521D01*
X136296341Y-65034720D01*
X136296339Y-65034720D01*
X136296337Y-65034721D01*
X136004573Y-65133761D01*
X135856701Y-65206684D01*
X135749311Y-65245109D01*
X135636000Y-65258144D01*
X135522689Y-65245109D01*
X135415299Y-65206684D01*
X135267426Y-65133761D01*
X134975662Y-65034721D01*
X134975661Y-65034720D01*
X134975659Y-65034720D01*
X134874472Y-65014592D01*
X134673459Y-64974608D01*
X134366000Y-64954457D01*
X134058540Y-64974608D01*
X133807614Y-65024521D01*
X133756341Y-65034720D01*
X133756339Y-65034720D01*
X133756337Y-65034721D01*
X133464573Y-65133761D01*
X133316701Y-65206684D01*
X133209311Y-65245109D01*
X133096000Y-65258144D01*
X132982689Y-65245109D01*
X132875299Y-65206684D01*
X132727426Y-65133761D01*
X132435662Y-65034721D01*
X132435661Y-65034720D01*
X132435659Y-65034720D01*
X132334472Y-65014592D01*
X132133459Y-64974608D01*
X131826000Y-64954457D01*
X131518540Y-64974608D01*
X131267614Y-65024521D01*
X131216341Y-65034720D01*
X131216339Y-65034720D01*
X131216337Y-65034721D01*
X130924573Y-65133761D01*
X130776701Y-65206684D01*
X130669311Y-65245109D01*
X130556000Y-65258144D01*
X130442689Y-65245109D01*
X130335299Y-65206684D01*
X130187427Y-65133762D01*
X129901856Y-65036823D01*
X129788428Y-64981462D01*
X129692520Y-64899412D01*
X129620266Y-64795923D01*
X129576290Y-64677615D01*
X129563405Y-64552058D01*
X129582436Y-64427285D01*
X129632164Y-64311278D01*
X129709405Y-64211463D01*
X131417454Y-62503414D01*
X131500515Y-62436479D01*
X131595913Y-62388727D01*
X131629046Y-62376369D01*
X131897161Y-62276367D01*
X132012224Y-62213537D01*
X132127963Y-62168000D01*
X132251369Y-62152500D01*
X136736388Y-62152500D01*
X136868404Y-62170280D01*
X136991013Y-62222353D01*
X137095476Y-62305008D01*
X137174349Y-62412353D01*
X137250774Y-62552315D01*
X137422261Y-62781395D01*
X137624605Y-62983739D01*
X137666376Y-63015008D01*
X137853688Y-63155228D01*
X138037531Y-63255614D01*
X138104839Y-63292367D01*
X138320855Y-63372937D01*
X138372957Y-63392370D01*
X138652567Y-63453195D01*
X138652572Y-63453196D01*
X138938000Y-63473610D01*
X139223428Y-63453196D01*
X139363237Y-63422782D01*
X139503042Y-63392370D01*
X139503042Y-63392369D01*
X139503046Y-63392369D01*
X139771161Y-63292367D01*
X139886224Y-63229537D01*
X140001963Y-63184000D01*
X140125369Y-63168500D01*
X142322631Y-63168500D01*
X142446037Y-63184000D01*
X142561775Y-63229537D01*
X142676839Y-63292367D01*
X142944954Y-63392369D01*
X142944957Y-63392370D01*
X143224567Y-63453195D01*
X143224572Y-63453196D01*
X143510000Y-63473610D01*
X143795428Y-63453196D01*
X143935237Y-63422782D01*
X144075042Y-63392370D01*
X144075042Y-63392369D01*
X144075046Y-63392369D01*
X144343161Y-63292367D01*
X144594315Y-63155226D01*
X144823395Y-62983739D01*
X145025739Y-62781395D01*
X145197226Y-62552315D01*
X145273650Y-62412353D01*
X145352524Y-62305008D01*
X145456987Y-62222353D01*
X145579596Y-62170280D01*
X145711612Y-62152500D01*
X155530631Y-62152500D01*
X155654037Y-62168000D01*
X155769775Y-62213537D01*
X155884839Y-62276367D01*
X156152954Y-62376369D01*
X156152957Y-62376370D01*
X156429276Y-62436479D01*
X156432572Y-62437196D01*
X156718000Y-62457610D01*
X157003428Y-62437196D01*
X157283046Y-62376369D01*
X157551161Y-62276367D01*
X157592971Y-62253536D01*
X157708707Y-62208000D01*
X157832113Y-62192500D01*
X160610631Y-62192500D01*
X160734037Y-62208000D01*
X160849775Y-62253537D01*
X160964839Y-62316367D01*
X161188727Y-62399873D01*
X161232957Y-62416370D01*
X161422536Y-62457610D01*
X161512572Y-62477196D01*
X161798000Y-62497610D01*
X162083428Y-62477196D01*
X162270602Y-62436479D01*
X162363042Y-62416370D01*
X162363042Y-62416369D01*
X162363046Y-62416369D01*
X162631161Y-62316367D01*
X162882315Y-62179226D01*
X163111395Y-62007739D01*
X163313739Y-61805395D01*
X163485226Y-61576315D01*
X163567861Y-61424979D01*
X163633407Y-61332000D01*
X163718311Y-61256281D01*
X163818159Y-61201759D01*
X163927761Y-61171271D01*
X164041420Y-61166398D01*
X164052569Y-61167195D01*
X164052572Y-61167196D01*
X164338000Y-61187610D01*
X164623428Y-61167196D01*
X164865425Y-61114553D01*
X164903042Y-61106370D01*
X164903042Y-61106369D01*
X164903046Y-61106369D01*
X165171161Y-61006367D01*
X165422315Y-60869226D01*
X165651395Y-60697739D01*
X165853739Y-60495395D01*
X166025226Y-60266315D01*
X166162367Y-60015161D01*
X166262369Y-59747046D01*
X166323196Y-59467428D01*
X166343610Y-59182000D01*
X166323196Y-58896572D01*
X166281426Y-58704558D01*
X166262370Y-58616957D01*
X166149895Y-58315400D01*
X166151381Y-58314845D01*
X166120645Y-58234101D01*
X166108271Y-58099248D01*
X166132611Y-57966033D01*
X166191873Y-57844269D01*
X166206772Y-57821970D01*
X166206778Y-57821964D01*
X166377960Y-57565772D01*
X166514238Y-57289427D01*
X166613280Y-56997659D01*
X166673391Y-56695460D01*
X166693543Y-56388000D01*
X166673391Y-56080540D01*
X166613280Y-55778341D01*
X166514238Y-55486573D01*
X166377960Y-55210229D01*
X166377959Y-55210228D01*
X166206780Y-54954038D01*
X166113073Y-54847187D01*
X166003620Y-54722380D01*
X165771964Y-54519222D01*
X165515772Y-54348040D01*
X165489408Y-54335038D01*
X165378650Y-54260508D01*
X165291615Y-54159276D01*
X165234535Y-54038591D01*
X165211496Y-53907092D01*
X165224146Y-53774190D01*
X165271581Y-53649398D01*
X165350405Y-53541650D01*
X165454975Y-53458656D01*
X165577808Y-53406359D01*
X165710111Y-53388500D01*
X170051683Y-53388500D01*
X170188606Y-53407653D01*
G37*
%TD.AperFunction*%
%TA.AperFunction,NonConductor*%
G36*
X125589310Y-84614890D02*
G01*
X125696701Y-84653316D01*
X125823992Y-84716088D01*
X125844573Y-84726238D01*
X125971076Y-84769180D01*
X125976900Y-84771157D01*
X126088276Y-84825179D01*
X126182927Y-84904954D01*
X126255030Y-85005573D01*
X126300146Y-85120845D01*
X126315500Y-85243675D01*
X126315500Y-90022310D01*
X126313055Y-90058720D01*
X126315408Y-90181487D01*
X126315500Y-90191047D01*
X126315500Y-90235185D01*
X126315651Y-90237153D01*
X126317022Y-90265774D01*
X126318312Y-90333100D01*
X126322628Y-90357889D01*
X126328558Y-90405268D01*
X126330484Y-90430345D01*
X126345827Y-90495911D01*
X126351554Y-90523998D01*
X126357697Y-90559278D01*
X126363107Y-90590342D01*
X126371152Y-90614168D01*
X126384248Y-90660099D01*
X126389977Y-90684581D01*
X126415153Y-90747048D01*
X126425100Y-90773934D01*
X126446642Y-90837729D01*
X126458228Y-90860044D01*
X126478184Y-90903441D01*
X126487583Y-90926761D01*
X126522001Y-90984656D01*
X126535932Y-91009700D01*
X126555507Y-91047400D01*
X126566964Y-91069465D01*
X126581820Y-91089750D01*
X126608161Y-91129583D01*
X126621016Y-91151206D01*
X126663863Y-91203161D01*
X126681462Y-91225796D01*
X126721248Y-91280119D01*
X126739020Y-91297890D01*
X126771148Y-91333251D01*
X126787148Y-91352652D01*
X126831908Y-91392542D01*
X126837422Y-91397456D01*
X126858269Y-91417139D01*
X127176063Y-91734933D01*
X127253012Y-91834249D01*
X127302715Y-91949638D01*
X127322021Y-92073783D01*
X127309706Y-92198816D01*
X127266552Y-92316810D01*
X127195293Y-92420285D01*
X127100448Y-92502681D01*
X126866538Y-92658975D01*
X126639810Y-92857810D01*
X126440977Y-93084536D01*
X126273429Y-93335288D01*
X126267050Y-93348225D01*
X126193074Y-93458355D01*
X126092692Y-93545099D01*
X125972999Y-93602326D01*
X125842457Y-93625989D01*
X125710294Y-93614417D01*
X125585851Y-93568428D01*
X125477926Y-93491273D01*
X125295030Y-93319522D01*
X125295029Y-93319521D01*
X125295027Y-93319519D01*
X125040483Y-93134583D01*
X124764765Y-92983005D01*
X124472224Y-92867180D01*
X124167470Y-92788932D01*
X123855321Y-92749500D01*
X123855318Y-92749500D01*
X123540682Y-92749500D01*
X123540679Y-92749500D01*
X123228529Y-92788932D01*
X122923775Y-92867180D01*
X122631234Y-92983005D01*
X122355516Y-93134583D01*
X122100968Y-93319522D01*
X121953128Y-93458355D01*
X121871610Y-93534906D01*
X121863178Y-93545099D01*
X121671052Y-93777337D01*
X121502460Y-94042997D01*
X121355129Y-94356091D01*
X121354237Y-94355671D01*
X121307714Y-94450638D01*
X121213076Y-94554645D01*
X121093178Y-94628119D01*
X120957542Y-94665225D01*
X120816940Y-94663017D01*
X120682537Y-94621669D01*
X120565006Y-94544466D01*
X120473681Y-94437538D01*
X120415813Y-94309377D01*
X120396000Y-94170160D01*
X120396000Y-85399500D01*
X120413003Y-85270349D01*
X120462853Y-85150000D01*
X120542154Y-85046654D01*
X120645500Y-84967353D01*
X120765849Y-84917503D01*
X120895000Y-84900500D01*
X122598842Y-84900500D01*
X122702237Y-84894081D01*
X122945614Y-84843050D01*
X123103207Y-84781556D01*
X123215485Y-84752231D01*
X123331507Y-84749632D01*
X123444991Y-84773904D01*
X123506538Y-84794796D01*
X123596341Y-84825280D01*
X123898540Y-84885391D01*
X124206000Y-84905543D01*
X124513460Y-84885391D01*
X124815659Y-84825280D01*
X125107427Y-84726238D01*
X125255300Y-84653315D01*
X125362686Y-84614891D01*
X125475998Y-84601855D01*
X125589310Y-84614890D01*
G37*
%TD.AperFunction*%
%TA.AperFunction,NonConductor*%
G36*
X121093178Y-95871881D02*
G01*
X121213076Y-95945355D01*
X121307714Y-96049362D01*
X121354237Y-96144328D01*
X121355129Y-96143909D01*
X121502460Y-96457002D01*
X121502462Y-96457005D01*
X121502463Y-96457007D01*
X121519954Y-96484568D01*
X121666113Y-96714880D01*
X121671053Y-96722663D01*
X121871610Y-96965094D01*
X121954056Y-97042516D01*
X122100968Y-97180477D01*
X122380914Y-97383869D01*
X122378708Y-97386905D01*
X122439316Y-97431679D01*
X122521553Y-97536008D01*
X122573348Y-97658339D01*
X122591031Y-97790000D01*
X122573348Y-97921661D01*
X122521553Y-98043992D01*
X122439316Y-98148321D01*
X122378708Y-98193094D01*
X122380914Y-98196131D01*
X122100968Y-98399522D01*
X121871612Y-98614904D01*
X121671052Y-98857337D01*
X121502460Y-99122997D01*
X121355129Y-99436091D01*
X121354237Y-99435671D01*
X121307714Y-99530638D01*
X121213076Y-99634645D01*
X121093178Y-99708119D01*
X120957542Y-99745225D01*
X120816940Y-99743017D01*
X120682537Y-99701669D01*
X120565006Y-99624466D01*
X120473681Y-99517538D01*
X120415813Y-99389377D01*
X120396000Y-99250160D01*
X120396000Y-96329840D01*
X120415813Y-96190623D01*
X120473681Y-96062462D01*
X120565006Y-95955534D01*
X120682537Y-95878331D01*
X120816940Y-95836983D01*
X120957542Y-95834775D01*
X121093178Y-95871881D01*
G37*
%TD.AperFunction*%
%TA.AperFunction,NonConductor*%
G36*
X130311629Y-96095251D02*
G01*
X130428929Y-96154824D01*
X130526582Y-96242982D01*
X130597802Y-96353599D01*
X130646461Y-96457005D01*
X130815052Y-96722662D01*
X130815053Y-96722663D01*
X131015610Y-96965094D01*
X131098056Y-97042516D01*
X131244968Y-97180477D01*
X131524914Y-97383869D01*
X131522708Y-97386905D01*
X131583316Y-97431679D01*
X131665553Y-97536008D01*
X131717348Y-97658339D01*
X131735031Y-97790000D01*
X131717348Y-97921661D01*
X131665553Y-98043992D01*
X131583316Y-98148321D01*
X131522708Y-98193094D01*
X131524914Y-98196131D01*
X131244968Y-98399522D01*
X131015612Y-98614904D01*
X130815052Y-98857337D01*
X130646460Y-99122997D01*
X130512498Y-99407678D01*
X130429821Y-99662132D01*
X130375230Y-99777398D01*
X130293203Y-99875061D01*
X130189099Y-99948740D01*
X130069717Y-99993623D01*
X129942858Y-100006777D01*
X129816807Y-99987343D01*
X129770934Y-99967445D01*
X129769792Y-99970375D01*
X129731276Y-99955345D01*
X129731273Y-99955344D01*
X129499614Y-99864950D01*
X129256237Y-99813919D01*
X129152842Y-99807500D01*
X127387158Y-99807500D01*
X127283763Y-99813919D01*
X127089061Y-99854743D01*
X127040385Y-99864950D01*
X126950044Y-99900201D01*
X126808727Y-99955344D01*
X126808724Y-99955345D01*
X126770208Y-99970375D01*
X126769064Y-99967444D01*
X126723147Y-99987356D01*
X126597102Y-100006778D01*
X126470251Y-99993616D01*
X126350879Y-99948729D01*
X126246783Y-99875050D01*
X126164764Y-99777391D01*
X126110178Y-99662131D01*
X126067453Y-99530638D01*
X126027503Y-99407685D01*
X125953377Y-99250160D01*
X125893539Y-99122997D01*
X125893538Y-99122996D01*
X125893537Y-99122993D01*
X125724947Y-98857337D01*
X125524390Y-98614906D01*
X125347606Y-98448894D01*
X125295031Y-98399522D01*
X125015086Y-98196131D01*
X125017292Y-98193094D01*
X124956708Y-98148346D01*
X124874458Y-98044012D01*
X124822654Y-97921673D01*
X124804968Y-97790000D01*
X124822654Y-97658327D01*
X124874458Y-97535988D01*
X124956708Y-97431654D01*
X125017292Y-97386905D01*
X125015086Y-97383869D01*
X125295031Y-97180477D01*
X125318281Y-97158644D01*
X125524390Y-96965094D01*
X125724947Y-96722663D01*
X125893537Y-96457007D01*
X125893538Y-96457005D01*
X125893539Y-96457004D01*
X125942196Y-96353602D01*
X126013415Y-96242985D01*
X126111068Y-96154825D01*
X126228368Y-96095251D01*
X126357160Y-96068404D01*
X126488492Y-96076149D01*
X126613236Y-96117949D01*
X126722712Y-96190892D01*
X126866539Y-96317025D01*
X127076030Y-96457002D01*
X127117285Y-96484568D01*
X127387745Y-96617944D01*
X127387748Y-96617945D01*
X127673309Y-96714880D01*
X127969080Y-96773713D01*
X128270000Y-96793436D01*
X128570920Y-96773713D01*
X128866691Y-96714880D01*
X129152252Y-96617945D01*
X129422718Y-96484566D01*
X129673461Y-96317025D01*
X129817288Y-96190890D01*
X129926761Y-96117950D01*
X130051505Y-96076150D01*
X130182837Y-96068404D01*
X130311629Y-96095251D01*
G37*
%TD.AperFunction*%
%TA.AperFunction,NonConductor*%
G36*
X141982492Y-96076149D02*
G01*
X142107236Y-96117949D01*
X142216712Y-96190892D01*
X142360539Y-96317025D01*
X142570030Y-96457002D01*
X142611285Y-96484568D01*
X142881745Y-96617944D01*
X142881748Y-96617945D01*
X143167309Y-96714880D01*
X143463079Y-96773712D01*
X143463080Y-96773713D01*
X143629136Y-96784597D01*
X143751735Y-96808289D01*
X143864613Y-96861677D01*
X143960702Y-96941416D01*
X144033987Y-97042516D01*
X144079877Y-97158644D01*
X144095500Y-97282529D01*
X144095500Y-99308500D01*
X144078497Y-99437651D01*
X144028647Y-99558000D01*
X143949346Y-99661346D01*
X143846000Y-99740647D01*
X143725651Y-99790497D01*
X143596500Y-99807500D01*
X142881158Y-99807500D01*
X142777763Y-99813919D01*
X142583061Y-99854743D01*
X142534385Y-99864950D01*
X142444044Y-99900201D01*
X142302727Y-99955344D01*
X142302724Y-99955345D01*
X142264208Y-99970375D01*
X142263064Y-99967444D01*
X142217147Y-99987356D01*
X142091102Y-100006778D01*
X141964251Y-99993616D01*
X141844879Y-99948729D01*
X141740783Y-99875050D01*
X141658764Y-99777391D01*
X141604178Y-99662131D01*
X141561453Y-99530638D01*
X141521503Y-99407685D01*
X141447377Y-99250160D01*
X141387539Y-99122997D01*
X141387538Y-99122996D01*
X141387537Y-99122993D01*
X141218947Y-98857337D01*
X141018390Y-98614906D01*
X140841606Y-98448894D01*
X140789031Y-98399522D01*
X140509086Y-98196131D01*
X140511292Y-98193094D01*
X140450708Y-98148346D01*
X140368458Y-98044012D01*
X140316654Y-97921673D01*
X140298968Y-97790000D01*
X140316654Y-97658327D01*
X140368458Y-97535988D01*
X140450708Y-97431654D01*
X140511292Y-97386905D01*
X140509086Y-97383869D01*
X140789031Y-97180477D01*
X140812281Y-97158644D01*
X141018390Y-96965094D01*
X141218947Y-96722663D01*
X141387537Y-96457007D01*
X141387538Y-96457005D01*
X141387539Y-96457004D01*
X141436196Y-96353602D01*
X141507415Y-96242985D01*
X141605068Y-96154825D01*
X141722368Y-96095251D01*
X141851160Y-96068404D01*
X141982492Y-96076149D01*
G37*
%TD.AperFunction*%
%TA.AperFunction,NonConductor*%
G36*
X162951184Y-96965503D02*
G01*
X163071533Y-97015353D01*
X163174879Y-97094654D01*
X164989162Y-98908937D01*
X165012098Y-98933471D01*
X165052765Y-98980018D01*
X165050233Y-98982229D01*
X165108876Y-99055773D01*
X165161520Y-99178950D01*
X165179500Y-99311693D01*
X165179500Y-103898478D01*
X165163499Y-104023830D01*
X165116522Y-104141142D01*
X165041582Y-104242892D01*
X164943485Y-104322554D01*
X164828522Y-104375018D01*
X164704066Y-104396921D01*
X164578098Y-104386858D01*
X164354237Y-104339919D01*
X164250842Y-104333500D01*
X162509054Y-104333500D01*
X162373605Y-104314765D01*
X162248328Y-104259968D01*
X162142628Y-104173222D01*
X162064442Y-104061042D01*
X162019642Y-103931851D01*
X161992880Y-103797309D01*
X161895945Y-103511748D01*
X161778254Y-103273094D01*
X161762568Y-103241285D01*
X161696900Y-103143006D01*
X161595025Y-102990539D01*
X161454674Y-102830500D01*
X161396189Y-102763810D01*
X161214231Y-102604237D01*
X161169461Y-102564975D01*
X160918718Y-102397434D01*
X160918719Y-102397434D01*
X160918714Y-102397431D01*
X160648254Y-102264055D01*
X160362694Y-102167121D01*
X160362693Y-102167120D01*
X160362691Y-102167120D01*
X160263657Y-102147420D01*
X160066919Y-102108286D01*
X159766000Y-102088563D01*
X159465080Y-102108286D01*
X159219489Y-102157138D01*
X159169309Y-102167120D01*
X159169307Y-102167120D01*
X159169305Y-102167121D01*
X158869003Y-102269059D01*
X158764856Y-102304890D01*
X158639020Y-102314691D01*
X158514750Y-102292605D01*
X158399997Y-102240046D01*
X158302102Y-102160374D01*
X158227330Y-102058689D01*
X158180463Y-101941496D01*
X158164500Y-101816292D01*
X158164500Y-99553554D01*
X158180501Y-99428202D01*
X158227478Y-99310890D01*
X158302418Y-99209140D01*
X158400515Y-99129478D01*
X158515478Y-99077014D01*
X158639935Y-99055111D01*
X158765897Y-99065173D01*
X158779763Y-99068081D01*
X158883158Y-99074500D01*
X160648842Y-99074500D01*
X160752237Y-99068081D01*
X160995614Y-99017050D01*
X161227273Y-98926656D01*
X161440894Y-98799366D01*
X161630650Y-98638650D01*
X161791366Y-98448894D01*
X161918656Y-98235273D01*
X162009050Y-98003614D01*
X162060081Y-97760237D01*
X162066500Y-97656842D01*
X162066500Y-97447500D01*
X162083503Y-97318349D01*
X162133353Y-97198000D01*
X162212654Y-97094654D01*
X162316000Y-97015353D01*
X162436349Y-96965503D01*
X162565500Y-96948500D01*
X162822033Y-96948500D01*
X162951184Y-96965503D01*
G37*
%TD.AperFunction*%
%TA.AperFunction,NonConductor*%
G36*
X121093178Y-100951881D02*
G01*
X121213076Y-101025355D01*
X121307714Y-101129362D01*
X121354237Y-101224328D01*
X121355129Y-101223909D01*
X121502460Y-101537002D01*
X121502462Y-101537005D01*
X121502463Y-101537007D01*
X121671053Y-101802663D01*
X121871610Y-102045094D01*
X121938904Y-102108287D01*
X122100968Y-102260477D01*
X122380914Y-102463869D01*
X122378708Y-102466905D01*
X122439316Y-102511679D01*
X122521553Y-102616008D01*
X122573348Y-102738339D01*
X122591031Y-102870000D01*
X122573348Y-103001661D01*
X122521553Y-103123992D01*
X122439316Y-103228321D01*
X122378708Y-103273094D01*
X122380914Y-103276131D01*
X122100968Y-103479522D01*
X121871612Y-103694904D01*
X121671052Y-103937337D01*
X121502460Y-104202997D01*
X121355129Y-104516091D01*
X121354237Y-104515671D01*
X121307714Y-104610638D01*
X121213076Y-104714645D01*
X121093178Y-104788119D01*
X120957542Y-104825225D01*
X120816940Y-104823017D01*
X120682537Y-104781669D01*
X120565006Y-104704466D01*
X120473681Y-104597538D01*
X120415813Y-104469377D01*
X120396000Y-104330160D01*
X120396000Y-101409840D01*
X120415813Y-101270623D01*
X120473681Y-101142462D01*
X120565006Y-101035534D01*
X120682537Y-100958331D01*
X120816940Y-100916983D01*
X120957542Y-100914775D01*
X121093178Y-100951881D01*
G37*
%TD.AperFunction*%
%TA.AperFunction,NonConductor*%
G36*
X121093178Y-106031881D02*
G01*
X121213076Y-106105355D01*
X121307714Y-106209362D01*
X121354237Y-106304328D01*
X121355129Y-106303909D01*
X121502460Y-106617002D01*
X121648684Y-106847416D01*
X121671053Y-106882663D01*
X121871610Y-107125094D01*
X122100970Y-107340478D01*
X122100975Y-107340482D01*
X122112373Y-107351185D01*
X122195541Y-107453059D01*
X122249206Y-107573123D01*
X122269641Y-107703037D01*
X122255426Y-107833777D01*
X122207548Y-107956264D01*
X122129333Y-108061988D01*
X122026214Y-108143607D01*
X121823111Y-108264630D01*
X121823106Y-108264633D01*
X121823106Y-108264634D01*
X121633350Y-108425350D01*
X121472634Y-108615106D01*
X121472632Y-108615108D01*
X121472632Y-108615109D01*
X121324179Y-108864247D01*
X121320396Y-108861993D01*
X121292581Y-108911674D01*
X121194974Y-109008896D01*
X121074503Y-109075723D01*
X120940349Y-109107062D01*
X120802739Y-109100524D01*
X120672162Y-109056607D01*
X120558569Y-108978658D01*
X120470620Y-108872619D01*
X120415017Y-108746573D01*
X120396000Y-108610127D01*
X120396000Y-106489840D01*
X120415813Y-106350623D01*
X120473681Y-106222462D01*
X120565006Y-106115534D01*
X120682537Y-106038331D01*
X120816940Y-105996983D01*
X120957542Y-105994775D01*
X121093178Y-106031881D01*
G37*
%TD.AperFunction*%
%TA.AperFunction,NonConductor*%
G36*
X130227021Y-106075450D02*
G01*
X130344321Y-106135024D01*
X130441974Y-106223182D01*
X130513194Y-106333799D01*
X130646461Y-106617005D01*
X130815052Y-106882662D01*
X130815053Y-106882663D01*
X131015610Y-107125094D01*
X131244970Y-107340478D01*
X131244975Y-107340482D01*
X131256373Y-107351185D01*
X131339541Y-107453059D01*
X131393206Y-107573123D01*
X131413641Y-107703037D01*
X131399426Y-107833777D01*
X131351548Y-107956264D01*
X131273333Y-108061988D01*
X131170214Y-108143607D01*
X130967111Y-108264630D01*
X130967106Y-108264633D01*
X130967106Y-108264634D01*
X130777350Y-108425350D01*
X130616634Y-108615106D01*
X130616632Y-108615108D01*
X130616632Y-108615109D01*
X130489345Y-108828724D01*
X130400425Y-109056607D01*
X130398950Y-109060386D01*
X130347919Y-109303763D01*
X130347919Y-109303767D01*
X130341909Y-109400560D01*
X130315830Y-109531664D01*
X130255883Y-109651140D01*
X130166370Y-109750416D01*
X130053714Y-109822367D01*
X129926000Y-109861830D01*
X129792391Y-109865974D01*
X129662479Y-109834500D01*
X129499614Y-109770950D01*
X129256237Y-109719919D01*
X129152842Y-109713500D01*
X127387158Y-109713500D01*
X127283763Y-109719919D01*
X127040386Y-109770950D01*
X127040385Y-109770950D01*
X127040382Y-109770951D01*
X126877521Y-109834500D01*
X126747606Y-109865974D01*
X126613998Y-109861830D01*
X126486283Y-109822367D01*
X126373627Y-109750415D01*
X126284115Y-109651138D01*
X126224168Y-109531661D01*
X126198090Y-109400556D01*
X126194557Y-109343651D01*
X126192081Y-109303763D01*
X126141050Y-109060386D01*
X126050656Y-108828727D01*
X125923366Y-108615106D01*
X125762650Y-108425350D01*
X125572894Y-108264634D01*
X125369783Y-108143607D01*
X125266666Y-108061989D01*
X125188451Y-107956264D01*
X125140573Y-107833777D01*
X125126358Y-107703036D01*
X125146793Y-107573122D01*
X125200458Y-107453058D01*
X125283627Y-107351185D01*
X125295024Y-107340482D01*
X125295030Y-107340478D01*
X125524390Y-107125094D01*
X125724947Y-106882663D01*
X125893537Y-106617007D01*
X126026804Y-106333798D01*
X126098024Y-106223184D01*
X126195677Y-106135025D01*
X126312976Y-106075451D01*
X126441768Y-106048604D01*
X126573101Y-106056349D01*
X126697844Y-106098149D01*
X126807322Y-106171093D01*
X126866539Y-106223025D01*
X127030109Y-106332319D01*
X127117285Y-106390568D01*
X127387745Y-106523944D01*
X127387748Y-106523945D01*
X127673309Y-106620880D01*
X127969080Y-106679713D01*
X128270000Y-106699436D01*
X128570920Y-106679713D01*
X128866691Y-106620880D01*
X129152252Y-106523945D01*
X129422718Y-106390566D01*
X129673461Y-106223025D01*
X129732677Y-106171093D01*
X129842152Y-106098150D01*
X129966896Y-106056350D01*
X130098228Y-106048604D01*
X130227021Y-106075450D01*
G37*
%TD.AperFunction*%
%TA.AperFunction,NonConductor*%
G36*
X142067101Y-106056349D02*
G01*
X142191844Y-106098149D01*
X142301322Y-106171093D01*
X142360539Y-106223025D01*
X142524109Y-106332319D01*
X142611285Y-106390568D01*
X142881745Y-106523944D01*
X142881748Y-106523945D01*
X143167309Y-106620880D01*
X143463079Y-106679712D01*
X143463080Y-106679713D01*
X143629136Y-106690597D01*
X143751735Y-106714289D01*
X143864613Y-106767677D01*
X143960702Y-106847416D01*
X144033987Y-106948516D01*
X144079877Y-107064644D01*
X144095500Y-107188529D01*
X144095500Y-109214500D01*
X144078497Y-109343651D01*
X144028647Y-109464000D01*
X143949346Y-109567346D01*
X143846000Y-109646647D01*
X143725651Y-109696497D01*
X143596500Y-109713500D01*
X142881158Y-109713500D01*
X142777763Y-109719919D01*
X142534386Y-109770950D01*
X142534385Y-109770950D01*
X142534382Y-109770951D01*
X142371521Y-109834500D01*
X142241606Y-109865974D01*
X142107998Y-109861830D01*
X141980283Y-109822367D01*
X141867627Y-109750415D01*
X141778115Y-109651138D01*
X141718168Y-109531661D01*
X141692090Y-109400556D01*
X141688557Y-109343651D01*
X141686081Y-109303763D01*
X141635050Y-109060386D01*
X141544656Y-108828727D01*
X141417366Y-108615106D01*
X141256650Y-108425350D01*
X141066894Y-108264634D01*
X140863783Y-108143607D01*
X140760666Y-108061989D01*
X140682451Y-107956264D01*
X140634573Y-107833777D01*
X140620358Y-107703036D01*
X140640793Y-107573122D01*
X140694458Y-107453058D01*
X140777627Y-107351185D01*
X140789024Y-107340482D01*
X140789030Y-107340478D01*
X141018390Y-107125094D01*
X141218947Y-106882663D01*
X141387537Y-106617007D01*
X141520804Y-106333798D01*
X141592024Y-106223184D01*
X141689677Y-106135025D01*
X141806976Y-106075451D01*
X141935768Y-106048604D01*
X142067101Y-106056349D01*
G37*
%TD.AperFunction*%
%TA.AperFunction,NonConductor*%
G36*
X151974082Y-91362794D02*
G01*
X152091903Y-91412586D01*
X152193195Y-91490694D01*
X153216257Y-92513756D01*
X153291777Y-92610665D01*
X153341329Y-92723090D01*
X153361909Y-92844214D01*
X153352269Y-92966696D01*
X153312995Y-93083110D01*
X153246466Y-93186398D01*
X153156716Y-93270301D01*
X153088970Y-93319521D01*
X152941128Y-93458355D01*
X152859610Y-93534906D01*
X152851178Y-93545099D01*
X152659052Y-93777337D01*
X152490460Y-94042997D01*
X152356497Y-94327680D01*
X152259267Y-94626924D01*
X152200311Y-94935982D01*
X152180555Y-95249999D01*
X152200311Y-95564017D01*
X152259267Y-95873075D01*
X152356497Y-96172319D01*
X152490460Y-96457002D01*
X152490462Y-96457005D01*
X152490463Y-96457007D01*
X152507954Y-96484568D01*
X152654113Y-96714880D01*
X152659053Y-96722663D01*
X152859610Y-96965094D01*
X152942056Y-97042516D01*
X153088968Y-97180477D01*
X153368914Y-97383869D01*
X153366708Y-97386905D01*
X153427316Y-97431679D01*
X153509553Y-97536008D01*
X153561348Y-97658339D01*
X153579031Y-97790000D01*
X153561348Y-97921661D01*
X153509553Y-98043992D01*
X153427316Y-98148321D01*
X153366708Y-98193094D01*
X153368914Y-98196131D01*
X153088968Y-98399522D01*
X152859612Y-98614904D01*
X152659052Y-98857337D01*
X152490460Y-99122997D01*
X152356497Y-99407680D01*
X152259267Y-99706924D01*
X152200311Y-100015982D01*
X152180555Y-100330000D01*
X152200311Y-100644017D01*
X152259267Y-100953075D01*
X152356497Y-101252319D01*
X152490460Y-101537002D01*
X152490462Y-101537005D01*
X152490463Y-101537007D01*
X152659053Y-101802663D01*
X152859610Y-102045094D01*
X152926904Y-102108287D01*
X153088968Y-102260477D01*
X153368914Y-102463869D01*
X153366708Y-102466905D01*
X153427316Y-102511679D01*
X153509553Y-102616008D01*
X153561348Y-102738339D01*
X153579031Y-102870000D01*
X153561348Y-103001661D01*
X153509553Y-103123992D01*
X153427316Y-103228321D01*
X153366708Y-103273094D01*
X153368914Y-103276131D01*
X153088968Y-103479522D01*
X152859612Y-103694904D01*
X152659052Y-103937337D01*
X152490460Y-104202997D01*
X152356497Y-104487680D01*
X152259267Y-104786924D01*
X152200311Y-105095982D01*
X152180555Y-105410000D01*
X152200311Y-105724017D01*
X152259267Y-106033075D01*
X152356497Y-106332319D01*
X152490460Y-106617002D01*
X152636684Y-106847416D01*
X152659053Y-106882663D01*
X152859610Y-107125094D01*
X153088970Y-107340478D01*
X153088975Y-107340482D01*
X153100373Y-107351185D01*
X153183541Y-107453059D01*
X153237206Y-107573123D01*
X153257641Y-107703037D01*
X153243426Y-107833777D01*
X153195548Y-107956264D01*
X153117333Y-108061988D01*
X153014214Y-108143607D01*
X152811111Y-108264630D01*
X152811106Y-108264633D01*
X152811106Y-108264634D01*
X152621350Y-108425350D01*
X152460634Y-108615106D01*
X152460632Y-108615108D01*
X152460632Y-108615109D01*
X152333345Y-108828724D01*
X152244425Y-109056607D01*
X152242950Y-109060386D01*
X152191919Y-109303763D01*
X152185500Y-109407158D01*
X152185500Y-111572842D01*
X152191919Y-111676237D01*
X152242950Y-111919614D01*
X152242951Y-111919618D01*
X152242952Y-111919620D01*
X152262817Y-111970530D01*
X152294429Y-112101792D01*
X152289694Y-112236724D01*
X152248959Y-112365447D01*
X152175207Y-112478538D01*
X152073837Y-112567718D01*
X151952269Y-112626458D01*
X151819405Y-112650458D01*
X151684969Y-112637960D01*
X151616769Y-112611969D01*
X151615600Y-112615105D01*
X151314044Y-112502630D01*
X151169419Y-112471169D01*
X151047390Y-112427388D01*
X150940758Y-112353648D01*
X150856721Y-112254928D01*
X150800951Y-112137891D01*
X150777214Y-112010437D01*
X150787109Y-111881176D01*
X150830081Y-111676237D01*
X150836500Y-111572842D01*
X150836500Y-109407158D01*
X150830081Y-109303763D01*
X150779050Y-109060386D01*
X150688656Y-108828727D01*
X150561366Y-108615106D01*
X150400650Y-108425350D01*
X150210894Y-108264634D01*
X150007783Y-108143607D01*
X149904666Y-108061989D01*
X149826451Y-107956264D01*
X149778573Y-107833777D01*
X149764358Y-107703036D01*
X149784793Y-107573122D01*
X149838458Y-107453058D01*
X149921627Y-107351185D01*
X149933024Y-107340482D01*
X149933030Y-107340478D01*
X150162390Y-107125094D01*
X150362947Y-106882663D01*
X150531537Y-106617007D01*
X150591377Y-106489840D01*
X150665502Y-106332319D01*
X150755170Y-106056349D01*
X150762731Y-106033079D01*
X150770038Y-105994775D01*
X150821688Y-105724017D01*
X150841444Y-105410000D01*
X150821688Y-105095982D01*
X150762732Y-104786924D01*
X150665502Y-104487680D01*
X150531539Y-104202997D01*
X150531538Y-104202996D01*
X150531537Y-104202993D01*
X150362947Y-103937337D01*
X150162390Y-103694906D01*
X150028605Y-103569273D01*
X149933031Y-103479522D01*
X149653086Y-103276131D01*
X149655292Y-103273094D01*
X149594708Y-103228346D01*
X149512458Y-103124012D01*
X149460654Y-103001673D01*
X149442968Y-102870000D01*
X149460654Y-102738327D01*
X149512458Y-102615988D01*
X149594708Y-102511654D01*
X149655292Y-102466905D01*
X149653086Y-102463869D01*
X149921219Y-102269059D01*
X149933030Y-102260478D01*
X150162390Y-102045094D01*
X150362947Y-101802663D01*
X150531537Y-101537007D01*
X150607500Y-101375578D01*
X150665502Y-101252319D01*
X150739247Y-101025355D01*
X150762731Y-100953079D01*
X150821688Y-100644015D01*
X150841444Y-100330000D01*
X150841443Y-100329999D01*
X150821688Y-100015982D01*
X150762732Y-99706924D01*
X150665502Y-99407680D01*
X150531539Y-99122997D01*
X150531538Y-99122996D01*
X150531537Y-99122993D01*
X150362947Y-98857337D01*
X150162390Y-98614906D01*
X149985606Y-98448894D01*
X149933031Y-98399522D01*
X149653086Y-98196131D01*
X149655292Y-98193094D01*
X149594708Y-98148346D01*
X149512458Y-98044012D01*
X149460654Y-97921673D01*
X149442968Y-97790000D01*
X149460654Y-97658327D01*
X149512458Y-97535988D01*
X149594708Y-97431654D01*
X149655292Y-97386905D01*
X149653086Y-97383869D01*
X149933031Y-97180477D01*
X149956281Y-97158644D01*
X150162390Y-96965094D01*
X150362947Y-96722663D01*
X150531537Y-96457007D01*
X150597408Y-96317025D01*
X150665502Y-96172319D01*
X150756758Y-95891461D01*
X150762731Y-95873079D01*
X150821688Y-95564015D01*
X150841444Y-95250000D01*
X150821688Y-94935985D01*
X150821688Y-94935982D01*
X150762732Y-94626924D01*
X150665502Y-94327680D01*
X150531539Y-94042997D01*
X150531538Y-94042996D01*
X150531537Y-94042993D01*
X150362947Y-93777337D01*
X150162390Y-93534906D01*
X149963596Y-93348225D01*
X149933031Y-93319522D01*
X149678483Y-93134583D01*
X149402765Y-92983005D01*
X149110224Y-92867180D01*
X148805470Y-92788932D01*
X148493321Y-92749500D01*
X148493318Y-92749500D01*
X148178682Y-92749500D01*
X148178679Y-92749500D01*
X148058040Y-92764740D01*
X147917438Y-92762531D01*
X147783036Y-92721183D01*
X147665505Y-92643980D01*
X147574180Y-92537052D01*
X147516313Y-92408891D01*
X147496500Y-92269675D01*
X147496500Y-92095689D01*
X147498944Y-92059287D01*
X147498667Y-92044853D01*
X147496592Y-91936512D01*
X147496500Y-91926953D01*
X147496500Y-91863684D01*
X147499989Y-91863684D01*
X147506064Y-91763429D01*
X147550987Y-91634435D01*
X147629205Y-91522455D01*
X147734856Y-91435879D01*
X147860025Y-91381195D01*
X147995332Y-91362500D01*
X149436543Y-91362500D01*
X149559949Y-91378000D01*
X149675682Y-91423535D01*
X149788839Y-91485324D01*
X149875109Y-91517501D01*
X150056953Y-91585326D01*
X150282705Y-91634435D01*
X150336572Y-91646153D01*
X150622000Y-91666567D01*
X150907428Y-91646153D01*
X151163225Y-91590508D01*
X151187042Y-91585327D01*
X151187042Y-91585326D01*
X151187046Y-91585326D01*
X151455161Y-91485324D01*
X151601203Y-91405578D01*
X151720397Y-91359172D01*
X151847473Y-91344591D01*
X151974082Y-91362794D01*
G37*
%TD.AperFunction*%
%TA.AperFunction,NonConductor*%
G36*
X121900414Y-123779768D02*
G01*
X122021543Y-123830377D01*
X122125282Y-123910825D01*
X122204451Y-124015543D01*
X122253570Y-124137284D01*
X122269240Y-124267622D01*
X122250377Y-124397536D01*
X122198286Y-124518033D01*
X122147289Y-124603118D01*
X122146816Y-124603908D01*
X121978762Y-124959225D01*
X121867944Y-125268944D01*
X121846343Y-125329316D01*
X121792590Y-125543912D01*
X121750835Y-125710605D01*
X121693162Y-126099407D01*
X121673874Y-126491999D01*
X121686759Y-126754261D01*
X121693162Y-126884591D01*
X121750836Y-127273400D01*
X121846343Y-127654684D01*
X121846344Y-127654686D01*
X121978762Y-128024774D01*
X122146817Y-128380093D01*
X122146819Y-128380097D01*
X122348894Y-128717239D01*
X122350527Y-128719963D01*
X122402619Y-128840462D01*
X122421482Y-128970377D01*
X122405812Y-129100715D01*
X122356693Y-129222456D01*
X122277525Y-129327175D01*
X122173786Y-129407622D01*
X122052656Y-129458232D01*
X121922520Y-129475500D01*
X120895000Y-129475500D01*
X120765849Y-129458497D01*
X120645500Y-129408647D01*
X120542154Y-129329346D01*
X120462853Y-129226000D01*
X120413003Y-129105651D01*
X120396000Y-128976500D01*
X120396000Y-124261500D01*
X120413003Y-124132349D01*
X120462853Y-124012000D01*
X120542154Y-123908654D01*
X120645500Y-123829353D01*
X120765849Y-123779503D01*
X120895000Y-123762500D01*
X121770278Y-123762500D01*
X121900414Y-123779768D01*
G37*
%TD.AperFunction*%
%TA.AperFunction,NonConductor*%
G36*
X174874703Y-134841947D02*
G01*
X174999385Y-134889444D01*
X175107025Y-134968282D01*
X175189926Y-135072823D01*
X175242163Y-135195595D01*
X175260000Y-135327820D01*
X175260000Y-137801712D01*
X175243412Y-137929304D01*
X175194750Y-138048413D01*
X175117251Y-138151121D01*
X175016066Y-138230597D01*
X174897923Y-138281559D01*
X174770676Y-138300618D01*
X174642786Y-138286507D01*
X174522756Y-138240165D01*
X174418565Y-138164671D01*
X174143952Y-137905586D01*
X173863599Y-137696872D01*
X173847725Y-137687707D01*
X173560904Y-137522111D01*
X173239971Y-137383674D01*
X173239966Y-137383672D01*
X173213284Y-137372163D01*
X173214857Y-137368515D01*
X173149466Y-137339313D01*
X173049427Y-137258720D01*
X172973280Y-137155257D01*
X172926069Y-137035782D01*
X172910926Y-136908214D01*
X172928852Y-136781007D01*
X172978660Y-136662592D01*
X173057046Y-136560822D01*
X173817995Y-135799873D01*
X173845465Y-135775861D01*
X173854710Y-135766254D01*
X173854716Y-135766250D01*
X173930715Y-135687280D01*
X173937305Y-135680563D01*
X173968522Y-135649348D01*
X173969791Y-135647867D01*
X173989065Y-135626650D01*
X174035778Y-135578114D01*
X174050244Y-135557547D01*
X174079568Y-135519832D01*
X174095931Y-135500749D01*
X174131460Y-135443510D01*
X174147266Y-135419610D01*
X174185999Y-135364544D01*
X174197157Y-135342007D01*
X174220377Y-135300265D01*
X174233638Y-135278903D01*
X174259999Y-135216943D01*
X174271973Y-135190902D01*
X174301859Y-135130547D01*
X174301859Y-135130544D01*
X174313817Y-135106396D01*
X174388475Y-134995817D01*
X174489766Y-134908973D01*
X174610447Y-134852073D01*
X174741892Y-134829186D01*
X174874703Y-134841947D01*
G37*
%TD.AperFunction*%
%TA.AperFunction,NonConductor*%
G36*
X126426956Y-141753065D02*
G01*
X126542151Y-141799595D01*
X126642281Y-141873140D01*
X126824085Y-142045353D01*
X127005095Y-142182954D01*
X127118070Y-142268835D01*
X127434492Y-142459220D01*
X127434497Y-142459222D01*
X127437332Y-142460928D01*
X127538603Y-142541434D01*
X127615775Y-142645268D01*
X127663661Y-142765451D01*
X127679041Y-142893906D01*
X127660881Y-143021997D01*
X127610403Y-143141115D01*
X127531000Y-143243252D01*
X127428008Y-143321545D01*
X127308350Y-143370729D01*
X127180070Y-143387500D01*
X125702353Y-143387500D01*
X125571645Y-143370077D01*
X125450065Y-143319025D01*
X125346102Y-143237909D01*
X125267017Y-143132393D01*
X125218332Y-143009845D01*
X125203447Y-142878824D01*
X125223401Y-142748479D01*
X125276801Y-142627911D01*
X125359918Y-142525541D01*
X125478239Y-142413909D01*
X125630183Y-142270558D01*
X125854849Y-142002811D01*
X125882212Y-141961206D01*
X125962868Y-141866717D01*
X126064371Y-141795078D01*
X126180425Y-141750734D01*
X126303837Y-141736434D01*
X126426956Y-141753065D01*
G37*
%TD.AperFunction*%
%TA.AperFunction,NonConductor*%
G36*
X132970281Y-139836104D02*
G01*
X133089939Y-139885289D01*
X133192931Y-139963581D01*
X133272334Y-140065720D01*
X133322810Y-140184833D01*
X133359931Y-140318531D01*
X133420027Y-140534983D01*
X133556711Y-140878033D01*
X133729684Y-141204294D01*
X133861326Y-141398451D01*
X133936923Y-141509948D01*
X134088157Y-141687994D01*
X134175991Y-141791400D01*
X134444090Y-142045357D01*
X134738063Y-142268830D01*
X134738070Y-142268835D01*
X135054492Y-142459220D01*
X135054497Y-142459222D01*
X135057332Y-142460928D01*
X135158603Y-142541434D01*
X135235775Y-142645268D01*
X135283661Y-142765451D01*
X135299041Y-142893906D01*
X135280881Y-143021997D01*
X135230403Y-143141115D01*
X135151000Y-143243252D01*
X135048008Y-143321545D01*
X134928350Y-143370729D01*
X134800070Y-143387500D01*
X130883930Y-143387500D01*
X130755650Y-143370729D01*
X130635992Y-143321545D01*
X130533000Y-143243252D01*
X130453597Y-143141115D01*
X130403119Y-143021997D01*
X130384959Y-142893906D01*
X130400339Y-142765451D01*
X130448225Y-142645268D01*
X130525397Y-142541434D01*
X130626668Y-142460928D01*
X130629502Y-142459222D01*
X130629508Y-142459220D01*
X130945930Y-142268835D01*
X131239912Y-142045355D01*
X131508009Y-141791400D01*
X131747077Y-141509948D01*
X131954313Y-141204297D01*
X132127288Y-140878033D01*
X132186304Y-140729914D01*
X132263972Y-140534983D01*
X132306236Y-140382759D01*
X132361189Y-140184833D01*
X132411666Y-140065720D01*
X132491069Y-139963581D01*
X132594061Y-139885289D01*
X132713719Y-139836104D01*
X132842000Y-139819333D01*
X132970281Y-139836104D01*
G37*
%TD.AperFunction*%
%TA.AperFunction,NonConductor*%
G36*
X136375915Y-94172177D02*
G01*
X136492214Y-94218223D01*
X136593408Y-94291744D01*
X136673138Y-94388122D01*
X136726396Y-94501300D01*
X136749834Y-94624167D01*
X136741980Y-94749002D01*
X136706311Y-94935982D01*
X136686555Y-95249999D01*
X136706311Y-95564017D01*
X136765267Y-95873075D01*
X136862497Y-96172319D01*
X136996460Y-96457002D01*
X136996462Y-96457005D01*
X136996463Y-96457007D01*
X137013954Y-96484568D01*
X137160113Y-96714880D01*
X137165053Y-96722663D01*
X137365610Y-96965094D01*
X137448056Y-97042516D01*
X137594968Y-97180477D01*
X137874914Y-97383869D01*
X137872708Y-97386905D01*
X137933316Y-97431679D01*
X138015553Y-97536008D01*
X138067348Y-97658339D01*
X138085031Y-97790000D01*
X138067348Y-97921661D01*
X138015553Y-98043992D01*
X137933316Y-98148321D01*
X137872708Y-98193094D01*
X137874914Y-98196131D01*
X137594968Y-98399522D01*
X137365612Y-98614904D01*
X137165052Y-98857337D01*
X136996460Y-99122997D01*
X136862497Y-99407680D01*
X136765267Y-99706924D01*
X136706311Y-100015982D01*
X136686555Y-100329999D01*
X136706311Y-100644017D01*
X136765267Y-100953075D01*
X136862497Y-101252319D01*
X136996460Y-101537002D01*
X136996462Y-101537005D01*
X136996463Y-101537007D01*
X137165053Y-101802663D01*
X137365610Y-102045094D01*
X137432904Y-102108287D01*
X137594968Y-102260477D01*
X137874914Y-102463869D01*
X137872708Y-102466905D01*
X137933316Y-102511679D01*
X138015553Y-102616008D01*
X138067348Y-102738339D01*
X138085031Y-102870000D01*
X138067348Y-103001661D01*
X138015553Y-103123992D01*
X137933316Y-103228321D01*
X137872708Y-103273094D01*
X137874914Y-103276131D01*
X137594968Y-103479522D01*
X137365612Y-103694904D01*
X137165052Y-103937337D01*
X136996460Y-104202997D01*
X136862497Y-104487680D01*
X136765267Y-104786924D01*
X136706311Y-105095982D01*
X136686555Y-105410000D01*
X136706311Y-105724017D01*
X136765267Y-106033075D01*
X136862497Y-106332319D01*
X136996460Y-106617002D01*
X137142684Y-106847416D01*
X137165053Y-106882663D01*
X137365610Y-107125094D01*
X137594970Y-107340478D01*
X137594975Y-107340482D01*
X137606373Y-107351185D01*
X137689541Y-107453059D01*
X137743206Y-107573123D01*
X137763641Y-107703037D01*
X137749426Y-107833777D01*
X137701548Y-107956264D01*
X137623333Y-108061988D01*
X137520214Y-108143607D01*
X137317111Y-108264630D01*
X137317106Y-108264633D01*
X137317106Y-108264634D01*
X137127350Y-108425350D01*
X136966634Y-108615106D01*
X136966632Y-108615108D01*
X136966632Y-108615109D01*
X136839345Y-108828724D01*
X136750425Y-109056607D01*
X136748950Y-109060386D01*
X136697919Y-109303763D01*
X136691500Y-109407158D01*
X136691500Y-111572842D01*
X136697919Y-111676237D01*
X136748950Y-111919614D01*
X136839344Y-112151273D01*
X136966634Y-112364894D01*
X137127350Y-112554650D01*
X137317106Y-112715366D01*
X137530727Y-112842656D01*
X137762386Y-112933050D01*
X138005763Y-112984081D01*
X138109158Y-112990500D01*
X140274842Y-112990500D01*
X140378237Y-112984081D01*
X140621614Y-112933050D01*
X140843885Y-112846319D01*
X140963542Y-112816017D01*
X141086987Y-112816017D01*
X141206655Y-112846320D01*
X141315223Y-112905073D01*
X141406045Y-112988680D01*
X141473563Y-113092024D01*
X141513646Y-113208781D01*
X141520948Y-113243609D01*
X141611345Y-113475275D01*
X141759800Y-113724415D01*
X141759090Y-113724837D01*
X141805235Y-113798238D01*
X141843891Y-113933554D01*
X141843228Y-114074282D01*
X141803301Y-114209228D01*
X141727283Y-114327659D01*
X141621222Y-114420157D01*
X141493553Y-114479363D01*
X141354431Y-114500569D01*
X141214921Y-114482088D01*
X141156592Y-114465745D01*
X140863785Y-114425500D01*
X140863782Y-114425500D01*
X140568218Y-114425500D01*
X140568215Y-114425500D01*
X140275406Y-114465745D01*
X139990804Y-114545487D01*
X139770121Y-114641344D01*
X139719707Y-114663242D01*
X139705269Y-114672021D01*
X139580628Y-114726161D01*
X139446000Y-114744665D01*
X139311372Y-114726161D01*
X139186730Y-114672021D01*
X139172293Y-114663242D01*
X139061850Y-114615270D01*
X138901195Y-114545487D01*
X138616593Y-114465745D01*
X138323785Y-114425500D01*
X138323782Y-114425500D01*
X138028218Y-114425500D01*
X138028215Y-114425500D01*
X137735406Y-114465745D01*
X137450804Y-114545487D01*
X137230121Y-114641344D01*
X137179707Y-114663242D01*
X137165269Y-114672021D01*
X137040628Y-114726161D01*
X136906000Y-114744665D01*
X136771372Y-114726161D01*
X136646730Y-114672021D01*
X136632293Y-114663242D01*
X136521850Y-114615270D01*
X136361195Y-114545487D01*
X136076593Y-114465745D01*
X135783785Y-114425500D01*
X135783782Y-114425500D01*
X135488218Y-114425500D01*
X135488215Y-114425500D01*
X135195406Y-114465745D01*
X134910804Y-114545487D01*
X134639707Y-114663242D01*
X134387171Y-114816811D01*
X134157901Y-115003337D01*
X133956157Y-115219351D01*
X133785714Y-115460815D01*
X133649734Y-115723243D01*
X133550754Y-116001744D01*
X133496713Y-116261812D01*
X133490622Y-116291125D01*
X133470452Y-116586000D01*
X133490622Y-116880875D01*
X133490622Y-116880879D01*
X133490623Y-116880880D01*
X133550754Y-117170255D01*
X133649734Y-117448756D01*
X133785714Y-117711184D01*
X133956157Y-117952648D01*
X133956160Y-117952651D01*
X134157898Y-118168660D01*
X134387171Y-118355188D01*
X134639707Y-118508758D01*
X134879344Y-118612847D01*
X134910804Y-118626512D01*
X135195406Y-118706254D01*
X135488215Y-118746500D01*
X135488218Y-118746500D01*
X135783782Y-118746500D01*
X135783785Y-118746500D01*
X136003391Y-118716315D01*
X136076594Y-118706254D01*
X136257981Y-118655431D01*
X136361195Y-118626512D01*
X136361196Y-118626511D01*
X136361198Y-118626511D01*
X136632293Y-118508758D01*
X136646733Y-118499976D01*
X136771368Y-118445839D01*
X136906000Y-118427334D01*
X137040632Y-118445839D01*
X137165266Y-118499976D01*
X137179707Y-118508758D01*
X137416601Y-118611655D01*
X137450804Y-118626512D01*
X137735406Y-118706254D01*
X138028215Y-118746500D01*
X138028218Y-118746500D01*
X138323782Y-118746500D01*
X138323785Y-118746500D01*
X138543391Y-118716315D01*
X138616594Y-118706254D01*
X138797981Y-118655431D01*
X138901195Y-118626512D01*
X138901196Y-118626511D01*
X138901198Y-118626511D01*
X139172293Y-118508758D01*
X139186733Y-118499976D01*
X139311368Y-118445839D01*
X139446000Y-118427334D01*
X139580632Y-118445839D01*
X139705266Y-118499976D01*
X139719707Y-118508758D01*
X139956601Y-118611655D01*
X139990804Y-118626512D01*
X140275406Y-118706254D01*
X140568215Y-118746500D01*
X140568218Y-118746500D01*
X140863782Y-118746500D01*
X140863785Y-118746500D01*
X141083391Y-118716315D01*
X141156594Y-118706254D01*
X141337981Y-118655431D01*
X141441195Y-118626512D01*
X141441196Y-118626511D01*
X141441198Y-118626511D01*
X141712293Y-118508758D01*
X141726733Y-118499976D01*
X141851368Y-118445839D01*
X141986000Y-118427334D01*
X142120632Y-118445839D01*
X142245266Y-118499976D01*
X142259707Y-118508758D01*
X142496601Y-118611655D01*
X142530804Y-118626512D01*
X142815406Y-118706254D01*
X143108215Y-118746500D01*
X143108218Y-118746500D01*
X143403782Y-118746500D01*
X143403785Y-118746500D01*
X143623391Y-118716315D01*
X143696594Y-118706254D01*
X143877981Y-118655431D01*
X143981195Y-118626512D01*
X143981196Y-118626511D01*
X143981198Y-118626511D01*
X144252293Y-118508758D01*
X144266733Y-118499976D01*
X144391368Y-118445839D01*
X144526000Y-118427334D01*
X144660632Y-118445839D01*
X144785266Y-118499976D01*
X144799707Y-118508758D01*
X145036601Y-118611655D01*
X145070804Y-118626512D01*
X145355406Y-118706254D01*
X145648215Y-118746500D01*
X145648218Y-118746500D01*
X145943782Y-118746500D01*
X145943785Y-118746500D01*
X146163391Y-118716315D01*
X146236594Y-118706254D01*
X146417981Y-118655431D01*
X146521195Y-118626512D01*
X146521196Y-118626511D01*
X146521198Y-118626511D01*
X146792293Y-118508758D01*
X147044829Y-118355188D01*
X147274102Y-118168660D01*
X147475840Y-117952651D01*
X147646286Y-117711184D01*
X147782265Y-117448757D01*
X147881244Y-117170258D01*
X147941378Y-116880875D01*
X147961107Y-116592445D01*
X147985074Y-116470141D01*
X148038601Y-116357589D01*
X148118350Y-116261812D01*
X148219346Y-116188786D01*
X148335288Y-116143064D01*
X148458944Y-116127500D01*
X149561631Y-116127500D01*
X149685037Y-116143000D01*
X149800775Y-116188537D01*
X149915839Y-116251367D01*
X150183954Y-116351369D01*
X150183957Y-116351370D01*
X150463567Y-116412195D01*
X150463572Y-116412196D01*
X150749000Y-116432610D01*
X151034428Y-116412196D01*
X151174237Y-116381782D01*
X151314042Y-116351370D01*
X151314042Y-116351369D01*
X151314046Y-116351369D01*
X151582161Y-116251367D01*
X151833315Y-116114226D01*
X152062395Y-115942739D01*
X152264739Y-115740395D01*
X152436226Y-115511315D01*
X152573367Y-115260161D01*
X152673369Y-114992046D01*
X152734196Y-114712428D01*
X152754610Y-114427000D01*
X152734196Y-114141572D01*
X152673369Y-113861954D01*
X152573367Y-113593839D01*
X152560895Y-113560400D01*
X152564030Y-113559230D01*
X152538043Y-113491048D01*
X152525541Y-113356611D01*
X152549537Y-113223743D01*
X152608275Y-113102171D01*
X152697455Y-113000797D01*
X152810547Y-112927042D01*
X152939273Y-112886305D01*
X153074207Y-112881570D01*
X153205470Y-112913182D01*
X153256386Y-112933050D01*
X153499763Y-112984081D01*
X153603158Y-112990500D01*
X155768842Y-112990500D01*
X155872237Y-112984081D01*
X156115614Y-112933050D01*
X156347273Y-112842656D01*
X156560894Y-112715366D01*
X156750650Y-112554650D01*
X156911366Y-112364894D01*
X157038656Y-112151273D01*
X157129050Y-111919614D01*
X157180081Y-111676237D01*
X157186500Y-111572842D01*
X157186500Y-109407158D01*
X157180081Y-109303763D01*
X157180080Y-109303760D01*
X157177840Y-109267673D01*
X157181135Y-109267468D01*
X157175876Y-109185798D01*
X157206843Y-109047606D01*
X157275385Y-108923679D01*
X157375982Y-108823999D01*
X157500532Y-108756595D01*
X157639001Y-108726895D01*
X157780238Y-108737292D01*
X157912866Y-108786948D01*
X158026202Y-108871865D01*
X158038395Y-108884058D01*
X158263460Y-109060385D01*
X158286048Y-109078081D01*
X158511712Y-109214500D01*
X158555281Y-109240838D01*
X158614906Y-109267673D01*
X158842165Y-109369954D01*
X159142522Y-109463549D01*
X159451971Y-109520258D01*
X159766000Y-109539253D01*
X160080029Y-109520258D01*
X160389478Y-109463549D01*
X160689835Y-109369954D01*
X160788332Y-109325624D01*
X160902398Y-109289980D01*
X161021671Y-109282479D01*
X161139306Y-109303553D01*
X161248554Y-109351993D01*
X161306727Y-109386656D01*
X161538386Y-109477050D01*
X161781763Y-109528081D01*
X161885158Y-109534500D01*
X164250842Y-109534500D01*
X164354237Y-109528081D01*
X164578098Y-109481141D01*
X164704066Y-109471079D01*
X164828522Y-109492982D01*
X164943485Y-109545446D01*
X165041582Y-109625108D01*
X165116522Y-109726858D01*
X165163499Y-109844170D01*
X165179500Y-109969522D01*
X165179500Y-114338032D01*
X165162497Y-114467184D01*
X165112645Y-114587534D01*
X165033344Y-114690881D01*
X164965459Y-114758765D01*
X164860370Y-114839066D01*
X164737877Y-114888938D01*
X164606584Y-114904880D01*
X164475715Y-114885770D01*
X164354464Y-114832951D01*
X164278721Y-114787163D01*
X164278722Y-114787163D01*
X164278718Y-114787161D01*
X163991834Y-114658045D01*
X163691476Y-114564450D01*
X163382033Y-114507742D01*
X163068000Y-114488747D01*
X162753966Y-114507742D01*
X162444523Y-114564450D01*
X162144161Y-114658047D01*
X162045665Y-114702376D01*
X161931598Y-114738020D01*
X161812327Y-114745520D01*
X161694693Y-114724446D01*
X161585445Y-114676006D01*
X161527273Y-114641344D01*
X161295614Y-114550950D01*
X161052237Y-114499919D01*
X160948842Y-114493500D01*
X158583158Y-114493500D01*
X158479763Y-114499919D01*
X158285061Y-114540743D01*
X158236385Y-114550950D01*
X158004724Y-114641345D01*
X157842483Y-114738020D01*
X157791106Y-114768634D01*
X157601350Y-114929350D01*
X157440634Y-115119106D01*
X157440632Y-115119108D01*
X157440632Y-115119109D01*
X157313345Y-115332724D01*
X157249484Y-115496386D01*
X157222950Y-115564386D01*
X157171919Y-115807763D01*
X157165500Y-115911158D01*
X157165500Y-118276842D01*
X157171919Y-118380237D01*
X157222950Y-118623614D01*
X157313344Y-118855273D01*
X157440634Y-119068894D01*
X157601350Y-119258650D01*
X157791106Y-119419366D01*
X158004727Y-119546656D01*
X158236386Y-119637050D01*
X158479763Y-119688081D01*
X158583158Y-119694500D01*
X160948842Y-119694500D01*
X161052237Y-119688081D01*
X161295614Y-119637050D01*
X161527273Y-119546656D01*
X161585447Y-119511991D01*
X161694691Y-119463554D01*
X161812326Y-119442479D01*
X161931599Y-119449979D01*
X162045667Y-119485623D01*
X162144165Y-119529954D01*
X162444522Y-119623549D01*
X162484453Y-119630866D01*
X162615655Y-119674376D01*
X162729889Y-119752212D01*
X162818385Y-119858401D01*
X162874354Y-119984794D01*
X162893500Y-120121692D01*
X162893500Y-120992500D01*
X162876497Y-121121651D01*
X162826647Y-121242000D01*
X162747346Y-121345346D01*
X162644000Y-121424647D01*
X162523651Y-121474497D01*
X162394500Y-121491500D01*
X155818377Y-121491500D01*
X155600661Y-121501277D01*
X155481901Y-121506611D01*
X155036826Y-121566900D01*
X154598938Y-121666846D01*
X154171776Y-121805639D01*
X153758779Y-121982162D01*
X153363266Y-122194996D01*
X152988412Y-122442436D01*
X152637264Y-122722468D01*
X152312620Y-123032858D01*
X152017109Y-123371099D01*
X151753109Y-123734462D01*
X151522743Y-124120031D01*
X151327867Y-124524694D01*
X151170050Y-124945196D01*
X151125238Y-125107570D01*
X151050559Y-125378163D01*
X151050559Y-125378165D01*
X150970360Y-125820093D01*
X150930100Y-126267425D01*
X150930100Y-126716575D01*
X150970360Y-127163906D01*
X150997216Y-127311897D01*
X151050559Y-127605837D01*
X151064041Y-127654686D01*
X151170050Y-128038803D01*
X151327867Y-128459305D01*
X151522743Y-128863968D01*
X151753109Y-129249537D01*
X151959022Y-129532950D01*
X152017111Y-129612903D01*
X152312621Y-129951142D01*
X152637261Y-130261529D01*
X152988417Y-130541567D01*
X153155625Y-130651940D01*
X153363266Y-130789003D01*
X153758779Y-131001837D01*
X154171776Y-131178360D01*
X154171778Y-131178360D01*
X154171779Y-131178361D01*
X154598942Y-131317155D01*
X155036826Y-131417099D01*
X155481907Y-131477389D01*
X155818377Y-131492500D01*
X169864312Y-131492500D01*
X169875509Y-131492626D01*
X170038315Y-131496280D01*
X170200857Y-131485320D01*
X170211963Y-131484696D01*
X170374693Y-131477389D01*
X170413727Y-131472101D01*
X170447148Y-131468715D01*
X170451190Y-131468442D01*
X170486944Y-131466033D01*
X170622431Y-131475425D01*
X170750367Y-131521001D01*
X170861276Y-131599386D01*
X170946942Y-131704773D01*
X171001018Y-131829354D01*
X171019500Y-131963903D01*
X171019500Y-133581938D01*
X171002497Y-133711089D01*
X170952646Y-133831438D01*
X170873349Y-133934780D01*
X170689081Y-134119049D01*
X170279639Y-134528490D01*
X170172241Y-134610104D01*
X170046908Y-134659971D01*
X169912797Y-134674447D01*
X169779710Y-134652474D01*
X169657370Y-134595658D01*
X169554717Y-134508150D01*
X169479254Y-134396347D01*
X169382566Y-134200282D01*
X169215025Y-133949539D01*
X169111453Y-133831438D01*
X169016189Y-133722810D01*
X168820156Y-133550894D01*
X168789461Y-133523975D01*
X168621532Y-133411768D01*
X168538714Y-133356431D01*
X168268254Y-133223055D01*
X167982694Y-133126121D01*
X167982693Y-133126120D01*
X167982691Y-133126120D01*
X167879601Y-133105614D01*
X167686919Y-133067286D01*
X167385999Y-133047563D01*
X167085080Y-133067286D01*
X166839489Y-133116138D01*
X166789309Y-133126120D01*
X166789307Y-133126120D01*
X166789305Y-133126121D01*
X166503745Y-133223055D01*
X166233285Y-133356431D01*
X165982536Y-133523977D01*
X165755810Y-133722810D01*
X165556977Y-133949536D01*
X165389431Y-134200285D01*
X165256055Y-134470745D01*
X165159121Y-134756305D01*
X165100286Y-135052080D01*
X165080563Y-135352999D01*
X165100286Y-135653919D01*
X165123600Y-135771122D01*
X165131643Y-135907707D01*
X165102287Y-136041343D01*
X165037739Y-136161982D01*
X164942852Y-136260554D01*
X164824759Y-136329649D01*
X164692338Y-136364073D01*
X164555546Y-136361237D01*
X164424666Y-136321355D01*
X164330355Y-136277722D01*
X163980408Y-136159811D01*
X163619754Y-136080425D01*
X163311900Y-136046944D01*
X163252641Y-136040500D01*
X162883359Y-136040500D01*
X162832335Y-136046049D01*
X162516245Y-136080425D01*
X162155591Y-136159811D01*
X161805637Y-136277725D01*
X161470499Y-136432776D01*
X161154063Y-136623169D01*
X160860090Y-136846642D01*
X160591991Y-137100599D01*
X160352921Y-137382054D01*
X160145684Y-137687705D01*
X159972711Y-138013966D01*
X159836027Y-138357017D01*
X159764945Y-138613033D01*
X159739355Y-138705207D01*
X159738812Y-138707161D01*
X159688334Y-138826279D01*
X159608931Y-138928418D01*
X159505938Y-139006711D01*
X159386281Y-139055895D01*
X159258000Y-139072666D01*
X159129719Y-139055895D01*
X159010062Y-139006711D01*
X158907069Y-138928418D01*
X158827666Y-138826279D01*
X158777188Y-138707161D01*
X158776645Y-138705207D01*
X158679973Y-138357021D01*
X158679972Y-138357017D01*
X158543288Y-138013966D01*
X158370315Y-137687705D01*
X158236860Y-137490874D01*
X158163077Y-137382052D01*
X157924009Y-137100600D01*
X157924008Y-137100599D01*
X157655909Y-136846642D01*
X157361936Y-136623169D01*
X157361932Y-136623166D01*
X157361930Y-136623165D01*
X157045508Y-136432780D01*
X157045502Y-136432777D01*
X157045500Y-136432776D01*
X156710362Y-136277725D01*
X156710359Y-136277724D01*
X156710357Y-136277723D01*
X156584307Y-136235252D01*
X156360408Y-136159811D01*
X155999754Y-136080425D01*
X155691900Y-136046944D01*
X155632641Y-136040500D01*
X155263359Y-136040500D01*
X155212335Y-136046049D01*
X154896245Y-136080425D01*
X154535591Y-136159811D01*
X154185637Y-136277725D01*
X153850499Y-136432776D01*
X153534063Y-136623169D01*
X153240090Y-136846642D01*
X152971991Y-137100599D01*
X152732921Y-137382054D01*
X152525684Y-137687705D01*
X152352711Y-138013966D01*
X152216027Y-138357016D01*
X152117233Y-138712847D01*
X152057491Y-139077256D01*
X152037497Y-139446000D01*
X152057491Y-139814743D01*
X152081892Y-139963581D01*
X152117234Y-140179157D01*
X152142823Y-140271321D01*
X152216027Y-140534983D01*
X152352711Y-140878033D01*
X152525684Y-141204294D01*
X152657326Y-141398451D01*
X152732923Y-141509948D01*
X152884157Y-141687994D01*
X152971991Y-141791400D01*
X153240090Y-142045357D01*
X153534063Y-142268830D01*
X153534070Y-142268835D01*
X153850492Y-142459220D01*
X153850497Y-142459222D01*
X153853332Y-142460928D01*
X153954603Y-142541434D01*
X154031775Y-142645268D01*
X154079661Y-142765451D01*
X154095041Y-142893906D01*
X154076881Y-143021997D01*
X154026403Y-143141115D01*
X153947000Y-143243252D01*
X153844008Y-143321545D01*
X153724350Y-143370729D01*
X153596070Y-143387500D01*
X138503930Y-143387500D01*
X138375650Y-143370729D01*
X138255992Y-143321545D01*
X138153000Y-143243252D01*
X138073597Y-143141115D01*
X138023119Y-143021997D01*
X138004959Y-142893906D01*
X138020339Y-142765451D01*
X138068225Y-142645268D01*
X138145397Y-142541434D01*
X138246668Y-142460928D01*
X138249502Y-142459222D01*
X138249508Y-142459220D01*
X138565930Y-142268835D01*
X138859912Y-142045355D01*
X139128009Y-141791400D01*
X139367077Y-141509948D01*
X139574313Y-141204297D01*
X139747288Y-140878033D01*
X139806304Y-140729914D01*
X139883972Y-140534983D01*
X139926236Y-140382759D01*
X139982766Y-140179157D01*
X140042509Y-139814740D01*
X140062502Y-139446000D01*
X140042509Y-139077260D01*
X139982766Y-138712843D01*
X139883973Y-138357021D01*
X139883972Y-138357016D01*
X139747288Y-138013966D01*
X139574315Y-137687705D01*
X139440860Y-137490874D01*
X139367077Y-137382052D01*
X139128009Y-137100600D01*
X139128008Y-137100599D01*
X138859909Y-136846642D01*
X138565936Y-136623169D01*
X138565932Y-136623166D01*
X138565930Y-136623165D01*
X138249508Y-136432780D01*
X138249502Y-136432777D01*
X138249500Y-136432776D01*
X137914362Y-136277725D01*
X137914359Y-136277724D01*
X137914357Y-136277723D01*
X137788307Y-136235252D01*
X137564408Y-136159811D01*
X137203754Y-136080425D01*
X136895900Y-136046944D01*
X136836641Y-136040500D01*
X136467359Y-136040500D01*
X136416335Y-136046049D01*
X136100245Y-136080425D01*
X135739591Y-136159811D01*
X135389637Y-136277725D01*
X135054499Y-136432776D01*
X134738063Y-136623169D01*
X134444090Y-136846642D01*
X134175991Y-137100599D01*
X133936921Y-137382054D01*
X133729684Y-137687705D01*
X133556711Y-138013966D01*
X133420027Y-138357017D01*
X133348945Y-138613033D01*
X133323355Y-138705207D01*
X133322812Y-138707161D01*
X133272334Y-138826279D01*
X133192931Y-138928418D01*
X133089938Y-139006711D01*
X132970281Y-139055895D01*
X132842000Y-139072666D01*
X132713719Y-139055895D01*
X132594062Y-139006711D01*
X132491069Y-138928418D01*
X132411666Y-138826279D01*
X132361188Y-138707161D01*
X132360645Y-138705207D01*
X132263973Y-138357021D01*
X132263972Y-138357017D01*
X132127288Y-138013966D01*
X131954315Y-137687705D01*
X131820860Y-137490874D01*
X131747077Y-137382052D01*
X131508009Y-137100600D01*
X131508008Y-137100599D01*
X131239909Y-136846642D01*
X130945936Y-136623169D01*
X130945932Y-136623166D01*
X130945930Y-136623165D01*
X130629508Y-136432780D01*
X130629502Y-136432777D01*
X130629500Y-136432776D01*
X130294362Y-136277725D01*
X130294359Y-136277724D01*
X130294357Y-136277723D01*
X130168307Y-136235252D01*
X129944408Y-136159811D01*
X129583754Y-136080425D01*
X129275900Y-136046944D01*
X129216641Y-136040500D01*
X128847359Y-136040500D01*
X128796335Y-136046049D01*
X128480245Y-136080425D01*
X128119591Y-136159811D01*
X127769637Y-136277725D01*
X127434499Y-136432776D01*
X127118063Y-136623169D01*
X126824090Y-136846642D01*
X126555991Y-137100599D01*
X126316921Y-137382054D01*
X126109683Y-137687707D01*
X126091608Y-137721801D01*
X126021354Y-137822193D01*
X125928752Y-137902438D01*
X125819387Y-137957696D01*
X125699852Y-137984636D01*
X125577356Y-137981634D01*
X125459285Y-137948869D01*
X125352758Y-137888319D01*
X125209332Y-137781543D01*
X125095596Y-137696870D01*
X124792904Y-137522111D01*
X124471971Y-137383674D01*
X124137136Y-137283431D01*
X124137133Y-137283430D01*
X123792929Y-137222738D01*
X123705719Y-137217658D01*
X123531305Y-137207500D01*
X123356695Y-137207500D01*
X123207196Y-137216207D01*
X123095070Y-137222738D01*
X122750866Y-137283430D01*
X122416029Y-137383674D01*
X122095096Y-137522111D01*
X121792400Y-137696872D01*
X121512047Y-137905586D01*
X121237435Y-138164671D01*
X121133244Y-138240165D01*
X121013214Y-138286507D01*
X120885324Y-138300618D01*
X120758077Y-138281559D01*
X120639934Y-138230597D01*
X120538749Y-138151121D01*
X120461250Y-138048413D01*
X120412588Y-137929304D01*
X120396000Y-137801712D01*
X120396000Y-134675500D01*
X120413003Y-134546349D01*
X120462853Y-134426000D01*
X120542154Y-134322654D01*
X120645500Y-134243353D01*
X120765849Y-134193503D01*
X120895000Y-134176500D01*
X122344842Y-134176500D01*
X122448237Y-134170081D01*
X122691614Y-134119050D01*
X122923273Y-134028656D01*
X123136894Y-133901366D01*
X123326650Y-133740650D01*
X123487366Y-133550894D01*
X123614656Y-133337273D01*
X123705050Y-133105614D01*
X123756081Y-132862237D01*
X123762500Y-132758842D01*
X123762500Y-130893158D01*
X123756214Y-130791915D01*
X123767319Y-130651940D01*
X123816984Y-130520593D01*
X123901277Y-130408284D01*
X124013523Y-130323907D01*
X124144833Y-130274144D01*
X124284808Y-130262935D01*
X124422363Y-130291169D01*
X124516507Y-130324854D01*
X124516509Y-130324854D01*
X124516516Y-130324857D01*
X124897800Y-130420364D01*
X125286609Y-130478038D01*
X125679200Y-130497325D01*
X126071791Y-130478038D01*
X126460600Y-130420364D01*
X126841884Y-130324857D01*
X127211972Y-130192438D01*
X127567297Y-130024381D01*
X127904439Y-129822306D01*
X128220151Y-129588158D01*
X128511392Y-129324192D01*
X128775358Y-129032951D01*
X129009506Y-128717239D01*
X129211581Y-128380097D01*
X129379638Y-128024772D01*
X129512057Y-127654684D01*
X129607564Y-127273400D01*
X129665238Y-126884591D01*
X129684525Y-126492000D01*
X135669274Y-126492000D01*
X135682159Y-126754261D01*
X135688562Y-126884591D01*
X135746236Y-127273400D01*
X135841743Y-127654684D01*
X135841744Y-127654686D01*
X135974162Y-128024774D01*
X136142217Y-128380093D01*
X136142219Y-128380097D01*
X136344294Y-128717239D01*
X136578442Y-129032951D01*
X136842408Y-129324192D01*
X137133649Y-129588158D01*
X137449361Y-129822306D01*
X137786503Y-130024381D01*
X137948724Y-130101106D01*
X138141825Y-130192437D01*
X138141828Y-130192438D01*
X138511916Y-130324857D01*
X138893200Y-130420364D01*
X139282009Y-130478038D01*
X139674600Y-130497325D01*
X140067191Y-130478038D01*
X140456000Y-130420364D01*
X140837284Y-130324857D01*
X141207372Y-130192438D01*
X141562697Y-130024381D01*
X141899839Y-129822306D01*
X142215551Y-129588158D01*
X142506792Y-129324192D01*
X142770758Y-129032951D01*
X143004906Y-128717239D01*
X143206981Y-128380097D01*
X143375038Y-128024772D01*
X143507457Y-127654684D01*
X143602964Y-127273400D01*
X143660638Y-126884591D01*
X143679925Y-126492000D01*
X143660638Y-126099409D01*
X143602964Y-125710600D01*
X143507457Y-125329316D01*
X143375038Y-124959228D01*
X143368401Y-124945196D01*
X143206982Y-124603906D01*
X143206981Y-124603903D01*
X143004906Y-124266761D01*
X142770758Y-123951049D01*
X142506792Y-123659808D01*
X142215551Y-123395842D01*
X141899839Y-123161694D01*
X141562697Y-122959619D01*
X141562693Y-122959617D01*
X141207374Y-122791562D01*
X140924192Y-122690239D01*
X140837284Y-122659143D01*
X140456000Y-122563636D01*
X140455995Y-122563635D01*
X140455994Y-122563635D01*
X140067192Y-122505962D01*
X139674600Y-122486674D01*
X139282007Y-122505962D01*
X138893205Y-122563635D01*
X138893202Y-122563635D01*
X138893200Y-122563636D01*
X138511916Y-122659143D01*
X138511913Y-122659143D01*
X138511913Y-122659144D01*
X138141825Y-122791562D01*
X137786506Y-122959617D01*
X137449360Y-123161694D01*
X137133650Y-123395841D01*
X136842408Y-123659808D01*
X136578441Y-123951050D01*
X136344294Y-124266760D01*
X136142217Y-124603906D01*
X135974162Y-124959225D01*
X135863344Y-125268944D01*
X135841743Y-125329316D01*
X135787990Y-125543912D01*
X135746235Y-125710605D01*
X135688562Y-126099407D01*
X135669274Y-126492000D01*
X129684525Y-126492000D01*
X129665238Y-126099409D01*
X129607564Y-125710600D01*
X129512057Y-125329316D01*
X129379638Y-124959228D01*
X129373001Y-124945196D01*
X129211582Y-124603906D01*
X129211581Y-124603903D01*
X129009506Y-124266761D01*
X128775358Y-123951049D01*
X128511392Y-123659808D01*
X128220151Y-123395842D01*
X127904439Y-123161694D01*
X127567297Y-122959619D01*
X127567293Y-122959617D01*
X127211974Y-122791562D01*
X126928792Y-122690239D01*
X126841884Y-122659143D01*
X126460600Y-122563636D01*
X126460595Y-122563635D01*
X126460594Y-122563635D01*
X126071792Y-122505962D01*
X125679200Y-122486674D01*
X125286607Y-122505962D01*
X124897805Y-122563635D01*
X124897802Y-122563635D01*
X124897800Y-122563636D01*
X124810882Y-122585408D01*
X124516511Y-122659144D01*
X124454681Y-122681267D01*
X124429606Y-122690239D01*
X124296465Y-122718183D01*
X124160721Y-122709126D01*
X124032469Y-122663744D01*
X123921240Y-122585408D01*
X123835303Y-122479942D01*
X123781045Y-122355184D01*
X123762500Y-122220409D01*
X123762500Y-120479158D01*
X123762499Y-120479157D01*
X123756081Y-120375763D01*
X123705050Y-120132386D01*
X123614656Y-119900727D01*
X123487366Y-119687106D01*
X123382845Y-119563699D01*
X123309281Y-119447531D01*
X123270216Y-119315692D01*
X123268617Y-119178197D01*
X123304606Y-119045485D01*
X123375449Y-118927635D01*
X123475768Y-118833594D01*
X123597945Y-118770504D01*
X123732701Y-118743156D01*
X123782237Y-118740081D01*
X124025614Y-118689050D01*
X124257273Y-118598656D01*
X124470894Y-118471366D01*
X124660650Y-118310650D01*
X124821366Y-118120894D01*
X124948656Y-117907273D01*
X125039050Y-117675614D01*
X125090081Y-117432237D01*
X125096500Y-117328842D01*
X125096500Y-115843158D01*
X125090081Y-115739763D01*
X125039050Y-115496386D01*
X124948656Y-115264727D01*
X124821366Y-115051106D01*
X124660650Y-114861350D01*
X124470894Y-114700634D01*
X124257273Y-114573344D01*
X124025614Y-114482950D01*
X123782237Y-114431919D01*
X123678842Y-114425500D01*
X122193158Y-114425500D01*
X122089763Y-114431919D01*
X121895061Y-114472743D01*
X121846385Y-114482950D01*
X121614724Y-114573345D01*
X121472578Y-114658046D01*
X121401106Y-114700634D01*
X121244881Y-114832951D01*
X121217504Y-114856138D01*
X121097806Y-114931289D01*
X120961837Y-114969864D01*
X120820507Y-114968768D01*
X120685153Y-114928091D01*
X120566633Y-114851095D01*
X120474456Y-114743956D01*
X120416015Y-114615270D01*
X120396000Y-114475360D01*
X120396000Y-112369873D01*
X120415017Y-112233427D01*
X120470620Y-112107381D01*
X120558569Y-112001342D01*
X120672162Y-111923393D01*
X120802739Y-111879476D01*
X120940349Y-111872938D01*
X121074503Y-111904277D01*
X121194974Y-111971104D01*
X121292581Y-112068326D01*
X121320396Y-112118006D01*
X121324179Y-112115753D01*
X121345343Y-112151271D01*
X121345344Y-112151273D01*
X121472634Y-112364894D01*
X121633350Y-112554650D01*
X121823106Y-112715366D01*
X122036727Y-112842656D01*
X122268386Y-112933050D01*
X122511763Y-112984081D01*
X122615158Y-112990500D01*
X124780842Y-112990500D01*
X124884237Y-112984081D01*
X125127614Y-112933050D01*
X125349885Y-112846319D01*
X125469542Y-112816017D01*
X125592987Y-112816017D01*
X125712655Y-112846320D01*
X125821223Y-112905073D01*
X125912045Y-112988680D01*
X125979563Y-113092024D01*
X126019646Y-113208781D01*
X126026948Y-113243609D01*
X126026950Y-113243614D01*
X126117344Y-113475273D01*
X126244634Y-113688894D01*
X126405350Y-113878650D01*
X126595106Y-114039366D01*
X126808727Y-114166656D01*
X127040386Y-114257050D01*
X127283763Y-114308081D01*
X127387158Y-114314500D01*
X129152842Y-114314500D01*
X129256237Y-114308081D01*
X129499614Y-114257050D01*
X129731273Y-114166656D01*
X129944894Y-114039366D01*
X130134650Y-113878650D01*
X130295366Y-113688894D01*
X130422656Y-113475273D01*
X130513050Y-113243614D01*
X130520354Y-113208775D01*
X130560433Y-113092029D01*
X130627951Y-112988684D01*
X130718773Y-112905076D01*
X130827341Y-112846321D01*
X130947009Y-112816017D01*
X131070456Y-112816017D01*
X131190118Y-112846320D01*
X131412386Y-112933050D01*
X131655763Y-112984081D01*
X131759158Y-112990500D01*
X133924842Y-112990500D01*
X134028237Y-112984081D01*
X134271614Y-112933050D01*
X134503273Y-112842656D01*
X134716894Y-112715366D01*
X134906650Y-112554650D01*
X135067366Y-112364894D01*
X135194656Y-112151273D01*
X135285050Y-111919614D01*
X135336081Y-111676237D01*
X135342500Y-111572842D01*
X135342500Y-109407158D01*
X135336081Y-109303763D01*
X135285050Y-109060386D01*
X135194656Y-108828727D01*
X135067366Y-108615106D01*
X134906650Y-108425350D01*
X134716894Y-108264634D01*
X134513783Y-108143607D01*
X134410666Y-108061989D01*
X134332451Y-107956264D01*
X134284573Y-107833777D01*
X134270358Y-107703036D01*
X134290793Y-107573122D01*
X134344458Y-107453058D01*
X134427627Y-107351185D01*
X134439024Y-107340482D01*
X134439030Y-107340478D01*
X134668390Y-107125094D01*
X134868947Y-106882663D01*
X135037537Y-106617007D01*
X135097377Y-106489840D01*
X135171502Y-106332319D01*
X135261170Y-106056349D01*
X135268731Y-106033079D01*
X135276038Y-105994775D01*
X135327688Y-105724017D01*
X135347444Y-105410000D01*
X135327688Y-105095982D01*
X135268732Y-104786924D01*
X135171502Y-104487680D01*
X135037539Y-104202997D01*
X135037538Y-104202996D01*
X135037537Y-104202993D01*
X134868947Y-103937337D01*
X134668390Y-103694906D01*
X134534605Y-103569273D01*
X134439031Y-103479522D01*
X134159086Y-103276131D01*
X134161292Y-103273094D01*
X134100708Y-103228346D01*
X134018458Y-103124012D01*
X133966654Y-103001673D01*
X133948968Y-102870000D01*
X133966654Y-102738327D01*
X134018458Y-102615988D01*
X134100708Y-102511654D01*
X134161292Y-102466905D01*
X134159086Y-102463869D01*
X134427219Y-102269059D01*
X134439030Y-102260478D01*
X134668390Y-102045094D01*
X134868947Y-101802663D01*
X135037537Y-101537007D01*
X135113500Y-101375578D01*
X135171502Y-101252319D01*
X135245247Y-101025355D01*
X135268731Y-100953079D01*
X135327688Y-100644015D01*
X135347444Y-100330000D01*
X135347443Y-100329999D01*
X135327688Y-100015982D01*
X135268732Y-99706924D01*
X135171502Y-99407680D01*
X135037539Y-99122997D01*
X135037538Y-99122996D01*
X135037537Y-99122993D01*
X134868947Y-98857337D01*
X134668390Y-98614906D01*
X134491606Y-98448894D01*
X134439031Y-98399522D01*
X134159086Y-98196131D01*
X134161292Y-98193094D01*
X134100708Y-98148346D01*
X134018458Y-98044012D01*
X133966654Y-97921673D01*
X133948968Y-97790000D01*
X133966654Y-97658327D01*
X134018458Y-97535988D01*
X134100708Y-97431654D01*
X134161292Y-97386905D01*
X134159086Y-97383869D01*
X134439031Y-97180477D01*
X134462281Y-97158644D01*
X134668390Y-96965094D01*
X134868947Y-96722663D01*
X135037537Y-96457007D01*
X135103408Y-96317025D01*
X135171502Y-96172319D01*
X135262758Y-95891461D01*
X135268731Y-95873079D01*
X135327688Y-95564015D01*
X135347444Y-95250000D01*
X135327688Y-94935985D01*
X135327688Y-94935982D01*
X135292020Y-94749002D01*
X135284166Y-94624167D01*
X135307604Y-94501300D01*
X135360862Y-94388122D01*
X135440592Y-94291744D01*
X135541786Y-94218223D01*
X135658085Y-94172177D01*
X135782181Y-94156500D01*
X136251819Y-94156500D01*
X136375915Y-94172177D01*
G37*
%TD.AperFunction*%
%TA.AperFunction,NonConductor*%
G36*
X159386281Y-139836104D02*
G01*
X159505939Y-139885289D01*
X159608931Y-139963581D01*
X159688334Y-140065720D01*
X159738810Y-140184833D01*
X159775931Y-140318531D01*
X159836027Y-140534983D01*
X159972711Y-140878033D01*
X160145684Y-141204294D01*
X160277326Y-141398451D01*
X160352923Y-141509948D01*
X160504157Y-141687994D01*
X160591991Y-141791400D01*
X160860090Y-142045357D01*
X161154063Y-142268830D01*
X161154070Y-142268835D01*
X161470492Y-142459220D01*
X161470497Y-142459222D01*
X161473332Y-142460928D01*
X161574603Y-142541434D01*
X161651775Y-142645268D01*
X161699661Y-142765451D01*
X161715041Y-142893906D01*
X161696881Y-143021997D01*
X161646403Y-143141115D01*
X161567000Y-143243252D01*
X161464008Y-143321545D01*
X161344350Y-143370729D01*
X161216070Y-143387500D01*
X157299930Y-143387500D01*
X157171650Y-143370729D01*
X157051992Y-143321545D01*
X156949000Y-143243252D01*
X156869597Y-143141115D01*
X156819119Y-143021997D01*
X156800959Y-142893906D01*
X156816339Y-142765451D01*
X156864225Y-142645268D01*
X156941397Y-142541434D01*
X157042668Y-142460928D01*
X157045502Y-142459222D01*
X157045508Y-142459220D01*
X157361930Y-142268835D01*
X157655912Y-142045355D01*
X157924009Y-141791400D01*
X158163077Y-141509948D01*
X158370313Y-141204297D01*
X158543288Y-140878033D01*
X158602304Y-140729914D01*
X158679972Y-140534983D01*
X158722236Y-140382759D01*
X158777189Y-140184833D01*
X158827666Y-140065720D01*
X158907069Y-139963581D01*
X159010061Y-139885289D01*
X159129719Y-139836104D01*
X159258000Y-139819333D01*
X159386281Y-139836104D01*
G37*
%TD.AperFunction*%
M02*
