M48
; DRILL file {KiCad (7.0.0)} date Wed Mar 22 18:36:41 2023
; FORMAT={-:-/ absolute / inch / decimal}
; #@! TF.CreationDate,2023-03-22T18:36:41-05:00
; #@! TF.GenerationSoftware,Kicad,Pcbnew,(7.0.0)
; #@! TF.FileFunction,Plated,1,2,PTH
FMAT,2
INCH
; #@! TA.AperFunction,Plated,PTH,ComponentDrill
T1C0.0295
; #@! TA.AperFunction,Plated,PTH,ComponentDrill
T2C0.0303
; #@! TA.AperFunction,Plated,PTH,ViaDrill
T3C0.0315
; #@! TA.AperFunction,Plated,PTH,ComponentDrill
T4C0.0315
; #@! TA.AperFunction,Plated,PTH,ComponentDrill
T5C0.0335
; #@! TA.AperFunction,Plated,PTH,ComponentDrill
T6C0.0354
; #@! TA.AperFunction,Plated,PTH,ComponentDrill
T7C0.0394
; #@! TA.AperFunction,Plated,PTH,ComponentDrill
T8C0.0433
; #@! TA.AperFunction,Plated,PTH,ComponentDrill
T9C0.0492
; #@! TA.AperFunction,Plated,PTH,ComponentDrill
T10C0.0669
; #@! TA.AperFunction,Plated,PTH,ComponentDrill
T11C0.0787
%
G90
G05
T1
X4.87Y-3.75
X4.87Y-3.95
X4.87Y-4.15
X4.87Y-4.35
X5.23Y-3.75
X5.23Y-3.95
X5.23Y-4.15
X5.23Y-4.35
X5.48Y-3.75
X5.48Y-3.95
X5.48Y-4.15
X5.48Y-4.35
X5.84Y-3.75
X5.84Y-3.95
X5.84Y-4.15
X5.84Y-4.35
X6.09Y-3.75
X6.09Y-3.95
X6.09Y-4.15
X6.09Y-4.35
T2
X4.84Y-4.59
X5.34Y-4.59
X5.44Y-4.59
X5.54Y-4.59
X5.64Y-4.59
X5.74Y-4.59
T3
X5.06Y-2.33
X5.07Y-3.68
X5.16Y-2.38
X5.2898Y-3.5298
X5.315Y-2.285
X5.39Y-3.5883
X5.57Y-3.46
X5.6503Y-3.3947
X5.665Y-3.68
X5.67Y-2.285
X5.77Y-2.33
X5.935Y-4.505
X6.04Y-3.53
X6.17Y-2.33
X6.37Y-2.3816
X6.47Y-2.33
X6.57Y-5.59
X6.82Y-5.0
T4
X5.05Y-3.8243
X5.05Y-4.0243
X5.05Y-4.1143
X5.05Y-4.3143
X5.66Y-3.8193
X5.66Y-4.0193
X5.66Y-4.1143
X5.66Y-4.3143
X6.2593Y-4.125
X6.4593Y-4.125
X6.59Y-5.3289
X6.59Y-5.4289
T5
X6.58Y-2.7831
X6.58Y-2.98
T6
X4.83Y-2.44
X4.85Y-4.77
X4.85Y-5.27
X5.1898Y-3.43
X5.2898Y-3.43
X6.8Y-5.27
X6.81Y-2.44
X6.82Y-4.83
T7
X4.79Y-2.66
X4.79Y-3.26
X4.89Y-2.66
X4.89Y-3.26
X4.99Y-2.66
X4.99Y-3.26
X5.09Y-2.66
X5.09Y-3.26
X5.17Y-2.19
X5.19Y-2.66
X5.19Y-3.26
X5.27Y-2.19
X5.29Y-2.66
X5.29Y-3.26
X5.37Y-2.19
X5.39Y-2.66
X5.39Y-3.26
X5.47Y-2.19
X5.49Y-2.66
X5.49Y-3.26
X5.57Y-2.19
X5.59Y-2.66
X5.59Y-3.26
X5.67Y-2.19
X5.69Y-2.66
X5.69Y-3.26
X5.77Y-2.19
X5.79Y-2.66
X5.79Y-3.26
X5.87Y-2.19
X5.89Y-2.66
X5.89Y-3.26
X5.97Y-2.19
X5.99Y-2.66
X5.99Y-3.26
X6.07Y-2.19
X6.09Y-2.66
X6.09Y-3.26
X6.17Y-2.19
X6.27Y-2.19
X6.37Y-2.19
X6.47Y-2.19
T8
X6.29Y-3.69
X6.29Y-3.99
X6.3Y-4.23
X6.3Y-4.53
X6.42Y-3.69
X6.42Y-3.99
X6.43Y-4.23
X6.43Y-4.53
T9
X6.7Y-3.4888
X6.7Y-4.5912
T10
X4.889Y-4.94
X4.889Y-4.98
X4.889Y-5.02
X5.44Y-4.94
X5.44Y-4.98
X5.44Y-5.02
X6.0819Y-4.94
X6.0819Y-4.98
X6.0819Y-5.02
X6.6329Y-4.94
X6.6329Y-4.98
X6.6329Y-5.02
T11
X5.0569Y-5.45
X5.36Y-5.45
X6.1159Y-5.45
X6.4191Y-5.45
T0
M30
