%TF.GenerationSoftware,KiCad,Pcbnew,(7.0.0)*%
%TF.CreationDate,2023-04-03T22:11:30-05:00*%
%TF.ProjectId,Bluetooth Multimeter,426c7565-746f-46f7-9468-204d756c7469,rev?*%
%TF.SameCoordinates,Original*%
%TF.FileFunction,Copper,L1,Top*%
%TF.FilePolarity,Positive*%
%FSLAX46Y46*%
G04 Gerber Fmt 4.6, Leading zero omitted, Abs format (unit mm)*
G04 Created by KiCad (PCBNEW (7.0.0)) date 2023-04-03 22:11:30*
%MOMM*%
%LPD*%
G01*
G04 APERTURE LIST*
%TA.AperFunction,ComponentPad*%
%ADD10R,1.700000X1.700000*%
%TD*%
%TA.AperFunction,ComponentPad*%
%ADD11R,2.000000X2.000000*%
%TD*%
%TA.AperFunction,ComponentPad*%
%ADD12C,2.000000*%
%TD*%
%TA.AperFunction,ComponentPad*%
%ADD13R,2.200000X2.200000*%
%TD*%
%TA.AperFunction,ComponentPad*%
%ADD14O,2.200000X2.200000*%
%TD*%
%TA.AperFunction,ComponentPad*%
%ADD15R,1.600000X1.600000*%
%TD*%
%TA.AperFunction,ComponentPad*%
%ADD16O,1.600000X1.600000*%
%TD*%
%TA.AperFunction,ComponentPad*%
%ADD17C,1.600000*%
%TD*%
%TA.AperFunction,ComponentPad*%
%ADD18C,3.000000*%
%TD*%
%TA.AperFunction,ComponentPad*%
%ADD19C,5.000000*%
%TD*%
%TA.AperFunction,ComponentPad*%
%ADD20R,1.750000X1.750000*%
%TD*%
%TA.AperFunction,ComponentPad*%
%ADD21C,1.750000*%
%TD*%
%TA.AperFunction,ComponentPad*%
%ADD22C,1.500000*%
%TD*%
%TA.AperFunction,ComponentPad*%
%ADD23C,4.000000*%
%TD*%
%TA.AperFunction,ComponentPad*%
%ADD24C,1.700000*%
%TD*%
%TA.AperFunction,ComponentPad*%
%ADD25O,1.700000X1.700000*%
%TD*%
%TA.AperFunction,ViaPad*%
%ADD26C,1.200000*%
%TD*%
%TA.AperFunction,Conductor*%
%ADD27C,1.000000*%
%TD*%
%TA.AperFunction,Conductor*%
%ADD28C,5.000000*%
%TD*%
%TA.AperFunction,Conductor*%
%ADD29C,7.000000*%
%TD*%
G04 APERTURE END LIST*
D10*
%TO.P,JC,1,Pin_1*%
%TO.N,/Input Common*%
X165099999Y-141223999D03*
%TD*%
D11*
%TO.P,K5,1,COM*%
%TO.N,/Ohm Vout*%
X155320999Y-106933999D03*
D12*
%TO.P,K5,3,K*%
%TO.N,/V{slash}Ohm Control*%
X155321000Y-101854000D03*
%TO.P,K5,5,A*%
%TO.N,GND*%
X155321000Y-96774000D03*
%TO.P,K5,7,NO*%
%TO.N,/Input Common*%
X155321000Y-91694000D03*
%TD*%
D11*
%TO.P,K3,1,COM*%
%TO.N,Net-(K3-COM)*%
X139826999Y-106933999D03*
D12*
%TO.P,K3,3,K*%
%TO.N,/High Range Control*%
X139827000Y-101854000D03*
%TO.P,K3,5,A*%
%TO.N,GND*%
X139827000Y-96774000D03*
%TO.P,K3,7,NO*%
%TO.N,/V{slash}Ohm ADC In*%
X139827000Y-91694000D03*
%TD*%
D13*
%TO.P,D2,1,K*%
%TO.N,/mA ADC In*%
X147446999Y-117855999D03*
D14*
%TO.P,D2,2,A*%
%TO.N,/Input Common*%
X147446999Y-125475999D03*
%TD*%
D15*
%TO.P,D8,1,K*%
%TO.N,/Ohm Gnd Control*%
X144398999Y-97916999D03*
D16*
%TO.P,D8,2,A*%
%TO.N,GND*%
X144398999Y-92836999D03*
%TD*%
D10*
%TO.P,JGND,1,Pin_1*%
%TO.N,GND*%
X172973999Y-61975999D03*
%TD*%
D15*
%TO.P,D10,1,K*%
%TO.N,/Input Common*%
X139318999Y-87121999D03*
D16*
%TO.P,D10,2,A*%
%TO.N,Net-(D10-A)*%
X131698999Y-87121999D03*
%TD*%
D15*
%TO.P,D9,1,K*%
%TO.N,/V{slash}Ohm Control*%
X159892999Y-101709999D03*
D16*
%TO.P,D9,2,A*%
%TO.N,GND*%
X159892999Y-96629999D03*
%TD*%
D13*
%TO.P,D1,1,K*%
%TO.N,/Input Common*%
X144144999Y-125475999D03*
D14*
%TO.P,D1,2,A*%
%TO.N,/mA ADC In*%
X144144999Y-117855999D03*
%TD*%
D10*
%TO.P,JmA,1,Pin_1*%
%TO.N,/mA In*%
X140588999Y-141223999D03*
%TD*%
D17*
%TO.P,R1,1*%
%TO.N,/Input Common*%
X164592000Y-122301000D03*
D16*
%TO.P,R1,2*%
%TO.N,/mA ADC In*%
X164591999Y-114680999D03*
%TD*%
D11*
%TO.P,K1,1,COM*%
%TO.N,/V{slash}Ohm In*%
X124078999Y-106933999D03*
D12*
%TO.P,K1,3,K*%
%TO.N,/Low Range Control*%
X124079000Y-101854000D03*
%TO.P,K1,5,A*%
%TO.N,GND*%
X124079000Y-96774000D03*
%TO.P,K1,7,NO*%
%TO.N,/V{slash}Ohm ADC In*%
X124079000Y-91694000D03*
%TD*%
D18*
%TO.P,R2,1*%
%TO.N,/A ADC In*%
X170942000Y-125760000D03*
%TO.P,R2,2*%
%TO.N,/Input Common*%
X170942000Y-97760000D03*
%TD*%
D15*
%TO.P,D6,1,K*%
%TO.N,/Med Range Control*%
X128650999Y-97916999D03*
D16*
%TO.P,D6,2,A*%
%TO.N,GND*%
X128650999Y-92836999D03*
%TD*%
D19*
%TO.P,F2,1*%
%TO.N,/A In*%
X123852600Y-131191000D03*
%TO.P,F2,2*%
X137848000Y-131191000D03*
%TO.P,F2,3*%
%TO.N,/A ADC In*%
X154152600Y-131191000D03*
%TO.P,F2,4*%
X168148000Y-131191000D03*
%TD*%
D11*
%TO.P,K2,1,COM*%
%TO.N,Net-(K2-COM)*%
X133222999Y-106933999D03*
D12*
%TO.P,K2,3,K*%
%TO.N,/Med Range Control*%
X133223000Y-101854000D03*
%TO.P,K2,5,A*%
%TO.N,GND*%
X133223000Y-96774000D03*
%TO.P,K2,7,NO*%
%TO.N,/V{slash}Ohm ADC In*%
X133223000Y-91694000D03*
%TD*%
D15*
%TO.P,D5,1,K*%
%TO.N,/Low Range Control*%
X128650999Y-105282999D03*
D16*
%TO.P,D5,2,A*%
%TO.N,GND*%
X128650999Y-100202999D03*
%TD*%
D10*
%TO.P,JCC,1,Pin_1*%
%TO.N,+3.3V*%
X122681999Y-61975999D03*
%TD*%
%TO.P,JV,1,Pin_1*%
%TO.N,/V{slash}Ohm In*%
X153415999Y-141223999D03*
%TD*%
D15*
%TO.P,D11,1,K*%
%TO.N,/V{slash}Ohm ADC In*%
X121792999Y-87121999D03*
D16*
%TO.P,D11,2,A*%
%TO.N,Net-(D10-A)*%
X129412999Y-87121999D03*
%TD*%
D11*
%TO.P,K4,1,COM*%
%TO.N,/Input Common*%
X148970999Y-106933999D03*
D12*
%TO.P,K4,3,K*%
%TO.N,/Ohm Gnd Control*%
X148971000Y-101854000D03*
%TO.P,K4,5,A*%
%TO.N,GND*%
X148971000Y-96774000D03*
%TO.P,K4,7,NO*%
X148971000Y-91694000D03*
%TD*%
D20*
%TO.P,RN1,1,9M*%
%TO.N,unconnected-(RN1-9M-Pad1)*%
X124893999Y-112872999D03*
D21*
%TO.P,RN1,2,900k*%
%TO.N,unconnected-(RN1-900k-Pad2)*%
X137594000Y-112873000D03*
%TO.P,RN1,3,90k*%
%TO.N,/V{slash}Ohm In*%
X140134000Y-112873000D03*
%TO.P,RN1,4,9k*%
%TO.N,Net-(K2-COM)*%
X142674000Y-112873000D03*
%TO.P,RN1,5,1k*%
%TO.N,Net-(K3-COM)*%
X145214000Y-112873000D03*
%TO.P,RN1,6,COM*%
%TO.N,/Ohm Vout*%
X147754000Y-112873000D03*
%TD*%
D15*
%TO.P,D7,1,K*%
%TO.N,/High Range Control*%
X144398999Y-105282999D03*
D16*
%TO.P,D7,2,A*%
%TO.N,GND*%
X144398999Y-100202999D03*
%TD*%
D13*
%TO.P,D4,1,K*%
%TO.N,/A ADC In*%
X147499999Y-135889999D03*
D14*
%TO.P,D4,2,A*%
%TO.N,/Input Common*%
X147499999Y-128269999D03*
%TD*%
D22*
%TO.P,LS1,1*%
%TO.N,/Speaker Control*%
X167767000Y-72604000D03*
%TO.P,LS1,2*%
%TO.N,GND*%
X167767000Y-67604000D03*
%TD*%
D10*
%TO.P,JA,1,Pin_1*%
%TO.N,/A In*%
X130555999Y-141223999D03*
%TD*%
D23*
%TO.P,F1,1*%
%TO.N,/mA In*%
X125166000Y-119126000D03*
%TO.P,F1,2*%
X132866000Y-119126000D03*
%TO.P,F1,3*%
%TO.N,/mA ADC In*%
X152066000Y-119126000D03*
%TO.P,F1,4*%
X159766000Y-119126000D03*
%TD*%
D10*
%TO.P,U1,1,Reset*%
%TO.N,unconnected-(U1-Reset-Pad1)*%
X121665999Y-82803999D03*
D24*
%TO.P,U1,2,3.3V*%
%TO.N,+3.3V*%
X124206000Y-82804000D03*
%TO.P,U1,3,Enable*%
%TO.N,unconnected-(U1-Enable-Pad3)*%
X126746000Y-82804000D03*
%TO.P,U1,4,VHI*%
%TO.N,unconnected-(U1-VHI-Pad4)*%
X129286000Y-82804000D03*
%TO.P,U1,5,A0/14*%
%TO.N,/V{slash}Ohm ADC In*%
X131826000Y-82804000D03*
%TO.P,U1,6,A1/15*%
%TO.N,/Input Common*%
X134366000Y-82804000D03*
%TO.P,U1,7,A2/16*%
%TO.N,/Ohm Vout*%
X136906000Y-82804000D03*
%TO.P,U1,8,A3/17*%
%TO.N,/mA ADC In*%
X139446000Y-82804000D03*
%TO.P,U1,9,A4/18*%
%TO.N,/A ADC In*%
X141986000Y-82804000D03*
%TO.P,U1,10,A5/19*%
%TO.N,/Speaker Control*%
X144526000Y-82804000D03*
%TO.P,U1,11,SCK/25*%
%TO.N,/SCK*%
X147066000Y-82804000D03*
%TO.P,U1,12,MOSI/24*%
%TO.N,/MOSI*%
X149606000Y-82804000D03*
%TO.P,U1,13,MISO/23*%
%TO.N,/MISO*%
X152146000Y-82804000D03*
%TO.P,U1,14,D2/2*%
%TO.N,/TOUCH IRQ*%
X154686000Y-82804000D03*
%TO.P,U1,15,RX/0*%
%TO.N,unconnected-(U1-RX{slash}0-Pad15)*%
X154686000Y-67564000D03*
%TO.P,U1,16,TX/1*%
%TO.N,unconnected-(U1-TX{slash}1-Pad16)*%
X152146000Y-67564000D03*
%TO.P,U1,17,SDA/21*%
%TO.N,/TOUCH CS*%
X149606000Y-67564000D03*
%TO.P,U1,18,SCL/22*%
%TO.N,/TFT DC*%
X147066000Y-67564000D03*
%TO.P,U1,19,D5/5!*%
%TO.N,unconnected-(U1-D5{slash}5!-Pad19)*%
X144526000Y-67564000D03*
%TO.P,U1,20,D7/7*%
%TO.N,/TFT CS*%
X141986000Y-67564000D03*
%TO.P,U1,21,D9/9*%
%TO.N,/Low Range Control*%
X139446000Y-67564000D03*
%TO.P,U1,22,D10/10*%
%TO.N,/Med Range Control*%
X136906000Y-67564000D03*
%TO.P,U1,23,D11/11*%
%TO.N,/High Range Control*%
X134366000Y-67564000D03*
%TO.P,U1,24,D12/12*%
%TO.N,/Ohm Gnd Control*%
X131826000Y-67564000D03*
%TO.P,U1,25,D13/13*%
%TO.N,/V{slash}Ohm Control*%
X129286000Y-67564000D03*
%TO.P,U1,26,VBUS*%
%TO.N,unconnected-(U1-VBUS-Pad26)*%
X126746000Y-67564000D03*
%TO.P,U1,27,GND*%
%TO.N,GND*%
X124206000Y-67564000D03*
%TO.P,U1,28,VBAT*%
%TO.N,unconnected-(U1-VBAT-Pad28)*%
X121666000Y-67564000D03*
%TD*%
D13*
%TO.P,D3,1,K*%
%TO.N,/Input Common*%
X144197999Y-128269999D03*
D14*
%TO.P,D3,2,A*%
%TO.N,/A ADC In*%
X144197999Y-135889999D03*
%TD*%
D10*
%TO.P,DS1,1,T_IRQ*%
%TO.N,/TOUCH IRQ*%
X164337999Y-55498999D03*
D25*
%TO.P,DS1,2,T_DO(MISO)*%
%TO.N,/MISO*%
X161797999Y-55498999D03*
%TO.P,DS1,3,T_DIN(MOSI)*%
%TO.N,/MOSI*%
X159257999Y-55498999D03*
%TO.P,DS1,4,T_CS*%
%TO.N,/TOUCH CS*%
X156717999Y-55498999D03*
%TO.P,DS1,5,T_CLK(SCK)*%
%TO.N,/SCK*%
X154177999Y-55498999D03*
%TO.P,DS1,6,SDO(MISO)*%
%TO.N,/MISO*%
X151637999Y-55498999D03*
%TO.P,DS1,7,LED*%
%TO.N,+3.3V*%
X149097999Y-55498999D03*
%TO.P,DS1,8,SCK*%
%TO.N,/SCK*%
X146557999Y-55498999D03*
%TO.P,DS1,9,SDI(MOSI)*%
%TO.N,/MOSI*%
X144017999Y-55498999D03*
%TO.P,DS1,10,DC*%
%TO.N,/TFT DC*%
X141477999Y-55498999D03*
%TO.P,DS1,11,RESET*%
%TO.N,+3.3V*%
X138937999Y-55498999D03*
%TO.P,DS1,12,CS*%
%TO.N,/TFT CS*%
X136397999Y-55498999D03*
%TO.P,DS1,13,GND*%
%TO.N,GND*%
X133857999Y-55498999D03*
%TO.P,DS1,14,VCC*%
%TO.N,+3.3V*%
X131317999Y-55498999D03*
%TD*%
D26*
%TO.N,+3.3V*%
X128651000Y-58166000D03*
X138938000Y-58166000D03*
X149098000Y-58166000D03*
%TO.N,/A ADC In*%
X173482000Y-91948000D03*
%TO.N,/MISO*%
X151638000Y-58166000D03*
X161798000Y-58166000D03*
%TO.N,/MOSI*%
X144018000Y-59690000D03*
X159258000Y-59690000D03*
%TO.N,/TOUCH CS*%
X157861000Y-63275500D03*
%TO.N,/Ohm Vout*%
X143891000Y-107950000D03*
%TD*%
D27*
%TO.N,/Low Range Control*%
X139446000Y-69469000D02*
X139446000Y-67564000D01*
X142113000Y-72136000D02*
X139446000Y-69469000D01*
X157607000Y-72136000D02*
X142113000Y-72136000D01*
X158750000Y-112268000D02*
X167259000Y-103759000D01*
X151892000Y-112268000D02*
X158750000Y-112268000D01*
X167259000Y-81788000D02*
X157607000Y-72136000D01*
X149352000Y-114808000D02*
X151892000Y-112268000D01*
X128651000Y-107083000D02*
X136376000Y-114808000D01*
X136376000Y-114808000D02*
X149352000Y-114808000D01*
X167259000Y-103759000D02*
X167259000Y-81788000D01*
X128651000Y-105283000D02*
X128651000Y-107083000D01*
%TO.N,/Med Range Control*%
X165862000Y-82296000D02*
X165862000Y-102743000D01*
X157480000Y-73914000D02*
X165862000Y-82296000D01*
X140110000Y-110617000D02*
X133223000Y-103730000D01*
X141351000Y-73914000D02*
X157480000Y-73914000D01*
X165862000Y-102743000D02*
X157988000Y-110617000D01*
X157988000Y-110617000D02*
X140110000Y-110617000D01*
X133223000Y-103730000D02*
X133223000Y-101854000D01*
X136906000Y-69469000D02*
X141351000Y-73914000D01*
X136906000Y-67564000D02*
X136906000Y-69469000D01*
%TO.N,/Ohm Vout*%
X153162000Y-109093000D02*
X155321000Y-106934000D01*
X145034000Y-109093000D02*
X153162000Y-109093000D01*
X143891000Y-107950000D02*
X145034000Y-109093000D01*
%TO.N,+3.3V*%
X149098000Y-58166000D02*
X138938000Y-58166000D01*
X138938000Y-58166000D02*
X128651000Y-58166000D01*
%TO.N,GND*%
X137160000Y-80518000D02*
X124206000Y-67564000D01*
X159893000Y-96630000D02*
X159893000Y-85090000D01*
X155321000Y-96774000D02*
X148971000Y-96774000D01*
X129794000Y-61976000D02*
X124206000Y-67564000D01*
X155321000Y-80518000D02*
X137160000Y-80518000D01*
X172974000Y-61976000D02*
X129794000Y-61976000D01*
X159893000Y-85090000D02*
X155321000Y-80518000D01*
D28*
%TO.N,/mA ADC In*%
X159766000Y-119126000D02*
X152066000Y-119126000D01*
X148717000Y-119126000D02*
X144399000Y-119126000D01*
X159766000Y-119126000D02*
X160147000Y-119126000D01*
X152066000Y-119126000D02*
X148717000Y-119126000D01*
X160147000Y-119126000D02*
X164592000Y-114681000D01*
D29*
%TO.N,/A ADC In*%
X154152600Y-131191000D02*
X149453600Y-135890000D01*
X170942000Y-125760000D02*
X170942000Y-128397000D01*
X154152600Y-131191000D02*
X168148000Y-131191000D01*
X170942000Y-128397000D02*
X168148000Y-131191000D01*
X149453600Y-135890000D02*
X144198000Y-135890000D01*
D27*
X173482000Y-123220000D02*
X170942000Y-125760000D01*
X173482000Y-91948000D02*
X173482000Y-123220000D01*
%TO.N,/MISO*%
X151638000Y-58166000D02*
X161798000Y-58166000D01*
%TO.N,/MOSI*%
X144018000Y-59690000D02*
X159258000Y-59690000D01*
%TO.N,/TOUCH CS*%
X157831500Y-63246000D02*
X151892000Y-63246000D01*
X157861000Y-63275500D02*
X157831500Y-63246000D01*
X149606000Y-65532000D02*
X149606000Y-67564000D01*
X151892000Y-63246000D02*
X149606000Y-65532000D01*
D28*
%TO.N,/mA In*%
X132866000Y-119126000D02*
X125166000Y-119126000D01*
D29*
%TO.N,/A In*%
X130683000Y-131191000D02*
X137848000Y-131191000D01*
X130683000Y-131191000D02*
X130683000Y-139573000D01*
X123852600Y-131191000D02*
X130683000Y-131191000D01*
D27*
%TO.N,/High Range Control*%
X161544000Y-105029000D02*
X144653000Y-105029000D01*
X164465000Y-102108000D02*
X161544000Y-105029000D01*
X140589000Y-75692000D02*
X156972000Y-75692000D01*
X144653000Y-105029000D02*
X144399000Y-105283000D01*
X164465000Y-83185000D02*
X164465000Y-102108000D01*
X156972000Y-75692000D02*
X164465000Y-83185000D01*
X134366000Y-69469000D02*
X140589000Y-75692000D01*
X134366000Y-67564000D02*
X134366000Y-69469000D01*
%TO.N,/Ohm Gnd Control*%
X150749000Y-103632000D02*
X160909000Y-103632000D01*
X160909000Y-103632000D02*
X163068000Y-101473000D01*
X163068000Y-101473000D02*
X163068000Y-83947000D01*
X131826000Y-69469000D02*
X131826000Y-67564000D01*
X139573000Y-77216000D02*
X131826000Y-69469000D01*
X156337000Y-77216000D02*
X139573000Y-77216000D01*
X148971000Y-101854000D02*
X150749000Y-103632000D01*
X163068000Y-83947000D02*
X156337000Y-77216000D01*
%TO.N,/Ohm Vout*%
X136906000Y-102489000D02*
X138938000Y-104521000D01*
X138938000Y-104521000D02*
X140462000Y-104521000D01*
X136906000Y-82804000D02*
X136906000Y-102489000D01*
X140462000Y-104521000D02*
X143891000Y-107950000D01*
%TO.N,/V{slash}Ohm Control*%
X161671000Y-84709000D02*
X161671000Y-100203000D01*
X138684000Y-78994000D02*
X155956000Y-78994000D01*
X129286000Y-67564000D02*
X129286000Y-69596000D01*
X155956000Y-78994000D02*
X161671000Y-84709000D01*
X160164000Y-101710000D02*
X159893000Y-101710000D01*
X161671000Y-100203000D02*
X160164000Y-101710000D01*
X129286000Y-69596000D02*
X138684000Y-78994000D01*
%TO.N,Net-(D10-A)*%
X131699000Y-87122000D02*
X129413000Y-87122000D01*
%TD*%
%TA.AperFunction,NonConductor*%
G36*
X121072470Y-58429460D02*
G01*
X121192982Y-58495575D01*
X121452364Y-58688678D01*
X121466404Y-58699130D01*
X121769096Y-58873889D01*
X121797462Y-58886125D01*
X121883456Y-58923220D01*
X121996788Y-58991160D01*
X122088314Y-59086464D01*
X122151616Y-59202450D01*
X122182257Y-59330984D01*
X122178086Y-59463054D01*
X122139398Y-59589399D01*
X122068904Y-59701160D01*
X121971548Y-59790500D01*
X121854155Y-59851155D01*
X121724959Y-59878871D01*
X121656527Y-59884256D01*
X121656524Y-59884256D01*
X121635588Y-59885904D01*
X121615233Y-59891032D01*
X121615221Y-59891035D01*
X121439046Y-59935428D01*
X121439038Y-59935430D01*
X121417317Y-59940904D01*
X121396924Y-59950166D01*
X121396915Y-59950170D01*
X121232769Y-60024728D01*
X121232758Y-60024734D01*
X121212374Y-60033993D01*
X121193960Y-60046749D01*
X121193955Y-60046753D01*
X121179175Y-60056993D01*
X121058490Y-60118273D01*
X120925776Y-60144866D01*
X120790798Y-60134815D01*
X120663486Y-60088859D01*
X120553208Y-60010380D01*
X120468077Y-59905152D01*
X120414357Y-59780917D01*
X120396000Y-59646816D01*
X120396000Y-58895835D01*
X120414932Y-58759688D01*
X120470293Y-58633872D01*
X120557880Y-58527934D01*
X120671049Y-58449912D01*
X120801211Y-58405728D01*
X120938491Y-58398734D01*
X121072470Y-58429460D01*
G37*
%TD.AperFunction*%
%TA.AperFunction,NonConductor*%
G36*
X174836907Y-58386516D02*
G01*
X174971885Y-58427461D01*
X175090013Y-58504540D01*
X175181852Y-58611596D01*
X175240065Y-58740074D01*
X175260000Y-58879709D01*
X175260000Y-59646816D01*
X175241643Y-59780917D01*
X175187923Y-59905152D01*
X175102792Y-60010380D01*
X174992514Y-60088859D01*
X174865202Y-60134815D01*
X174730224Y-60144866D01*
X174597510Y-60118273D01*
X174476825Y-60056993D01*
X174462044Y-60046753D01*
X174462043Y-60046752D01*
X174443626Y-60033993D01*
X174423236Y-60024731D01*
X174423230Y-60024728D01*
X174259084Y-59950170D01*
X174259079Y-59950168D01*
X174238683Y-59940904D01*
X174216957Y-59935429D01*
X174216953Y-59935428D01*
X174040783Y-59891037D01*
X174040781Y-59891036D01*
X174020412Y-59885904D01*
X173999475Y-59884256D01*
X173999468Y-59884255D01*
X173914125Y-59877539D01*
X173784929Y-59849822D01*
X173667537Y-59789167D01*
X173570181Y-59699826D01*
X173499688Y-59588065D01*
X173461000Y-59461720D01*
X173456831Y-59329650D01*
X173487471Y-59201116D01*
X173550774Y-59085130D01*
X173642301Y-58989827D01*
X173755632Y-58921887D01*
X173760051Y-58919981D01*
X173866904Y-58873889D01*
X174169596Y-58699130D01*
X174449953Y-58490412D01*
X174450465Y-58491100D01*
X174560026Y-58422970D01*
X174695865Y-58384978D01*
X174836907Y-58386516D01*
G37*
%TD.AperFunction*%
%TA.AperFunction,NonConductor*%
G36*
X170019711Y-53408435D02*
G01*
X170148188Y-53466648D01*
X170255244Y-53558486D01*
X170332323Y-53676613D01*
X170373268Y-53811590D01*
X170374807Y-53952632D01*
X170336817Y-54088470D01*
X170262335Y-54208246D01*
X170107151Y-54393189D01*
X170099183Y-54405302D01*
X170099176Y-54405313D01*
X169923067Y-54673073D01*
X169923062Y-54673081D01*
X169915087Y-54685207D01*
X169908578Y-54698166D01*
X169908569Y-54698183D01*
X169791661Y-54930968D01*
X169758223Y-54997549D01*
X169753261Y-55011179D01*
X169753260Y-55011184D01*
X169643642Y-55312357D01*
X169643639Y-55312366D01*
X169638681Y-55325989D01*
X169635336Y-55340099D01*
X169635336Y-55340102D01*
X169561424Y-55651959D01*
X169561420Y-55651977D01*
X169558077Y-55666086D01*
X169556391Y-55680503D01*
X169556391Y-55680508D01*
X169519185Y-55998818D01*
X169519184Y-55998832D01*
X169517500Y-56013241D01*
X169517500Y-56362759D01*
X169519184Y-56377168D01*
X169519185Y-56377181D01*
X169556391Y-56695491D01*
X169558077Y-56709914D01*
X169561421Y-56724025D01*
X169561424Y-56724040D01*
X169623757Y-56987040D01*
X169638681Y-57050011D01*
X169758223Y-57378451D01*
X169789640Y-57441007D01*
X169908569Y-57677816D01*
X169908574Y-57677825D01*
X169915087Y-57690793D01*
X169923066Y-57702925D01*
X169923067Y-57702926D01*
X170065671Y-57919745D01*
X170107151Y-57982811D01*
X170331817Y-58250558D01*
X170586047Y-58490412D01*
X170866404Y-58699130D01*
X171169096Y-58873889D01*
X171490029Y-59012326D01*
X171503939Y-59016490D01*
X171503938Y-59016490D01*
X171579049Y-59038977D01*
X171701106Y-59094301D01*
X171804038Y-59180114D01*
X171880422Y-59290225D01*
X171924747Y-59416692D01*
X171933818Y-59550395D01*
X171906980Y-59681691D01*
X171846169Y-59801109D01*
X171755770Y-59900038D01*
X171642303Y-59971342D01*
X171524771Y-60024727D01*
X171524759Y-60024733D01*
X171504374Y-60033993D01*
X171485966Y-60046745D01*
X171485959Y-60046750D01*
X171356156Y-60136679D01*
X171268103Y-60185344D01*
X171172077Y-60215358D01*
X171071983Y-60225500D01*
X163559225Y-60225500D01*
X163418641Y-60205287D01*
X163289446Y-60146286D01*
X163182106Y-60053276D01*
X163105319Y-59933793D01*
X163065304Y-59797516D01*
X163065304Y-59655486D01*
X163105318Y-59519210D01*
X163182105Y-59399726D01*
X163187484Y-59393517D01*
X163200087Y-59380915D01*
X163358716Y-59169011D01*
X163485574Y-58936689D01*
X163578077Y-58688678D01*
X163634343Y-58430026D01*
X163653227Y-58166000D01*
X163651956Y-58148230D01*
X163651956Y-58148222D01*
X163650946Y-58134102D01*
X163659849Y-57998243D01*
X163705144Y-57869847D01*
X163783457Y-57758473D01*
X163888959Y-57672413D01*
X164013796Y-57618073D01*
X164148674Y-57599499D01*
X165242425Y-57599499D01*
X165252216Y-57599499D01*
X165384412Y-57589096D01*
X165602683Y-57534096D01*
X165807626Y-57441007D01*
X165992654Y-57312819D01*
X166151819Y-57153654D01*
X166280007Y-56968626D01*
X166373096Y-56763683D01*
X166428096Y-56545412D01*
X166438500Y-56413217D01*
X166438499Y-54584784D01*
X166428096Y-54452588D01*
X166373096Y-54234317D01*
X166309299Y-54093864D01*
X166269585Y-53957651D01*
X166269812Y-53815765D01*
X166309965Y-53679678D01*
X166386796Y-53560395D01*
X166494094Y-53467557D01*
X166623184Y-53408672D01*
X166763629Y-53388500D01*
X169880076Y-53388500D01*
X170019711Y-53408435D01*
G37*
%TD.AperFunction*%
%TA.AperFunction,NonConductor*%
G36*
X129408269Y-53407004D02*
G01*
X129532913Y-53461145D01*
X129638328Y-53546906D01*
X129716695Y-53657927D01*
X129762204Y-53785975D01*
X129771478Y-53921552D01*
X129743830Y-54054604D01*
X129681310Y-54175262D01*
X129528931Y-54391134D01*
X129528926Y-54391142D01*
X129519099Y-54405064D01*
X129511256Y-54420199D01*
X129511253Y-54420205D01*
X129483624Y-54473527D01*
X129386896Y-54660203D01*
X129381189Y-54676258D01*
X129381184Y-54676272D01*
X129296377Y-54914898D01*
X129290666Y-54930968D01*
X129287198Y-54947656D01*
X129287196Y-54947664D01*
X129235669Y-55195625D01*
X129235667Y-55195639D01*
X129232202Y-55212314D01*
X129231039Y-55229303D01*
X129231038Y-55229317D01*
X129214161Y-55476049D01*
X129212592Y-55499000D01*
X129213755Y-55516002D01*
X129213755Y-55516004D01*
X129231976Y-55782392D01*
X129221459Y-55923776D01*
X129171605Y-56056495D01*
X129086437Y-56169837D01*
X128972831Y-56254653D01*
X128839958Y-56304095D01*
X128698542Y-56314173D01*
X128668774Y-56312044D01*
X128668770Y-56312044D01*
X128651000Y-56310773D01*
X128633230Y-56312044D01*
X128404745Y-56328385D01*
X128404731Y-56328386D01*
X128386974Y-56329657D01*
X128369566Y-56333443D01*
X128369558Y-56333445D01*
X128145733Y-56382135D01*
X128145726Y-56382136D01*
X128128322Y-56385923D01*
X128111638Y-56392145D01*
X128111627Y-56392149D01*
X127897018Y-56472194D01*
X127897010Y-56472197D01*
X127880311Y-56478426D01*
X127864666Y-56486968D01*
X127864659Y-56486972D01*
X127663631Y-56596742D01*
X127663622Y-56596747D01*
X127647989Y-56605284D01*
X127633729Y-56615958D01*
X127633721Y-56615964D01*
X127450352Y-56753232D01*
X127450344Y-56753238D01*
X127436085Y-56763913D01*
X127423489Y-56776508D01*
X127423482Y-56776515D01*
X127261515Y-56938482D01*
X127261508Y-56938489D01*
X127248913Y-56951085D01*
X127238238Y-56965344D01*
X127238232Y-56965352D01*
X127100964Y-57148721D01*
X127100958Y-57148729D01*
X127090284Y-57162989D01*
X127081747Y-57178622D01*
X127081742Y-57178631D01*
X126971972Y-57379659D01*
X126971968Y-57379666D01*
X126963426Y-57395311D01*
X126957197Y-57412010D01*
X126957194Y-57412018D01*
X126877149Y-57626627D01*
X126877145Y-57626638D01*
X126870923Y-57643322D01*
X126867136Y-57660726D01*
X126867135Y-57660733D01*
X126818445Y-57884558D01*
X126818443Y-57884566D01*
X126814657Y-57901974D01*
X126813386Y-57919731D01*
X126813385Y-57919745D01*
X126798054Y-58134102D01*
X126795773Y-58166000D01*
X126797044Y-58183770D01*
X126813385Y-58412254D01*
X126813386Y-58412266D01*
X126814657Y-58430026D01*
X126818444Y-58447435D01*
X126818445Y-58447441D01*
X126867135Y-58671266D01*
X126870923Y-58688678D01*
X126877147Y-58705365D01*
X126877149Y-58705372D01*
X126948188Y-58895835D01*
X126963426Y-58936689D01*
X126971971Y-58952338D01*
X126971972Y-58952340D01*
X127017308Y-59035367D01*
X127090284Y-59169011D01*
X127100963Y-59183276D01*
X127100964Y-59183278D01*
X127210536Y-59329650D01*
X127248913Y-59380915D01*
X127436085Y-59568087D01*
X127647989Y-59726716D01*
X127880311Y-59853574D01*
X128128322Y-59946077D01*
X128237401Y-59969805D01*
X128362614Y-60015238D01*
X128471352Y-60092183D01*
X128555859Y-60195155D01*
X128610113Y-60316814D01*
X128630246Y-60448492D01*
X128614826Y-60580805D01*
X128564950Y-60704324D01*
X128484172Y-60810246D01*
X125540282Y-63754136D01*
X125433696Y-63835291D01*
X125309361Y-63885165D01*
X125176238Y-63900164D01*
X125043923Y-63879207D01*
X124921951Y-63823805D01*
X124819113Y-63737949D01*
X124742823Y-63627829D01*
X124698577Y-63501382D01*
X124689566Y-63367720D01*
X124714331Y-63246768D01*
X124717096Y-63240683D01*
X124772096Y-63022412D01*
X124782500Y-62890217D01*
X124782499Y-61061784D01*
X124772096Y-60929588D01*
X124717096Y-60711317D01*
X124657815Y-60580805D01*
X124633271Y-60526769D01*
X124633269Y-60526767D01*
X124624007Y-60506374D01*
X124495819Y-60321346D01*
X124336654Y-60162181D01*
X124313711Y-60146286D01*
X124170040Y-60046750D01*
X124170037Y-60046748D01*
X124151626Y-60033993D01*
X124131230Y-60024729D01*
X124131220Y-60024723D01*
X124005752Y-59967733D01*
X123892284Y-59896430D01*
X123801885Y-59797501D01*
X123741073Y-59678082D01*
X123714235Y-59546786D01*
X123723306Y-59413082D01*
X123767632Y-59286614D01*
X123844016Y-59176503D01*
X123946950Y-59090691D01*
X124069006Y-59035367D01*
X124093621Y-59027998D01*
X124132060Y-59016491D01*
X124132064Y-59016489D01*
X124145971Y-59012326D01*
X124466904Y-58873889D01*
X124769596Y-58699130D01*
X125049953Y-58490412D01*
X125304183Y-58250558D01*
X125528849Y-57982811D01*
X125720913Y-57690793D01*
X125877777Y-57378451D01*
X125997319Y-57050011D01*
X126077923Y-56709914D01*
X126118500Y-56362759D01*
X126118500Y-56013241D01*
X126077923Y-55666086D01*
X125997319Y-55325989D01*
X125877777Y-54997549D01*
X125720913Y-54685207D01*
X125528849Y-54393189D01*
X125373664Y-54208246D01*
X125299183Y-54088470D01*
X125261193Y-53952632D01*
X125262732Y-53811590D01*
X125303677Y-53676613D01*
X125380756Y-53558486D01*
X125487812Y-53466648D01*
X125616289Y-53408435D01*
X125755924Y-53388500D01*
X129273641Y-53388500D01*
X129408269Y-53407004D01*
G37*
%TD.AperFunction*%
%TA.AperFunction,NonConductor*%
G36*
X121058490Y-63833727D02*
G01*
X121179175Y-63895007D01*
X121184539Y-63898723D01*
X121212374Y-63918007D01*
X121417317Y-64011096D01*
X121635588Y-64066096D01*
X121767783Y-64076500D01*
X123596216Y-64076499D01*
X123728412Y-64066096D01*
X123946683Y-64011096D01*
X123952764Y-64008333D01*
X124073715Y-63983567D01*
X124207377Y-63992577D01*
X124333826Y-64036821D01*
X124443946Y-64113112D01*
X124529802Y-64215949D01*
X124585206Y-64337921D01*
X124606163Y-64470237D01*
X124591164Y-64603360D01*
X124541290Y-64727696D01*
X124460135Y-64834282D01*
X123889692Y-65404725D01*
X123788802Y-65482598D01*
X123671476Y-65532374D01*
X123517360Y-65575555D01*
X123517347Y-65575559D01*
X123500942Y-65580156D01*
X123485326Y-65586938D01*
X123485309Y-65586945D01*
X123253000Y-65687851D01*
X123252986Y-65687857D01*
X123237375Y-65694639D01*
X123222822Y-65703488D01*
X123222814Y-65703493D01*
X123195261Y-65720248D01*
X123070619Y-65774384D01*
X122935994Y-65792886D01*
X122801369Y-65774381D01*
X122676728Y-65720242D01*
X122649186Y-65703493D01*
X122649177Y-65703488D01*
X122634625Y-65694639D01*
X122619007Y-65687855D01*
X122618999Y-65687851D01*
X122386690Y-65586945D01*
X122386678Y-65586940D01*
X122371058Y-65580156D01*
X122354648Y-65575558D01*
X122354642Y-65575556D01*
X122110772Y-65507228D01*
X122094358Y-65502629D01*
X122077477Y-65500308D01*
X122077469Y-65500307D01*
X121826573Y-65465822D01*
X121826570Y-65465821D01*
X121809678Y-65463500D01*
X121522322Y-65463500D01*
X121505430Y-65465821D01*
X121505426Y-65465822D01*
X121254530Y-65500307D01*
X121254519Y-65500309D01*
X121237642Y-65502629D01*
X121221232Y-65507226D01*
X121221231Y-65507227D01*
X121197459Y-65513887D01*
X121029622Y-65560912D01*
X120899868Y-65579392D01*
X120769772Y-65563447D01*
X120648316Y-65514176D01*
X120543879Y-65434979D01*
X120463667Y-65331320D01*
X120413214Y-65210350D01*
X120396000Y-65080416D01*
X120396000Y-64305184D01*
X120414357Y-64171083D01*
X120468077Y-64046848D01*
X120553208Y-63941620D01*
X120663486Y-63863141D01*
X120790798Y-63817185D01*
X120925776Y-63807134D01*
X121058490Y-63833727D01*
G37*
%TD.AperFunction*%
%TA.AperFunction,NonConductor*%
G36*
X147901629Y-63744114D02*
G01*
X148023762Y-63795713D01*
X148127996Y-63877654D01*
X148206971Y-63984152D01*
X148255112Y-64107689D01*
X148269021Y-64239543D01*
X148247716Y-64370405D01*
X148192702Y-64491033D01*
X148190982Y-64493773D01*
X148177419Y-64512885D01*
X148177769Y-64513124D01*
X148167255Y-64528544D01*
X148155614Y-64543143D01*
X148146280Y-64559308D01*
X148146277Y-64559314D01*
X148111061Y-64620309D01*
X148101438Y-64636279D01*
X148063951Y-64695940D01*
X148063941Y-64695957D01*
X148054017Y-64711753D01*
X148046552Y-64728861D01*
X148039917Y-64741417D01*
X148033765Y-64754190D01*
X148024432Y-64770357D01*
X148017614Y-64787727D01*
X148017607Y-64787743D01*
X147991867Y-64853327D01*
X147984730Y-64870558D01*
X147949100Y-64952225D01*
X147944270Y-64970247D01*
X147939576Y-64983663D01*
X147935393Y-64997223D01*
X147928580Y-65014584D01*
X147924429Y-65032766D01*
X147924425Y-65032782D01*
X147909056Y-65100116D01*
X147867104Y-65215762D01*
X147798134Y-65317630D01*
X147706338Y-65399529D01*
X147597294Y-65456480D01*
X147477631Y-65485023D01*
X147354622Y-65483422D01*
X147226576Y-65465822D01*
X147226567Y-65465821D01*
X147209678Y-65463500D01*
X146922322Y-65463500D01*
X146905430Y-65465821D01*
X146905426Y-65465822D01*
X146654530Y-65500307D01*
X146654519Y-65500309D01*
X146637642Y-65502629D01*
X146621230Y-65507227D01*
X146621227Y-65507228D01*
X146377357Y-65575556D01*
X146377346Y-65575559D01*
X146360942Y-65580156D01*
X146345326Y-65586938D01*
X146345309Y-65586945D01*
X146113000Y-65687851D01*
X146112986Y-65687857D01*
X146097375Y-65694639D01*
X146082827Y-65703485D01*
X146082817Y-65703491D01*
X146055267Y-65720245D01*
X145930625Y-65774383D01*
X145796000Y-65792886D01*
X145661375Y-65774383D01*
X145536733Y-65720245D01*
X145509182Y-65703491D01*
X145509178Y-65703488D01*
X145494625Y-65694639D01*
X145479007Y-65687855D01*
X145478999Y-65687851D01*
X145246690Y-65586945D01*
X145246678Y-65586940D01*
X145231058Y-65580156D01*
X145214648Y-65575558D01*
X145214642Y-65575556D01*
X144970772Y-65507228D01*
X144954358Y-65502629D01*
X144937477Y-65500308D01*
X144937469Y-65500307D01*
X144686573Y-65465822D01*
X144686570Y-65465821D01*
X144669678Y-65463500D01*
X144382322Y-65463500D01*
X144365430Y-65465821D01*
X144365426Y-65465822D01*
X144114530Y-65500307D01*
X144114519Y-65500309D01*
X144097642Y-65502629D01*
X144081230Y-65507227D01*
X144081227Y-65507228D01*
X143837357Y-65575556D01*
X143837346Y-65575559D01*
X143820942Y-65580156D01*
X143805326Y-65586938D01*
X143805309Y-65586945D01*
X143573000Y-65687851D01*
X143572986Y-65687857D01*
X143557375Y-65694639D01*
X143542827Y-65703485D01*
X143542817Y-65703491D01*
X143515267Y-65720245D01*
X143390625Y-65774383D01*
X143256000Y-65792886D01*
X143121375Y-65774383D01*
X142996733Y-65720245D01*
X142969182Y-65703491D01*
X142969178Y-65703488D01*
X142954625Y-65694639D01*
X142939007Y-65687855D01*
X142938999Y-65687851D01*
X142706690Y-65586945D01*
X142706678Y-65586940D01*
X142691058Y-65580156D01*
X142674648Y-65575558D01*
X142674642Y-65575556D01*
X142430772Y-65507228D01*
X142414358Y-65502629D01*
X142397477Y-65500308D01*
X142397469Y-65500307D01*
X142146573Y-65465822D01*
X142146570Y-65465821D01*
X142129678Y-65463500D01*
X141842322Y-65463500D01*
X141825430Y-65465821D01*
X141825426Y-65465822D01*
X141574530Y-65500307D01*
X141574519Y-65500309D01*
X141557642Y-65502629D01*
X141541230Y-65507227D01*
X141541227Y-65507228D01*
X141297357Y-65575556D01*
X141297346Y-65575559D01*
X141280942Y-65580156D01*
X141265326Y-65586938D01*
X141265309Y-65586945D01*
X141033000Y-65687851D01*
X141032986Y-65687857D01*
X141017375Y-65694639D01*
X141002827Y-65703485D01*
X141002817Y-65703491D01*
X140975267Y-65720245D01*
X140850625Y-65774383D01*
X140716000Y-65792886D01*
X140581375Y-65774383D01*
X140456733Y-65720245D01*
X140429182Y-65703491D01*
X140429178Y-65703488D01*
X140414625Y-65694639D01*
X140399007Y-65687855D01*
X140398999Y-65687851D01*
X140166690Y-65586945D01*
X140166678Y-65586940D01*
X140151058Y-65580156D01*
X140134648Y-65575558D01*
X140134642Y-65575556D01*
X139890772Y-65507228D01*
X139874358Y-65502629D01*
X139857477Y-65500308D01*
X139857469Y-65500307D01*
X139606573Y-65465822D01*
X139606570Y-65465821D01*
X139589678Y-65463500D01*
X139302322Y-65463500D01*
X139285430Y-65465821D01*
X139285426Y-65465822D01*
X139034530Y-65500307D01*
X139034519Y-65500309D01*
X139017642Y-65502629D01*
X139001230Y-65507227D01*
X139001227Y-65507228D01*
X138757357Y-65575556D01*
X138757346Y-65575559D01*
X138740942Y-65580156D01*
X138725326Y-65586938D01*
X138725309Y-65586945D01*
X138493000Y-65687851D01*
X138492986Y-65687857D01*
X138477375Y-65694639D01*
X138462827Y-65703485D01*
X138462817Y-65703491D01*
X138435267Y-65720245D01*
X138310625Y-65774383D01*
X138176000Y-65792886D01*
X138041375Y-65774383D01*
X137916733Y-65720245D01*
X137889182Y-65703491D01*
X137889178Y-65703488D01*
X137874625Y-65694639D01*
X137859007Y-65687855D01*
X137858999Y-65687851D01*
X137626690Y-65586945D01*
X137626678Y-65586940D01*
X137611058Y-65580156D01*
X137594648Y-65575558D01*
X137594642Y-65575556D01*
X137350772Y-65507228D01*
X137334358Y-65502629D01*
X137317477Y-65500308D01*
X137317469Y-65500307D01*
X137066573Y-65465822D01*
X137066570Y-65465821D01*
X137049678Y-65463500D01*
X136762322Y-65463500D01*
X136745430Y-65465821D01*
X136745426Y-65465822D01*
X136494530Y-65500307D01*
X136494519Y-65500309D01*
X136477642Y-65502629D01*
X136461230Y-65507227D01*
X136461227Y-65507228D01*
X136217357Y-65575556D01*
X136217346Y-65575559D01*
X136200942Y-65580156D01*
X136185326Y-65586938D01*
X136185309Y-65586945D01*
X135953000Y-65687851D01*
X135952986Y-65687857D01*
X135937375Y-65694639D01*
X135922827Y-65703485D01*
X135922817Y-65703491D01*
X135895267Y-65720245D01*
X135770625Y-65774383D01*
X135636000Y-65792886D01*
X135501375Y-65774383D01*
X135376733Y-65720245D01*
X135349182Y-65703491D01*
X135349178Y-65703488D01*
X135334625Y-65694639D01*
X135319007Y-65687855D01*
X135318999Y-65687851D01*
X135086690Y-65586945D01*
X135086678Y-65586940D01*
X135071058Y-65580156D01*
X135054648Y-65575558D01*
X135054642Y-65575556D01*
X134810772Y-65507228D01*
X134794358Y-65502629D01*
X134777477Y-65500308D01*
X134777469Y-65500307D01*
X134526573Y-65465822D01*
X134526570Y-65465821D01*
X134509678Y-65463500D01*
X134222322Y-65463500D01*
X134205430Y-65465821D01*
X134205426Y-65465822D01*
X133954530Y-65500307D01*
X133954519Y-65500309D01*
X133937642Y-65502629D01*
X133921230Y-65507227D01*
X133921227Y-65507228D01*
X133677357Y-65575556D01*
X133677346Y-65575559D01*
X133660942Y-65580156D01*
X133645326Y-65586938D01*
X133645309Y-65586945D01*
X133413000Y-65687851D01*
X133412986Y-65687857D01*
X133397375Y-65694639D01*
X133382822Y-65703488D01*
X133382814Y-65703493D01*
X133355261Y-65720248D01*
X133230619Y-65774384D01*
X133095994Y-65792886D01*
X132961369Y-65774381D01*
X132836728Y-65720242D01*
X132809186Y-65703493D01*
X132809177Y-65703488D01*
X132794625Y-65694639D01*
X132779007Y-65687855D01*
X132778999Y-65687851D01*
X132546690Y-65586945D01*
X132546678Y-65586940D01*
X132531058Y-65580156D01*
X132514648Y-65575558D01*
X132514642Y-65575556D01*
X132270772Y-65507228D01*
X132254358Y-65502629D01*
X132237477Y-65500308D01*
X132237469Y-65500307D01*
X131986573Y-65465822D01*
X131986570Y-65465821D01*
X131969678Y-65463500D01*
X131682322Y-65463500D01*
X131665430Y-65465821D01*
X131665426Y-65465822D01*
X131414530Y-65500307D01*
X131414519Y-65500309D01*
X131397642Y-65502629D01*
X131381230Y-65507227D01*
X131381227Y-65507228D01*
X131137357Y-65575556D01*
X131137346Y-65575559D01*
X131120942Y-65580156D01*
X131105326Y-65586938D01*
X131105309Y-65586945D01*
X130873000Y-65687851D01*
X130872986Y-65687857D01*
X130857375Y-65694639D01*
X130842822Y-65703488D01*
X130842814Y-65703493D01*
X130815261Y-65720248D01*
X130690619Y-65774384D01*
X130555994Y-65792886D01*
X130421369Y-65774381D01*
X130296728Y-65720242D01*
X130269186Y-65703493D01*
X130269177Y-65703488D01*
X130254625Y-65694639D01*
X130239007Y-65687855D01*
X130238999Y-65687851D01*
X130006690Y-65586945D01*
X130006678Y-65586940D01*
X129991058Y-65580156D01*
X129974649Y-65575558D01*
X129974645Y-65575557D01*
X129776967Y-65520171D01*
X129657804Y-65469315D01*
X129555750Y-65389496D01*
X129477684Y-65286094D01*
X129428871Y-65166080D01*
X129412600Y-65037545D01*
X129429968Y-64909153D01*
X129479804Y-64789560D01*
X129558740Y-64686838D01*
X130372929Y-63872649D01*
X130476272Y-63793353D01*
X130596621Y-63743503D01*
X130725772Y-63726500D01*
X147770219Y-63726500D01*
X147901629Y-63744114D01*
G37*
%TD.AperFunction*%
%TA.AperFunction,NonConductor*%
G36*
X123070623Y-69353616D02*
G01*
X123195268Y-69407756D01*
X123215119Y-69419827D01*
X123237375Y-69433361D01*
X123252998Y-69440147D01*
X123253000Y-69440148D01*
X123485309Y-69541054D01*
X123485313Y-69541055D01*
X123500942Y-69547844D01*
X123653063Y-69590466D01*
X123671473Y-69595624D01*
X123788801Y-69645400D01*
X123889693Y-69723274D01*
X134093248Y-79926829D01*
X134172193Y-80029560D01*
X134222029Y-80149153D01*
X134239397Y-80277545D01*
X134223126Y-80406080D01*
X134174313Y-80526094D01*
X134096248Y-80629496D01*
X133994195Y-80709315D01*
X133875032Y-80760170D01*
X133677360Y-80815555D01*
X133677347Y-80815559D01*
X133660942Y-80820156D01*
X133645326Y-80826938D01*
X133645309Y-80826945D01*
X133413000Y-80927851D01*
X133412986Y-80927857D01*
X133397375Y-80934639D01*
X133382827Y-80943485D01*
X133382817Y-80943491D01*
X133355267Y-80960245D01*
X133230625Y-81014383D01*
X133096000Y-81032886D01*
X132961375Y-81014383D01*
X132836733Y-80960245D01*
X132809182Y-80943491D01*
X132809178Y-80943488D01*
X132794625Y-80934639D01*
X132779007Y-80927855D01*
X132778999Y-80927851D01*
X132546690Y-80826945D01*
X132546678Y-80826940D01*
X132531058Y-80820156D01*
X132514648Y-80815558D01*
X132514642Y-80815556D01*
X132270772Y-80747228D01*
X132254358Y-80742629D01*
X132237477Y-80740308D01*
X132237469Y-80740307D01*
X131986573Y-80705822D01*
X131986570Y-80705821D01*
X131969678Y-80703500D01*
X131682322Y-80703500D01*
X131665430Y-80705821D01*
X131665426Y-80705822D01*
X131414530Y-80740307D01*
X131414519Y-80740309D01*
X131397642Y-80742629D01*
X131381230Y-80747227D01*
X131381227Y-80747228D01*
X131137357Y-80815556D01*
X131137346Y-80815559D01*
X131120942Y-80820156D01*
X131105326Y-80826938D01*
X131105309Y-80826945D01*
X130873000Y-80927851D01*
X130872986Y-80927857D01*
X130857375Y-80934639D01*
X130842827Y-80943485D01*
X130842817Y-80943491D01*
X130815267Y-80960245D01*
X130690625Y-81014383D01*
X130556000Y-81032886D01*
X130421375Y-81014383D01*
X130296733Y-80960245D01*
X130269182Y-80943491D01*
X130269178Y-80943488D01*
X130254625Y-80934639D01*
X130239007Y-80927855D01*
X130238999Y-80927851D01*
X130006690Y-80826945D01*
X130006678Y-80826940D01*
X129991058Y-80820156D01*
X129974648Y-80815558D01*
X129974642Y-80815556D01*
X129730772Y-80747228D01*
X129714358Y-80742629D01*
X129697477Y-80740308D01*
X129697469Y-80740307D01*
X129446573Y-80705822D01*
X129446570Y-80705821D01*
X129429678Y-80703500D01*
X129142322Y-80703500D01*
X129125430Y-80705821D01*
X129125426Y-80705822D01*
X128874530Y-80740307D01*
X128874519Y-80740309D01*
X128857642Y-80742629D01*
X128841230Y-80747227D01*
X128841227Y-80747228D01*
X128597357Y-80815556D01*
X128597346Y-80815559D01*
X128580942Y-80820156D01*
X128565326Y-80826938D01*
X128565309Y-80826945D01*
X128333000Y-80927851D01*
X128332986Y-80927857D01*
X128317375Y-80934639D01*
X128302827Y-80943485D01*
X128302817Y-80943491D01*
X128275267Y-80960245D01*
X128150625Y-81014383D01*
X128016000Y-81032886D01*
X127881375Y-81014383D01*
X127756733Y-80960245D01*
X127729182Y-80943491D01*
X127729178Y-80943488D01*
X127714625Y-80934639D01*
X127699007Y-80927855D01*
X127698999Y-80927851D01*
X127466690Y-80826945D01*
X127466678Y-80826940D01*
X127451058Y-80820156D01*
X127434648Y-80815558D01*
X127434642Y-80815556D01*
X127190772Y-80747228D01*
X127174358Y-80742629D01*
X127157477Y-80740308D01*
X127157469Y-80740307D01*
X126906573Y-80705822D01*
X126906570Y-80705821D01*
X126889678Y-80703500D01*
X126602322Y-80703500D01*
X126585430Y-80705821D01*
X126585426Y-80705822D01*
X126334530Y-80740307D01*
X126334519Y-80740309D01*
X126317642Y-80742629D01*
X126301230Y-80747227D01*
X126301227Y-80747228D01*
X126057357Y-80815556D01*
X126057346Y-80815559D01*
X126040942Y-80820156D01*
X126025326Y-80826938D01*
X126025309Y-80826945D01*
X125793000Y-80927851D01*
X125792986Y-80927857D01*
X125777375Y-80934639D01*
X125762827Y-80943485D01*
X125762817Y-80943491D01*
X125735267Y-80960245D01*
X125610625Y-81014383D01*
X125476000Y-81032886D01*
X125341375Y-81014383D01*
X125216733Y-80960245D01*
X125189182Y-80943491D01*
X125189178Y-80943488D01*
X125174625Y-80934639D01*
X125159007Y-80927855D01*
X125158999Y-80927851D01*
X124926690Y-80826945D01*
X124926678Y-80826940D01*
X124911058Y-80820156D01*
X124894648Y-80815558D01*
X124894642Y-80815556D01*
X124650772Y-80747228D01*
X124634358Y-80742629D01*
X124617477Y-80740308D01*
X124617469Y-80740307D01*
X124366573Y-80705822D01*
X124366570Y-80705821D01*
X124349678Y-80703500D01*
X124062322Y-80703500D01*
X124045430Y-80705821D01*
X124045426Y-80705822D01*
X123794530Y-80740307D01*
X123794519Y-80740309D01*
X123777642Y-80742629D01*
X123761230Y-80747227D01*
X123761227Y-80747228D01*
X123517360Y-80815555D01*
X123517347Y-80815559D01*
X123500942Y-80820156D01*
X123485323Y-80826940D01*
X123485301Y-80826948D01*
X123470445Y-80833402D01*
X123336857Y-80870433D01*
X123198236Y-80869283D01*
X123065281Y-80830041D01*
X122951084Y-80778170D01*
X122951079Y-80778168D01*
X122930683Y-80768904D01*
X122908957Y-80763429D01*
X122908953Y-80763428D01*
X122732783Y-80719037D01*
X122732781Y-80719036D01*
X122712412Y-80713904D01*
X122691475Y-80712256D01*
X122691468Y-80712255D01*
X122589971Y-80704267D01*
X122589954Y-80704266D01*
X122580217Y-80703500D01*
X122570429Y-80703500D01*
X122463248Y-80703500D01*
X120894999Y-80703500D01*
X120765850Y-80686498D01*
X120645500Y-80636648D01*
X120542154Y-80557347D01*
X120462853Y-80454001D01*
X120413003Y-80333652D01*
X120396000Y-80204501D01*
X120396000Y-70047584D01*
X120413214Y-69917650D01*
X120463667Y-69796680D01*
X120543879Y-69693021D01*
X120648316Y-69613824D01*
X120769772Y-69564553D01*
X120899868Y-69548608D01*
X121029622Y-69567087D01*
X121237642Y-69625371D01*
X121522322Y-69664500D01*
X121792625Y-69664500D01*
X121809678Y-69664500D01*
X122094358Y-69625371D01*
X122371058Y-69547844D01*
X122634625Y-69433361D01*
X122676725Y-69407759D01*
X122801364Y-69353619D01*
X122935994Y-69335113D01*
X123070623Y-69353616D01*
G37*
%TD.AperFunction*%
%TA.AperFunction,NonConductor*%
G36*
X133472335Y-84724311D02*
G01*
X133597052Y-84760093D01*
X133660942Y-84787844D01*
X133937642Y-84865371D01*
X134222322Y-84904500D01*
X134492625Y-84904500D01*
X134509678Y-84904500D01*
X134561690Y-84897350D01*
X134588553Y-84893659D01*
X134730070Y-84894464D01*
X134865669Y-84934966D01*
X134984445Y-85011908D01*
X135076843Y-85119101D01*
X135135432Y-85247922D01*
X135155500Y-85388011D01*
X135155500Y-89345038D01*
X135137424Y-89478127D01*
X135084507Y-89601575D01*
X135000582Y-89706437D01*
X134891728Y-89785116D01*
X134765833Y-89831913D01*
X134632017Y-89843437D01*
X134499975Y-89818853D01*
X134379273Y-89759943D01*
X134364248Y-89749904D01*
X134364249Y-89749904D01*
X134350665Y-89740828D01*
X134336022Y-89733606D01*
X134336017Y-89733604D01*
X134100726Y-89617572D01*
X134100725Y-89617571D01*
X134086077Y-89610348D01*
X134070615Y-89605099D01*
X134070607Y-89605096D01*
X133822183Y-89520767D01*
X133822178Y-89520765D01*
X133806722Y-89515519D01*
X133517380Y-89457966D01*
X133501100Y-89456898D01*
X133501078Y-89456896D01*
X133442793Y-89453076D01*
X133305485Y-89424313D01*
X133181609Y-89358467D01*
X133080957Y-89260743D01*
X133011484Y-89138864D01*
X132978681Y-89002465D01*
X132985141Y-88862325D01*
X133030353Y-88729522D01*
X133110745Y-88614551D01*
X133161651Y-88560044D01*
X133293312Y-88419069D01*
X133455081Y-88189896D01*
X133584136Y-87940830D01*
X133678075Y-87676511D01*
X133735148Y-87401862D01*
X133754291Y-87122000D01*
X133735148Y-86842138D01*
X133678075Y-86567489D01*
X133584136Y-86303170D01*
X133560618Y-86257783D01*
X133516251Y-86172158D01*
X133455081Y-86054104D01*
X133445253Y-86040181D01*
X133445250Y-86040176D01*
X133303141Y-85838855D01*
X133303138Y-85838852D01*
X133293312Y-85824931D01*
X133101845Y-85619919D01*
X133083329Y-85604855D01*
X133078179Y-85599409D01*
X133076162Y-85597525D01*
X133076279Y-85597399D01*
X132994181Y-85510577D01*
X132932353Y-85396502D01*
X132902026Y-85270343D01*
X132905250Y-85140630D01*
X132941808Y-85016134D01*
X133009227Y-84905272D01*
X133102949Y-84815540D01*
X133216637Y-84753004D01*
X133342605Y-84721893D01*
X133472335Y-84724311D01*
G37*
%TD.AperFunction*%
%TA.AperFunction,NonConductor*%
G36*
X125610629Y-84593618D02*
G01*
X125735274Y-84647759D01*
X125762812Y-84664505D01*
X125777375Y-84673361D01*
X125792998Y-84680147D01*
X125793000Y-84680148D01*
X126025309Y-84781054D01*
X126025313Y-84781055D01*
X126040942Y-84787844D01*
X126317642Y-84865371D01*
X126602322Y-84904500D01*
X126872625Y-84904500D01*
X126889678Y-84904500D01*
X127174358Y-84865371D01*
X127451058Y-84787844D01*
X127514948Y-84760092D01*
X127639660Y-84724312D01*
X127769389Y-84721893D01*
X127895357Y-84753002D01*
X128009045Y-84815536D01*
X128102768Y-84905266D01*
X128170188Y-85016126D01*
X128206747Y-85140621D01*
X128209974Y-85270333D01*
X128179650Y-85396491D01*
X128117825Y-85510567D01*
X128035720Y-85597399D01*
X128035838Y-85597525D01*
X128033822Y-85599407D01*
X128028680Y-85604846D01*
X128023394Y-85609146D01*
X128023375Y-85609163D01*
X128010155Y-85619919D01*
X127998517Y-85632379D01*
X127998514Y-85632383D01*
X127830322Y-85812473D01*
X127830315Y-85812480D01*
X127818688Y-85824931D01*
X127808867Y-85838842D01*
X127808858Y-85838855D01*
X127666749Y-86040176D01*
X127666739Y-86040191D01*
X127656919Y-86054104D01*
X127649080Y-86069231D01*
X127649076Y-86069239D01*
X127535706Y-86288033D01*
X127535699Y-86288048D01*
X127527864Y-86303170D01*
X127522158Y-86319223D01*
X127522154Y-86319234D01*
X127439633Y-86551426D01*
X127439630Y-86551436D01*
X127433925Y-86567489D01*
X127430457Y-86584174D01*
X127430457Y-86584177D01*
X127380319Y-86825451D01*
X127380317Y-86825459D01*
X127376852Y-86842138D01*
X127375690Y-86859124D01*
X127375688Y-86859140D01*
X127358872Y-87104997D01*
X127357709Y-87122000D01*
X127358872Y-87139003D01*
X127375688Y-87384859D01*
X127375689Y-87384873D01*
X127376852Y-87401862D01*
X127433925Y-87676511D01*
X127527864Y-87940830D01*
X127535701Y-87955956D01*
X127535706Y-87955966D01*
X127649076Y-88174760D01*
X127656919Y-88189896D01*
X127666743Y-88203814D01*
X127666749Y-88203823D01*
X127808858Y-88405144D01*
X127808862Y-88405149D01*
X127818688Y-88419069D01*
X128010155Y-88624081D01*
X128023381Y-88634841D01*
X128023383Y-88634843D01*
X128113590Y-88708232D01*
X128227754Y-88801111D01*
X128467432Y-88946862D01*
X128724725Y-89058620D01*
X128994839Y-89134303D01*
X129272742Y-89172500D01*
X129536204Y-89172500D01*
X129553258Y-89172500D01*
X129831161Y-89134303D01*
X130101275Y-89058620D01*
X130116919Y-89051825D01*
X130357198Y-88947458D01*
X130488053Y-88910794D01*
X130623947Y-88910794D01*
X130754802Y-88947458D01*
X130995080Y-89051825D01*
X130995087Y-89051827D01*
X131010725Y-89058620D01*
X131280839Y-89134303D01*
X131449541Y-89157490D01*
X131571530Y-89190404D01*
X131681343Y-89252905D01*
X131771937Y-89340984D01*
X131837503Y-89448994D01*
X131873837Y-89570010D01*
X131878611Y-89696273D01*
X131851517Y-89819688D01*
X131794294Y-89932340D01*
X131710609Y-90027008D01*
X131640523Y-90088472D01*
X131628242Y-90099242D01*
X131617477Y-90111516D01*
X131617470Y-90111524D01*
X131444505Y-90308752D01*
X131444498Y-90308760D01*
X131433727Y-90321043D01*
X131424658Y-90334615D01*
X131424647Y-90334630D01*
X131278906Y-90552749D01*
X131278902Y-90552754D01*
X131269828Y-90566336D01*
X131262604Y-90580983D01*
X131262598Y-90580995D01*
X131146573Y-90816270D01*
X131146567Y-90816283D01*
X131139348Y-90830923D01*
X131134102Y-90846376D01*
X131134097Y-90846389D01*
X131049767Y-91094816D01*
X131049764Y-91094825D01*
X131044519Y-91110278D01*
X131041336Y-91126278D01*
X131041333Y-91126291D01*
X131023589Y-91215501D01*
X130978934Y-91344408D01*
X130901037Y-91456403D01*
X130795720Y-91543117D01*
X130670855Y-91598068D01*
X130535774Y-91617148D01*
X130400573Y-91598933D01*
X130275359Y-91544782D01*
X130169489Y-91458744D01*
X130065486Y-91347384D01*
X130053845Y-91334919D01*
X129880654Y-91194018D01*
X129849467Y-91168645D01*
X129849466Y-91168644D01*
X129836246Y-91157889D01*
X129821690Y-91149037D01*
X129821684Y-91149033D01*
X129700715Y-91075471D01*
X129596568Y-91012138D01*
X129477987Y-90960631D01*
X129354906Y-90907169D01*
X129354899Y-90907166D01*
X129339275Y-90900380D01*
X129322864Y-90895781D01*
X129322859Y-90895780D01*
X129085582Y-90829298D01*
X129069161Y-90824697D01*
X129052277Y-90822376D01*
X129052266Y-90822374D01*
X128808154Y-90788822D01*
X128808149Y-90788821D01*
X128791258Y-90786500D01*
X128510742Y-90786500D01*
X128493851Y-90788821D01*
X128493845Y-90788822D01*
X128249733Y-90822374D01*
X128249719Y-90822376D01*
X128232839Y-90824697D01*
X128216420Y-90829297D01*
X128216417Y-90829298D01*
X127979140Y-90895780D01*
X127979130Y-90895783D01*
X127962725Y-90900380D01*
X127947104Y-90907164D01*
X127947093Y-90907169D01*
X127721061Y-91005349D01*
X127721056Y-91005351D01*
X127705432Y-91012138D01*
X127690873Y-91020991D01*
X127690872Y-91020992D01*
X127480315Y-91149033D01*
X127480301Y-91149042D01*
X127465754Y-91157889D01*
X127452540Y-91168639D01*
X127452532Y-91168645D01*
X127261383Y-91324156D01*
X127261372Y-91324165D01*
X127248155Y-91334919D01*
X127236524Y-91347372D01*
X127236512Y-91347384D01*
X127132508Y-91458746D01*
X127026638Y-91544784D01*
X126901423Y-91598933D01*
X126766222Y-91617148D01*
X126631141Y-91598067D01*
X126506276Y-91543115D01*
X126400959Y-91456400D01*
X126323063Y-91344404D01*
X126278411Y-91215504D01*
X126257481Y-91110278D01*
X126162652Y-90830923D01*
X126108188Y-90720482D01*
X126039401Y-90580995D01*
X126032172Y-90566336D01*
X125868273Y-90321043D01*
X125673758Y-90099242D01*
X125451957Y-89904727D01*
X125438368Y-89895647D01*
X125438364Y-89895644D01*
X125220247Y-89749903D01*
X125220244Y-89749901D01*
X125206665Y-89740828D01*
X125192022Y-89733606D01*
X125192017Y-89733604D01*
X124956726Y-89617572D01*
X124956725Y-89617571D01*
X124942077Y-89610348D01*
X124926615Y-89605099D01*
X124926607Y-89605096D01*
X124678183Y-89520767D01*
X124678178Y-89520765D01*
X124662722Y-89515519D01*
X124373380Y-89457966D01*
X124357098Y-89456898D01*
X124357092Y-89456898D01*
X124095294Y-89439739D01*
X124079000Y-89438671D01*
X124062706Y-89439739D01*
X124062697Y-89439739D01*
X124046720Y-89440786D01*
X123907713Y-89430384D01*
X123777008Y-89381937D01*
X123664804Y-89299226D01*
X123579856Y-89188705D01*
X123528794Y-89058999D01*
X123515602Y-88920230D01*
X123541310Y-88783226D01*
X123603912Y-88658679D01*
X123620426Y-88634843D01*
X123685007Y-88541626D01*
X123778096Y-88336683D01*
X123833096Y-88118412D01*
X123843500Y-87986217D01*
X123843499Y-86257784D01*
X123833096Y-86125588D01*
X123778096Y-85907317D01*
X123685007Y-85702374D01*
X123672249Y-85683959D01*
X123661186Y-85664462D01*
X123662623Y-85663646D01*
X123613544Y-85566990D01*
X123586951Y-85434276D01*
X123597002Y-85299297D01*
X123642958Y-85171986D01*
X123721437Y-85061708D01*
X123826665Y-84976577D01*
X123950900Y-84922857D01*
X124085001Y-84904500D01*
X124332625Y-84904500D01*
X124349678Y-84904500D01*
X124634358Y-84865371D01*
X124911058Y-84787844D01*
X125174625Y-84673361D01*
X125207284Y-84653500D01*
X125216726Y-84647759D01*
X125341371Y-84593618D01*
X125476000Y-84575113D01*
X125610629Y-84593618D01*
G37*
%TD.AperFunction*%
%TA.AperFunction,NonConductor*%
G36*
X156535827Y-84291262D02*
G01*
X156647138Y-84340745D01*
X156743142Y-84415723D01*
X157996346Y-85668926D01*
X158075647Y-85772272D01*
X158125497Y-85892621D01*
X158142500Y-86021772D01*
X158142500Y-90220897D01*
X158122565Y-90360532D01*
X158064352Y-90489010D01*
X157972514Y-90596065D01*
X157854386Y-90673145D01*
X157719409Y-90714089D01*
X157578367Y-90715628D01*
X157442529Y-90677637D01*
X157322749Y-90603153D01*
X157228597Y-90498126D01*
X157119359Y-90334641D01*
X157119357Y-90334639D01*
X157110273Y-90321043D01*
X156915758Y-90099242D01*
X156693957Y-89904727D01*
X156680368Y-89895647D01*
X156680364Y-89895644D01*
X156462247Y-89749903D01*
X156462244Y-89749901D01*
X156448665Y-89740828D01*
X156434022Y-89733606D01*
X156434017Y-89733604D01*
X156198726Y-89617572D01*
X156198725Y-89617571D01*
X156184077Y-89610348D01*
X156168615Y-89605099D01*
X156168607Y-89605096D01*
X155920183Y-89520767D01*
X155920178Y-89520765D01*
X155904722Y-89515519D01*
X155615380Y-89457966D01*
X155599098Y-89456898D01*
X155599092Y-89456898D01*
X155337294Y-89439739D01*
X155321000Y-89438671D01*
X155304706Y-89439739D01*
X155042907Y-89456898D01*
X155042899Y-89456898D01*
X155026620Y-89457966D01*
X155010609Y-89461150D01*
X155010607Y-89461151D01*
X154753294Y-89512333D01*
X154753290Y-89512334D01*
X154737278Y-89515519D01*
X154721825Y-89520764D01*
X154721816Y-89520767D01*
X154473389Y-89605097D01*
X154473376Y-89605102D01*
X154457923Y-89610348D01*
X154443283Y-89617567D01*
X154443270Y-89617573D01*
X154207995Y-89733598D01*
X154207983Y-89733604D01*
X154193336Y-89740828D01*
X154179754Y-89749902D01*
X154179749Y-89749906D01*
X153961630Y-89895647D01*
X153961615Y-89895658D01*
X153948043Y-89904727D01*
X153935760Y-89915498D01*
X153935752Y-89915505D01*
X153738524Y-90088470D01*
X153738519Y-90088475D01*
X153726242Y-90099242D01*
X153715477Y-90111516D01*
X153715470Y-90111524D01*
X153542505Y-90308752D01*
X153542498Y-90308760D01*
X153531727Y-90321043D01*
X153522658Y-90334615D01*
X153522647Y-90334630D01*
X153376906Y-90552749D01*
X153376902Y-90552754D01*
X153367828Y-90566336D01*
X153360604Y-90580983D01*
X153360598Y-90580995D01*
X153244573Y-90816270D01*
X153244567Y-90816283D01*
X153237348Y-90830923D01*
X153232102Y-90846376D01*
X153232097Y-90846389D01*
X153147767Y-91094816D01*
X153147764Y-91094825D01*
X153142519Y-91110278D01*
X153139335Y-91126286D01*
X153139333Y-91126294D01*
X153097836Y-91334919D01*
X153084966Y-91399620D01*
X153083898Y-91415899D01*
X153083898Y-91415907D01*
X153075451Y-91544782D01*
X153065671Y-91694000D01*
X153066739Y-91710294D01*
X153081154Y-91930230D01*
X153084966Y-91988380D01*
X153142519Y-92277722D01*
X153147765Y-92293178D01*
X153147767Y-92293183D01*
X153232096Y-92541607D01*
X153232099Y-92541615D01*
X153237348Y-92557077D01*
X153244571Y-92571725D01*
X153244572Y-92571726D01*
X153353166Y-92791935D01*
X153367828Y-92821665D01*
X153376901Y-92835244D01*
X153376903Y-92835247D01*
X153520964Y-93050850D01*
X153531727Y-93066957D01*
X153726242Y-93288758D01*
X153948043Y-93483273D01*
X154193335Y-93647172D01*
X154455220Y-93776319D01*
X154457923Y-93777652D01*
X154457835Y-93777829D01*
X154562253Y-93838113D01*
X154654365Y-93930222D01*
X154719499Y-94043033D01*
X154753216Y-94168858D01*
X154753218Y-94299122D01*
X154719506Y-94424948D01*
X154654377Y-94537762D01*
X154562269Y-94629875D01*
X154457836Y-94690172D01*
X154457923Y-94690348D01*
X154443280Y-94697568D01*
X154443273Y-94697572D01*
X154207995Y-94813598D01*
X154207983Y-94813604D01*
X154193336Y-94820828D01*
X154179765Y-94829895D01*
X154179749Y-94829905D01*
X154015874Y-94939404D01*
X153929604Y-94985516D01*
X153835995Y-95013912D01*
X153738645Y-95023500D01*
X150553355Y-95023500D01*
X150456005Y-95013912D01*
X150362396Y-94985516D01*
X150276125Y-94939403D01*
X150112247Y-94829903D01*
X150112244Y-94829901D01*
X150098665Y-94820828D01*
X150084022Y-94813606D01*
X150084017Y-94813604D01*
X149848724Y-94697571D01*
X149848722Y-94697570D01*
X149836784Y-94691683D01*
X149836779Y-94691680D01*
X149834077Y-94690348D01*
X149834164Y-94690170D01*
X149729745Y-94629886D01*
X149637632Y-94537774D01*
X149572499Y-94424961D01*
X149538783Y-94299133D01*
X149538783Y-94168867D01*
X149572499Y-94043039D01*
X149637632Y-93930226D01*
X149729745Y-93838114D01*
X149834164Y-93777829D01*
X149834077Y-93777652D01*
X149834076Y-93777652D01*
X150098665Y-93647172D01*
X150343957Y-93483273D01*
X150565758Y-93288758D01*
X150760273Y-93066957D01*
X150924172Y-92821665D01*
X151054652Y-92557077D01*
X151149481Y-92277722D01*
X151207034Y-91988380D01*
X151226329Y-91694000D01*
X151207034Y-91399620D01*
X151149481Y-91110278D01*
X151054652Y-90830923D01*
X151000188Y-90720482D01*
X150931401Y-90580995D01*
X150924172Y-90566336D01*
X150760273Y-90321043D01*
X150565758Y-90099242D01*
X150343957Y-89904727D01*
X150330368Y-89895647D01*
X150330364Y-89895644D01*
X150112247Y-89749903D01*
X150112244Y-89749901D01*
X150098665Y-89740828D01*
X150084022Y-89733606D01*
X150084017Y-89733604D01*
X149848726Y-89617572D01*
X149848725Y-89617571D01*
X149834077Y-89610348D01*
X149818615Y-89605099D01*
X149818607Y-89605096D01*
X149570183Y-89520767D01*
X149570178Y-89520765D01*
X149554722Y-89515519D01*
X149265380Y-89457966D01*
X149249098Y-89456898D01*
X149249092Y-89456898D01*
X148987294Y-89439739D01*
X148971000Y-89438671D01*
X148954706Y-89439739D01*
X148692907Y-89456898D01*
X148692899Y-89456898D01*
X148676620Y-89457966D01*
X148660609Y-89461150D01*
X148660607Y-89461151D01*
X148403294Y-89512333D01*
X148403290Y-89512334D01*
X148387278Y-89515519D01*
X148371825Y-89520764D01*
X148371816Y-89520767D01*
X148123389Y-89605097D01*
X148123376Y-89605102D01*
X148107923Y-89610348D01*
X148093283Y-89617567D01*
X148093270Y-89617573D01*
X147857995Y-89733598D01*
X147857983Y-89733604D01*
X147843336Y-89740828D01*
X147829754Y-89749902D01*
X147829749Y-89749906D01*
X147611630Y-89895647D01*
X147611615Y-89895658D01*
X147598043Y-89904727D01*
X147585760Y-89915498D01*
X147585752Y-89915505D01*
X147388524Y-90088470D01*
X147388519Y-90088475D01*
X147376242Y-90099242D01*
X147365477Y-90111516D01*
X147365470Y-90111524D01*
X147192505Y-90308752D01*
X147192498Y-90308760D01*
X147181727Y-90321043D01*
X147172658Y-90334615D01*
X147172647Y-90334630D01*
X147026906Y-90552749D01*
X147026902Y-90552754D01*
X147017828Y-90566336D01*
X147010604Y-90580983D01*
X147010598Y-90580995D01*
X146894573Y-90816270D01*
X146894567Y-90816283D01*
X146887348Y-90830923D01*
X146882102Y-90846376D01*
X146882097Y-90846389D01*
X146797767Y-91094816D01*
X146797764Y-91094825D01*
X146792519Y-91110278D01*
X146789336Y-91126278D01*
X146789333Y-91126291D01*
X146771589Y-91215501D01*
X146726934Y-91344408D01*
X146649037Y-91456403D01*
X146543720Y-91543117D01*
X146418855Y-91598068D01*
X146283774Y-91617148D01*
X146148573Y-91598933D01*
X146023359Y-91544782D01*
X145917489Y-91458744D01*
X145813486Y-91347384D01*
X145801845Y-91334919D01*
X145628654Y-91194018D01*
X145597467Y-91168645D01*
X145597466Y-91168644D01*
X145584246Y-91157889D01*
X145569690Y-91149037D01*
X145569684Y-91149033D01*
X145448715Y-91075471D01*
X145344568Y-91012138D01*
X145225987Y-90960631D01*
X145102906Y-90907169D01*
X145102899Y-90907166D01*
X145087275Y-90900380D01*
X145070864Y-90895781D01*
X145070859Y-90895780D01*
X144833582Y-90829298D01*
X144817161Y-90824697D01*
X144800277Y-90822376D01*
X144800266Y-90822374D01*
X144556154Y-90788822D01*
X144556149Y-90788821D01*
X144539258Y-90786500D01*
X144258742Y-90786500D01*
X144241851Y-90788821D01*
X144241845Y-90788822D01*
X143997733Y-90822374D01*
X143997719Y-90822376D01*
X143980839Y-90824697D01*
X143964420Y-90829297D01*
X143964417Y-90829298D01*
X143727140Y-90895780D01*
X143727130Y-90895783D01*
X143710725Y-90900380D01*
X143695104Y-90907164D01*
X143695093Y-90907169D01*
X143469061Y-91005349D01*
X143469056Y-91005351D01*
X143453432Y-91012138D01*
X143438873Y-91020991D01*
X143438872Y-91020992D01*
X143228315Y-91149033D01*
X143228301Y-91149042D01*
X143213754Y-91157889D01*
X143200540Y-91168639D01*
X143200532Y-91168645D01*
X143009383Y-91324156D01*
X143009372Y-91324165D01*
X142996155Y-91334919D01*
X142984524Y-91347372D01*
X142984512Y-91347384D01*
X142880508Y-91458746D01*
X142774638Y-91544784D01*
X142649423Y-91598933D01*
X142514222Y-91617148D01*
X142379141Y-91598067D01*
X142254276Y-91543115D01*
X142148959Y-91456400D01*
X142071063Y-91344404D01*
X142026411Y-91215504D01*
X142005481Y-91110278D01*
X141910652Y-90830923D01*
X141856188Y-90720482D01*
X141787401Y-90580995D01*
X141780172Y-90566336D01*
X141616273Y-90321043D01*
X141421758Y-90099242D01*
X141199957Y-89904727D01*
X141186368Y-89895647D01*
X141186364Y-89895644D01*
X140997501Y-89769450D01*
X140954665Y-89740828D01*
X140943902Y-89735520D01*
X140846005Y-89661197D01*
X140768280Y-89563075D01*
X140717420Y-89448696D01*
X140696627Y-89325258D01*
X140707208Y-89200529D01*
X140748499Y-89082358D01*
X140817900Y-88978181D01*
X140889113Y-88914244D01*
X140888028Y-88912945D01*
X140905230Y-88898582D01*
X140923654Y-88885819D01*
X141082819Y-88726654D01*
X141211007Y-88541626D01*
X141304096Y-88336683D01*
X141359096Y-88118412D01*
X141369500Y-87986217D01*
X141369499Y-86257784D01*
X141359096Y-86125588D01*
X141304096Y-85907317D01*
X141211007Y-85702374D01*
X141180066Y-85657714D01*
X141121303Y-85544108D01*
X141093349Y-85419295D01*
X141098042Y-85291476D01*
X141135073Y-85169049D01*
X141202011Y-85060057D01*
X141294455Y-84971662D01*
X141406334Y-84909671D01*
X141530297Y-84878157D01*
X141658187Y-84879190D01*
X141842322Y-84904500D01*
X142112625Y-84904500D01*
X142129678Y-84904500D01*
X142414358Y-84865371D01*
X142691058Y-84787844D01*
X142954625Y-84673361D01*
X142987284Y-84653500D01*
X142996726Y-84647759D01*
X143121371Y-84593618D01*
X143256000Y-84575113D01*
X143390629Y-84593618D01*
X143515274Y-84647759D01*
X143542812Y-84664505D01*
X143557375Y-84673361D01*
X143572998Y-84680147D01*
X143573000Y-84680148D01*
X143805309Y-84781054D01*
X143805313Y-84781055D01*
X143820942Y-84787844D01*
X144097642Y-84865371D01*
X144382322Y-84904500D01*
X144652625Y-84904500D01*
X144669678Y-84904500D01*
X144954358Y-84865371D01*
X145231058Y-84787844D01*
X145494625Y-84673361D01*
X145527284Y-84653500D01*
X145536726Y-84647759D01*
X145661371Y-84593618D01*
X145796000Y-84575113D01*
X145930629Y-84593618D01*
X146055274Y-84647759D01*
X146082812Y-84664505D01*
X146097375Y-84673361D01*
X146112998Y-84680147D01*
X146113000Y-84680148D01*
X146345309Y-84781054D01*
X146345313Y-84781055D01*
X146360942Y-84787844D01*
X146637642Y-84865371D01*
X146922322Y-84904500D01*
X147192625Y-84904500D01*
X147209678Y-84904500D01*
X147494358Y-84865371D01*
X147771058Y-84787844D01*
X148034625Y-84673361D01*
X148067284Y-84653500D01*
X148076726Y-84647759D01*
X148201371Y-84593618D01*
X148336000Y-84575113D01*
X148470629Y-84593618D01*
X148595274Y-84647759D01*
X148622812Y-84664505D01*
X148637375Y-84673361D01*
X148652998Y-84680147D01*
X148653000Y-84680148D01*
X148885309Y-84781054D01*
X148885313Y-84781055D01*
X148900942Y-84787844D01*
X149177642Y-84865371D01*
X149462322Y-84904500D01*
X149732625Y-84904500D01*
X149749678Y-84904500D01*
X150034358Y-84865371D01*
X150311058Y-84787844D01*
X150574625Y-84673361D01*
X150607284Y-84653500D01*
X150616726Y-84647759D01*
X150741371Y-84593618D01*
X150876000Y-84575113D01*
X151010629Y-84593618D01*
X151135274Y-84647759D01*
X151162812Y-84664505D01*
X151177375Y-84673361D01*
X151192998Y-84680147D01*
X151193000Y-84680148D01*
X151425309Y-84781054D01*
X151425313Y-84781055D01*
X151440942Y-84787844D01*
X151717642Y-84865371D01*
X152002322Y-84904500D01*
X152272625Y-84904500D01*
X152289678Y-84904500D01*
X152574358Y-84865371D01*
X152851058Y-84787844D01*
X153114625Y-84673361D01*
X153147284Y-84653500D01*
X153156726Y-84647759D01*
X153281371Y-84593618D01*
X153416000Y-84575113D01*
X153550629Y-84593618D01*
X153675274Y-84647759D01*
X153702812Y-84664505D01*
X153717375Y-84673361D01*
X153732998Y-84680147D01*
X153733000Y-84680148D01*
X153965309Y-84781054D01*
X153965313Y-84781055D01*
X153980942Y-84787844D01*
X154257642Y-84865371D01*
X154542322Y-84904500D01*
X154812625Y-84904500D01*
X154829678Y-84904500D01*
X155114358Y-84865371D01*
X155391058Y-84787844D01*
X155654625Y-84673361D01*
X155900147Y-84524055D01*
X156075390Y-84381484D01*
X156178552Y-84316722D01*
X156294339Y-84278882D01*
X156415844Y-84270223D01*
X156535827Y-84291262D01*
G37*
%TD.AperFunction*%
%TA.AperFunction,NonConductor*%
G36*
X171172077Y-63736642D02*
G01*
X171268103Y-63766656D01*
X171356155Y-63815320D01*
X171504374Y-63918007D01*
X171709317Y-64011096D01*
X171927588Y-64066096D01*
X172059783Y-64076500D01*
X173888216Y-64076499D01*
X174020412Y-64066096D01*
X174238683Y-64011096D01*
X174443626Y-63918007D01*
X174472639Y-63897906D01*
X174476825Y-63895007D01*
X174597510Y-63833727D01*
X174730224Y-63807134D01*
X174865202Y-63817185D01*
X174992514Y-63863141D01*
X175102792Y-63941620D01*
X175187923Y-64046848D01*
X175241643Y-64171083D01*
X175260000Y-64305184D01*
X175260000Y-89973001D01*
X175242220Y-90105018D01*
X175190147Y-90227627D01*
X175107491Y-90332090D01*
X175000143Y-90410964D01*
X174875754Y-90458627D01*
X174743186Y-90471683D01*
X174611888Y-90449201D01*
X174494256Y-90394204D01*
X174485011Y-90387284D01*
X174252689Y-90260426D01*
X174235984Y-90254195D01*
X174235981Y-90254194D01*
X174021372Y-90174149D01*
X174021365Y-90174147D01*
X174004678Y-90167923D01*
X173987269Y-90164136D01*
X173987266Y-90164135D01*
X173763441Y-90115445D01*
X173763435Y-90115444D01*
X173746026Y-90111657D01*
X173728266Y-90110386D01*
X173728254Y-90110385D01*
X173499770Y-90094044D01*
X173482000Y-90092773D01*
X173464230Y-90094044D01*
X173235745Y-90110385D01*
X173235731Y-90110386D01*
X173217974Y-90111657D01*
X173200566Y-90115443D01*
X173200558Y-90115445D01*
X172976733Y-90164135D01*
X172976726Y-90164136D01*
X172959322Y-90167923D01*
X172942638Y-90174145D01*
X172942627Y-90174149D01*
X172728018Y-90254194D01*
X172728010Y-90254197D01*
X172711311Y-90260426D01*
X172695666Y-90268968D01*
X172695659Y-90268972D01*
X172494631Y-90378742D01*
X172494622Y-90378747D01*
X172478989Y-90387284D01*
X172464729Y-90397958D01*
X172464721Y-90397964D01*
X172281352Y-90535232D01*
X172281344Y-90535238D01*
X172267085Y-90545913D01*
X172254489Y-90558508D01*
X172254482Y-90558515D01*
X172092515Y-90720482D01*
X172092508Y-90720489D01*
X172079913Y-90733085D01*
X172069238Y-90747344D01*
X172069232Y-90747352D01*
X171931964Y-90930721D01*
X171931958Y-90930729D01*
X171921284Y-90944989D01*
X171912747Y-90960622D01*
X171912742Y-90960631D01*
X171802972Y-91161659D01*
X171802968Y-91161666D01*
X171794426Y-91177311D01*
X171788197Y-91194010D01*
X171788194Y-91194018D01*
X171708149Y-91408627D01*
X171708145Y-91408638D01*
X171701923Y-91425322D01*
X171698136Y-91442726D01*
X171698135Y-91442733D01*
X171649445Y-91666558D01*
X171649443Y-91666566D01*
X171645657Y-91683974D01*
X171644386Y-91701731D01*
X171644385Y-91701745D01*
X171639568Y-91769104D01*
X171626773Y-91948000D01*
X171628044Y-91965770D01*
X171644385Y-92194254D01*
X171644386Y-92194266D01*
X171645657Y-92212026D01*
X171649444Y-92229435D01*
X171649445Y-92229441D01*
X171698133Y-92453257D01*
X171701923Y-92470678D01*
X171708151Y-92487378D01*
X171711288Y-92498059D01*
X171731500Y-92638641D01*
X171731500Y-94522133D01*
X171713172Y-94656131D01*
X171659535Y-94780285D01*
X171574528Y-94885476D01*
X171464396Y-94963976D01*
X171337230Y-95010019D01*
X171202373Y-95020222D01*
X170942000Y-95004473D01*
X170926956Y-95005383D01*
X170624903Y-95023653D01*
X170624887Y-95023654D01*
X170609858Y-95024564D01*
X170595041Y-95027279D01*
X170595027Y-95027281D01*
X170297386Y-95081826D01*
X170297372Y-95081829D01*
X170282559Y-95084544D01*
X170268173Y-95089026D01*
X170268168Y-95089028D01*
X169979269Y-95179052D01*
X169979264Y-95179053D01*
X169964877Y-95183537D01*
X169951152Y-95189714D01*
X169951126Y-95189724D01*
X169713296Y-95296764D01*
X169577189Y-95335976D01*
X169435548Y-95335365D01*
X169299784Y-95294980D01*
X169180838Y-95218075D01*
X169088292Y-95110847D01*
X169029603Y-94981935D01*
X169009500Y-94841726D01*
X169009500Y-81830045D01*
X169009849Y-81811387D01*
X169012482Y-81741021D01*
X169012481Y-81741019D01*
X169013180Y-81722363D01*
X169003199Y-81633788D01*
X169001461Y-81615242D01*
X168994802Y-81526370D01*
X168990644Y-81508154D01*
X168988535Y-81494161D01*
X168985896Y-81480215D01*
X168983805Y-81461649D01*
X168960740Y-81375570D01*
X168956248Y-81357456D01*
X168954608Y-81350274D01*
X168936420Y-81270584D01*
X168929598Y-81253204D01*
X168925424Y-81239670D01*
X168920734Y-81226267D01*
X168915900Y-81208225D01*
X168880258Y-81126534D01*
X168873134Y-81109335D01*
X168840568Y-81026357D01*
X168831227Y-81010179D01*
X168825078Y-80997410D01*
X168818452Y-80984873D01*
X168810983Y-80967753D01*
X168763566Y-80892290D01*
X168753941Y-80876316D01*
X168718723Y-80815315D01*
X168718721Y-80815313D01*
X168709386Y-80799143D01*
X168697741Y-80784541D01*
X168689771Y-80772851D01*
X168681338Y-80761424D01*
X168671397Y-80745603D01*
X168613275Y-80678064D01*
X168601379Y-80663706D01*
X168557452Y-80608623D01*
X168557447Y-80608618D01*
X168545805Y-80594019D01*
X168480471Y-80533398D01*
X168467031Y-80520451D01*
X160550581Y-72604000D01*
X165761390Y-72604000D01*
X165781804Y-72889428D01*
X165842631Y-73169046D01*
X165848856Y-73185738D01*
X165848858Y-73185742D01*
X165936407Y-73420470D01*
X165936410Y-73420476D01*
X165942633Y-73437161D01*
X166079774Y-73688315D01*
X166251261Y-73917395D01*
X166453605Y-74119739D01*
X166682685Y-74291226D01*
X166933839Y-74428367D01*
X167201954Y-74528369D01*
X167481572Y-74589196D01*
X167767000Y-74609610D01*
X168052428Y-74589196D01*
X168332046Y-74528369D01*
X168600161Y-74428367D01*
X168851315Y-74291226D01*
X169080395Y-74119739D01*
X169282739Y-73917395D01*
X169454226Y-73688315D01*
X169591367Y-73437161D01*
X169691369Y-73169046D01*
X169752196Y-72889428D01*
X169772610Y-72604000D01*
X169752196Y-72318572D01*
X169691369Y-72038954D01*
X169591367Y-71770839D01*
X169454226Y-71519685D01*
X169282739Y-71290605D01*
X169080395Y-71088261D01*
X169066127Y-71077580D01*
X168865582Y-70927454D01*
X168865580Y-70927453D01*
X168851315Y-70916774D01*
X168600161Y-70779633D01*
X168583476Y-70773410D01*
X168583470Y-70773407D01*
X168348742Y-70685858D01*
X168348738Y-70685856D01*
X168332046Y-70679631D01*
X168314631Y-70675842D01*
X168314629Y-70675842D01*
X168069841Y-70622592D01*
X168052428Y-70618804D01*
X167813684Y-70601728D01*
X167766999Y-70591889D01*
X167720314Y-70601729D01*
X167499342Y-70617533D01*
X167499340Y-70617533D01*
X167481572Y-70618804D01*
X167464160Y-70622591D01*
X167464158Y-70622592D01*
X167219370Y-70675842D01*
X167219364Y-70675843D01*
X167201954Y-70679631D01*
X167185265Y-70685855D01*
X167185257Y-70685858D01*
X166950529Y-70773407D01*
X166950517Y-70773412D01*
X166933839Y-70779633D01*
X166918206Y-70788169D01*
X166918200Y-70788172D01*
X166698327Y-70908232D01*
X166698318Y-70908237D01*
X166682685Y-70916774D01*
X166668425Y-70927448D01*
X166668417Y-70927454D01*
X166467872Y-71077580D01*
X166467864Y-71077586D01*
X166453605Y-71088261D01*
X166441009Y-71100856D01*
X166441002Y-71100863D01*
X166263863Y-71278002D01*
X166263856Y-71278009D01*
X166251261Y-71290605D01*
X166240586Y-71304864D01*
X166240580Y-71304872D01*
X166090454Y-71505417D01*
X166090448Y-71505425D01*
X166079774Y-71519685D01*
X166071237Y-71535318D01*
X166071232Y-71535327D01*
X165951172Y-71755200D01*
X165951169Y-71755206D01*
X165942633Y-71770839D01*
X165936412Y-71787517D01*
X165936407Y-71787529D01*
X165848858Y-72022257D01*
X165848855Y-72022265D01*
X165842631Y-72038954D01*
X165781804Y-72318572D01*
X165761390Y-72604000D01*
X160550581Y-72604000D01*
X158874534Y-70927953D01*
X158861586Y-70914512D01*
X158813680Y-70862881D01*
X158813677Y-70862879D01*
X158800981Y-70849195D01*
X158731321Y-70793643D01*
X158716953Y-70781738D01*
X158663550Y-70735781D01*
X158663543Y-70735776D01*
X158649397Y-70723602D01*
X158633595Y-70713673D01*
X158622211Y-70705271D01*
X158610457Y-70697257D01*
X158595857Y-70685614D01*
X158579688Y-70676279D01*
X158579681Y-70676274D01*
X158518661Y-70641044D01*
X158502684Y-70631417D01*
X158488639Y-70622592D01*
X158427247Y-70584017D01*
X158410140Y-70576553D01*
X158397597Y-70569924D01*
X158384808Y-70563765D01*
X158368643Y-70554432D01*
X158351271Y-70547614D01*
X158351265Y-70547611D01*
X158285686Y-70521873D01*
X158268454Y-70514735D01*
X158203894Y-70486568D01*
X158203883Y-70486564D01*
X158186775Y-70479100D01*
X158168749Y-70474269D01*
X158155344Y-70469579D01*
X158141784Y-70465396D01*
X158124416Y-70458580D01*
X158106222Y-70454427D01*
X158106215Y-70454425D01*
X158037534Y-70438749D01*
X158019428Y-70434259D01*
X157951378Y-70416025D01*
X157951371Y-70416023D01*
X157933350Y-70411195D01*
X157914801Y-70409104D01*
X157900833Y-70406462D01*
X157886821Y-70404349D01*
X157868630Y-70400198D01*
X157850030Y-70398804D01*
X157850010Y-70398801D01*
X157779740Y-70393535D01*
X157761171Y-70391794D01*
X157691191Y-70383909D01*
X157691182Y-70383908D01*
X157672636Y-70381819D01*
X157653979Y-70382517D01*
X157653975Y-70382517D01*
X157583595Y-70385151D01*
X157564935Y-70385500D01*
X155862208Y-70385500D01*
X155730864Y-70367904D01*
X155608784Y-70316357D01*
X155504576Y-70234495D01*
X155425590Y-70128090D01*
X155377396Y-70004647D01*
X155363394Y-69872872D01*
X155384571Y-69742058D01*
X155439433Y-69621430D01*
X155524111Y-69519497D01*
X155632633Y-69443447D01*
X155638999Y-69440148D01*
X155654625Y-69433361D01*
X155900147Y-69284055D01*
X156123053Y-69102708D01*
X156319189Y-68892698D01*
X156484901Y-68657936D01*
X156617104Y-68402797D01*
X156713334Y-68132032D01*
X156771798Y-67850686D01*
X156788672Y-67604000D01*
X165761390Y-67604000D01*
X165781804Y-67889428D01*
X165842631Y-68169046D01*
X165848856Y-68185738D01*
X165848858Y-68185742D01*
X165936407Y-68420470D01*
X165936410Y-68420476D01*
X165942633Y-68437161D01*
X165951171Y-68452798D01*
X165951172Y-68452799D01*
X166070791Y-68671865D01*
X166079774Y-68688315D01*
X166251261Y-68917395D01*
X166453605Y-69119739D01*
X166682685Y-69291226D01*
X166933839Y-69428367D01*
X167201954Y-69528369D01*
X167481572Y-69589196D01*
X167717077Y-69606039D01*
X167720314Y-69606271D01*
X167766999Y-69616110D01*
X167813684Y-69606271D01*
X168052428Y-69589196D01*
X168332046Y-69528369D01*
X168600161Y-69428367D01*
X168851315Y-69291226D01*
X169080395Y-69119739D01*
X169282739Y-68917395D01*
X169454226Y-68688315D01*
X169591367Y-68437161D01*
X169691369Y-68169046D01*
X169752196Y-67889428D01*
X169772610Y-67604000D01*
X169752196Y-67318572D01*
X169691369Y-67038954D01*
X169591367Y-66770839D01*
X169454226Y-66519685D01*
X169282739Y-66290605D01*
X169080395Y-66088261D01*
X168851315Y-65916774D01*
X168801154Y-65889384D01*
X168615799Y-65788172D01*
X168615798Y-65788171D01*
X168600161Y-65779633D01*
X168583476Y-65773410D01*
X168583470Y-65773407D01*
X168348742Y-65685858D01*
X168348738Y-65685856D01*
X168332046Y-65679631D01*
X168314631Y-65675842D01*
X168314629Y-65675842D01*
X168069841Y-65622592D01*
X168052428Y-65618804D01*
X167767000Y-65598390D01*
X167749229Y-65599661D01*
X167499342Y-65617533D01*
X167499340Y-65617533D01*
X167481572Y-65618804D01*
X167464160Y-65622591D01*
X167464158Y-65622592D01*
X167219370Y-65675842D01*
X167219364Y-65675843D01*
X167201954Y-65679631D01*
X167185265Y-65685855D01*
X167185257Y-65685858D01*
X166950529Y-65773407D01*
X166950517Y-65773412D01*
X166933839Y-65779633D01*
X166918206Y-65788169D01*
X166918200Y-65788172D01*
X166698327Y-65908232D01*
X166698318Y-65908237D01*
X166682685Y-65916774D01*
X166668425Y-65927448D01*
X166668417Y-65927454D01*
X166467872Y-66077580D01*
X166467864Y-66077586D01*
X166453605Y-66088261D01*
X166441009Y-66100856D01*
X166441002Y-66100863D01*
X166263863Y-66278002D01*
X166263856Y-66278009D01*
X166251261Y-66290605D01*
X166240586Y-66304864D01*
X166240580Y-66304872D01*
X166090454Y-66505417D01*
X166090448Y-66505425D01*
X166079774Y-66519685D01*
X166071237Y-66535318D01*
X166071232Y-66535327D01*
X165951172Y-66755200D01*
X165951169Y-66755206D01*
X165942633Y-66770839D01*
X165936412Y-66787517D01*
X165936407Y-66787529D01*
X165848858Y-67022257D01*
X165848855Y-67022265D01*
X165842631Y-67038954D01*
X165838843Y-67056364D01*
X165838842Y-67056370D01*
X165790779Y-67277314D01*
X165781804Y-67318572D01*
X165761390Y-67604000D01*
X156788672Y-67604000D01*
X156791408Y-67564000D01*
X156771798Y-67277314D01*
X156713334Y-66995968D01*
X156617104Y-66725203D01*
X156484901Y-66470064D01*
X156349330Y-66278002D01*
X156329021Y-66249230D01*
X156329016Y-66249224D01*
X156319189Y-66235302D01*
X156123053Y-66025292D01*
X156033499Y-65952435D01*
X155947636Y-65882580D01*
X155854880Y-65783264D01*
X155792360Y-65662605D01*
X155764711Y-65529553D01*
X155773985Y-65393976D01*
X155819493Y-65265928D01*
X155897861Y-65154906D01*
X156003276Y-65069145D01*
X156127919Y-65015004D01*
X156262548Y-64996500D01*
X157089901Y-64996500D01*
X157178500Y-65004428D01*
X157264283Y-65027962D01*
X157338322Y-65055577D01*
X157596974Y-65111843D01*
X157861000Y-65130727D01*
X158125026Y-65111843D01*
X158383678Y-65055577D01*
X158631689Y-64963074D01*
X158864011Y-64836216D01*
X159075915Y-64677587D01*
X159263087Y-64490415D01*
X159421716Y-64278511D01*
X159548574Y-64046189D01*
X159554806Y-64029479D01*
X159559955Y-64018206D01*
X159636743Y-63898723D01*
X159744082Y-63805714D01*
X159873277Y-63746713D01*
X160013861Y-63726500D01*
X171071983Y-63726500D01*
X171172077Y-63736642D01*
G37*
%TD.AperFunction*%
%TA.AperFunction,NonConductor*%
G36*
X157719410Y-92673911D02*
G01*
X157854387Y-92714856D01*
X157972514Y-92791935D01*
X158064352Y-92898991D01*
X158122565Y-93027468D01*
X158142500Y-93167103D01*
X158142500Y-95300897D01*
X158122565Y-95440532D01*
X158064352Y-95569010D01*
X157972514Y-95676065D01*
X157854386Y-95753145D01*
X157719409Y-95794089D01*
X157578367Y-95795628D01*
X157442529Y-95757637D01*
X157322749Y-95683153D01*
X157228597Y-95578126D01*
X157119359Y-95414641D01*
X157119357Y-95414639D01*
X157110273Y-95401043D01*
X156915758Y-95179242D01*
X156693957Y-94984727D01*
X156680368Y-94975647D01*
X156680364Y-94975644D01*
X156462247Y-94829903D01*
X156462244Y-94829901D01*
X156448665Y-94820828D01*
X156434022Y-94813606D01*
X156434017Y-94813604D01*
X156198724Y-94697571D01*
X156198722Y-94697570D01*
X156186784Y-94691683D01*
X156186779Y-94691680D01*
X156184077Y-94690348D01*
X156184164Y-94690170D01*
X156079745Y-94629886D01*
X155987632Y-94537774D01*
X155922499Y-94424961D01*
X155888783Y-94299133D01*
X155888783Y-94168867D01*
X155922499Y-94043039D01*
X155987632Y-93930226D01*
X156079745Y-93838114D01*
X156184164Y-93777829D01*
X156184077Y-93777652D01*
X156184076Y-93777652D01*
X156448665Y-93647172D01*
X156693957Y-93483273D01*
X156915758Y-93288758D01*
X157110273Y-93066957D01*
X157203888Y-92926851D01*
X157228597Y-92889873D01*
X157322749Y-92784847D01*
X157442530Y-92710362D01*
X157578368Y-92672372D01*
X157719410Y-92673911D01*
G37*
%TD.AperFunction*%
%TA.AperFunction,NonConductor*%
G36*
X131269300Y-92992742D02*
G01*
X131394283Y-93050850D01*
X131498600Y-93140930D01*
X131628242Y-93288758D01*
X131850043Y-93483273D01*
X132095335Y-93647172D01*
X132357220Y-93776319D01*
X132359923Y-93777652D01*
X132359835Y-93777829D01*
X132464253Y-93838113D01*
X132556365Y-93930222D01*
X132621499Y-94043033D01*
X132655216Y-94168858D01*
X132655218Y-94299122D01*
X132621506Y-94424948D01*
X132556377Y-94537762D01*
X132464269Y-94629875D01*
X132359836Y-94690172D01*
X132359923Y-94690348D01*
X132345280Y-94697568D01*
X132345273Y-94697572D01*
X132109995Y-94813598D01*
X132109983Y-94813604D01*
X132095336Y-94820828D01*
X132081754Y-94829902D01*
X132081749Y-94829906D01*
X131863630Y-94975647D01*
X131863615Y-94975658D01*
X131850043Y-94984727D01*
X131837760Y-94995498D01*
X131837752Y-94995505D01*
X131640524Y-95168470D01*
X131640516Y-95168477D01*
X131628242Y-95179242D01*
X131617477Y-95191516D01*
X131617470Y-95191524D01*
X131444505Y-95388752D01*
X131444498Y-95388760D01*
X131433727Y-95401043D01*
X131424658Y-95414615D01*
X131424647Y-95414630D01*
X131278906Y-95632749D01*
X131278902Y-95632754D01*
X131269828Y-95646336D01*
X131262604Y-95660983D01*
X131262598Y-95660995D01*
X131146573Y-95896270D01*
X131146567Y-95896283D01*
X131139348Y-95910923D01*
X131134099Y-95926383D01*
X131134093Y-95926400D01*
X131111938Y-95991664D01*
X131056577Y-96105090D01*
X130974526Y-96200997D01*
X130871037Y-96273249D01*
X130752730Y-96317224D01*
X130627174Y-96330108D01*
X130502401Y-96311077D01*
X130386395Y-96261348D01*
X130286577Y-96184104D01*
X130271502Y-96169029D01*
X130271500Y-96169027D01*
X130255654Y-96153181D01*
X130186232Y-96105085D01*
X130089040Y-96037750D01*
X130089037Y-96037748D01*
X130070626Y-96024993D01*
X130050236Y-96015731D01*
X130050230Y-96015728D01*
X129886084Y-95941170D01*
X129886079Y-95941168D01*
X129865683Y-95931904D01*
X129843957Y-95926429D01*
X129843953Y-95926428D01*
X129667783Y-95882037D01*
X129667781Y-95882036D01*
X129647412Y-95876904D01*
X129626475Y-95875256D01*
X129626468Y-95875255D01*
X129524971Y-95867267D01*
X129524954Y-95867266D01*
X129515217Y-95866500D01*
X129505429Y-95866500D01*
X128963620Y-95866500D01*
X128828991Y-95847996D01*
X128704347Y-95793855D01*
X128651000Y-95750454D01*
X128597654Y-95793855D01*
X128473011Y-95847995D01*
X128338382Y-95866500D01*
X127796574Y-95866500D01*
X127796548Y-95866500D01*
X127786784Y-95866501D01*
X127777027Y-95867268D01*
X127777022Y-95867269D01*
X127675527Y-95875256D01*
X127675524Y-95875256D01*
X127654588Y-95876904D01*
X127634233Y-95882032D01*
X127634221Y-95882035D01*
X127458046Y-95926428D01*
X127458038Y-95926430D01*
X127436317Y-95931904D01*
X127415924Y-95941166D01*
X127415915Y-95941170D01*
X127251769Y-96015728D01*
X127251758Y-96015734D01*
X127231374Y-96024993D01*
X127212966Y-96037745D01*
X127212959Y-96037750D01*
X127064767Y-96140418D01*
X127064760Y-96140423D01*
X127046346Y-96153181D01*
X127030500Y-96169026D01*
X127030500Y-96169027D01*
X127015417Y-96184110D01*
X126915597Y-96261352D01*
X126799591Y-96311079D01*
X126674818Y-96330108D01*
X126549262Y-96317222D01*
X126430956Y-96273246D01*
X126327468Y-96200993D01*
X126245419Y-96105085D01*
X126190059Y-95991659D01*
X126167904Y-95926394D01*
X126167902Y-95926389D01*
X126162652Y-95910923D01*
X126145062Y-95875255D01*
X126039401Y-95660995D01*
X126032172Y-95646336D01*
X125868273Y-95401043D01*
X125673758Y-95179242D01*
X125451957Y-94984727D01*
X125438368Y-94975647D01*
X125438364Y-94975644D01*
X125220247Y-94829903D01*
X125220244Y-94829901D01*
X125206665Y-94820828D01*
X125192022Y-94813606D01*
X125192017Y-94813604D01*
X124956724Y-94697571D01*
X124956722Y-94697570D01*
X124944784Y-94691683D01*
X124944779Y-94691680D01*
X124942077Y-94690348D01*
X124942164Y-94690170D01*
X124837745Y-94629886D01*
X124745632Y-94537774D01*
X124680499Y-94424961D01*
X124646783Y-94299133D01*
X124646783Y-94168867D01*
X124680499Y-94043039D01*
X124745632Y-93930226D01*
X124837745Y-93838114D01*
X124942164Y-93777829D01*
X124942077Y-93777652D01*
X124942076Y-93777652D01*
X125206665Y-93647172D01*
X125451957Y-93483273D01*
X125673758Y-93288758D01*
X125803398Y-93140931D01*
X125907713Y-93050852D01*
X126032693Y-92992744D01*
X126168802Y-92971043D01*
X126305656Y-92987403D01*
X126432813Y-93040577D01*
X126540574Y-93126509D01*
X126620717Y-93238642D01*
X126663573Y-93358484D01*
X126663857Y-93358405D01*
X126664985Y-93362432D01*
X126667127Y-93368421D01*
X126668457Y-93374825D01*
X126668459Y-93374833D01*
X126671925Y-93391511D01*
X126765864Y-93655830D01*
X126773701Y-93670956D01*
X126773706Y-93670966D01*
X126878123Y-93872481D01*
X126894919Y-93904896D01*
X126904743Y-93918814D01*
X126904749Y-93918823D01*
X127046858Y-94120144D01*
X127046862Y-94120149D01*
X127056688Y-94134069D01*
X127248155Y-94339081D01*
X127465754Y-94516111D01*
X127480312Y-94524963D01*
X127480315Y-94524966D01*
X127501377Y-94537774D01*
X127705432Y-94661862D01*
X127962725Y-94773620D01*
X128232839Y-94849303D01*
X128406330Y-94873148D01*
X128537182Y-94909811D01*
X128651001Y-94979025D01*
X128764819Y-94909811D01*
X128895671Y-94873148D01*
X129069161Y-94849303D01*
X129339275Y-94773620D01*
X129596568Y-94661862D01*
X129836246Y-94516111D01*
X130053845Y-94339081D01*
X130245312Y-94134069D01*
X130407081Y-93904896D01*
X130536136Y-93655830D01*
X130630075Y-93391511D01*
X130634869Y-93368436D01*
X130637006Y-93362461D01*
X130638143Y-93358405D01*
X130638428Y-93358484D01*
X130681274Y-93238658D01*
X130761414Y-93126521D01*
X130869174Y-93040584D01*
X130996332Y-92987406D01*
X131133188Y-92971042D01*
X131269300Y-92992742D01*
G37*
%TD.AperFunction*%
%TA.AperFunction,NonConductor*%
G36*
X147017300Y-92992742D02*
G01*
X147142283Y-93050850D01*
X147246600Y-93140930D01*
X147376242Y-93288758D01*
X147598043Y-93483273D01*
X147843335Y-93647172D01*
X148105220Y-93776319D01*
X148107923Y-93777652D01*
X148107835Y-93777829D01*
X148212253Y-93838113D01*
X148304365Y-93930222D01*
X148369499Y-94043033D01*
X148403216Y-94168858D01*
X148403218Y-94299122D01*
X148369506Y-94424948D01*
X148304377Y-94537762D01*
X148212269Y-94629875D01*
X148107836Y-94690172D01*
X148107923Y-94690348D01*
X148093280Y-94697568D01*
X148093273Y-94697572D01*
X147857995Y-94813598D01*
X147857983Y-94813604D01*
X147843336Y-94820828D01*
X147829754Y-94829902D01*
X147829749Y-94829906D01*
X147611630Y-94975647D01*
X147611615Y-94975658D01*
X147598043Y-94984727D01*
X147585760Y-94995498D01*
X147585752Y-94995505D01*
X147388524Y-95168470D01*
X147388516Y-95168477D01*
X147376242Y-95179242D01*
X147365477Y-95191516D01*
X147365470Y-95191524D01*
X147192505Y-95388752D01*
X147192498Y-95388760D01*
X147181727Y-95401043D01*
X147172658Y-95414615D01*
X147172647Y-95414630D01*
X147026906Y-95632749D01*
X147026902Y-95632754D01*
X147017828Y-95646336D01*
X147010604Y-95660983D01*
X147010598Y-95660995D01*
X146894573Y-95896270D01*
X146894567Y-95896283D01*
X146887348Y-95910923D01*
X146882099Y-95926383D01*
X146882093Y-95926400D01*
X146859938Y-95991664D01*
X146804577Y-96105090D01*
X146722526Y-96200997D01*
X146619037Y-96273249D01*
X146500730Y-96317224D01*
X146375174Y-96330108D01*
X146250401Y-96311077D01*
X146134395Y-96261348D01*
X146034577Y-96184104D01*
X146019502Y-96169029D01*
X146019500Y-96169027D01*
X146003654Y-96153181D01*
X145934232Y-96105085D01*
X145837040Y-96037750D01*
X145837037Y-96037748D01*
X145818626Y-96024993D01*
X145798236Y-96015731D01*
X145798230Y-96015728D01*
X145634084Y-95941170D01*
X145634079Y-95941168D01*
X145613683Y-95931904D01*
X145591957Y-95926429D01*
X145591953Y-95926428D01*
X145415783Y-95882037D01*
X145415781Y-95882036D01*
X145395412Y-95876904D01*
X145374475Y-95875256D01*
X145374468Y-95875255D01*
X145272971Y-95867267D01*
X145272954Y-95867266D01*
X145263217Y-95866500D01*
X145253429Y-95866500D01*
X144711620Y-95866500D01*
X144576991Y-95847996D01*
X144452347Y-95793855D01*
X144399000Y-95750454D01*
X144345654Y-95793855D01*
X144221011Y-95847995D01*
X144086382Y-95866500D01*
X143544574Y-95866500D01*
X143544548Y-95866500D01*
X143534784Y-95866501D01*
X143525027Y-95867268D01*
X143525022Y-95867269D01*
X143423527Y-95875256D01*
X143423524Y-95875256D01*
X143402588Y-95876904D01*
X143382233Y-95882032D01*
X143382221Y-95882035D01*
X143206046Y-95926428D01*
X143206038Y-95926430D01*
X143184317Y-95931904D01*
X143163924Y-95941166D01*
X143163915Y-95941170D01*
X142999769Y-96015728D01*
X142999758Y-96015734D01*
X142979374Y-96024993D01*
X142960966Y-96037745D01*
X142960959Y-96037750D01*
X142812767Y-96140418D01*
X142812760Y-96140423D01*
X142794346Y-96153181D01*
X142778500Y-96169026D01*
X142778500Y-96169027D01*
X142763417Y-96184110D01*
X142663597Y-96261352D01*
X142547591Y-96311079D01*
X142422818Y-96330108D01*
X142297262Y-96317222D01*
X142178956Y-96273246D01*
X142075468Y-96200993D01*
X141993419Y-96105085D01*
X141938059Y-95991659D01*
X141915904Y-95926394D01*
X141915902Y-95926389D01*
X141910652Y-95910923D01*
X141893062Y-95875255D01*
X141787401Y-95660995D01*
X141780172Y-95646336D01*
X141616273Y-95401043D01*
X141421758Y-95179242D01*
X141199957Y-94984727D01*
X141186368Y-94975647D01*
X141186364Y-94975644D01*
X140968247Y-94829903D01*
X140968244Y-94829901D01*
X140954665Y-94820828D01*
X140940022Y-94813606D01*
X140940017Y-94813604D01*
X140704724Y-94697571D01*
X140704722Y-94697570D01*
X140692784Y-94691683D01*
X140692779Y-94691680D01*
X140690077Y-94690348D01*
X140690164Y-94690170D01*
X140585745Y-94629886D01*
X140493632Y-94537774D01*
X140428499Y-94424961D01*
X140394783Y-94299133D01*
X140394783Y-94168867D01*
X140428499Y-94043039D01*
X140493632Y-93930226D01*
X140585745Y-93838114D01*
X140690164Y-93777829D01*
X140690077Y-93777652D01*
X140690076Y-93777652D01*
X140954665Y-93647172D01*
X141199957Y-93483273D01*
X141421758Y-93288758D01*
X141551398Y-93140931D01*
X141655713Y-93050852D01*
X141780693Y-92992744D01*
X141916802Y-92971043D01*
X142053656Y-92987403D01*
X142180813Y-93040577D01*
X142288574Y-93126509D01*
X142368717Y-93238642D01*
X142411573Y-93358484D01*
X142411857Y-93358405D01*
X142412985Y-93362432D01*
X142415127Y-93368421D01*
X142416457Y-93374825D01*
X142416459Y-93374833D01*
X142419925Y-93391511D01*
X142513864Y-93655830D01*
X142521701Y-93670956D01*
X142521706Y-93670966D01*
X142626123Y-93872481D01*
X142642919Y-93904896D01*
X142652743Y-93918814D01*
X142652749Y-93918823D01*
X142794858Y-94120144D01*
X142794862Y-94120149D01*
X142804688Y-94134069D01*
X142996155Y-94339081D01*
X143213754Y-94516111D01*
X143228312Y-94524963D01*
X143228315Y-94524966D01*
X143249377Y-94537774D01*
X143453432Y-94661862D01*
X143710725Y-94773620D01*
X143980839Y-94849303D01*
X144154330Y-94873148D01*
X144285182Y-94909811D01*
X144399001Y-94979025D01*
X144512819Y-94909811D01*
X144643671Y-94873148D01*
X144817161Y-94849303D01*
X145087275Y-94773620D01*
X145344568Y-94661862D01*
X145584246Y-94516111D01*
X145801845Y-94339081D01*
X145993312Y-94134069D01*
X146155081Y-93904896D01*
X146284136Y-93655830D01*
X146378075Y-93391511D01*
X146382869Y-93368436D01*
X146385006Y-93362461D01*
X146386143Y-93358405D01*
X146386428Y-93358484D01*
X146429274Y-93238658D01*
X146509414Y-93126521D01*
X146617174Y-93040584D01*
X146744332Y-92987406D01*
X146881188Y-92971042D01*
X147017300Y-92992742D01*
G37*
%TD.AperFunction*%
%TA.AperFunction,NonConductor*%
G36*
X126213038Y-98151445D02*
G01*
X126338321Y-98198597D01*
X126446562Y-98277357D01*
X126529970Y-98382058D01*
X126582544Y-98505164D01*
X126600500Y-98637817D01*
X126600500Y-98771423D01*
X126600500Y-98771448D01*
X126600501Y-98781216D01*
X126601269Y-98790971D01*
X126601269Y-98790977D01*
X126606148Y-98852982D01*
X126610904Y-98913412D01*
X126616033Y-98933768D01*
X126616035Y-98933778D01*
X126660428Y-99109953D01*
X126665904Y-99131683D01*
X126675168Y-99152079D01*
X126675170Y-99152084D01*
X126688965Y-99182454D01*
X126726407Y-99304193D01*
X126731811Y-99431445D01*
X126704824Y-99555920D01*
X126677632Y-99632429D01*
X126677629Y-99632438D01*
X126671925Y-99648489D01*
X126668457Y-99665174D01*
X126668457Y-99665177D01*
X126618319Y-99906451D01*
X126618317Y-99906459D01*
X126614852Y-99923138D01*
X126613689Y-99940134D01*
X126613687Y-99940152D01*
X126607313Y-100033332D01*
X126581587Y-100160871D01*
X126523764Y-100277425D01*
X126437776Y-100375069D01*
X126329468Y-100447164D01*
X126206205Y-100488810D01*
X126076366Y-100497175D01*
X125948777Y-100471691D01*
X125832114Y-100414089D01*
X125734315Y-100328294D01*
X125673758Y-100259242D01*
X125451957Y-100064727D01*
X125438368Y-100055647D01*
X125438364Y-100055644D01*
X125220247Y-99909903D01*
X125220244Y-99909901D01*
X125206665Y-99900828D01*
X125192022Y-99893606D01*
X125192017Y-99893604D01*
X124956724Y-99777571D01*
X124956722Y-99777570D01*
X124944784Y-99771683D01*
X124944779Y-99771680D01*
X124942077Y-99770348D01*
X124942164Y-99770170D01*
X124837745Y-99709886D01*
X124745632Y-99617774D01*
X124680499Y-99504961D01*
X124646783Y-99379133D01*
X124646783Y-99248867D01*
X124680499Y-99123039D01*
X124745632Y-99010226D01*
X124837745Y-98918114D01*
X124942164Y-98857829D01*
X124942077Y-98857652D01*
X124942076Y-98857652D01*
X125206665Y-98727172D01*
X125451957Y-98563273D01*
X125673758Y-98368758D01*
X125726337Y-98308803D01*
X125827289Y-98220915D01*
X125947985Y-98163021D01*
X126079728Y-98139295D01*
X126213038Y-98151445D01*
G37*
%TD.AperFunction*%
%TA.AperFunction,NonConductor*%
G36*
X141961038Y-98151445D02*
G01*
X142086321Y-98198597D01*
X142194562Y-98277357D01*
X142277970Y-98382058D01*
X142330544Y-98505164D01*
X142348500Y-98637817D01*
X142348500Y-98771423D01*
X142348500Y-98771448D01*
X142348501Y-98781216D01*
X142349269Y-98790971D01*
X142349269Y-98790977D01*
X142354148Y-98852982D01*
X142358904Y-98913412D01*
X142364033Y-98933768D01*
X142364035Y-98933778D01*
X142408428Y-99109953D01*
X142413904Y-99131683D01*
X142423168Y-99152079D01*
X142423170Y-99152084D01*
X142436965Y-99182454D01*
X142474407Y-99304193D01*
X142479811Y-99431445D01*
X142452824Y-99555920D01*
X142425632Y-99632429D01*
X142425629Y-99632438D01*
X142419925Y-99648489D01*
X142416457Y-99665174D01*
X142416457Y-99665177D01*
X142366319Y-99906451D01*
X142366317Y-99906459D01*
X142362852Y-99923138D01*
X142361689Y-99940134D01*
X142361687Y-99940152D01*
X142355313Y-100033332D01*
X142329587Y-100160871D01*
X142271764Y-100277425D01*
X142185776Y-100375069D01*
X142077468Y-100447164D01*
X141954205Y-100488810D01*
X141824366Y-100497175D01*
X141696777Y-100471691D01*
X141580114Y-100414089D01*
X141482315Y-100328294D01*
X141421758Y-100259242D01*
X141199957Y-100064727D01*
X141186368Y-100055647D01*
X141186364Y-100055644D01*
X140968247Y-99909903D01*
X140968244Y-99909901D01*
X140954665Y-99900828D01*
X140940022Y-99893606D01*
X140940017Y-99893604D01*
X140704724Y-99777571D01*
X140704722Y-99777570D01*
X140692784Y-99771683D01*
X140692779Y-99771680D01*
X140690077Y-99770348D01*
X140690164Y-99770170D01*
X140585745Y-99709886D01*
X140493632Y-99617774D01*
X140428499Y-99504961D01*
X140394783Y-99379133D01*
X140394783Y-99248867D01*
X140428499Y-99123039D01*
X140493632Y-99010226D01*
X140585745Y-98918114D01*
X140690164Y-98857829D01*
X140690077Y-98857652D01*
X140690076Y-98857652D01*
X140954665Y-98727172D01*
X141199957Y-98563273D01*
X141421758Y-98368758D01*
X141474337Y-98308803D01*
X141575289Y-98220915D01*
X141695985Y-98163021D01*
X141827728Y-98139295D01*
X141961038Y-98151445D01*
G37*
%TD.AperFunction*%
%TA.AperFunction,NonConductor*%
G36*
X131354006Y-98163019D02*
G01*
X131474702Y-98220911D01*
X131575663Y-98308803D01*
X131628242Y-98368758D01*
X131850043Y-98563273D01*
X132095335Y-98727172D01*
X132357220Y-98856319D01*
X132359923Y-98857652D01*
X132359835Y-98857829D01*
X132464253Y-98918113D01*
X132556365Y-99010222D01*
X132621499Y-99123033D01*
X132655216Y-99248858D01*
X132655218Y-99379122D01*
X132621506Y-99504948D01*
X132556377Y-99617762D01*
X132464269Y-99709875D01*
X132359836Y-99770172D01*
X132359923Y-99770348D01*
X132345280Y-99777568D01*
X132345273Y-99777572D01*
X132109995Y-99893598D01*
X132109983Y-99893604D01*
X132095336Y-99900828D01*
X132081754Y-99909902D01*
X132081749Y-99909906D01*
X131863630Y-100055647D01*
X131863615Y-100055658D01*
X131850043Y-100064727D01*
X131837760Y-100075498D01*
X131837752Y-100075505D01*
X131640524Y-100248470D01*
X131640516Y-100248477D01*
X131628242Y-100259242D01*
X131567685Y-100328292D01*
X131469881Y-100414092D01*
X131353218Y-100471692D01*
X131225629Y-100497176D01*
X131095790Y-100488809D01*
X130972527Y-100447162D01*
X130864220Y-100375066D01*
X130778233Y-100277421D01*
X130720411Y-100160867D01*
X130694685Y-100033327D01*
X130688311Y-99940141D01*
X130687148Y-99923138D01*
X130630075Y-99648489D01*
X130597175Y-99555919D01*
X130570188Y-99431446D01*
X130575593Y-99304189D01*
X130613038Y-99182447D01*
X130636096Y-99131683D01*
X130691096Y-98913412D01*
X130701500Y-98781217D01*
X130701499Y-98637817D01*
X130719453Y-98505172D01*
X130772025Y-98382065D01*
X130855432Y-98277363D01*
X130963671Y-98198602D01*
X131088953Y-98151448D01*
X131222263Y-98139296D01*
X131354006Y-98163019D01*
G37*
%TD.AperFunction*%
%TA.AperFunction,NonConductor*%
G36*
X147102006Y-98163019D02*
G01*
X147222702Y-98220911D01*
X147323663Y-98308803D01*
X147376242Y-98368758D01*
X147598043Y-98563273D01*
X147843335Y-98727172D01*
X148105220Y-98856319D01*
X148107923Y-98857652D01*
X148107835Y-98857829D01*
X148212253Y-98918113D01*
X148304365Y-99010222D01*
X148369499Y-99123033D01*
X148403216Y-99248858D01*
X148403218Y-99379122D01*
X148369506Y-99504948D01*
X148304377Y-99617762D01*
X148212269Y-99709875D01*
X148107836Y-99770172D01*
X148107923Y-99770348D01*
X148093280Y-99777568D01*
X148093273Y-99777572D01*
X147857995Y-99893598D01*
X147857983Y-99893604D01*
X147843336Y-99900828D01*
X147829754Y-99909902D01*
X147829749Y-99909906D01*
X147611630Y-100055647D01*
X147611615Y-100055658D01*
X147598043Y-100064727D01*
X147585760Y-100075498D01*
X147585752Y-100075505D01*
X147388524Y-100248470D01*
X147388516Y-100248477D01*
X147376242Y-100259242D01*
X147315685Y-100328292D01*
X147217881Y-100414092D01*
X147101218Y-100471692D01*
X146973629Y-100497176D01*
X146843790Y-100488809D01*
X146720527Y-100447162D01*
X146612220Y-100375066D01*
X146526233Y-100277421D01*
X146468411Y-100160867D01*
X146442685Y-100033327D01*
X146436311Y-99940141D01*
X146435148Y-99923138D01*
X146378075Y-99648489D01*
X146345175Y-99555919D01*
X146318188Y-99431446D01*
X146323593Y-99304189D01*
X146361038Y-99182447D01*
X146384096Y-99131683D01*
X146439096Y-98913412D01*
X146449500Y-98781217D01*
X146449499Y-98637817D01*
X146467453Y-98505172D01*
X146520025Y-98382065D01*
X146603432Y-98277363D01*
X146711671Y-98198602D01*
X146836953Y-98151448D01*
X146970263Y-98139296D01*
X147102006Y-98163019D01*
G37*
%TD.AperFunction*%
%TA.AperFunction,NonConductor*%
G36*
X157854002Y-97544690D02*
G01*
X157976564Y-97583901D01*
X158085023Y-97653150D01*
X158172167Y-97747832D01*
X158219509Y-97814899D01*
X158298688Y-97927069D01*
X158490155Y-98132081D01*
X158503381Y-98142841D01*
X158503383Y-98142843D01*
X158513960Y-98151448D01*
X158707754Y-98309111D01*
X158947432Y-98454862D01*
X159204725Y-98566620D01*
X159474839Y-98642303D01*
X159491737Y-98644625D01*
X159508417Y-98648092D01*
X159508183Y-98649216D01*
X159604565Y-98674456D01*
X159709267Y-98730997D01*
X159797605Y-98810721D01*
X159864556Y-98909092D01*
X159906312Y-99020519D01*
X159920500Y-99138663D01*
X159920500Y-99160500D01*
X159903497Y-99289650D01*
X159853647Y-99410000D01*
X159774347Y-99513346D01*
X159671001Y-99592646D01*
X159550652Y-99642497D01*
X159421501Y-99659500D01*
X159038574Y-99659500D01*
X159038548Y-99659500D01*
X159028784Y-99659501D01*
X159019026Y-99660268D01*
X159019023Y-99660269D01*
X158917527Y-99668256D01*
X158917524Y-99668256D01*
X158896588Y-99669904D01*
X158876233Y-99675032D01*
X158876221Y-99675035D01*
X158700046Y-99719428D01*
X158700038Y-99719430D01*
X158678317Y-99724904D01*
X158657924Y-99734166D01*
X158657915Y-99734170D01*
X158493769Y-99808728D01*
X158493758Y-99808734D01*
X158473374Y-99817993D01*
X158454966Y-99830745D01*
X158454959Y-99830750D01*
X158306767Y-99933418D01*
X158306760Y-99933423D01*
X158288346Y-99946181D01*
X158272503Y-99962023D01*
X158272497Y-99962029D01*
X158145029Y-100089497D01*
X158145023Y-100089503D01*
X158129181Y-100105346D01*
X158116423Y-100123760D01*
X158116418Y-100123767D01*
X158013750Y-100271959D01*
X158013745Y-100271966D01*
X158000993Y-100290374D01*
X157991733Y-100310759D01*
X157991723Y-100310778D01*
X157958819Y-100383221D01*
X157891258Y-100492153D01*
X157798175Y-100580280D01*
X157685713Y-100641786D01*
X157561292Y-100672613D01*
X157433124Y-100670726D01*
X157309664Y-100636251D01*
X157199061Y-100571462D01*
X157112829Y-100484869D01*
X157110273Y-100481043D01*
X156915758Y-100259242D01*
X156693957Y-100064727D01*
X156680368Y-100055647D01*
X156680364Y-100055644D01*
X156462247Y-99909903D01*
X156462244Y-99909901D01*
X156448665Y-99900828D01*
X156434022Y-99893606D01*
X156434017Y-99893604D01*
X156198724Y-99777571D01*
X156198722Y-99777570D01*
X156186784Y-99771683D01*
X156186779Y-99771680D01*
X156184077Y-99770348D01*
X156184164Y-99770170D01*
X156079745Y-99709886D01*
X155987632Y-99617774D01*
X155922499Y-99504961D01*
X155888783Y-99379133D01*
X155888783Y-99248867D01*
X155922499Y-99123039D01*
X155987632Y-99010226D01*
X156079745Y-98918114D01*
X156184164Y-98857829D01*
X156184077Y-98857652D01*
X156184076Y-98857652D01*
X156448665Y-98727172D01*
X156693957Y-98563273D01*
X156915758Y-98368758D01*
X157110273Y-98146957D01*
X157274172Y-97901665D01*
X157316960Y-97814898D01*
X157388279Y-97707790D01*
X157484618Y-97622480D01*
X157599569Y-97564643D01*
X157725488Y-97538125D01*
X157854002Y-97544690D01*
G37*
%TD.AperFunction*%
%TA.AperFunction,NonConductor*%
G36*
X153835995Y-98534088D02*
G01*
X153929604Y-98562484D01*
X154015875Y-98608597D01*
X154193335Y-98727172D01*
X154455220Y-98856319D01*
X154457923Y-98857652D01*
X154457835Y-98857829D01*
X154562253Y-98918113D01*
X154654365Y-99010222D01*
X154719499Y-99123033D01*
X154753216Y-99248858D01*
X154753218Y-99379122D01*
X154719506Y-99504948D01*
X154654377Y-99617762D01*
X154562269Y-99709875D01*
X154457836Y-99770172D01*
X154457923Y-99770348D01*
X154443280Y-99777568D01*
X154443273Y-99777572D01*
X154207995Y-99893598D01*
X154207983Y-99893604D01*
X154193336Y-99900828D01*
X154179754Y-99909902D01*
X154179749Y-99909906D01*
X153961630Y-100055647D01*
X153961615Y-100055658D01*
X153948043Y-100064727D01*
X153935760Y-100075498D01*
X153935752Y-100075505D01*
X153738524Y-100248470D01*
X153738516Y-100248477D01*
X153726242Y-100259242D01*
X153715481Y-100271513D01*
X153715470Y-100271524D01*
X153542505Y-100468752D01*
X153542498Y-100468760D01*
X153531727Y-100481043D01*
X153522658Y-100494615D01*
X153522647Y-100494630D01*
X153376906Y-100712749D01*
X153376902Y-100712754D01*
X153367828Y-100726336D01*
X153360604Y-100740983D01*
X153360598Y-100740995D01*
X153244573Y-100976270D01*
X153244567Y-100976283D01*
X153237348Y-100990923D01*
X153232102Y-101006376D01*
X153232097Y-101006389D01*
X153147767Y-101254816D01*
X153147764Y-101254825D01*
X153142519Y-101270278D01*
X153139334Y-101286290D01*
X153139333Y-101286294D01*
X153100833Y-101479849D01*
X153056033Y-101609041D01*
X152977848Y-101721221D01*
X152872148Y-101807967D01*
X152746870Y-101862765D01*
X152611421Y-101881500D01*
X151680773Y-101881500D01*
X151551622Y-101864497D01*
X151431273Y-101814647D01*
X151327927Y-101735346D01*
X151327684Y-101735103D01*
X151265626Y-101659486D01*
X151219514Y-101573215D01*
X151191118Y-101479605D01*
X151152667Y-101286296D01*
X151149481Y-101270278D01*
X151054652Y-100990923D01*
X150924172Y-100726336D01*
X150798374Y-100538065D01*
X150769352Y-100494630D01*
X150769348Y-100494625D01*
X150760273Y-100481043D01*
X150565758Y-100259242D01*
X150343957Y-100064727D01*
X150330368Y-100055647D01*
X150330364Y-100055644D01*
X150112247Y-99909903D01*
X150112244Y-99909901D01*
X150098665Y-99900828D01*
X150084022Y-99893606D01*
X150084017Y-99893604D01*
X149848724Y-99777571D01*
X149848722Y-99777570D01*
X149836784Y-99771683D01*
X149836779Y-99771680D01*
X149834077Y-99770348D01*
X149834164Y-99770170D01*
X149729745Y-99709886D01*
X149637632Y-99617774D01*
X149572499Y-99504961D01*
X149538783Y-99379133D01*
X149538783Y-99248867D01*
X149572499Y-99123039D01*
X149637632Y-99010226D01*
X149729745Y-98918114D01*
X149834164Y-98857829D01*
X149834077Y-98857652D01*
X149834076Y-98857652D01*
X150098665Y-98727172D01*
X150276124Y-98608597D01*
X150362396Y-98562484D01*
X150456005Y-98534088D01*
X150553355Y-98524500D01*
X153738645Y-98524500D01*
X153835995Y-98534088D01*
G37*
%TD.AperFunction*%
%TA.AperFunction,NonConductor*%
G36*
X146329963Y-101496365D02*
G01*
X146451025Y-101539584D01*
X146557029Y-101612294D01*
X146640941Y-101709672D01*
X146697194Y-101825255D01*
X146722053Y-101951373D01*
X146727511Y-102034650D01*
X146734966Y-102148380D01*
X146792519Y-102437722D01*
X146797764Y-102453174D01*
X146797767Y-102453184D01*
X146854089Y-102619101D01*
X146879786Y-102751521D01*
X146869077Y-102885984D01*
X146822745Y-103012667D01*
X146744175Y-103122311D01*
X146639108Y-103206906D01*
X146515223Y-103260268D01*
X146381571Y-103278500D01*
X145598579Y-103278500D01*
X145476653Y-103263375D01*
X145444682Y-103255319D01*
X145415780Y-103248036D01*
X145415776Y-103248035D01*
X145395412Y-103242904D01*
X145374475Y-103241256D01*
X145374468Y-103241255D01*
X145272971Y-103233267D01*
X145272954Y-103233266D01*
X145263217Y-103232500D01*
X145253429Y-103232500D01*
X144711620Y-103232500D01*
X144576991Y-103213996D01*
X144452347Y-103159855D01*
X144399000Y-103116454D01*
X144345654Y-103159855D01*
X144221011Y-103213995D01*
X144086382Y-103232500D01*
X143544574Y-103232500D01*
X143544548Y-103232500D01*
X143534784Y-103232501D01*
X143525027Y-103233268D01*
X143525022Y-103233269D01*
X143423527Y-103241256D01*
X143423524Y-103241256D01*
X143402588Y-103242904D01*
X143382233Y-103248032D01*
X143382221Y-103248035D01*
X143206046Y-103292428D01*
X143206038Y-103292430D01*
X143184317Y-103297904D01*
X143163924Y-103307166D01*
X143163915Y-103307170D01*
X142999769Y-103381728D01*
X142999758Y-103381734D01*
X142979374Y-103390993D01*
X142960966Y-103403745D01*
X142960959Y-103403750D01*
X142812767Y-103506418D01*
X142812760Y-103506423D01*
X142794346Y-103519181D01*
X142778503Y-103535023D01*
X142778497Y-103535029D01*
X142717900Y-103595627D01*
X142614554Y-103674928D01*
X142494205Y-103724778D01*
X142365054Y-103741781D01*
X142235903Y-103724778D01*
X142115554Y-103674928D01*
X142012208Y-103595627D01*
X141906878Y-103490297D01*
X141830880Y-103392586D01*
X141781273Y-103279174D01*
X141761109Y-103157041D01*
X141771629Y-103033702D01*
X141812185Y-102916748D01*
X141827357Y-102885984D01*
X141910652Y-102717077D01*
X142005481Y-102437722D01*
X142063034Y-102148380D01*
X142075946Y-101951371D01*
X142100805Y-101825258D01*
X142157056Y-101709675D01*
X142240968Y-101612297D01*
X142346971Y-101539585D01*
X142468032Y-101496366D01*
X142596117Y-101485507D01*
X142722726Y-101507728D01*
X142839458Y-101561556D01*
X142938566Y-101643418D01*
X142996155Y-101705081D01*
X143009381Y-101715841D01*
X143009383Y-101715843D01*
X143122619Y-101807967D01*
X143213754Y-101882111D01*
X143453432Y-102027862D01*
X143710725Y-102139620D01*
X143980839Y-102215303D01*
X144154330Y-102239148D01*
X144285182Y-102275811D01*
X144399001Y-102345025D01*
X144512819Y-102275811D01*
X144643671Y-102239148D01*
X144817161Y-102215303D01*
X145087275Y-102139620D01*
X145344568Y-102027862D01*
X145584246Y-101882111D01*
X145801845Y-101705081D01*
X145859435Y-101643416D01*
X145958537Y-101561558D01*
X146075269Y-101507730D01*
X146201878Y-101485507D01*
X146329963Y-101496365D01*
G37*
%TD.AperFunction*%
%TA.AperFunction,NonConductor*%
G36*
X130581963Y-101496365D02*
G01*
X130703025Y-101539584D01*
X130809029Y-101612294D01*
X130892941Y-101709672D01*
X130949194Y-101825255D01*
X130974053Y-101951373D01*
X130979511Y-102034650D01*
X130986966Y-102148380D01*
X131044519Y-102437722D01*
X131049765Y-102453178D01*
X131049767Y-102453183D01*
X131134096Y-102701607D01*
X131134099Y-102701615D01*
X131139348Y-102717077D01*
X131146571Y-102731725D01*
X131146572Y-102731726D01*
X131237814Y-102916748D01*
X131269828Y-102981665D01*
X131278901Y-102995244D01*
X131278903Y-102995247D01*
X131388403Y-103159125D01*
X131434516Y-103245396D01*
X131462912Y-103339005D01*
X131472500Y-103436355D01*
X131472500Y-103615001D01*
X131455400Y-103744512D01*
X131405273Y-103865147D01*
X131325554Y-103968637D01*
X131221707Y-104047891D01*
X131100849Y-104097477D01*
X130971263Y-104113996D01*
X130841830Y-104096316D01*
X130721421Y-104045649D01*
X130618289Y-103965466D01*
X130545882Y-103869705D01*
X130543007Y-103863374D01*
X130529022Y-103843188D01*
X130427581Y-103696767D01*
X130414819Y-103678346D01*
X130255654Y-103519181D01*
X130213963Y-103490297D01*
X130089040Y-103403750D01*
X130089037Y-103403748D01*
X130070626Y-103390993D01*
X130050236Y-103381731D01*
X130050230Y-103381728D01*
X129886084Y-103307170D01*
X129886079Y-103307168D01*
X129865683Y-103297904D01*
X129843957Y-103292429D01*
X129843953Y-103292428D01*
X129667783Y-103248037D01*
X129667781Y-103248036D01*
X129647412Y-103242904D01*
X129626475Y-103241256D01*
X129626468Y-103241255D01*
X129524971Y-103233267D01*
X129524954Y-103233266D01*
X129515217Y-103232500D01*
X129505429Y-103232500D01*
X128963620Y-103232500D01*
X128828991Y-103213996D01*
X128704347Y-103159855D01*
X128651000Y-103116454D01*
X128597654Y-103159855D01*
X128473011Y-103213995D01*
X128338382Y-103232500D01*
X127796574Y-103232500D01*
X127796548Y-103232500D01*
X127786784Y-103232501D01*
X127777027Y-103233268D01*
X127777022Y-103233269D01*
X127675527Y-103241256D01*
X127675524Y-103241256D01*
X127654588Y-103242904D01*
X127634233Y-103248032D01*
X127634221Y-103248035D01*
X127458046Y-103292428D01*
X127458038Y-103292430D01*
X127436317Y-103297904D01*
X127415924Y-103307166D01*
X127415915Y-103307170D01*
X127251769Y-103381728D01*
X127251758Y-103381734D01*
X127231374Y-103390993D01*
X127212966Y-103403745D01*
X127212959Y-103403750D01*
X127064767Y-103506418D01*
X127064760Y-103506423D01*
X127046346Y-103519181D01*
X127030503Y-103535023D01*
X127030497Y-103535029D01*
X126903029Y-103662497D01*
X126903023Y-103662503D01*
X126887181Y-103678346D01*
X126874423Y-103696760D01*
X126874418Y-103696767D01*
X126771750Y-103844959D01*
X126771745Y-103844966D01*
X126758993Y-103863374D01*
X126749734Y-103883758D01*
X126749728Y-103883769D01*
X126675170Y-104047915D01*
X126675166Y-104047924D01*
X126665904Y-104068317D01*
X126660432Y-104090034D01*
X126660428Y-104090046D01*
X126616037Y-104266216D01*
X126610904Y-104286588D01*
X126609256Y-104307522D01*
X126609255Y-104307531D01*
X126601267Y-104409028D01*
X126601266Y-104409046D01*
X126600500Y-104418783D01*
X126600500Y-104428570D01*
X126600500Y-104428571D01*
X126600500Y-104514050D01*
X126582143Y-104648151D01*
X126528424Y-104772386D01*
X126443293Y-104877613D01*
X126333016Y-104956092D01*
X126205705Y-105002048D01*
X126070727Y-105012100D01*
X125938013Y-104985508D01*
X125817328Y-104924229D01*
X125717047Y-104854754D01*
X125717037Y-104854748D01*
X125698626Y-104841993D01*
X125678236Y-104832731D01*
X125678230Y-104832728D01*
X125514084Y-104758170D01*
X125514079Y-104758168D01*
X125493683Y-104748904D01*
X125471956Y-104743429D01*
X125471947Y-104743426D01*
X125350192Y-104712746D01*
X125228385Y-104664296D01*
X125123399Y-104585795D01*
X125042479Y-104482661D01*
X124991211Y-104362013D01*
X124973132Y-104232176D01*
X124989490Y-104102111D01*
X125039156Y-103980794D01*
X125118703Y-103876598D01*
X125207468Y-103808374D01*
X125206665Y-103807172D01*
X125304529Y-103741781D01*
X125451957Y-103643273D01*
X125673758Y-103448758D01*
X125868273Y-103226957D01*
X126032172Y-102981665D01*
X126162652Y-102717077D01*
X126257481Y-102437722D01*
X126315034Y-102148380D01*
X126327946Y-101951371D01*
X126352805Y-101825258D01*
X126409056Y-101709675D01*
X126492968Y-101612297D01*
X126598971Y-101539585D01*
X126720032Y-101496366D01*
X126848117Y-101485507D01*
X126974726Y-101507728D01*
X127091458Y-101561556D01*
X127190566Y-101643418D01*
X127248155Y-101705081D01*
X127261381Y-101715841D01*
X127261383Y-101715843D01*
X127374619Y-101807967D01*
X127465754Y-101882111D01*
X127705432Y-102027862D01*
X127962725Y-102139620D01*
X128232839Y-102215303D01*
X128406330Y-102239148D01*
X128537182Y-102275811D01*
X128651001Y-102345025D01*
X128764819Y-102275811D01*
X128895671Y-102239148D01*
X129069161Y-102215303D01*
X129339275Y-102139620D01*
X129596568Y-102027862D01*
X129836246Y-101882111D01*
X130053845Y-101705081D01*
X130111435Y-101643416D01*
X130210537Y-101561558D01*
X130327269Y-101507730D01*
X130453878Y-101485507D01*
X130581963Y-101496365D01*
G37*
%TD.AperFunction*%
%TA.AperFunction,NonConductor*%
G36*
X135600597Y-108677722D02*
G01*
X135720946Y-108727572D01*
X135824292Y-108806873D01*
X137062507Y-110045088D01*
X137139300Y-110144140D01*
X137188988Y-110259203D01*
X137208438Y-110383018D01*
X137196422Y-110507774D01*
X137153698Y-110625601D01*
X137082961Y-110729065D01*
X136988675Y-110811640D01*
X136883538Y-110864706D01*
X136880550Y-110865544D01*
X136864928Y-110872329D01*
X136864924Y-110872331D01*
X136629482Y-110974598D01*
X136629473Y-110974602D01*
X136613847Y-110981390D01*
X136599284Y-110990245D01*
X136599282Y-110990247D01*
X136379964Y-111123617D01*
X136379957Y-111123621D01*
X136365402Y-111132473D01*
X136352184Y-111143226D01*
X136352182Y-111143228D01*
X136153062Y-111305223D01*
X136153057Y-111305227D01*
X136139843Y-111315978D01*
X136128221Y-111328421D01*
X136128204Y-111328438D01*
X136115448Y-111342097D01*
X136012455Y-111426372D01*
X135890850Y-111480429D01*
X135759282Y-111500422D01*
X135627109Y-111484930D01*
X135503730Y-111435054D01*
X135397922Y-111354341D01*
X134070737Y-110027156D01*
X133985834Y-109913845D01*
X133936176Y-109781248D01*
X133925761Y-109640041D01*
X133955427Y-109501593D01*
X134022786Y-109377051D01*
X134122414Y-109276443D01*
X134246291Y-109207868D01*
X134384441Y-109176848D01*
X134398470Y-109175744D01*
X134398469Y-109175744D01*
X134419412Y-109174096D01*
X134637683Y-109119096D01*
X134842626Y-109026007D01*
X135027654Y-108897819D01*
X135118600Y-108806872D01*
X135221946Y-108727572D01*
X135342295Y-108677722D01*
X135471446Y-108660719D01*
X135600597Y-108677722D01*
G37*
%TD.AperFunction*%
%TA.AperFunction,NonConductor*%
G36*
X169713296Y-100223236D02*
G01*
X169951126Y-100330275D01*
X169951137Y-100330279D01*
X169964877Y-100336463D01*
X170282559Y-100435456D01*
X170609858Y-100495436D01*
X170942000Y-100515527D01*
X171202373Y-100499777D01*
X171337230Y-100509981D01*
X171464396Y-100556024D01*
X171574528Y-100634524D01*
X171659535Y-100739715D01*
X171713172Y-100863869D01*
X171731500Y-100997867D01*
X171731500Y-120518323D01*
X171713488Y-120651181D01*
X171660753Y-120774448D01*
X171577102Y-120879225D01*
X171468574Y-120957948D01*
X171343003Y-121004934D01*
X171209455Y-121016790D01*
X170942000Y-121004426D01*
X170930493Y-121004958D01*
X170514714Y-121024180D01*
X170514709Y-121024180D01*
X170503211Y-121024712D01*
X170491806Y-121026302D01*
X170491805Y-121026303D01*
X170079585Y-121083805D01*
X170079561Y-121083809D01*
X170068166Y-121085399D01*
X170056963Y-121088033D01*
X170056941Y-121088038D01*
X169651797Y-121183327D01*
X169651784Y-121183330D01*
X169640575Y-121185967D01*
X169629646Y-121189629D01*
X169629639Y-121189632D01*
X169235017Y-121321896D01*
X169235011Y-121321898D01*
X169224089Y-121325559D01*
X169213560Y-121330207D01*
X169213547Y-121330213D01*
X168832808Y-121498326D01*
X168832795Y-121498332D01*
X168822258Y-121502985D01*
X168812186Y-121508594D01*
X168812182Y-121508597D01*
X168448577Y-121711123D01*
X168448570Y-121711127D01*
X168438513Y-121716729D01*
X168429030Y-121723224D01*
X168429009Y-121723238D01*
X168085634Y-121958456D01*
X168085621Y-121958465D01*
X168076126Y-121964970D01*
X168067260Y-121972332D01*
X168067255Y-121972336D01*
X167747067Y-122238216D01*
X167747049Y-122238232D01*
X167738191Y-122245588D01*
X167730040Y-122253738D01*
X167730041Y-122253738D01*
X167489395Y-122494384D01*
X167389320Y-122571779D01*
X167272998Y-122621519D01*
X167147906Y-122640408D01*
X167022084Y-122627231D01*
X166903619Y-122582836D01*
X166800127Y-122510076D01*
X166718258Y-122413627D01*
X166663275Y-122299690D01*
X166638712Y-122175591D01*
X166628148Y-122021138D01*
X166571075Y-121746489D01*
X166477136Y-121482170D01*
X166348081Y-121233104D01*
X166338253Y-121219181D01*
X166338250Y-121219176D01*
X166196141Y-121017855D01*
X166196138Y-121017852D01*
X166186312Y-121003931D01*
X165994845Y-120798919D01*
X165964766Y-120774448D01*
X165790467Y-120632645D01*
X165790466Y-120632644D01*
X165777246Y-120621889D01*
X165762690Y-120613037D01*
X165762684Y-120613033D01*
X165606938Y-120518323D01*
X165537568Y-120476138D01*
X165497566Y-120458762D01*
X165295906Y-120371169D01*
X165295899Y-120371166D01*
X165280275Y-120364380D01*
X165263861Y-120359781D01*
X165247805Y-120354075D01*
X165248332Y-120352590D01*
X165148542Y-120310002D01*
X165046488Y-120230183D01*
X164968424Y-120126781D01*
X164919611Y-120006767D01*
X164903340Y-119878232D01*
X164920708Y-119749841D01*
X164970544Y-119630248D01*
X165049484Y-119527522D01*
X167312303Y-117264705D01*
X167506493Y-117049406D01*
X167734568Y-116737183D01*
X167929331Y-116403162D01*
X168088717Y-116050887D01*
X168211037Y-115684091D01*
X168294995Y-115306661D01*
X168339699Y-114922599D01*
X168344678Y-114535977D01*
X168309876Y-114150891D01*
X168235665Y-113771425D01*
X168122830Y-113401601D01*
X167972566Y-113045338D01*
X167786469Y-112706414D01*
X167566509Y-112388421D01*
X167315019Y-112094730D01*
X167034663Y-111828454D01*
X166999806Y-111801588D01*
X166738589Y-111600257D01*
X166738582Y-111600252D01*
X166728415Y-111592416D01*
X166554525Y-111484930D01*
X166410463Y-111395881D01*
X166410455Y-111395876D01*
X166399521Y-111389118D01*
X166051465Y-111220714D01*
X166039389Y-111216338D01*
X166039379Y-111216334D01*
X165700020Y-111093367D01*
X165700016Y-111093365D01*
X165687940Y-111088990D01*
X165675486Y-111085881D01*
X165675476Y-111085878D01*
X165325274Y-110998456D01*
X165325266Y-110998454D01*
X165312798Y-110995342D01*
X165300081Y-110993528D01*
X165300067Y-110993526D01*
X164942742Y-110942578D01*
X164942729Y-110942576D01*
X164930015Y-110940764D01*
X164917179Y-110940267D01*
X164917169Y-110940267D01*
X164556497Y-110926328D01*
X164556485Y-110926328D01*
X164543648Y-110925832D01*
X164530822Y-110926658D01*
X164530810Y-110926659D01*
X164170634Y-110949879D01*
X164170628Y-110949879D01*
X164157795Y-110950707D01*
X164145117Y-110952849D01*
X164145109Y-110952850D01*
X163789217Y-111012982D01*
X163789206Y-111012984D01*
X163776543Y-111015124D01*
X163775063Y-111015533D01*
X163651959Y-111026655D01*
X163525611Y-111005304D01*
X163408866Y-110952479D01*
X163309422Y-110871666D01*
X163233838Y-110768191D01*
X163187098Y-110648880D01*
X163172284Y-110521599D01*
X163190373Y-110394742D01*
X163240172Y-110276674D01*
X163318393Y-110175186D01*
X168467067Y-105026512D01*
X168480486Y-105013587D01*
X168532111Y-104965687D01*
X168532111Y-104965686D01*
X168545805Y-104952981D01*
X168601398Y-104883267D01*
X168613248Y-104868966D01*
X168671398Y-104801397D01*
X168681338Y-104785575D01*
X168689743Y-104774188D01*
X168697733Y-104762467D01*
X168709386Y-104747857D01*
X168753953Y-104670662D01*
X168763542Y-104654747D01*
X168810983Y-104579247D01*
X168818456Y-104562117D01*
X168825083Y-104549578D01*
X168831224Y-104536825D01*
X168840568Y-104520643D01*
X168873146Y-104437631D01*
X168880238Y-104420510D01*
X168915900Y-104338775D01*
X168920734Y-104320729D01*
X168925418Y-104307346D01*
X168929595Y-104293803D01*
X168936420Y-104276416D01*
X168956259Y-104189491D01*
X168960732Y-104171456D01*
X168983805Y-104085350D01*
X168985895Y-104066792D01*
X168988533Y-104052854D01*
X168990644Y-104038843D01*
X168994802Y-104020630D01*
X169001461Y-103931748D01*
X169003201Y-103913195D01*
X169013180Y-103824637D01*
X169009849Y-103735613D01*
X169009500Y-103716955D01*
X169009500Y-100678274D01*
X169029603Y-100538065D01*
X169088292Y-100409153D01*
X169180838Y-100301925D01*
X169299784Y-100225020D01*
X169435548Y-100184635D01*
X169577189Y-100184024D01*
X169713296Y-100223236D01*
G37*
%TD.AperFunction*%
%TA.AperFunction,NonConductor*%
G36*
X162268662Y-122421286D02*
G01*
X162385689Y-122477990D01*
X162484091Y-122563005D01*
X162557184Y-122670559D01*
X162600007Y-122793346D01*
X162609457Y-122838825D01*
X162609459Y-122838833D01*
X162612925Y-122855511D01*
X162618631Y-122871567D01*
X162618633Y-122871573D01*
X162687433Y-123065159D01*
X162706864Y-123119830D01*
X162714701Y-123134956D01*
X162714706Y-123134966D01*
X162828076Y-123353760D01*
X162835919Y-123368896D01*
X162845749Y-123382822D01*
X162845754Y-123382830D01*
X162961099Y-123546236D01*
X163023620Y-123666894D01*
X163051269Y-123799946D01*
X163041995Y-123935524D01*
X162996487Y-124063572D01*
X162918119Y-124174594D01*
X162812705Y-124260355D01*
X162688061Y-124314496D01*
X162553432Y-124333000D01*
X160070426Y-124333000D01*
X159934279Y-124314068D01*
X159808463Y-124258707D01*
X159702525Y-124171120D01*
X159624503Y-124057951D01*
X159580319Y-123927789D01*
X159573325Y-123790509D01*
X159604051Y-123656530D01*
X159670166Y-123536018D01*
X159759784Y-123445087D01*
X159760618Y-123444000D01*
X159766000Y-123444000D01*
X159766000Y-123376714D01*
X159781645Y-123252743D01*
X159827598Y-123136546D01*
X159900979Y-123035408D01*
X159997185Y-122955672D01*
X160110184Y-122902337D01*
X160232892Y-122878748D01*
X160254577Y-122877349D01*
X160361164Y-122870478D01*
X160367187Y-122870128D01*
X160533142Y-122861574D01*
X160545856Y-122859593D01*
X160557123Y-122858429D01*
X160568361Y-122857120D01*
X160581205Y-122856293D01*
X160744931Y-122828629D01*
X160751154Y-122827619D01*
X160915191Y-122802072D01*
X160927626Y-122798796D01*
X160938647Y-122796494D01*
X160949778Y-122794017D01*
X160962457Y-122791876D01*
X161122468Y-122747525D01*
X161128427Y-122745914D01*
X161289097Y-122703602D01*
X161301136Y-122699063D01*
X161311939Y-122695615D01*
X161322668Y-122692036D01*
X161335064Y-122688601D01*
X161489753Y-122627998D01*
X161495413Y-122625822D01*
X161650896Y-122567209D01*
X161662393Y-122561461D01*
X161672738Y-122556941D01*
X161683096Y-122552254D01*
X161695077Y-122547561D01*
X161842624Y-122471420D01*
X161848229Y-122468574D01*
X161888350Y-122448520D01*
X162011251Y-122406034D01*
X162140959Y-122396746D01*
X162268662Y-122421286D01*
G37*
%TD.AperFunction*%
%TA.AperFunction,NonConductor*%
G36*
X120919028Y-89171732D02*
G01*
X120928783Y-89172500D01*
X122215179Y-89172499D01*
X122347829Y-89190454D01*
X122470935Y-89243026D01*
X122575636Y-89326432D01*
X122654397Y-89434671D01*
X122701551Y-89559952D01*
X122713703Y-89693261D01*
X122689980Y-89825004D01*
X122632089Y-89945700D01*
X122544196Y-90046663D01*
X122496522Y-90088472D01*
X122496519Y-90088475D01*
X122484242Y-90099242D01*
X122473477Y-90111516D01*
X122473470Y-90111524D01*
X122300505Y-90308752D01*
X122300498Y-90308760D01*
X122289727Y-90321043D01*
X122280658Y-90334615D01*
X122280647Y-90334630D01*
X122134906Y-90552749D01*
X122134902Y-90552754D01*
X122125828Y-90566336D01*
X122118604Y-90580983D01*
X122118598Y-90580995D01*
X122002573Y-90816270D01*
X122002567Y-90816283D01*
X121995348Y-90830923D01*
X121990102Y-90846376D01*
X121990097Y-90846389D01*
X121905767Y-91094816D01*
X121905764Y-91094825D01*
X121900519Y-91110278D01*
X121897335Y-91126286D01*
X121897333Y-91126294D01*
X121855836Y-91334919D01*
X121842966Y-91399620D01*
X121841898Y-91415899D01*
X121841898Y-91415907D01*
X121833451Y-91544782D01*
X121823671Y-91694000D01*
X121824739Y-91710294D01*
X121839154Y-91930230D01*
X121842966Y-91988380D01*
X121900519Y-92277722D01*
X121905765Y-92293178D01*
X121905767Y-92293183D01*
X121990096Y-92541607D01*
X121990099Y-92541615D01*
X121995348Y-92557077D01*
X122002571Y-92571725D01*
X122002572Y-92571726D01*
X122111166Y-92791935D01*
X122125828Y-92821665D01*
X122134901Y-92835244D01*
X122134903Y-92835247D01*
X122278964Y-93050850D01*
X122289727Y-93066957D01*
X122484242Y-93288758D01*
X122706043Y-93483273D01*
X122951335Y-93647172D01*
X123213220Y-93776319D01*
X123215923Y-93777652D01*
X123215835Y-93777829D01*
X123320253Y-93838113D01*
X123412365Y-93930222D01*
X123477499Y-94043033D01*
X123511216Y-94168858D01*
X123511218Y-94299122D01*
X123477506Y-94424948D01*
X123412377Y-94537762D01*
X123320269Y-94629875D01*
X123215836Y-94690172D01*
X123215923Y-94690348D01*
X123201280Y-94697568D01*
X123201273Y-94697572D01*
X122965995Y-94813598D01*
X122965983Y-94813604D01*
X122951336Y-94820828D01*
X122937754Y-94829902D01*
X122937749Y-94829906D01*
X122719630Y-94975647D01*
X122719615Y-94975658D01*
X122706043Y-94984727D01*
X122693760Y-94995498D01*
X122693752Y-94995505D01*
X122496524Y-95168470D01*
X122496516Y-95168477D01*
X122484242Y-95179242D01*
X122473477Y-95191516D01*
X122473470Y-95191524D01*
X122300505Y-95388752D01*
X122300498Y-95388760D01*
X122289727Y-95401043D01*
X122280658Y-95414615D01*
X122280647Y-95414630D01*
X122134906Y-95632749D01*
X122134902Y-95632754D01*
X122125828Y-95646336D01*
X122118604Y-95660983D01*
X122118598Y-95660995D01*
X122002573Y-95896270D01*
X122002567Y-95896283D01*
X121995348Y-95910923D01*
X121990102Y-95926376D01*
X121990097Y-95926389D01*
X121905767Y-96174816D01*
X121905764Y-96174825D01*
X121900519Y-96190278D01*
X121897334Y-96206290D01*
X121897333Y-96206294D01*
X121875268Y-96317224D01*
X121842966Y-96479620D01*
X121823671Y-96774000D01*
X121842966Y-97068380D01*
X121900519Y-97357722D01*
X121905765Y-97373178D01*
X121905767Y-97373183D01*
X121990096Y-97621607D01*
X121990099Y-97621615D01*
X121995348Y-97637077D01*
X122002571Y-97651725D01*
X122002572Y-97651726D01*
X122025340Y-97697896D01*
X122125828Y-97901665D01*
X122289727Y-98146957D01*
X122484242Y-98368758D01*
X122706043Y-98563273D01*
X122951335Y-98727172D01*
X123213220Y-98856319D01*
X123215923Y-98857652D01*
X123215835Y-98857829D01*
X123320253Y-98918113D01*
X123412365Y-99010222D01*
X123477499Y-99123033D01*
X123511216Y-99248858D01*
X123511218Y-99379122D01*
X123477506Y-99504948D01*
X123412377Y-99617762D01*
X123320269Y-99709875D01*
X123215836Y-99770172D01*
X123215923Y-99770348D01*
X123201280Y-99777568D01*
X123201273Y-99777572D01*
X122965995Y-99893598D01*
X122965983Y-99893604D01*
X122951336Y-99900828D01*
X122937754Y-99909902D01*
X122937749Y-99909906D01*
X122719630Y-100055647D01*
X122719615Y-100055658D01*
X122706043Y-100064727D01*
X122693760Y-100075498D01*
X122693752Y-100075505D01*
X122496524Y-100248470D01*
X122496516Y-100248477D01*
X122484242Y-100259242D01*
X122473481Y-100271513D01*
X122473470Y-100271524D01*
X122300505Y-100468752D01*
X122300498Y-100468760D01*
X122289727Y-100481043D01*
X122280658Y-100494615D01*
X122280647Y-100494630D01*
X122134906Y-100712749D01*
X122134902Y-100712754D01*
X122125828Y-100726336D01*
X122118604Y-100740983D01*
X122118598Y-100740995D01*
X122002573Y-100976270D01*
X122002567Y-100976283D01*
X121995348Y-100990923D01*
X121990102Y-101006376D01*
X121990097Y-101006389D01*
X121905767Y-101254816D01*
X121905764Y-101254825D01*
X121900519Y-101270278D01*
X121842966Y-101559620D01*
X121841898Y-101575899D01*
X121841898Y-101575907D01*
X121832726Y-101715843D01*
X121823671Y-101854000D01*
X121824739Y-101870294D01*
X121835511Y-102034650D01*
X121842966Y-102148380D01*
X121900519Y-102437722D01*
X121905765Y-102453178D01*
X121905767Y-102453183D01*
X121990096Y-102701607D01*
X121990099Y-102701615D01*
X121995348Y-102717077D01*
X122002571Y-102731725D01*
X122002572Y-102731726D01*
X122093814Y-102916748D01*
X122125828Y-102981665D01*
X122134901Y-102995244D01*
X122134903Y-102995247D01*
X122244890Y-103159855D01*
X122289727Y-103226957D01*
X122484242Y-103448758D01*
X122706043Y-103643273D01*
X122719633Y-103652354D01*
X122719635Y-103652355D01*
X122951335Y-103807172D01*
X122950531Y-103808373D01*
X123039307Y-103876610D01*
X123118850Y-103980806D01*
X123168512Y-104102122D01*
X123184867Y-104232185D01*
X123166786Y-104362020D01*
X123115517Y-104482666D01*
X123034598Y-104585797D01*
X122929613Y-104664296D01*
X122807808Y-104712746D01*
X122686049Y-104743427D01*
X122686039Y-104743430D01*
X122664317Y-104748904D01*
X122643924Y-104758166D01*
X122643915Y-104758170D01*
X122479769Y-104832728D01*
X122479758Y-104832734D01*
X122459374Y-104841993D01*
X122440966Y-104854745D01*
X122440959Y-104854750D01*
X122292767Y-104957418D01*
X122292760Y-104957423D01*
X122274346Y-104970181D01*
X122258503Y-104986023D01*
X122258497Y-104986029D01*
X122131029Y-105113497D01*
X122131023Y-105113503D01*
X122115181Y-105129346D01*
X122102423Y-105147760D01*
X122102418Y-105147767D01*
X121999750Y-105295959D01*
X121999745Y-105295966D01*
X121986993Y-105314374D01*
X121977734Y-105334758D01*
X121977728Y-105334769D01*
X121903170Y-105498915D01*
X121903166Y-105498924D01*
X121893904Y-105519317D01*
X121888430Y-105541038D01*
X121888428Y-105541046D01*
X121844037Y-105717216D01*
X121838904Y-105737588D01*
X121837256Y-105758522D01*
X121837255Y-105758531D01*
X121829267Y-105860028D01*
X121829266Y-105860046D01*
X121828500Y-105869783D01*
X121828500Y-105879569D01*
X121828500Y-105879570D01*
X121828500Y-107988425D01*
X121828500Y-107988450D01*
X121828501Y-107998216D01*
X121829268Y-108007973D01*
X121829269Y-108007977D01*
X121836369Y-108098206D01*
X121838904Y-108130412D01*
X121844033Y-108150768D01*
X121844035Y-108150778D01*
X121879036Y-108289680D01*
X121893904Y-108348683D01*
X121903168Y-108369079D01*
X121903170Y-108369084D01*
X121977728Y-108533230D01*
X121977731Y-108533236D01*
X121986993Y-108553626D01*
X122115181Y-108738654D01*
X122274346Y-108897819D01*
X122459374Y-109026007D01*
X122664317Y-109119096D01*
X122882588Y-109174096D01*
X123014783Y-109184500D01*
X125143216Y-109184499D01*
X125275412Y-109174096D01*
X125493683Y-109119096D01*
X125698626Y-109026007D01*
X125883654Y-108897819D01*
X126042819Y-108738654D01*
X126171007Y-108553626D01*
X126264096Y-108348683D01*
X126297087Y-108217752D01*
X126343523Y-108099581D01*
X126418284Y-107996950D01*
X126516528Y-107916509D01*
X126631893Y-107863469D01*
X126756911Y-107841263D01*
X126883486Y-107851329D01*
X127003422Y-107893015D01*
X127108955Y-107963623D01*
X127192387Y-108057608D01*
X127200614Y-108071857D01*
X127212253Y-108086452D01*
X127220267Y-108098206D01*
X127228674Y-108109597D01*
X127238602Y-108125397D01*
X127250776Y-108139543D01*
X127250781Y-108139550D01*
X127296738Y-108192953D01*
X127308643Y-108207321D01*
X127364195Y-108276981D01*
X127377879Y-108289677D01*
X127377881Y-108289680D01*
X127429512Y-108337586D01*
X127442953Y-108350534D01*
X133048573Y-113956154D01*
X133127874Y-114059500D01*
X133177724Y-114179849D01*
X133194727Y-114309000D01*
X133177724Y-114438151D01*
X133127874Y-114558500D01*
X133048573Y-114661846D01*
X132945227Y-114741147D01*
X132824878Y-114790997D01*
X132695727Y-114808000D01*
X127429437Y-114808000D01*
X127295144Y-114789590D01*
X127170761Y-114735717D01*
X127065465Y-114650358D01*
X126987026Y-114539811D01*
X126941232Y-114412232D01*
X126931462Y-114277036D01*
X126954654Y-114162823D01*
X126954096Y-114162683D01*
X126957067Y-114150891D01*
X127009096Y-113944412D01*
X127019500Y-113812217D01*
X127019499Y-111933784D01*
X127009096Y-111801588D01*
X126954096Y-111583317D01*
X126861007Y-111378374D01*
X126732819Y-111193346D01*
X126573654Y-111034181D01*
X126522088Y-110998456D01*
X126407040Y-110918750D01*
X126407037Y-110918748D01*
X126388626Y-110905993D01*
X126368236Y-110896731D01*
X126368230Y-110896728D01*
X126204084Y-110822170D01*
X126204079Y-110822168D01*
X126183683Y-110812904D01*
X126161957Y-110807429D01*
X126161953Y-110807428D01*
X125985783Y-110763037D01*
X125985781Y-110763036D01*
X125965412Y-110757904D01*
X125944475Y-110756256D01*
X125944468Y-110756255D01*
X125842971Y-110748267D01*
X125842954Y-110748266D01*
X125833217Y-110747500D01*
X125823429Y-110747500D01*
X123964574Y-110747500D01*
X123964548Y-110747500D01*
X123954784Y-110747501D01*
X123945027Y-110748268D01*
X123945022Y-110748269D01*
X123843527Y-110756256D01*
X123843524Y-110756256D01*
X123822588Y-110757904D01*
X123802233Y-110763032D01*
X123802221Y-110763035D01*
X123626046Y-110807428D01*
X123626038Y-110807430D01*
X123604317Y-110812904D01*
X123583924Y-110822166D01*
X123583915Y-110822170D01*
X123419769Y-110896728D01*
X123419758Y-110896734D01*
X123399374Y-110905993D01*
X123380966Y-110918745D01*
X123380959Y-110918750D01*
X123232767Y-111021418D01*
X123232760Y-111021423D01*
X123214346Y-111034181D01*
X123198503Y-111050023D01*
X123198497Y-111050029D01*
X123071029Y-111177497D01*
X123071023Y-111177503D01*
X123055181Y-111193346D01*
X123042423Y-111211760D01*
X123042418Y-111211767D01*
X122939750Y-111359959D01*
X122939745Y-111359966D01*
X122926993Y-111378374D01*
X122917734Y-111398758D01*
X122917728Y-111398769D01*
X122843170Y-111562915D01*
X122843166Y-111562924D01*
X122833904Y-111583317D01*
X122828430Y-111605038D01*
X122828428Y-111605046D01*
X122784037Y-111781216D01*
X122778904Y-111801588D01*
X122777256Y-111822522D01*
X122777255Y-111822531D01*
X122769267Y-111924028D01*
X122769266Y-111924046D01*
X122768500Y-111933783D01*
X122768500Y-111943569D01*
X122768500Y-111943570D01*
X122768500Y-113802425D01*
X122768500Y-113802450D01*
X122768501Y-113812216D01*
X122778904Y-113944412D01*
X122784033Y-113964768D01*
X122784035Y-113964778D01*
X122827757Y-114138290D01*
X122833904Y-114162683D01*
X122843168Y-114183079D01*
X122843170Y-114183084D01*
X122917728Y-114347230D01*
X122917731Y-114347236D01*
X122926993Y-114367626D01*
X123055181Y-114552654D01*
X123214346Y-114711819D01*
X123399374Y-114840007D01*
X123469664Y-114871934D01*
X123587737Y-114947130D01*
X123680280Y-115052166D01*
X123740006Y-115178773D01*
X123762215Y-115316989D01*
X123745158Y-115455934D01*
X123690179Y-115584674D01*
X123601603Y-115693077D01*
X123486403Y-115772611D01*
X123327744Y-115851914D01*
X123327729Y-115851921D01*
X123316246Y-115857662D01*
X123305406Y-115864556D01*
X123305397Y-115864562D01*
X123000844Y-116058277D01*
X123000830Y-116058286D01*
X122989996Y-116065178D01*
X122979925Y-116073148D01*
X122979915Y-116073156D01*
X122696894Y-116297160D01*
X122696881Y-116297171D01*
X122686813Y-116305140D01*
X122677614Y-116314105D01*
X122677605Y-116314113D01*
X122419113Y-116566032D01*
X122419103Y-116566042D01*
X122409909Y-116575003D01*
X122401685Y-116584860D01*
X122401674Y-116584873D01*
X122170456Y-116862035D01*
X122170443Y-116862051D01*
X122162221Y-116871908D01*
X122155045Y-116882571D01*
X122155042Y-116882577D01*
X121953550Y-117182038D01*
X121953542Y-117182050D01*
X121946373Y-117192706D01*
X121940343Y-117204030D01*
X121940334Y-117204046D01*
X121770688Y-117522664D01*
X121770682Y-117522675D01*
X121764654Y-117533998D01*
X121759820Y-117545883D01*
X121759814Y-117545897D01*
X121692585Y-117711206D01*
X121618991Y-117892166D01*
X121615402Y-117904494D01*
X121615398Y-117904507D01*
X121561720Y-118088914D01*
X121510926Y-118263413D01*
X121508622Y-118276051D01*
X121508622Y-118276055D01*
X121443909Y-118631160D01*
X121443906Y-118631178D01*
X121441606Y-118643803D01*
X121440615Y-118656599D01*
X121440614Y-118656611D01*
X121425721Y-118849015D01*
X121411766Y-119029304D01*
X121421722Y-119415831D01*
X121423371Y-119428573D01*
X121423372Y-119428577D01*
X121469716Y-119786539D01*
X121469718Y-119786554D01*
X121471367Y-119799285D01*
X121560177Y-120175602D01*
X121564401Y-120187747D01*
X121564402Y-120187748D01*
X121682987Y-120528656D01*
X121682992Y-120528668D01*
X121687210Y-120540794D01*
X121730201Y-120632645D01*
X121802987Y-120788156D01*
X121851118Y-120890988D01*
X121857732Y-120902003D01*
X121857737Y-120902012D01*
X122043550Y-121211458D01*
X122043557Y-121211469D01*
X122050165Y-121222473D01*
X122057873Y-121232745D01*
X122057874Y-121232746D01*
X122264878Y-121508597D01*
X122282241Y-121531734D01*
X122544885Y-121815495D01*
X122835314Y-122070745D01*
X122845787Y-122078190D01*
X122845789Y-122078192D01*
X122998591Y-122186822D01*
X123150449Y-122294781D01*
X123486949Y-122485227D01*
X123498716Y-122490369D01*
X123498719Y-122490371D01*
X123651044Y-122556941D01*
X123841247Y-122640065D01*
X123853479Y-122643969D01*
X123853482Y-122643971D01*
X123936769Y-122670559D01*
X124209588Y-122757652D01*
X124588067Y-122836743D01*
X124737595Y-122852199D01*
X124774309Y-122855995D01*
X124892998Y-122883200D01*
X125001564Y-122938342D01*
X125093543Y-123018136D01*
X125163457Y-123117832D01*
X125207143Y-123231493D01*
X125222000Y-123352350D01*
X125222000Y-123444000D01*
X125226620Y-123444000D01*
X125246823Y-123492776D01*
X125264290Y-123523608D01*
X125296809Y-123658088D01*
X125291151Y-123796328D01*
X125247752Y-123927701D01*
X125169947Y-124042107D01*
X125063718Y-124130752D01*
X124937232Y-124186819D01*
X124800212Y-124206000D01*
X124714000Y-124206000D01*
X124714000Y-124238706D01*
X124714000Y-125941500D01*
X124696997Y-126070651D01*
X124647147Y-126191000D01*
X124567846Y-126294346D01*
X124464500Y-126373647D01*
X124344151Y-126423497D01*
X124215000Y-126440500D01*
X123742849Y-126440500D01*
X123737124Y-126440764D01*
X123737109Y-126440765D01*
X123425313Y-126455180D01*
X123425307Y-126455180D01*
X123413811Y-126455712D01*
X123402406Y-126457302D01*
X123402405Y-126457303D01*
X122990185Y-126514805D01*
X122990161Y-126514809D01*
X122978766Y-126516399D01*
X122967563Y-126519033D01*
X122967541Y-126519038D01*
X122562397Y-126614327D01*
X122562384Y-126614330D01*
X122551175Y-126616967D01*
X122540246Y-126620629D01*
X122540239Y-126620632D01*
X122145617Y-126752896D01*
X122145611Y-126752898D01*
X122134689Y-126756559D01*
X122124160Y-126761207D01*
X122124147Y-126761213D01*
X121743408Y-126929326D01*
X121743395Y-126929332D01*
X121732858Y-126933985D01*
X121722786Y-126939594D01*
X121722782Y-126939597D01*
X121359177Y-127142123D01*
X121359170Y-127142127D01*
X121349113Y-127147729D01*
X121339630Y-127154224D01*
X121339609Y-127154238D01*
X121177003Y-127265627D01*
X121056307Y-127326162D01*
X120923801Y-127352121D01*
X120789186Y-127341605D01*
X120662318Y-127295383D01*
X120552488Y-127216839D01*
X120467736Y-127111725D01*
X120414268Y-126987737D01*
X120396000Y-126853953D01*
X120396000Y-89670173D01*
X120413858Y-89537871D01*
X120466155Y-89415039D01*
X120549148Y-89310469D01*
X120656895Y-89231645D01*
X120781685Y-89184209D01*
X120914586Y-89171558D01*
X120919028Y-89171732D01*
G37*
%TD.AperFunction*%
%TA.AperFunction,NonConductor*%
G36*
X140813118Y-116574953D02*
G01*
X140931818Y-116623228D01*
X141034311Y-116700140D01*
X141113837Y-116800618D01*
X141165152Y-116918036D01*
X141184872Y-117044652D01*
X141171696Y-117172114D01*
X141126494Y-117292018D01*
X141003692Y-117522656D01*
X141003684Y-117522671D01*
X140997654Y-117533998D01*
X140992820Y-117545883D01*
X140992814Y-117545897D01*
X140925585Y-117711206D01*
X140851991Y-117892166D01*
X140848402Y-117904494D01*
X140848398Y-117904507D01*
X140794720Y-118088914D01*
X140743926Y-118263413D01*
X140741622Y-118276051D01*
X140741622Y-118276055D01*
X140676909Y-118631160D01*
X140676906Y-118631178D01*
X140674606Y-118643803D01*
X140673615Y-118656599D01*
X140673614Y-118656611D01*
X140658721Y-118849015D01*
X140644766Y-119029304D01*
X140654722Y-119415831D01*
X140656371Y-119428573D01*
X140656372Y-119428577D01*
X140702716Y-119786539D01*
X140702718Y-119786554D01*
X140704367Y-119799285D01*
X140793177Y-120175602D01*
X140797401Y-120187747D01*
X140797402Y-120187748D01*
X140915987Y-120528656D01*
X140915992Y-120528668D01*
X140920210Y-120540794D01*
X140963201Y-120632645D01*
X141035987Y-120788156D01*
X141084118Y-120890988D01*
X141090732Y-120902003D01*
X141090737Y-120902012D01*
X141276550Y-121211458D01*
X141276557Y-121211469D01*
X141283165Y-121222473D01*
X141290873Y-121232745D01*
X141290874Y-121232746D01*
X141497878Y-121508597D01*
X141515241Y-121531734D01*
X141777885Y-121815495D01*
X142068314Y-122070745D01*
X142078787Y-122078190D01*
X142078789Y-122078192D01*
X142231591Y-122186822D01*
X142383449Y-122294781D01*
X142394640Y-122301114D01*
X142394639Y-122301114D01*
X142518285Y-122371093D01*
X142626985Y-122454161D01*
X142709040Y-122563627D01*
X142758284Y-122691263D01*
X142771014Y-122827476D01*
X142746274Y-122962026D01*
X142685924Y-123084802D01*
X142594500Y-123186573D01*
X142478873Y-123259692D01*
X142445773Y-123274726D01*
X142445760Y-123274732D01*
X142425374Y-123283993D01*
X142406966Y-123296745D01*
X142406959Y-123296750D01*
X142258767Y-123399418D01*
X142258760Y-123399423D01*
X142240346Y-123412181D01*
X142224503Y-123428023D01*
X142224497Y-123428029D01*
X142097029Y-123555497D01*
X142097023Y-123555503D01*
X142081181Y-123571346D01*
X142068423Y-123589760D01*
X142068418Y-123589767D01*
X141965750Y-123737959D01*
X141965745Y-123737966D01*
X141952993Y-123756374D01*
X141943734Y-123776758D01*
X141943728Y-123776769D01*
X141869170Y-123940915D01*
X141869166Y-123940924D01*
X141859904Y-123961317D01*
X141854430Y-123983038D01*
X141854428Y-123983046D01*
X141810037Y-124159216D01*
X141804904Y-124179588D01*
X141803256Y-124200522D01*
X141803255Y-124200531D01*
X141795267Y-124302028D01*
X141795266Y-124302046D01*
X141794500Y-124311783D01*
X141794500Y-124321569D01*
X141794500Y-124321570D01*
X141794500Y-126630425D01*
X141794500Y-126630450D01*
X141794501Y-126640216D01*
X141795268Y-126649973D01*
X141795269Y-126649977D01*
X141803255Y-126751467D01*
X141803256Y-126751475D01*
X141804904Y-126772412D01*
X141810035Y-126792777D01*
X141810037Y-126792786D01*
X141837341Y-126901143D01*
X141850700Y-126981123D01*
X141850928Y-127062210D01*
X141848268Y-127096009D01*
X141848266Y-127096038D01*
X141847500Y-127105783D01*
X141847500Y-127115572D01*
X141847500Y-127274344D01*
X141827654Y-127413671D01*
X141769696Y-127541916D01*
X141678235Y-127648878D01*
X141560547Y-127726049D01*
X141425992Y-127767290D01*
X141285273Y-127769322D01*
X141149583Y-127731983D01*
X141029718Y-127658243D01*
X140713874Y-127395970D01*
X140696466Y-127384045D01*
X140360990Y-127154238D01*
X140360979Y-127154231D01*
X140351487Y-127147729D01*
X139967742Y-126933985D01*
X139957195Y-126929328D01*
X139957191Y-126929326D01*
X139576452Y-126761213D01*
X139576446Y-126761210D01*
X139565911Y-126756559D01*
X139253606Y-126651885D01*
X139160360Y-126620632D01*
X139160359Y-126620631D01*
X139149425Y-126616967D01*
X139138209Y-126614329D01*
X139138202Y-126614327D01*
X138733058Y-126519038D01*
X138733040Y-126519034D01*
X138721834Y-126516399D01*
X138710434Y-126514808D01*
X138710414Y-126514805D01*
X138318317Y-126460110D01*
X138286789Y-126455712D01*
X138275290Y-126455180D01*
X138275286Y-126455180D01*
X137963490Y-126440765D01*
X137963476Y-126440764D01*
X137957751Y-126440500D01*
X137951996Y-126440500D01*
X137151000Y-126440500D01*
X137021849Y-126423497D01*
X136901500Y-126373647D01*
X136798154Y-126294346D01*
X136718853Y-126191000D01*
X136669003Y-126070651D01*
X136652000Y-125941500D01*
X136652000Y-124238706D01*
X136652000Y-124206000D01*
X133390788Y-124206000D01*
X133253768Y-124186819D01*
X133127282Y-124130752D01*
X133021053Y-124042107D01*
X132943248Y-123927701D01*
X132899849Y-123796328D01*
X132894191Y-123658088D01*
X132926710Y-123523608D01*
X132944176Y-123492776D01*
X132964379Y-123444000D01*
X132969000Y-123444000D01*
X132969000Y-123332971D01*
X132988885Y-123193508D01*
X133046956Y-123065159D01*
X133138584Y-122958156D01*
X133256467Y-122881025D01*
X133391208Y-122839915D01*
X133634191Y-122802072D01*
X134008097Y-122703602D01*
X134369896Y-122567209D01*
X134715754Y-122394338D01*
X135042004Y-122186822D01*
X135345187Y-121946860D01*
X135622091Y-121676997D01*
X135869779Y-121380092D01*
X136085627Y-121059294D01*
X136267346Y-120718002D01*
X136413009Y-120359834D01*
X136521074Y-119988587D01*
X136590394Y-119608197D01*
X136620234Y-119222696D01*
X136610278Y-118836169D01*
X136560633Y-118452715D01*
X136471823Y-118076398D01*
X136344790Y-117711206D01*
X136180882Y-117361012D01*
X136152882Y-117314382D01*
X136100679Y-117193879D01*
X136081722Y-117063927D01*
X136097326Y-116933530D01*
X136146408Y-116811720D01*
X136225570Y-116706933D01*
X136329328Y-116626429D01*
X136450496Y-116575781D01*
X136580681Y-116558500D01*
X140686037Y-116558500D01*
X140813118Y-116574953D01*
G37*
%TD.AperFunction*%
%TA.AperFunction,NonConductor*%
G36*
X151649151Y-122893503D02*
G01*
X151769500Y-122943353D01*
X151872846Y-123022654D01*
X151952147Y-123126000D01*
X152001997Y-123246349D01*
X152019000Y-123375500D01*
X152019000Y-123444000D01*
X152051706Y-123444000D01*
X155016574Y-123444000D01*
X155152721Y-123462932D01*
X155278537Y-123518293D01*
X155384475Y-123605880D01*
X155462497Y-123719049D01*
X155506681Y-123849211D01*
X155513675Y-123986491D01*
X155482949Y-124120470D01*
X155416834Y-124240982D01*
X155327215Y-124331912D01*
X155326380Y-124333000D01*
X155321000Y-124333000D01*
X155321000Y-124365706D01*
X155321000Y-125941500D01*
X155303997Y-126070651D01*
X155254147Y-126191000D01*
X155174846Y-126294346D01*
X155071500Y-126373647D01*
X154951151Y-126423497D01*
X154822000Y-126440500D01*
X154372230Y-126440500D01*
X153932971Y-126440500D01*
X153921497Y-126441563D01*
X153921477Y-126441564D01*
X153835020Y-126449574D01*
X153812042Y-126451169D01*
X153727129Y-126455096D01*
X153713811Y-126455712D01*
X153702392Y-126457304D01*
X153702390Y-126457305D01*
X153616411Y-126469298D01*
X153593525Y-126471953D01*
X153530918Y-126477754D01*
X153495588Y-126481029D01*
X153484258Y-126483146D01*
X153484257Y-126483147D01*
X153398883Y-126499105D01*
X153376147Y-126502814D01*
X153290192Y-126514805D01*
X153278766Y-126516399D01*
X153267552Y-126519036D01*
X153267549Y-126519037D01*
X153267545Y-126519038D01*
X153183034Y-126538914D01*
X153160494Y-126543668D01*
X153063809Y-126561743D01*
X153052733Y-126564894D01*
X153052726Y-126564896D01*
X152969207Y-126588659D01*
X152946908Y-126594450D01*
X152851175Y-126616967D01*
X152840248Y-126620629D01*
X152840242Y-126620631D01*
X152757921Y-126648222D01*
X152735905Y-126655039D01*
X152641320Y-126681952D01*
X152630591Y-126686108D01*
X152630577Y-126686113D01*
X152549629Y-126717472D01*
X152527960Y-126725296D01*
X152445633Y-126752890D01*
X152445617Y-126752896D01*
X152434689Y-126756559D01*
X152424149Y-126761213D01*
X152424134Y-126761219D01*
X152344724Y-126796281D01*
X152323441Y-126805097D01*
X152242461Y-126836470D01*
X152242453Y-126836473D01*
X152231724Y-126840630D01*
X152221433Y-126845753D01*
X152221413Y-126845763D01*
X152143688Y-126884465D01*
X152122835Y-126894254D01*
X152043410Y-126929324D01*
X152043378Y-126929339D01*
X152032858Y-126933985D01*
X152022794Y-126939590D01*
X152022787Y-126939594D01*
X151946950Y-126981834D01*
X151926570Y-126992577D01*
X151848845Y-127031280D01*
X151848840Y-127031282D01*
X151838517Y-127036423D01*
X151828724Y-127042486D01*
X151828707Y-127042496D01*
X151754896Y-127088199D01*
X151735032Y-127099872D01*
X151649113Y-127147729D01*
X151639613Y-127154236D01*
X151639593Y-127154249D01*
X151567953Y-127203323D01*
X151548649Y-127215902D01*
X151474858Y-127261592D01*
X151474852Y-127261595D01*
X151465052Y-127267664D01*
X151455860Y-127274604D01*
X151455840Y-127274619D01*
X151386575Y-127326925D01*
X151367873Y-127340381D01*
X151296243Y-127389449D01*
X151296220Y-127389466D01*
X151286726Y-127395970D01*
X151277871Y-127403322D01*
X151277851Y-127403338D01*
X151211050Y-127458808D01*
X151192991Y-127473112D01*
X151123725Y-127525420D01*
X151123707Y-127525434D01*
X151114517Y-127532375D01*
X151106004Y-127540135D01*
X151105989Y-127540148D01*
X151041833Y-127598633D01*
X151024452Y-127613758D01*
X150957653Y-127669227D01*
X150957627Y-127669249D01*
X150948791Y-127676588D01*
X150940661Y-127684717D01*
X150940651Y-127684727D01*
X150899329Y-127726049D01*
X150871106Y-127754272D01*
X150871095Y-127754283D01*
X150662838Y-127962540D01*
X150632802Y-127992576D01*
X150525911Y-128073903D01*
X150401202Y-128123775D01*
X150267709Y-128138579D01*
X150135103Y-128117242D01*
X150012991Y-128061310D01*
X149910221Y-127974836D01*
X149834237Y-127864084D01*
X149790544Y-127737078D01*
X149778466Y-127676359D01*
X149775280Y-127660341D01*
X149676238Y-127368573D01*
X149539960Y-127092229D01*
X149530883Y-127078645D01*
X149527550Y-127072871D01*
X149479879Y-126960392D01*
X149460966Y-126839700D01*
X149471946Y-126718029D01*
X149512159Y-126602673D01*
X149519070Y-126588659D01*
X149623238Y-126377427D01*
X149722280Y-126085659D01*
X149782391Y-125783460D01*
X149802543Y-125476000D01*
X149782391Y-125168540D01*
X149722280Y-124866341D01*
X149623238Y-124574573D01*
X149486960Y-124298229D01*
X149315778Y-124042036D01*
X149112620Y-123810380D01*
X149074294Y-123776769D01*
X149044531Y-123750667D01*
X148956636Y-123649703D01*
X148898744Y-123529007D01*
X148875021Y-123397265D01*
X148887173Y-123263955D01*
X148934326Y-123138674D01*
X149013087Y-123030434D01*
X149117788Y-122947027D01*
X149240894Y-122894455D01*
X149373546Y-122876500D01*
X151520000Y-122876500D01*
X151649151Y-122893503D01*
G37*
%TD.AperFunction*%
%TA.AperFunction,NonConductor*%
G36*
X121056307Y-135055838D02*
G01*
X121177003Y-135116373D01*
X121339609Y-135227761D01*
X121339614Y-135227764D01*
X121349113Y-135234271D01*
X121732858Y-135448015D01*
X122134689Y-135625441D01*
X122551175Y-135765033D01*
X122883050Y-135843089D01*
X122967528Y-135862958D01*
X122978766Y-135865601D01*
X122990182Y-135867193D01*
X122990185Y-135867194D01*
X123029595Y-135872691D01*
X123413811Y-135926288D01*
X123742849Y-135941500D01*
X124215000Y-135941500D01*
X124344151Y-135958503D01*
X124464500Y-136008353D01*
X124567846Y-136087654D01*
X124647147Y-136191000D01*
X124696997Y-136311349D01*
X124714000Y-136440500D01*
X124714000Y-137263457D01*
X124696456Y-137394610D01*
X124645058Y-137516540D01*
X124563420Y-137620674D01*
X124457283Y-137699691D01*
X124334109Y-137748033D01*
X124202560Y-137762302D01*
X124071885Y-137741494D01*
X123825040Y-137667593D01*
X123825030Y-137667590D01*
X123811136Y-137663431D01*
X123796839Y-137660910D01*
X123481234Y-137605260D01*
X123481222Y-137605258D01*
X123466927Y-137602738D01*
X123452434Y-137601893D01*
X123452427Y-137601893D01*
X123212543Y-137587921D01*
X123212523Y-137587920D01*
X123205305Y-137587500D01*
X123030695Y-137587500D01*
X123023477Y-137587920D01*
X123023456Y-137587921D01*
X122783572Y-137601893D01*
X122783563Y-137601894D01*
X122769073Y-137602738D01*
X122754779Y-137605258D01*
X122754765Y-137605260D01*
X122439160Y-137660910D01*
X122439155Y-137660910D01*
X122424864Y-137663431D01*
X122410969Y-137667590D01*
X122410960Y-137667593D01*
X122103929Y-137759512D01*
X122103919Y-137759515D01*
X122090029Y-137763674D01*
X122076716Y-137769416D01*
X122076704Y-137769421D01*
X121782422Y-137896362D01*
X121782411Y-137896367D01*
X121769096Y-137902111D01*
X121756543Y-137909358D01*
X121756526Y-137909367D01*
X121478972Y-138069613D01*
X121478961Y-138069620D01*
X121466404Y-138076870D01*
X121454775Y-138085527D01*
X121454762Y-138085536D01*
X121192982Y-138280425D01*
X121072470Y-138346540D01*
X120938491Y-138377266D01*
X120801211Y-138370272D01*
X120671049Y-138326088D01*
X120557880Y-138248066D01*
X120470293Y-138142128D01*
X120414932Y-138016312D01*
X120396000Y-137880165D01*
X120396000Y-135528047D01*
X120414268Y-135394263D01*
X120467736Y-135270275D01*
X120552488Y-135165161D01*
X120662318Y-135086617D01*
X120789186Y-135040395D01*
X120923801Y-135029879D01*
X121056307Y-135055838D01*
G37*
%TD.AperFunction*%
%TA.AperFunction,NonConductor*%
G36*
X126306418Y-141798715D02*
G01*
X126431359Y-141849359D01*
X126538183Y-141931601D01*
X126619092Y-142039437D01*
X126639729Y-142076487D01*
X126646231Y-142085979D01*
X126646238Y-142085990D01*
X126786525Y-142290783D01*
X126887970Y-142438874D01*
X126996622Y-142569719D01*
X127070360Y-142689583D01*
X127107700Y-142825273D01*
X127105668Y-142965991D01*
X127064427Y-143100547D01*
X126987256Y-143218235D01*
X126880294Y-143309696D01*
X126752049Y-143367654D01*
X126612722Y-143387500D01*
X125755924Y-143387500D01*
X125616289Y-143367565D01*
X125487812Y-143309352D01*
X125380756Y-143217514D01*
X125303677Y-143099387D01*
X125262732Y-142964410D01*
X125261193Y-142823368D01*
X125299183Y-142687530D01*
X125373664Y-142567753D01*
X125528849Y-142382811D01*
X125720913Y-142090793D01*
X125737228Y-142058306D01*
X125813451Y-141947108D01*
X125916660Y-141860372D01*
X126039320Y-141804430D01*
X126172480Y-141783365D01*
X126306418Y-141798715D01*
G37*
%TD.AperFunction*%
%TA.AperFunction,NonConductor*%
G36*
X139096228Y-135840690D02*
G01*
X139211390Y-135888837D01*
X139311000Y-135964058D01*
X139388825Y-136061647D01*
X139439996Y-136175498D01*
X139461311Y-136298486D01*
X139462712Y-136328789D01*
X139464303Y-136340194D01*
X139521805Y-136752414D01*
X139521808Y-136752434D01*
X139523399Y-136763834D01*
X139526034Y-136775040D01*
X139526038Y-136775058D01*
X139621327Y-137180202D01*
X139623967Y-137191425D01*
X139763559Y-137607911D01*
X139768210Y-137618446D01*
X139768213Y-137618452D01*
X139893461Y-137902111D01*
X139940985Y-138009742D01*
X140033590Y-138176000D01*
X140148155Y-138381685D01*
X140195910Y-138501855D01*
X140211184Y-138630261D01*
X140192950Y-138758280D01*
X140142433Y-138877315D01*
X140063025Y-138979372D01*
X139960060Y-139057599D01*
X139840451Y-139106742D01*
X139712230Y-139123500D01*
X139684581Y-139123500D01*
X139684555Y-139123500D01*
X139674784Y-139123501D01*
X139665027Y-139124268D01*
X139665022Y-139124269D01*
X139563527Y-139132256D01*
X139563524Y-139132256D01*
X139542588Y-139133904D01*
X139522233Y-139139032D01*
X139522221Y-139139035D01*
X139346046Y-139183428D01*
X139346038Y-139183430D01*
X139324317Y-139188904D01*
X139303924Y-139198166D01*
X139303915Y-139198170D01*
X139139769Y-139272728D01*
X139139758Y-139272734D01*
X139119374Y-139281993D01*
X139100966Y-139294745D01*
X139100959Y-139294750D01*
X138952767Y-139397418D01*
X138952760Y-139397423D01*
X138934346Y-139410181D01*
X138918503Y-139426023D01*
X138918497Y-139426029D01*
X138791029Y-139553497D01*
X138791023Y-139553503D01*
X138775181Y-139569346D01*
X138762423Y-139587760D01*
X138762418Y-139587767D01*
X138659750Y-139735959D01*
X138659745Y-139735966D01*
X138646993Y-139754374D01*
X138637734Y-139774758D01*
X138637728Y-139774769D01*
X138563170Y-139938915D01*
X138563166Y-139938924D01*
X138553904Y-139959317D01*
X138548430Y-139981038D01*
X138548428Y-139981046D01*
X138527000Y-140066086D01*
X138498904Y-140177588D01*
X138497256Y-140198522D01*
X138497255Y-140198531D01*
X138489267Y-140300028D01*
X138489266Y-140300046D01*
X138488500Y-140309783D01*
X138488500Y-140319569D01*
X138488500Y-140319570D01*
X138488500Y-142128425D01*
X138488500Y-142128450D01*
X138488501Y-142138216D01*
X138498904Y-142270412D01*
X138504033Y-142290768D01*
X138504035Y-142290778D01*
X138548428Y-142466953D01*
X138553904Y-142488683D01*
X138563169Y-142509081D01*
X138563172Y-142509089D01*
X138641773Y-142682134D01*
X138681489Y-142818349D01*
X138681262Y-142960235D01*
X138641109Y-143096321D01*
X138564278Y-143215605D01*
X138456980Y-143308443D01*
X138327890Y-143367328D01*
X138187445Y-143387500D01*
X134753278Y-143387500D01*
X134613951Y-143367654D01*
X134485706Y-143309696D01*
X134378744Y-143218235D01*
X134301573Y-143100547D01*
X134260332Y-142965991D01*
X134258300Y-142825273D01*
X134295640Y-142689583D01*
X134369377Y-142569719D01*
X134478030Y-142438874D01*
X134726271Y-142076487D01*
X134940015Y-141692742D01*
X135117441Y-141290911D01*
X135257033Y-140874425D01*
X135357601Y-140446834D01*
X135418288Y-140011789D01*
X135433500Y-139682751D01*
X135433500Y-138548000D01*
X135450503Y-138418849D01*
X135500353Y-138298500D01*
X135579654Y-138195154D01*
X135683000Y-138115853D01*
X135803349Y-138066003D01*
X135932500Y-138049000D01*
X136619294Y-138049000D01*
X136652000Y-138049000D01*
X136652000Y-136440500D01*
X136669003Y-136311349D01*
X136718853Y-136191000D01*
X136798154Y-136087654D01*
X136901500Y-136008353D01*
X137021849Y-135958503D01*
X137151000Y-135941500D01*
X137951996Y-135941500D01*
X137957751Y-135941500D01*
X138286789Y-135926288D01*
X138721834Y-135865601D01*
X138848597Y-135835786D01*
X138972720Y-135822630D01*
X139096228Y-135840690D01*
G37*
%TD.AperFunction*%
%TA.AperFunction,NonConductor*%
G36*
X150956227Y-140483152D02*
G01*
X151073570Y-140534503D01*
X151173975Y-140614034D01*
X151250826Y-140716504D01*
X151299061Y-140835162D01*
X151315500Y-140962190D01*
X151315500Y-142128425D01*
X151315500Y-142128450D01*
X151315501Y-142138216D01*
X151325904Y-142270412D01*
X151331033Y-142290768D01*
X151331035Y-142290778D01*
X151375428Y-142466953D01*
X151380904Y-142488683D01*
X151390169Y-142509081D01*
X151390172Y-142509089D01*
X151468773Y-142682134D01*
X151508489Y-142818349D01*
X151508262Y-142960235D01*
X151468109Y-143096321D01*
X151391278Y-143215605D01*
X151283980Y-143308443D01*
X151154890Y-143367328D01*
X151014445Y-143387500D01*
X142990555Y-143387500D01*
X142850110Y-143367328D01*
X142721020Y-143308443D01*
X142613722Y-143215605D01*
X142536891Y-143096321D01*
X142496738Y-142960235D01*
X142496511Y-142818349D01*
X142536227Y-142682134D01*
X142614827Y-142509089D01*
X142624096Y-142488683D01*
X142679096Y-142270412D01*
X142689500Y-142138217D01*
X142689499Y-141045305D01*
X142705939Y-140918277D01*
X142754176Y-140799616D01*
X142831031Y-140697144D01*
X142931441Y-140617614D01*
X143048789Y-140566265D01*
X143175343Y-140546481D01*
X143302762Y-140559566D01*
X143324166Y-140564601D01*
X143335582Y-140566193D01*
X143335585Y-140566194D01*
X143374995Y-140571691D01*
X143759211Y-140625288D01*
X144088249Y-140640500D01*
X149233971Y-140640500D01*
X149563351Y-140640500D01*
X149661708Y-140640500D01*
X149673229Y-140640500D01*
X149771142Y-140631426D01*
X149794136Y-140629830D01*
X149892389Y-140625288D01*
X149989805Y-140611698D01*
X150012673Y-140609044D01*
X150110613Y-140599970D01*
X150207294Y-140581897D01*
X150230033Y-140578187D01*
X150327434Y-140564601D01*
X150423159Y-140542086D01*
X150445670Y-140537336D01*
X150542392Y-140519257D01*
X150636979Y-140492343D01*
X150659302Y-140486546D01*
X150702260Y-140476443D01*
X150829678Y-140463364D01*
X150956227Y-140483152D01*
G37*
%TD.AperFunction*%
%TA.AperFunction,NonConductor*%
G36*
X154951151Y-137463516D02*
G01*
X155071500Y-137513366D01*
X155174846Y-137592667D01*
X155254147Y-137696013D01*
X155303997Y-137816362D01*
X155321000Y-137945513D01*
X155321000Y-138176000D01*
X155353706Y-138176000D01*
X163832562Y-138176000D01*
X163962368Y-138193179D01*
X164083236Y-138243533D01*
X164186845Y-138323596D01*
X164266059Y-138427854D01*
X164315426Y-138549129D01*
X164331545Y-138679071D01*
X164313308Y-138808733D01*
X164261969Y-138929186D01*
X164181064Y-139032138D01*
X164076163Y-139110499D01*
X163954489Y-139158875D01*
X163857046Y-139183428D01*
X163857038Y-139183430D01*
X163835317Y-139188904D01*
X163814924Y-139198166D01*
X163814915Y-139198170D01*
X163650769Y-139272728D01*
X163650758Y-139272734D01*
X163630374Y-139281993D01*
X163611966Y-139294745D01*
X163611959Y-139294750D01*
X163463767Y-139397418D01*
X163463760Y-139397423D01*
X163445346Y-139410181D01*
X163429503Y-139426023D01*
X163429497Y-139426029D01*
X163302029Y-139553497D01*
X163302023Y-139553503D01*
X163286181Y-139569346D01*
X163273423Y-139587760D01*
X163273418Y-139587767D01*
X163170750Y-139735959D01*
X163170745Y-139735966D01*
X163157993Y-139754374D01*
X163148734Y-139774758D01*
X163148728Y-139774769D01*
X163074170Y-139938915D01*
X163074166Y-139938924D01*
X163064904Y-139959317D01*
X163059430Y-139981038D01*
X163059428Y-139981046D01*
X163038000Y-140066086D01*
X163009904Y-140177588D01*
X163008256Y-140198522D01*
X163008255Y-140198531D01*
X163000267Y-140300028D01*
X163000266Y-140300046D01*
X162999500Y-140309783D01*
X162999500Y-140319569D01*
X162999500Y-140319570D01*
X162999500Y-142128425D01*
X162999500Y-142128450D01*
X162999501Y-142138216D01*
X163009904Y-142270412D01*
X163015033Y-142290768D01*
X163015035Y-142290778D01*
X163059428Y-142466953D01*
X163064904Y-142488683D01*
X163074169Y-142509081D01*
X163074172Y-142509089D01*
X163152773Y-142682134D01*
X163192489Y-142818349D01*
X163192262Y-142960235D01*
X163152109Y-143096321D01*
X163075278Y-143215605D01*
X162967980Y-143308443D01*
X162838890Y-143367328D01*
X162698445Y-143387500D01*
X155817555Y-143387500D01*
X155677110Y-143367328D01*
X155548020Y-143308443D01*
X155440722Y-143215605D01*
X155363891Y-143096321D01*
X155323738Y-142960235D01*
X155323511Y-142818349D01*
X155363227Y-142682134D01*
X155441827Y-142509089D01*
X155451096Y-142488683D01*
X155506096Y-142270412D01*
X155516500Y-142138217D01*
X155516499Y-140309784D01*
X155506096Y-140177588D01*
X155451096Y-139959317D01*
X155358007Y-139754374D01*
X155229819Y-139569346D01*
X155070654Y-139410181D01*
X154885626Y-139281993D01*
X154865236Y-139272731D01*
X154865230Y-139272728D01*
X154701084Y-139198170D01*
X154701079Y-139198168D01*
X154680683Y-139188904D01*
X154658957Y-139183429D01*
X154658953Y-139183428D01*
X154482783Y-139139037D01*
X154482781Y-139139036D01*
X154462412Y-139133904D01*
X154441475Y-139132256D01*
X154441468Y-139132255D01*
X154339971Y-139124267D01*
X154339954Y-139124266D01*
X154330217Y-139123500D01*
X154320429Y-139123500D01*
X154143013Y-139123500D01*
X154013862Y-139106497D01*
X153893513Y-139056647D01*
X153790167Y-138977346D01*
X153710866Y-138874000D01*
X153661016Y-138753651D01*
X153644013Y-138624500D01*
X153661016Y-138495349D01*
X153710866Y-138375000D01*
X153790167Y-138271654D01*
X154469154Y-137592667D01*
X154572500Y-137513366D01*
X154692849Y-137463516D01*
X154822000Y-137446513D01*
X154951151Y-137463516D01*
G37*
%TD.AperFunction*%
%TA.AperFunction,NonConductor*%
G36*
X174890151Y-131519916D02*
G01*
X175010500Y-131569766D01*
X175113846Y-131649067D01*
X175193147Y-131752413D01*
X175242997Y-131872762D01*
X175260000Y-132001913D01*
X175260000Y-137896291D01*
X175240065Y-138035926D01*
X175181852Y-138164404D01*
X175090013Y-138271460D01*
X174971885Y-138348539D01*
X174836907Y-138389484D01*
X174695865Y-138391022D01*
X174560026Y-138353030D01*
X174450465Y-138284899D01*
X174449953Y-138285588D01*
X174431236Y-138271654D01*
X174297640Y-138172195D01*
X174169596Y-138076870D01*
X174157030Y-138069615D01*
X174157027Y-138069613D01*
X173879473Y-137909367D01*
X173879463Y-137909362D01*
X173866904Y-137902111D01*
X173853581Y-137896364D01*
X173853577Y-137896362D01*
X173559295Y-137769421D01*
X173559288Y-137769418D01*
X173545971Y-137763674D01*
X173532074Y-137759513D01*
X173532070Y-137759512D01*
X173225039Y-137667593D01*
X173225034Y-137667591D01*
X173211136Y-137663431D01*
X173196839Y-137660910D01*
X172881234Y-137605260D01*
X172881222Y-137605258D01*
X172866927Y-137602738D01*
X172852434Y-137601893D01*
X172852427Y-137601893D01*
X172612543Y-137587921D01*
X172612523Y-137587920D01*
X172605305Y-137587500D01*
X172430695Y-137587500D01*
X172423477Y-137587920D01*
X172423456Y-137587921D01*
X172183572Y-137601893D01*
X172183563Y-137601894D01*
X172169073Y-137602738D01*
X172154779Y-137605258D01*
X172154765Y-137605260D01*
X171839160Y-137660910D01*
X171839155Y-137660910D01*
X171824864Y-137663431D01*
X171810969Y-137667590D01*
X171810960Y-137667593D01*
X171503929Y-137759512D01*
X171503919Y-137759515D01*
X171490029Y-137763674D01*
X171476716Y-137769416D01*
X171476704Y-137769421D01*
X171182422Y-137896362D01*
X171182411Y-137896367D01*
X171169096Y-137902111D01*
X171156543Y-137909358D01*
X171156526Y-137909367D01*
X170878972Y-138069613D01*
X170878961Y-138069620D01*
X170866404Y-138076870D01*
X170854767Y-138085532D01*
X170854763Y-138085536D01*
X170597693Y-138276917D01*
X170597683Y-138276924D01*
X170586047Y-138285588D01*
X170575489Y-138295548D01*
X170575483Y-138295554D01*
X170342378Y-138515477D01*
X170342367Y-138515487D01*
X170331817Y-138525442D01*
X170322489Y-138536558D01*
X170322483Y-138536565D01*
X170116481Y-138782069D01*
X170116474Y-138782077D01*
X170107151Y-138793189D01*
X170099183Y-138805302D01*
X170099176Y-138805313D01*
X169923067Y-139073073D01*
X169923062Y-139073081D01*
X169915087Y-139085207D01*
X169908578Y-139098166D01*
X169908569Y-139098183D01*
X169764735Y-139384582D01*
X169758223Y-139397549D01*
X169753261Y-139411179D01*
X169753260Y-139411184D01*
X169643642Y-139712357D01*
X169643639Y-139712366D01*
X169638681Y-139725989D01*
X169635336Y-139740099D01*
X169635336Y-139740102D01*
X169561424Y-140051959D01*
X169561420Y-140051977D01*
X169558077Y-140066086D01*
X169556391Y-140080503D01*
X169556391Y-140080508D01*
X169519185Y-140398818D01*
X169519184Y-140398832D01*
X169517500Y-140413241D01*
X169517500Y-140762759D01*
X169519184Y-140777168D01*
X169519185Y-140777181D01*
X169556391Y-141095491D01*
X169558077Y-141109914D01*
X169561421Y-141124025D01*
X169561424Y-141124040D01*
X169603472Y-141301452D01*
X169638681Y-141450011D01*
X169758223Y-141778451D01*
X169764735Y-141791417D01*
X169908569Y-142077816D01*
X169908574Y-142077825D01*
X169915087Y-142090793D01*
X169923066Y-142102925D01*
X169923067Y-142102926D01*
X170019449Y-142249468D01*
X170107151Y-142382811D01*
X170262335Y-142567753D01*
X170336817Y-142687530D01*
X170374807Y-142823368D01*
X170373268Y-142964410D01*
X170332323Y-143099387D01*
X170255244Y-143217514D01*
X170148188Y-143309352D01*
X170019711Y-143367565D01*
X169880076Y-143387500D01*
X167501555Y-143387500D01*
X167361110Y-143367328D01*
X167232020Y-143308443D01*
X167124722Y-143215605D01*
X167047891Y-143096321D01*
X167007738Y-142960235D01*
X167007511Y-142818349D01*
X167047227Y-142682134D01*
X167125827Y-142509089D01*
X167135096Y-142488683D01*
X167190096Y-142270412D01*
X167200500Y-142138217D01*
X167200499Y-140309784D01*
X167190096Y-140177588D01*
X167135096Y-139959317D01*
X167042007Y-139754374D01*
X166913819Y-139569346D01*
X166754654Y-139410181D01*
X166569626Y-139281993D01*
X166549236Y-139272731D01*
X166549230Y-139272728D01*
X166385084Y-139198170D01*
X166385079Y-139198168D01*
X166364683Y-139188904D01*
X166342957Y-139183429D01*
X166342953Y-139183428D01*
X166245511Y-139158875D01*
X166123837Y-139110499D01*
X166018936Y-139032138D01*
X165938031Y-138929186D01*
X165886692Y-138808733D01*
X165868455Y-138679071D01*
X165884574Y-138549129D01*
X165933941Y-138427854D01*
X166013155Y-138323596D01*
X166116764Y-138243533D01*
X166237632Y-138193179D01*
X166367438Y-138176000D01*
X166972294Y-138176000D01*
X167005000Y-138176000D01*
X167005000Y-136440500D01*
X167022003Y-136311349D01*
X167071853Y-136191000D01*
X167151154Y-136087654D01*
X167254500Y-136008353D01*
X167374849Y-135958503D01*
X167504000Y-135941500D01*
X168356108Y-135941500D01*
X168367629Y-135941500D01*
X168465542Y-135932426D01*
X168488536Y-135930830D01*
X168586789Y-135926288D01*
X168684205Y-135912698D01*
X168707073Y-135910044D01*
X168805013Y-135900970D01*
X168901694Y-135882897D01*
X168924433Y-135879187D01*
X169021834Y-135865601D01*
X169117559Y-135843086D01*
X169140070Y-135838336D01*
X169236792Y-135820257D01*
X169331379Y-135793343D01*
X169353702Y-135787546D01*
X169449425Y-135765033D01*
X169542679Y-135733776D01*
X169564671Y-135726965D01*
X169659280Y-135700048D01*
X169750980Y-135664522D01*
X169772623Y-135656707D01*
X169865911Y-135625441D01*
X169955880Y-135585714D01*
X169977146Y-135576905D01*
X170068877Y-135541370D01*
X170156940Y-135497518D01*
X170177774Y-135487739D01*
X170267742Y-135448015D01*
X170353677Y-135400148D01*
X170374050Y-135389409D01*
X170462083Y-135345576D01*
X170545693Y-135293805D01*
X170565541Y-135282141D01*
X170651487Y-135234271D01*
X170732660Y-135178665D01*
X170751903Y-135166125D01*
X170835548Y-135114336D01*
X170914032Y-135055067D01*
X170932724Y-135041618D01*
X171013874Y-134986030D01*
X171089522Y-134923210D01*
X171107597Y-134908895D01*
X171176875Y-134856579D01*
X171186084Y-134849625D01*
X171258772Y-134783359D01*
X171276132Y-134768252D01*
X171351809Y-134705412D01*
X171662412Y-134394809D01*
X171662411Y-134394809D01*
X174378717Y-131678505D01*
X174378725Y-131678496D01*
X174408154Y-131649067D01*
X174511500Y-131569766D01*
X174631849Y-131519916D01*
X174761000Y-131502913D01*
X174890151Y-131519916D01*
G37*
%TD.AperFunction*%
M02*
