%TF.GenerationSoftware,KiCad,Pcbnew,(7.0.0)*%
%TF.CreationDate,2023-03-22T18:36:37-05:00*%
%TF.ProjectId,Bluetooth Multimeter,426c7565-746f-46f7-9468-204d756c7469,rev?*%
%TF.SameCoordinates,Original*%
%TF.FileFunction,Copper,L2,Bot*%
%TF.FilePolarity,Positive*%
%FSLAX46Y46*%
G04 Gerber Fmt 4.6, Leading zero omitted, Abs format (unit mm)*
G04 Created by KiCad (PCBNEW (7.0.0)) date 2023-03-22 18:36:37*
%MOMM*%
%LPD*%
G01*
G04 APERTURE LIST*
%TA.AperFunction,ComponentPad*%
%ADD10O,1.600000X1.600000*%
%TD*%
%TA.AperFunction,ComponentPad*%
%ADD11R,1.600000X1.600000*%
%TD*%
%TA.AperFunction,ComponentPad*%
%ADD12C,4.000000*%
%TD*%
%TA.AperFunction,ComponentPad*%
%ADD13R,2.000000X2.000000*%
%TD*%
%TA.AperFunction,ComponentPad*%
%ADD14C,2.000000*%
%TD*%
%TA.AperFunction,ComponentPad*%
%ADD15R,1.700000X1.700000*%
%TD*%
%TA.AperFunction,ComponentPad*%
%ADD16R,2.200000X2.200000*%
%TD*%
%TA.AperFunction,ComponentPad*%
%ADD17O,2.200000X2.200000*%
%TD*%
%TA.AperFunction,ComponentPad*%
%ADD18C,1.600000*%
%TD*%
%TA.AperFunction,ComponentPad*%
%ADD19C,3.000000*%
%TD*%
%TA.AperFunction,ComponentPad*%
%ADD20C,1.700000*%
%TD*%
%TA.AperFunction,ComponentPad*%
%ADD21C,5.000000*%
%TD*%
%TA.AperFunction,ComponentPad*%
%ADD22O,1.700000X1.700000*%
%TD*%
%TA.AperFunction,ComponentPad*%
%ADD23R,1.750000X1.750000*%
%TD*%
%TA.AperFunction,ComponentPad*%
%ADD24C,1.750000*%
%TD*%
%TA.AperFunction,ComponentPad*%
%ADD25C,1.500000*%
%TD*%
%TA.AperFunction,ViaPad*%
%ADD26C,1.200000*%
%TD*%
%TA.AperFunction,Conductor*%
%ADD27C,3.000000*%
%TD*%
%TA.AperFunction,Conductor*%
%ADD28C,1.000000*%
%TD*%
%TA.AperFunction,Conductor*%
%ADD29C,0.400000*%
%TD*%
%TA.AperFunction,Conductor*%
%ADD30C,5.000000*%
%TD*%
%TA.AperFunction,Conductor*%
%ADD31C,7.000000*%
%TD*%
%TA.AperFunction,Conductor*%
%ADD32C,0.250000*%
%TD*%
G04 APERTURE END LIST*
D10*
%TO.P,D9,2,A*%
%TO.N,GND*%
X158986999Y-104774999D03*
D11*
%TO.P,D9,1,K*%
%TO.N,/V{slash}Ohm Control*%
X164066999Y-104774999D03*
%TD*%
%TO.P,D8,1,K*%
%TO.N,/UH Range Control*%
X143763999Y-102090999D03*
D10*
%TO.P,D8,2,A*%
%TO.N,GND*%
X143763999Y-97010999D03*
%TD*%
D11*
%TO.P,D7,1,K*%
%TO.N,/High Range Control*%
X143763999Y-109583999D03*
D10*
%TO.P,D7,2,A*%
%TO.N,GND*%
X143763999Y-104503999D03*
%TD*%
%TO.P,D6,2,A*%
%TO.N,GND*%
X128269999Y-97137999D03*
D11*
%TO.P,D6,1,K*%
%TO.N,/Med Range Control*%
X128269999Y-102217999D03*
%TD*%
%TO.P,D5,1,K*%
%TO.N,/Low Range Control*%
X128269999Y-109583999D03*
D10*
%TO.P,D5,2,A*%
%TO.N,GND*%
X128269999Y-104503999D03*
%TD*%
D12*
%TO.P,F1,4*%
%TO.N,/mA ADC In*%
X163044000Y-138430000D03*
%TO.P,F1,3*%
X155344000Y-138430000D03*
%TO.P,F1,2*%
%TO.N,/mA In*%
X136144000Y-138430000D03*
%TO.P,F1,1*%
X128444000Y-138430000D03*
%TD*%
D13*
%TO.P,K3,1,COM*%
%TO.N,Net-(K3-COM)*%
X139191999Y-110489999D03*
D14*
%TO.P,K3,3,K*%
%TO.N,/High Range Control*%
X139192000Y-105410000D03*
%TO.P,K3,5,A*%
%TO.N,GND*%
X139192000Y-100330000D03*
%TO.P,K3,7,NO*%
%TO.N,/V{slash}Ohm ADC In*%
X139192000Y-95250000D03*
%TD*%
D15*
%TO.P,J4,1,Pin_1*%
%TO.N,/A In*%
X123189999Y-121157999D03*
%TD*%
D16*
%TO.P,D2,1,K*%
%TO.N,/mA ADC In*%
X163321999Y-107441999D03*
D17*
%TO.P,D2,2,A*%
%TO.N,/Input Common*%
X163321999Y-115061999D03*
%TD*%
D15*
%TO.P,J7,1,Pin_1*%
%TO.N,GND*%
X172973999Y-61975999D03*
%TD*%
D13*
%TO.P,K5,1,COM*%
%TO.N,/Ohm Vout*%
X154685999Y-110489999D03*
D14*
%TO.P,K5,3,K*%
%TO.N,/V{slash}Ohm Control*%
X154686000Y-105410000D03*
%TO.P,K5,5,A*%
%TO.N,GND*%
X154686000Y-100330000D03*
%TO.P,K5,7,NO*%
%TO.N,/Input Common*%
X154686000Y-95250000D03*
%TD*%
D16*
%TO.P,D1,1,K*%
%TO.N,/Input Common*%
X160019999Y-115061999D03*
D17*
%TO.P,D1,2,A*%
%TO.N,/mA ADC In*%
X160019999Y-107441999D03*
%TD*%
D15*
%TO.P,J3,1,Pin_1*%
%TO.N,/mA In*%
X123189999Y-133857999D03*
%TD*%
D18*
%TO.P,R1,1*%
%TO.N,/Input Common*%
X167386000Y-135353000D03*
D10*
%TO.P,R1,2*%
%TO.N,/mA ADC In*%
X167385999Y-137892999D03*
%TD*%
D19*
%TO.P,R2,1*%
%TO.N,/A ADC In*%
X170180000Y-116616000D03*
%TO.P,R2,2*%
%TO.N,/Input Common*%
X170180000Y-88616000D03*
%TD*%
D20*
%TO.P,F2,4*%
%TO.N,/A ADC In*%
X168476000Y-127508000D03*
D21*
X168476000Y-126492000D03*
D20*
X168476000Y-125476000D03*
%TO.P,F2,3*%
X154480600Y-127508000D03*
D21*
X154480600Y-126492000D03*
D20*
X154480600Y-125476000D03*
%TO.P,F2,2*%
%TO.N,/A In*%
X138176000Y-127508000D03*
D21*
X138176000Y-126492000D03*
D20*
X138176000Y-125476000D03*
%TO.P,F2,1*%
X124180600Y-127508000D03*
D21*
X124180600Y-126492000D03*
D20*
X124180600Y-125476000D03*
%TD*%
D15*
%TO.P,J1,1,Pin_1*%
%TO.N,/V{slash}Ohm In*%
X173227999Y-122681999D03*
%TD*%
%TO.P,J2,1,Pin_1*%
%TO.N,/Input Common*%
X172719999Y-133857999D03*
%TD*%
%TO.P,J6,1,Pin_1*%
%TO.N,+3.3V*%
X122681999Y-61975999D03*
%TD*%
D13*
%TO.P,K1,1,COM*%
%TO.N,/V{slash}Ohm In*%
X123697999Y-110489999D03*
D14*
%TO.P,K1,3,K*%
%TO.N,/Low Range Control*%
X123698000Y-105410000D03*
%TO.P,K1,5,A*%
%TO.N,GND*%
X123698000Y-100330000D03*
%TO.P,K1,7,NO*%
%TO.N,/V{slash}Ohm ADC In*%
X123698000Y-95250000D03*
%TD*%
D15*
%TO.P,J5,1,Pin_1*%
%TO.N,/V{slash}Ohm ADC In*%
X131820999Y-87121999D03*
D22*
%TO.P,J5,2,Pin_2*%
%TO.N,/Input Common*%
X134360999Y-87121999D03*
%TD*%
D15*
%TO.P,DS1,1,T_IRQ*%
%TO.N,/TOUCH IRQ*%
X131317999Y-55625999D03*
D22*
%TO.P,DS1,2,T_DO(MISO)*%
%TO.N,/MISO*%
X133857999Y-55625999D03*
%TO.P,DS1,3,T_DIN(MOSI)*%
%TO.N,/MOSI*%
X136397999Y-55625999D03*
%TO.P,DS1,4,T_CS*%
%TO.N,/TOUCH CS*%
X138937999Y-55625999D03*
%TO.P,DS1,5,T_CLK(SCK)*%
%TO.N,/SCK*%
X141477999Y-55625999D03*
%TO.P,DS1,6,SDO(MISO)*%
%TO.N,/MISO*%
X144017999Y-55625999D03*
%TO.P,DS1,7,LED*%
%TO.N,+3.3V*%
X146557999Y-55625999D03*
%TO.P,DS1,8,SCK*%
%TO.N,/SCK*%
X149097999Y-55625999D03*
%TO.P,DS1,9,SDI(MOSI)*%
%TO.N,/MOSI*%
X151637999Y-55625999D03*
%TO.P,DS1,10,DC*%
%TO.N,/TFT DC*%
X154177999Y-55625999D03*
%TO.P,DS1,11,RESET*%
%TO.N,+3.3V*%
X156717999Y-55625999D03*
%TO.P,DS1,12,CS*%
%TO.N,/TFT CS*%
X159257999Y-55625999D03*
%TO.P,DS1,13,GND*%
%TO.N,GND*%
X161797999Y-55625999D03*
%TO.P,DS1,14,VCC*%
%TO.N,+3.3V*%
X164337999Y-55625999D03*
%TD*%
D23*
%TO.P,RN1,1,9M*%
%TO.N,unconnected-(RN1-9M-Pad1)*%
X122935999Y-116585999D03*
D24*
%TO.P,RN1,2,900k*%
%TO.N,/V{slash}Ohm In*%
X135636000Y-116586000D03*
%TO.P,RN1,3,90k*%
%TO.N,Net-(K2-COM)*%
X138176000Y-116586000D03*
%TO.P,RN1,4,9k*%
%TO.N,Net-(K3-COM)*%
X140716000Y-116586000D03*
%TO.P,RN1,5,1k*%
%TO.N,Net-(K4-COM)*%
X143256000Y-116586000D03*
%TO.P,RN1,6,COM*%
%TO.N,/Ohm Vout*%
X145796000Y-116586000D03*
%TD*%
D16*
%TO.P,D4,1,K*%
%TO.N,/A ADC In*%
X163067999Y-101345999D03*
D17*
%TO.P,D4,2,A*%
%TO.N,/Input Common*%
X163067999Y-93725999D03*
%TD*%
D25*
%TO.P,LS1,1*%
%TO.N,/Speaker Control*%
X167132000Y-75692000D03*
%TO.P,LS1,2*%
%TO.N,GND*%
X167132000Y-70692000D03*
%TD*%
D15*
%TO.P,U1,1,Reset*%
%TO.N,unconnected-(U1-Reset-Pad1)*%
X121665999Y-82803999D03*
D20*
%TO.P,U1,2,3.3V*%
%TO.N,+3.3V*%
X124206000Y-82804000D03*
%TO.P,U1,3,Enable*%
%TO.N,unconnected-(U1-Enable-Pad3)*%
X126746000Y-82804000D03*
%TO.P,U1,4,VHI*%
%TO.N,unconnected-(U1-VHI-Pad4)*%
X129286000Y-82804000D03*
%TO.P,U1,5,A0/14*%
%TO.N,/V{slash}Ohm ADC In*%
X131826000Y-82804000D03*
%TO.P,U1,6,A1/15*%
%TO.N,/Input Common*%
X134366000Y-82804000D03*
%TO.P,U1,7,A2/16*%
%TO.N,/Ohm Vout*%
X136906000Y-82804000D03*
%TO.P,U1,8,A3/17*%
%TO.N,/mA ADC In*%
X139446000Y-82804000D03*
%TO.P,U1,9,A4/18*%
%TO.N,/A ADC In*%
X141986000Y-82804000D03*
%TO.P,U1,10,A5/19*%
%TO.N,/Speaker Control*%
X144526000Y-82804000D03*
%TO.P,U1,11,SCK/25*%
%TO.N,/SCK*%
X147066000Y-82804000D03*
%TO.P,U1,12,MOSI/24*%
%TO.N,/MOSI*%
X149606000Y-82804000D03*
%TO.P,U1,13,MISO/23*%
%TO.N,/MISO*%
X152146000Y-82804000D03*
%TO.P,U1,14,D2/2*%
%TO.N,/TFT CS*%
X154686000Y-82804000D03*
%TO.P,U1,15,RX/0*%
%TO.N,unconnected-(U1-RX{slash}0-Pad15)*%
X154686000Y-67564000D03*
%TO.P,U1,16,TX/1*%
%TO.N,unconnected-(U1-TX{slash}1-Pad16)*%
X152146000Y-67564000D03*
%TO.P,U1,17,SDA/21*%
%TO.N,/TFT DC*%
X149606000Y-67564000D03*
%TO.P,U1,18,SCL/22*%
%TO.N,/TOUCH CS*%
X147066000Y-67564000D03*
%TO.P,U1,19,D5/5!*%
%TO.N,unconnected-(U1-D5{slash}5!-Pad19)*%
X144526000Y-67564000D03*
%TO.P,U1,20,D7/7*%
%TO.N,/TOUCH IRQ*%
X141986000Y-67564000D03*
%TO.P,U1,21,D9/9*%
%TO.N,/V{slash}Ohm Control*%
X139446000Y-67564000D03*
%TO.P,U1,22,D10/10*%
%TO.N,/UH Range Control*%
X136906000Y-67564000D03*
%TO.P,U1,23,D11/11*%
%TO.N,/High Range Control*%
X134366000Y-67564000D03*
%TO.P,U1,24,D12/12*%
%TO.N,/Med Range Control*%
X131826000Y-67564000D03*
%TO.P,U1,25,D13/13*%
%TO.N,/Low Range Control*%
X129286000Y-67564000D03*
%TO.P,U1,26,VBUS*%
%TO.N,unconnected-(U1-VBUS-Pad26)*%
X126746000Y-67564000D03*
%TO.P,U1,27,GND*%
%TO.N,GND*%
X124206000Y-67564000D03*
%TO.P,U1,28,VBAT*%
%TO.N,unconnected-(U1-VBAT-Pad28)*%
X121666000Y-67564000D03*
%TD*%
D13*
%TO.P,K2,1,COM*%
%TO.N,Net-(K2-COM)*%
X132841999Y-110489999D03*
D14*
%TO.P,K2,3,K*%
%TO.N,/Med Range Control*%
X132842000Y-105410000D03*
%TO.P,K2,5,A*%
%TO.N,GND*%
X132842000Y-100330000D03*
%TO.P,K2,7,NO*%
%TO.N,/V{slash}Ohm ADC In*%
X132842000Y-95250000D03*
%TD*%
D13*
%TO.P,K4,1,COM*%
%TO.N,Net-(K4-COM)*%
X148335999Y-110489999D03*
D14*
%TO.P,K4,3,K*%
%TO.N,/UH Range Control*%
X148336000Y-105410000D03*
%TO.P,K4,5,A*%
%TO.N,GND*%
X148336000Y-100330000D03*
%TO.P,K4,7,NO*%
%TO.N,/V{slash}Ohm ADC In*%
X148336000Y-95250000D03*
%TD*%
D16*
%TO.P,D3,1,K*%
%TO.N,/Input Common*%
X159765999Y-93725999D03*
D17*
%TO.P,D3,2,A*%
%TO.N,/A ADC In*%
X159765999Y-101345999D03*
%TD*%
D26*
%TO.N,/MISO*%
X135001000Y-58039000D03*
X144018000Y-58039000D03*
%TO.N,/Ohm Vout*%
X136906000Y-91142299D03*
%TO.N,/V{slash}Ohm ADC In*%
X128778000Y-93472000D03*
X143891000Y-93472000D03*
%TO.N,/V{slash}Ohm In*%
X166878000Y-141986000D03*
X173228000Y-127000000D03*
%TO.N,+3.3V*%
X156718000Y-59182000D03*
X146558000Y-59182000D03*
X164338000Y-59182000D03*
X128524000Y-59182000D03*
%TO.N,GND*%
X161798000Y-60492000D03*
X131064000Y-60452000D03*
%TO.N,/Input Common*%
X134361000Y-89657000D03*
X153416000Y-89662000D03*
%TO.N,/mA ADC In*%
X141478000Y-87884000D03*
%TO.N,/A ADC In*%
X143518254Y-86224746D03*
%TO.N,/Ohm Vout*%
X150749000Y-114427000D03*
%TD*%
D27*
%TO.N,/mA ADC In*%
X147955000Y-131041000D02*
X155344000Y-138430000D01*
X147955000Y-122047000D02*
X147955000Y-131041000D01*
X160020000Y-109982000D02*
X147955000Y-122047000D01*
X160020000Y-107442000D02*
X160020000Y-109982000D01*
D28*
%TO.N,/V{slash}Ohm In*%
X150114000Y-141986000D02*
X166878000Y-141986000D01*
X144907000Y-136779000D02*
X150114000Y-141986000D01*
X144907000Y-122936000D02*
X144907000Y-136779000D01*
X123698000Y-113695000D02*
X128621000Y-118618000D01*
X123698000Y-110490000D02*
X123698000Y-113695000D01*
X128621000Y-118618000D02*
X140589000Y-118618000D01*
X140589000Y-118618000D02*
X144907000Y-122936000D01*
D27*
%TO.N,/mA ADC In*%
X163322000Y-107442000D02*
X160020000Y-107442000D01*
D28*
%TO.N,/V{slash}Ohm Control*%
X152400000Y-92964000D02*
X146304000Y-86868000D01*
X155829000Y-97536000D02*
X153416000Y-97536000D01*
X152400000Y-96520000D02*
X152400000Y-92964000D01*
X156972000Y-103124000D02*
X156972000Y-98679000D01*
X156972000Y-98679000D02*
X155829000Y-97536000D01*
X153416000Y-97536000D02*
X152400000Y-96520000D01*
X156464000Y-103632000D02*
X156972000Y-103124000D01*
%TO.N,/Low Range Control*%
X125496000Y-72878000D02*
X125496000Y-81153000D01*
D29*
X125496000Y-85465884D02*
X125496000Y-81153000D01*
D28*
X129286000Y-69088000D02*
X125496000Y-72878000D01*
X129286000Y-67564000D02*
X129286000Y-69088000D01*
%TO.N,/Speaker Control*%
X167132000Y-75819000D02*
X167132000Y-75692000D01*
X156718000Y-86233000D02*
X167132000Y-75819000D01*
X147447000Y-86233000D02*
X156718000Y-86233000D01*
X144526000Y-83312000D02*
X147447000Y-86233000D01*
X144526000Y-82550000D02*
X144526000Y-83312000D01*
D29*
%TO.N,/Input Common*%
X153416000Y-89662000D02*
X154686000Y-90932000D01*
D28*
X153416000Y-89662000D02*
X157480000Y-93726000D01*
%TO.N,/mA ADC In*%
X139446000Y-85852000D02*
X141478000Y-87884000D01*
%TO.N,/Input Common*%
X134361000Y-89657000D02*
X134361000Y-87122000D01*
%TO.N,/High Range Control*%
X137160000Y-103378000D02*
X137160000Y-94234000D01*
X139192000Y-105410000D02*
X137160000Y-103378000D01*
X137160000Y-94234000D02*
X138206000Y-93188000D01*
X138206000Y-93188000D02*
X138206000Y-85374000D01*
%TO.N,/Ohm Vout*%
X136906000Y-82804000D02*
X136906000Y-91142299D01*
%TO.N,/A ADC In*%
X141986000Y-84692492D02*
X143518254Y-86224746D01*
X141986000Y-82804000D02*
X141986000Y-84692492D01*
%TO.N,/mA ADC In*%
X139446000Y-82804000D02*
X139446000Y-85852000D01*
D29*
%TO.N,/SCK*%
X148336000Y-60452000D02*
X149098000Y-59690000D01*
X149098000Y-59690000D02*
X149098000Y-56388000D01*
X148356000Y-64135000D02*
X148336000Y-64115000D01*
X148336000Y-64115000D02*
X148336000Y-60452000D01*
%TO.N,/TOUCH IRQ*%
X134112000Y-59182000D02*
X137668000Y-59182000D01*
X137668000Y-59182000D02*
X141986000Y-63500000D01*
X131318000Y-56388000D02*
X134112000Y-59182000D01*
X141986000Y-63500000D02*
X141986000Y-67310000D01*
%TO.N,/TFT DC*%
X154178000Y-57150000D02*
X154178000Y-56388000D01*
X149606000Y-61722000D02*
X154178000Y-57150000D01*
X149606000Y-67310000D02*
X149606000Y-61722000D01*
%TO.N,/TOUCH CS*%
X138938000Y-59182000D02*
X138938000Y-55626000D01*
X141478000Y-61722000D02*
X138938000Y-59182000D01*
X145796000Y-61722000D02*
X141478000Y-61722000D01*
X147066000Y-62992000D02*
X145796000Y-61722000D01*
X147066000Y-67564000D02*
X147066000Y-62992000D01*
%TO.N,/SCK*%
X142240000Y-60452000D02*
X148209000Y-60452000D01*
X141478000Y-59690000D02*
X142240000Y-60452000D01*
X148209000Y-60452000D02*
X148356000Y-60599000D01*
X148356000Y-60599000D02*
X148356000Y-64135000D01*
X141478000Y-56388000D02*
X141478000Y-59690000D01*
D28*
%TO.N,GND*%
X172974000Y-61976000D02*
X171958000Y-61976000D01*
X167132000Y-65826000D02*
X170982000Y-61976000D01*
X170982000Y-61976000D02*
X171958000Y-61976000D01*
X167132000Y-65826000D02*
X161798000Y-60492000D01*
X167132000Y-70692000D02*
X167132000Y-65826000D01*
%TO.N,/V{slash}Ohm Control*%
X156867000Y-103146000D02*
X162565000Y-103146000D01*
X156845000Y-103124000D02*
X156867000Y-103146000D01*
X162565000Y-103146000D02*
X164067000Y-104648000D01*
D29*
X156845000Y-103124000D02*
X156464000Y-103124000D01*
D28*
%TO.N,/Med Range Control*%
X135616000Y-73005000D02*
X135616000Y-80899000D01*
D29*
X135616000Y-91440000D02*
X135616000Y-80899000D01*
D28*
X131826000Y-69215000D02*
X135616000Y-73005000D01*
X131826000Y-67564000D02*
X131826000Y-69215000D01*
%TO.N,GND*%
X124206000Y-67310000D02*
X131064000Y-60452000D01*
X124206000Y-67564000D02*
X124206000Y-67310000D01*
D29*
X161798000Y-60492000D02*
X161798000Y-56388000D01*
%TO.N,/MISO*%
X133858000Y-56896000D02*
X133858000Y-55626000D01*
X135001000Y-58039000D02*
X133858000Y-56896000D01*
X144018000Y-55626000D02*
X144018000Y-58039000D01*
%TO.N,/SCK*%
X148356000Y-64135000D02*
X148356000Y-69215000D01*
D28*
X148356000Y-70592000D02*
X148356000Y-69215000D01*
X147066000Y-80899000D02*
X147066000Y-71882000D01*
D29*
X147066000Y-80899000D02*
X147066000Y-82550000D01*
D28*
X147066000Y-71882000D02*
X148356000Y-70592000D01*
%TO.N,/High Range Control*%
X138176000Y-80518000D02*
X138176000Y-81026000D01*
D29*
X138176000Y-85344000D02*
X138176000Y-81026000D01*
%TO.N,/V{slash}Ohm Control*%
X143256000Y-83820000D02*
X143256000Y-81026000D01*
D28*
X143256000Y-72644000D02*
X143256000Y-81026000D01*
X139446000Y-68834000D02*
X143256000Y-72644000D01*
X139446000Y-67564000D02*
X139446000Y-68834000D01*
%TO.N,/UH Range Control*%
X136906000Y-68766081D02*
X136906000Y-67564000D01*
X140696000Y-72556081D02*
X136906000Y-68766081D01*
X140696000Y-81026000D02*
X140696000Y-72556081D01*
D29*
X140696000Y-81026000D02*
X140696000Y-72878000D01*
X140696000Y-84816000D02*
X140696000Y-81026000D01*
D28*
X145288000Y-89408000D02*
X143764000Y-87884000D01*
D29*
X143764000Y-87884000D02*
X140696000Y-84816000D01*
%TO.N,/A ADC In*%
X141986000Y-84692492D02*
X141986000Y-82550000D01*
%TO.N,/mA ADC In*%
X139446000Y-85852000D02*
X139446000Y-82550000D01*
D28*
%TO.N,/V{slash}Ohm ADC In*%
X143891000Y-95250000D02*
X143891000Y-93472000D01*
X128778000Y-93472000D02*
X128778000Y-95250000D01*
X143891000Y-95250000D02*
X148336000Y-95250000D01*
X131826000Y-95250000D02*
X128778000Y-95250000D01*
X140970000Y-95250000D02*
X143891000Y-95250000D01*
X128778000Y-95250000D02*
X123698000Y-95250000D01*
X139192000Y-95250000D02*
X140970000Y-95250000D01*
X131821000Y-91186000D02*
X131821000Y-87122000D01*
X131821000Y-91186000D02*
X131821000Y-95245000D01*
X131821000Y-95245000D02*
X131826000Y-95250000D01*
%TO.N,/Input Common*%
X154686000Y-95250000D02*
X154686000Y-90932000D01*
X134361000Y-87122000D02*
X134361000Y-82809000D01*
X134361000Y-82809000D02*
X134366000Y-82804000D01*
%TO.N,/Low Range Control*%
X121998000Y-88963884D02*
X125496000Y-85465884D01*
X121998000Y-103710000D02*
X121998000Y-88963884D01*
X122298000Y-104010000D02*
X121998000Y-103710000D01*
X123698000Y-105410000D02*
X122298000Y-104010000D01*
X127762000Y-109474000D02*
X123698000Y-105410000D01*
X128270000Y-109474000D02*
X127762000Y-109474000D01*
%TO.N,GND*%
X127762000Y-104394000D02*
X123698000Y-100330000D01*
X128270000Y-104394000D02*
X127762000Y-104394000D01*
X132842000Y-100330000D02*
X131826000Y-100330000D01*
X131572000Y-100330000D02*
X131826000Y-100330000D01*
X128270000Y-97028000D02*
X131572000Y-100330000D01*
X124968000Y-100330000D02*
X128270000Y-97028000D01*
X123698000Y-100330000D02*
X124968000Y-100330000D01*
%TO.N,/Med Range Control*%
X135616000Y-102636000D02*
X135616000Y-91440000D01*
X132842000Y-105410000D02*
X135616000Y-102636000D01*
X128270000Y-102108000D02*
X129540000Y-102108000D01*
X132842000Y-105410000D02*
X129540000Y-102108000D01*
D29*
%TO.N,/V{slash}Ohm Control*%
X146304000Y-86868000D02*
X143256000Y-83820000D01*
D28*
X154686000Y-105410000D02*
X156464000Y-103632000D01*
D29*
X139446000Y-68834000D02*
X139446000Y-67310000D01*
D28*
%TO.N,/UH Range Control*%
X150622000Y-94742000D02*
X145288000Y-89408000D01*
X148336000Y-105410000D02*
X150622000Y-103124000D01*
X150622000Y-103124000D02*
X150622000Y-94742000D01*
%TO.N,/V{slash}Ohm ADC In*%
X131821000Y-87122000D02*
X131821000Y-82809000D01*
X131821000Y-82809000D02*
X131826000Y-82804000D01*
X132842000Y-95250000D02*
X131826000Y-95250000D01*
%TO.N,/High Range Control*%
X138176000Y-72898000D02*
X138176000Y-80518000D01*
X134366000Y-67564000D02*
X134366000Y-69088000D01*
X134366000Y-69088000D02*
X138176000Y-72898000D01*
X143256000Y-109474000D02*
X139192000Y-105410000D01*
X143764000Y-109474000D02*
X143256000Y-109474000D01*
%TO.N,GND*%
X145034000Y-97028000D02*
X143764000Y-97028000D01*
X148336000Y-100330000D02*
X145034000Y-97028000D01*
X142494000Y-97028000D02*
X139192000Y-100330000D01*
X143764000Y-97028000D02*
X142494000Y-97028000D01*
%TO.N,/UH Range Control*%
X144526000Y-102108000D02*
X143764000Y-102108000D01*
X145034000Y-102108000D02*
X144526000Y-102108000D01*
X148336000Y-105410000D02*
X145034000Y-102108000D01*
%TO.N,GND*%
X152400000Y-102616000D02*
X154686000Y-100330000D01*
X152400000Y-108204000D02*
X152400000Y-102616000D01*
X155431000Y-108204000D02*
X158987000Y-104648000D01*
X147574000Y-108204000D02*
X155431000Y-108204000D01*
X143764000Y-104394000D02*
X147574000Y-108204000D01*
X139192000Y-100330000D02*
X143256000Y-104394000D01*
X143256000Y-104394000D02*
X143764000Y-104394000D01*
%TO.N,/Ohm Vout*%
X148590000Y-116586000D02*
X154686000Y-110490000D01*
X145796000Y-116586000D02*
X148590000Y-116586000D01*
%TO.N,Net-(K4-COM)*%
X143256000Y-115570000D02*
X148336000Y-110490000D01*
X143256000Y-116586000D02*
X143256000Y-115570000D01*
%TO.N,Net-(K3-COM)*%
X140716000Y-112014000D02*
X139192000Y-110490000D01*
X140716000Y-116586000D02*
X140716000Y-112014000D01*
%TO.N,Net-(K2-COM)*%
X138176000Y-115824000D02*
X132842000Y-110490000D01*
X138176000Y-116586000D02*
X138176000Y-115824000D01*
%TO.N,/V{slash}Ohm In*%
X135636000Y-118618000D02*
X135636000Y-116586000D01*
X173228000Y-127000000D02*
X173228000Y-122682000D01*
D30*
%TO.N,/mA ADC In*%
X155344000Y-138430000D02*
X163044000Y-138430000D01*
%TO.N,/mA In*%
X128444000Y-138430000D02*
X136144000Y-138430000D01*
X128444000Y-135302000D02*
X128444000Y-138430000D01*
X127000000Y-133858000D02*
X128444000Y-135302000D01*
X123190000Y-133858000D02*
X127000000Y-133858000D01*
D31*
%TO.N,/Input Common*%
X159766000Y-93726000D02*
X170180000Y-93726000D01*
X170180000Y-93726000D02*
X170180000Y-108204000D01*
X170180000Y-88616000D02*
X170180000Y-93726000D01*
%TO.N,/A In*%
X124180600Y-126492000D02*
X138086000Y-126492000D01*
%TO.N,/Input Common*%
X165907875Y-132692000D02*
X171160000Y-132692000D01*
X161290000Y-117094000D02*
X161290000Y-128074125D01*
X161290000Y-128074125D02*
X165907875Y-132692000D01*
X163322000Y-115062000D02*
X161290000Y-117094000D01*
D28*
%TO.N,/mA ADC In*%
X163269000Y-137893000D02*
X163044000Y-137668000D01*
X167386000Y-137893000D02*
X163269000Y-137893000D01*
D31*
%TO.N,/A In*%
X124180600Y-123215400D02*
X124206000Y-123190000D01*
X124180600Y-126492000D02*
X124180600Y-123215400D01*
%TO.N,/Input Common*%
X170180000Y-108204000D02*
X163322000Y-115062000D01*
D32*
%TO.N,+3.3V*%
X122682000Y-61976000D02*
X125730000Y-61976000D01*
D29*
X122956000Y-81300000D02*
X124206000Y-82550000D01*
X156718000Y-56388000D02*
X156718000Y-59182000D01*
X128524000Y-59182000D02*
X125730000Y-61976000D01*
X122956000Y-64750000D02*
X122956000Y-81300000D01*
X146558000Y-56388000D02*
X146558000Y-59182000D01*
X164338000Y-56388000D02*
X164338000Y-59182000D01*
X125730000Y-61976000D02*
X122956000Y-64750000D01*
%TO.N,GND*%
X128270000Y-96774000D02*
X131826000Y-100330000D01*
%TO.N,/Input Common*%
X154686000Y-90932000D02*
X157480000Y-93726000D01*
X134361000Y-87122000D02*
X134361000Y-82555000D01*
X157480000Y-93726000D02*
X159766000Y-93726000D01*
%TO.N,/MISO*%
X134874000Y-53721000D02*
X133858000Y-54737000D01*
X157480000Y-53721000D02*
X134874000Y-53721000D01*
X152146000Y-80518000D02*
X157968000Y-74696000D01*
X133858000Y-54737000D02*
X133858000Y-55626000D01*
X157968000Y-54209000D02*
X157480000Y-53721000D01*
X152146000Y-82550000D02*
X152146000Y-80518000D01*
X157968000Y-74696000D02*
X157968000Y-54209000D01*
%TO.N,/MOSI*%
X151638000Y-54321000D02*
X155032000Y-54321000D01*
X155032000Y-54321000D02*
X155428000Y-54717000D01*
X151638000Y-55626000D02*
X151638000Y-54321000D01*
X156718000Y-73152000D02*
X149606000Y-80264000D01*
X136398000Y-55626000D02*
X136398000Y-54610000D01*
X136398000Y-54610000D02*
X136687000Y-54321000D01*
X155428000Y-63266000D02*
X156718000Y-64556000D01*
X149606000Y-80264000D02*
X149606000Y-82550000D01*
X136687000Y-54321000D02*
X151638000Y-54321000D01*
X156718000Y-64556000D02*
X156718000Y-73152000D01*
X155428000Y-54717000D02*
X155428000Y-63266000D01*
%TO.N,/TFT CS*%
X159258000Y-76200000D02*
X154686000Y-80772000D01*
X154686000Y-80772000D02*
X154686000Y-82550000D01*
X159258000Y-56388000D02*
X159258000Y-76200000D01*
%TO.N,/V{slash}Ohm ADC In*%
X131821000Y-87122000D02*
X131821000Y-82555000D01*
%TO.N,/Low Range Control*%
X129286000Y-69088000D02*
X129286000Y-67310000D01*
%TO.N,/Med Range Control*%
X131826000Y-69215000D02*
X131826000Y-67310000D01*
%TO.N,/High Range Control*%
X134366000Y-69088000D02*
X134366000Y-67310000D01*
%TO.N,/UH Range Control*%
X140696000Y-72878000D02*
X136906000Y-69088000D01*
X136906000Y-69088000D02*
X136906000Y-67310000D01*
%TO.N,/V{slash}Ohm Control*%
X156464000Y-103632000D02*
X156464000Y-103124000D01*
%TD*%
%TA.AperFunction,NonConductor*%
G36*
X121072470Y-58416406D02*
G01*
X121192982Y-58482521D01*
X121411404Y-58645130D01*
X121714096Y-58819889D01*
X121754907Y-58837493D01*
X121944197Y-58919145D01*
X122059059Y-58988309D01*
X122151359Y-59085559D01*
X122214433Y-59203873D01*
X122243729Y-59334711D01*
X122237131Y-59468626D01*
X122195115Y-59595951D01*
X122120715Y-59707492D01*
X122019302Y-59795197D01*
X121898198Y-59852735D01*
X121768700Y-59875500D01*
X121767784Y-59875501D01*
X121758028Y-59876268D01*
X121758021Y-59876269D01*
X121656527Y-59884256D01*
X121656524Y-59884256D01*
X121635588Y-59885904D01*
X121615233Y-59891032D01*
X121615221Y-59891035D01*
X121439046Y-59935428D01*
X121439038Y-59935430D01*
X121417317Y-59940904D01*
X121396924Y-59950166D01*
X121396915Y-59950170D01*
X121232769Y-60024728D01*
X121232758Y-60024734D01*
X121212374Y-60033993D01*
X121193960Y-60046749D01*
X121193955Y-60046753D01*
X121179175Y-60056993D01*
X121058490Y-60118273D01*
X120925776Y-60144866D01*
X120790798Y-60134815D01*
X120663486Y-60088859D01*
X120553208Y-60010380D01*
X120468077Y-59905152D01*
X120414357Y-59780917D01*
X120396000Y-59646816D01*
X120396000Y-58882781D01*
X120414932Y-58746634D01*
X120470293Y-58620818D01*
X120557880Y-58514880D01*
X120671049Y-58436858D01*
X120801211Y-58392674D01*
X120938491Y-58385680D01*
X121072470Y-58416406D01*
G37*
%TD.AperFunction*%
%TA.AperFunction,NonConductor*%
G36*
X174854789Y-58392674D02*
G01*
X174984951Y-58436858D01*
X175098120Y-58514880D01*
X175185707Y-58620818D01*
X175241068Y-58746634D01*
X175260000Y-58882781D01*
X175260000Y-59646816D01*
X175241643Y-59780917D01*
X175187923Y-59905152D01*
X175102792Y-60010380D01*
X174992514Y-60088859D01*
X174865202Y-60134815D01*
X174730224Y-60144866D01*
X174597510Y-60118273D01*
X174476825Y-60056993D01*
X174462044Y-60046753D01*
X174462043Y-60046752D01*
X174443626Y-60033993D01*
X174423236Y-60024731D01*
X174423230Y-60024728D01*
X174259084Y-59950170D01*
X174259079Y-59950168D01*
X174238683Y-59940904D01*
X174216957Y-59935429D01*
X174216953Y-59935428D01*
X174040783Y-59891037D01*
X174040781Y-59891036D01*
X174020412Y-59885904D01*
X173999475Y-59884256D01*
X173999468Y-59884255D01*
X173897970Y-59876267D01*
X173897955Y-59876266D01*
X173888217Y-59875500D01*
X173887305Y-59875500D01*
X173757806Y-59852735D01*
X173636701Y-59795198D01*
X173535287Y-59707493D01*
X173460887Y-59595952D01*
X173418870Y-59468627D01*
X173412272Y-59334711D01*
X173441567Y-59203873D01*
X173504642Y-59085558D01*
X173596943Y-58988308D01*
X173711805Y-58919144D01*
X173901093Y-58837493D01*
X173941904Y-58819889D01*
X174244596Y-58645130D01*
X174463017Y-58482521D01*
X174583530Y-58416406D01*
X174717509Y-58385680D01*
X174854789Y-58392674D01*
G37*
%TD.AperFunction*%
%TA.AperFunction,NonConductor*%
G36*
X129085833Y-53405382D02*
G01*
X129205825Y-53454888D01*
X129308988Y-53533666D01*
X129388344Y-53636386D01*
X129438521Y-53756098D01*
X129456125Y-53884701D01*
X129439965Y-54013494D01*
X129391133Y-54133761D01*
X129388750Y-54137960D01*
X129375993Y-54156374D01*
X129366734Y-54176758D01*
X129366728Y-54176769D01*
X129292170Y-54340915D01*
X129292166Y-54340924D01*
X129282904Y-54361317D01*
X129277430Y-54383038D01*
X129277428Y-54383046D01*
X129243389Y-54518134D01*
X129227904Y-54579588D01*
X129226256Y-54600522D01*
X129226255Y-54600531D01*
X129218267Y-54702028D01*
X129218266Y-54702046D01*
X129217500Y-54711783D01*
X129217500Y-54721569D01*
X129217500Y-54721570D01*
X129217500Y-56530425D01*
X129217500Y-56530450D01*
X129217501Y-56540216D01*
X129227904Y-56672412D01*
X129233033Y-56692770D01*
X129233035Y-56692777D01*
X129240195Y-56721190D01*
X129255187Y-56854603D01*
X129234069Y-56987185D01*
X129178369Y-57109338D01*
X129092119Y-57212220D01*
X128981563Y-57288385D01*
X128854702Y-57332319D01*
X128720720Y-57340843D01*
X128541771Y-57328044D01*
X128541770Y-57328044D01*
X128524000Y-57326773D01*
X128506230Y-57328044D01*
X128277745Y-57344385D01*
X128277731Y-57344386D01*
X128259974Y-57345657D01*
X128242566Y-57349443D01*
X128242558Y-57349445D01*
X128018733Y-57398135D01*
X128018726Y-57398136D01*
X128001322Y-57401923D01*
X127984638Y-57408145D01*
X127984627Y-57408149D01*
X127770018Y-57488194D01*
X127770010Y-57488197D01*
X127753311Y-57494426D01*
X127737666Y-57502968D01*
X127737659Y-57502972D01*
X127536631Y-57612742D01*
X127536622Y-57612747D01*
X127520989Y-57621284D01*
X127506729Y-57631958D01*
X127506721Y-57631964D01*
X127323352Y-57769232D01*
X127323344Y-57769238D01*
X127309085Y-57779913D01*
X127296489Y-57792508D01*
X127296482Y-57792515D01*
X127134515Y-57954482D01*
X127134508Y-57954489D01*
X127121913Y-57967085D01*
X127111238Y-57981344D01*
X127111232Y-57981352D01*
X126973964Y-58164721D01*
X126973958Y-58164729D01*
X126963284Y-58178989D01*
X126954747Y-58194622D01*
X126954742Y-58194631D01*
X126844972Y-58395659D01*
X126844968Y-58395666D01*
X126836426Y-58411311D01*
X126830197Y-58428010D01*
X126830194Y-58428018D01*
X126750149Y-58642627D01*
X126750145Y-58642638D01*
X126743923Y-58659322D01*
X126740137Y-58676724D01*
X126740136Y-58676729D01*
X126705164Y-58837493D01*
X126655529Y-58970567D01*
X126570414Y-59084267D01*
X125261225Y-60393457D01*
X125162931Y-60469801D01*
X125048801Y-60519446D01*
X124925936Y-60539302D01*
X124801978Y-60528135D01*
X124684640Y-60486640D01*
X124581220Y-60417397D01*
X124525300Y-60355005D01*
X124522945Y-60356972D01*
X124508581Y-60339767D01*
X124495819Y-60321346D01*
X124336654Y-60162181D01*
X124318232Y-60149418D01*
X124170040Y-60046750D01*
X124170037Y-60046748D01*
X124151626Y-60033993D01*
X124131236Y-60024731D01*
X124131230Y-60024728D01*
X123967082Y-59950169D01*
X123967076Y-59950166D01*
X123946683Y-59940904D01*
X123939617Y-59939123D01*
X123824788Y-59879883D01*
X123723662Y-59784606D01*
X123652726Y-59665138D01*
X123617480Y-59530743D01*
X123620657Y-59391840D01*
X123662010Y-59259196D01*
X123738333Y-59143096D01*
X123843709Y-59052541D01*
X123969962Y-58994553D01*
X124090971Y-58958326D01*
X124411904Y-58819889D01*
X124714596Y-58645130D01*
X124994953Y-58436412D01*
X125249183Y-58196558D01*
X125473849Y-57928811D01*
X125665913Y-57636793D01*
X125822777Y-57324451D01*
X125942319Y-56996011D01*
X126022923Y-56655914D01*
X126063500Y-56308759D01*
X126063500Y-55959241D01*
X126022923Y-55612086D01*
X125942319Y-55271989D01*
X125822777Y-54943549D01*
X125665913Y-54631207D01*
X125473849Y-54339189D01*
X125363978Y-54208250D01*
X125289495Y-54088471D01*
X125251504Y-53952633D01*
X125253043Y-53811590D01*
X125293987Y-53676613D01*
X125371067Y-53558486D01*
X125478123Y-53466648D01*
X125606600Y-53408435D01*
X125746235Y-53388500D01*
X128957133Y-53388500D01*
X129085833Y-53405382D01*
G37*
%TD.AperFunction*%
%TA.AperFunction,NonConductor*%
G36*
X170049400Y-53408435D02*
G01*
X170177877Y-53466648D01*
X170284933Y-53558486D01*
X170362013Y-53676613D01*
X170402957Y-53811590D01*
X170404496Y-53952633D01*
X170366505Y-54088471D01*
X170292021Y-54208251D01*
X170191481Y-54328069D01*
X170191474Y-54328077D01*
X170182151Y-54339189D01*
X170174183Y-54351302D01*
X170174176Y-54351313D01*
X169998067Y-54619073D01*
X169998062Y-54619081D01*
X169990087Y-54631207D01*
X169983578Y-54644166D01*
X169983569Y-54644183D01*
X169848500Y-54913130D01*
X169833223Y-54943549D01*
X169828261Y-54957179D01*
X169828260Y-54957184D01*
X169718642Y-55258357D01*
X169718639Y-55258366D01*
X169713681Y-55271989D01*
X169710336Y-55286099D01*
X169710336Y-55286102D01*
X169636424Y-55597959D01*
X169636420Y-55597977D01*
X169633077Y-55612086D01*
X169631391Y-55626503D01*
X169631391Y-55626508D01*
X169594185Y-55944818D01*
X169594184Y-55944832D01*
X169592500Y-55959241D01*
X169592500Y-56308759D01*
X169594184Y-56323168D01*
X169594185Y-56323181D01*
X169631391Y-56641491D01*
X169633077Y-56655914D01*
X169636421Y-56670025D01*
X169636424Y-56670040D01*
X169680167Y-56854603D01*
X169713681Y-56996011D01*
X169718640Y-57009637D01*
X169718642Y-57009642D01*
X169769841Y-57150310D01*
X169833223Y-57324451D01*
X169872131Y-57401923D01*
X169983569Y-57623816D01*
X169983574Y-57623825D01*
X169990087Y-57636793D01*
X170182151Y-57928811D01*
X170406817Y-58196558D01*
X170661047Y-58436412D01*
X170941404Y-58645130D01*
X171244096Y-58819889D01*
X171565029Y-58958326D01*
X171630537Y-58977937D01*
X171686032Y-58994552D01*
X171812291Y-59052542D01*
X171917666Y-59143096D01*
X171993989Y-59259196D01*
X172035342Y-59391838D01*
X172038519Y-59530742D01*
X172003274Y-59665136D01*
X171932339Y-59784604D01*
X171831214Y-59879881D01*
X171716381Y-59939123D01*
X171709317Y-59940904D01*
X171688929Y-59950164D01*
X171688925Y-59950166D01*
X171524769Y-60024728D01*
X171524758Y-60024734D01*
X171504374Y-60033993D01*
X171485966Y-60046745D01*
X171485959Y-60046750D01*
X171356156Y-60136679D01*
X171268103Y-60185344D01*
X171172077Y-60215358D01*
X171071983Y-60225500D01*
X171024045Y-60225500D01*
X171005387Y-60225151D01*
X170935017Y-60222517D01*
X170935003Y-60222517D01*
X170916363Y-60221820D01*
X170897827Y-60223908D01*
X170897811Y-60223909D01*
X170827824Y-60231795D01*
X170809251Y-60233537D01*
X170738975Y-60238803D01*
X170738965Y-60238804D01*
X170720370Y-60240198D01*
X170702187Y-60244347D01*
X170688172Y-60246460D01*
X170674191Y-60249105D01*
X170655650Y-60251195D01*
X170569572Y-60274258D01*
X170551487Y-60278743D01*
X170534469Y-60282628D01*
X170482772Y-60294428D01*
X170482765Y-60294429D01*
X170464584Y-60298580D01*
X170447223Y-60305393D01*
X170433663Y-60309576D01*
X170420247Y-60314270D01*
X170402225Y-60319100D01*
X170385116Y-60326564D01*
X170385117Y-60326564D01*
X170320558Y-60354730D01*
X170303327Y-60361867D01*
X170237743Y-60387607D01*
X170237727Y-60387614D01*
X170220357Y-60394432D01*
X170204190Y-60403765D01*
X170191417Y-60409917D01*
X170178861Y-60416552D01*
X170161753Y-60424017D01*
X170145957Y-60433941D01*
X170145940Y-60433951D01*
X170086279Y-60471438D01*
X170070309Y-60481061D01*
X170009314Y-60516277D01*
X170009308Y-60516280D01*
X169993143Y-60525614D01*
X169978548Y-60537252D01*
X169966809Y-60545256D01*
X169955403Y-60553673D01*
X169939603Y-60563602D01*
X169925461Y-60575771D01*
X169925457Y-60575775D01*
X169902563Y-60595477D01*
X169872038Y-60621745D01*
X169857694Y-60633630D01*
X169802614Y-60677554D01*
X169802600Y-60677566D01*
X169788019Y-60689195D01*
X169775332Y-60702867D01*
X169775317Y-60702882D01*
X169727409Y-60754515D01*
X169714467Y-60767950D01*
X167484845Y-62997572D01*
X167381499Y-63076873D01*
X167261150Y-63126723D01*
X167131999Y-63143726D01*
X167002848Y-63126723D01*
X166882499Y-63076873D01*
X166779153Y-62997572D01*
X165280756Y-61499175D01*
X165203158Y-61398756D01*
X165153402Y-61282009D01*
X165134705Y-61156487D01*
X165148277Y-61030308D01*
X165193240Y-60911633D01*
X165266685Y-60808138D01*
X165342387Y-60744554D01*
X165341011Y-60742716D01*
X165398937Y-60699353D01*
X165552915Y-60584087D01*
X165740087Y-60396915D01*
X165898716Y-60185011D01*
X166025574Y-59952689D01*
X166118077Y-59704678D01*
X166174343Y-59446026D01*
X166193227Y-59182000D01*
X166174343Y-58917974D01*
X166118077Y-58659322D01*
X166025574Y-58411311D01*
X165898716Y-58178989D01*
X165888041Y-58164729D01*
X165888038Y-58164724D01*
X165888032Y-58164716D01*
X165888021Y-58164697D01*
X165878399Y-58149725D01*
X165878933Y-58149381D01*
X165833594Y-58072968D01*
X165799904Y-57971745D01*
X165788500Y-57865674D01*
X165788500Y-57347090D01*
X165804064Y-57223434D01*
X165849786Y-57107492D01*
X165922813Y-57006496D01*
X165940848Y-56987185D01*
X165971189Y-56954698D01*
X166136901Y-56719936D01*
X166269104Y-56464797D01*
X166365334Y-56194032D01*
X166423798Y-55912686D01*
X166443408Y-55626000D01*
X166423798Y-55339314D01*
X166365334Y-55057968D01*
X166269104Y-54787203D01*
X166136901Y-54532064D01*
X166091227Y-54467358D01*
X165981021Y-54311230D01*
X165981016Y-54311224D01*
X165971189Y-54297302D01*
X165906549Y-54228090D01*
X165831721Y-54123771D01*
X165785983Y-54003806D01*
X165772369Y-53876142D01*
X165791780Y-53749230D01*
X165842929Y-53631471D01*
X165922433Y-53530661D01*
X166025026Y-53453473D01*
X166143919Y-53405016D01*
X166271240Y-53388500D01*
X169909765Y-53388500D01*
X170049400Y-53408435D01*
G37*
%TD.AperFunction*%
%TA.AperFunction,NonConductor*%
G36*
X145117642Y-63189503D02*
G01*
X145237991Y-63239353D01*
X145341337Y-63318654D01*
X145469346Y-63446663D01*
X145548647Y-63550009D01*
X145598497Y-63670358D01*
X145615500Y-63799509D01*
X145615500Y-65029842D01*
X145598287Y-65159776D01*
X145547834Y-65280745D01*
X145467623Y-65384404D01*
X145363187Y-65463601D01*
X145241732Y-65512872D01*
X145111637Y-65528818D01*
X144981877Y-65510339D01*
X144970776Y-65507228D01*
X144970761Y-65507224D01*
X144954358Y-65502629D01*
X144937477Y-65500308D01*
X144937469Y-65500307D01*
X144686573Y-65465822D01*
X144686570Y-65465821D01*
X144669678Y-65463500D01*
X144382322Y-65463500D01*
X144365430Y-65465821D01*
X144365426Y-65465822D01*
X144114530Y-65500307D01*
X144114519Y-65500309D01*
X144097642Y-65502629D01*
X144081241Y-65507224D01*
X144081223Y-65507228D01*
X144070123Y-65510339D01*
X143940363Y-65528818D01*
X143810268Y-65512872D01*
X143688813Y-65463601D01*
X143584377Y-65384404D01*
X143504166Y-65280745D01*
X143453713Y-65159776D01*
X143436500Y-65029842D01*
X143436500Y-63671500D01*
X143453503Y-63542349D01*
X143503353Y-63422000D01*
X143582654Y-63318654D01*
X143686000Y-63239353D01*
X143806349Y-63189503D01*
X143935500Y-63172500D01*
X144988491Y-63172500D01*
X145117642Y-63189503D01*
G37*
%TD.AperFunction*%
%TA.AperFunction,NonConductor*%
G36*
X121058490Y-63833727D02*
G01*
X121179175Y-63895007D01*
X121187947Y-63901084D01*
X121212374Y-63918007D01*
X121232768Y-63927270D01*
X121232771Y-63927272D01*
X121243394Y-63932097D01*
X121360299Y-64006296D01*
X121452313Y-64109764D01*
X121512353Y-64234534D01*
X121535793Y-64371000D01*
X121525091Y-64469459D01*
X121528842Y-64470085D01*
X121525446Y-64490430D01*
X121520380Y-64510437D01*
X121518676Y-64530990D01*
X121517110Y-64540376D01*
X121515936Y-64549790D01*
X121511706Y-64569969D01*
X121510853Y-64590568D01*
X121510851Y-64590591D01*
X121508401Y-64649818D01*
X121507127Y-64670358D01*
X121506350Y-64679731D01*
X121506348Y-64679766D01*
X121505500Y-64690010D01*
X121505500Y-64700316D01*
X121505500Y-64709692D01*
X121505074Y-64730314D01*
X121502624Y-64789524D01*
X121502624Y-64789535D01*
X121501772Y-64810147D01*
X121504324Y-64830626D01*
X121505074Y-64848733D01*
X121505500Y-64869355D01*
X121505500Y-65049175D01*
X121488790Y-65177228D01*
X121439778Y-65296705D01*
X121361748Y-65399603D01*
X121259925Y-65479032D01*
X121141132Y-65529669D01*
X121029621Y-65560913D01*
X120899869Y-65579392D01*
X120769773Y-65563447D01*
X120648316Y-65514177D01*
X120543879Y-65434980D01*
X120463667Y-65331320D01*
X120413214Y-65210350D01*
X120396000Y-65080416D01*
X120396000Y-64305184D01*
X120414357Y-64171083D01*
X120468077Y-64046848D01*
X120553208Y-63941620D01*
X120663486Y-63863141D01*
X120790798Y-63817185D01*
X120925776Y-63807134D01*
X121058490Y-63833727D01*
G37*
%TD.AperFunction*%
%TA.AperFunction,NonConductor*%
G36*
X133416120Y-60483724D02*
G01*
X133535253Y-60513966D01*
X133545346Y-60517905D01*
X133547227Y-60518639D01*
X133566238Y-60526514D01*
X133639409Y-60558610D01*
X133659423Y-60563677D01*
X133668363Y-60566747D01*
X133677460Y-60569455D01*
X133696702Y-60576964D01*
X133716904Y-60581200D01*
X133716908Y-60581201D01*
X133774903Y-60593361D01*
X133794973Y-60598003D01*
X133872437Y-60617620D01*
X133893010Y-60619324D01*
X133902345Y-60620882D01*
X133911754Y-60622055D01*
X133931969Y-60626294D01*
X134011817Y-60629596D01*
X134032383Y-60630873D01*
X134052010Y-60632500D01*
X134071692Y-60632500D01*
X134092313Y-60632925D01*
X134172147Y-60636228D01*
X134192630Y-60633674D01*
X134210733Y-60632926D01*
X134231355Y-60632500D01*
X136860491Y-60632500D01*
X136989642Y-60649503D01*
X137109991Y-60699353D01*
X137213337Y-60778654D01*
X140389346Y-63954663D01*
X140468647Y-64058009D01*
X140518497Y-64178358D01*
X140535500Y-64307509D01*
X140535500Y-65029842D01*
X140518287Y-65159776D01*
X140467834Y-65280745D01*
X140387623Y-65384404D01*
X140283187Y-65463601D01*
X140161732Y-65512872D01*
X140031637Y-65528818D01*
X139901877Y-65510339D01*
X139890776Y-65507228D01*
X139890761Y-65507224D01*
X139874358Y-65502629D01*
X139857477Y-65500308D01*
X139857469Y-65500307D01*
X139606573Y-65465822D01*
X139606570Y-65465821D01*
X139589678Y-65463500D01*
X139302322Y-65463500D01*
X139285430Y-65465821D01*
X139285426Y-65465822D01*
X139034530Y-65500307D01*
X139034519Y-65500309D01*
X139017642Y-65502629D01*
X139001230Y-65507227D01*
X139001227Y-65507228D01*
X138757357Y-65575556D01*
X138757346Y-65575559D01*
X138740942Y-65580156D01*
X138725326Y-65586938D01*
X138725309Y-65586945D01*
X138493000Y-65687851D01*
X138492986Y-65687857D01*
X138477375Y-65694639D01*
X138462827Y-65703485D01*
X138462817Y-65703491D01*
X138435267Y-65720245D01*
X138310625Y-65774383D01*
X138176000Y-65792886D01*
X138041375Y-65774383D01*
X137916733Y-65720245D01*
X137889182Y-65703491D01*
X137889178Y-65703488D01*
X137874625Y-65694639D01*
X137859007Y-65687855D01*
X137858999Y-65687851D01*
X137626690Y-65586945D01*
X137626678Y-65586940D01*
X137611058Y-65580156D01*
X137594648Y-65575558D01*
X137594642Y-65575556D01*
X137370916Y-65512872D01*
X137334358Y-65502629D01*
X137317477Y-65500308D01*
X137317469Y-65500307D01*
X137066573Y-65465822D01*
X137066570Y-65465821D01*
X137049678Y-65463500D01*
X136762322Y-65463500D01*
X136745430Y-65465821D01*
X136745426Y-65465822D01*
X136494530Y-65500307D01*
X136494519Y-65500309D01*
X136477642Y-65502629D01*
X136461230Y-65507227D01*
X136461227Y-65507228D01*
X136217357Y-65575556D01*
X136217346Y-65575559D01*
X136200942Y-65580156D01*
X136185326Y-65586938D01*
X136185309Y-65586945D01*
X135953000Y-65687851D01*
X135952986Y-65687857D01*
X135937375Y-65694639D01*
X135922827Y-65703485D01*
X135922817Y-65703491D01*
X135895267Y-65720245D01*
X135770625Y-65774383D01*
X135636000Y-65792886D01*
X135501375Y-65774383D01*
X135376733Y-65720245D01*
X135349182Y-65703491D01*
X135349178Y-65703488D01*
X135334625Y-65694639D01*
X135319007Y-65687855D01*
X135318999Y-65687851D01*
X135086690Y-65586945D01*
X135086678Y-65586940D01*
X135071058Y-65580156D01*
X135054648Y-65575558D01*
X135054642Y-65575556D01*
X134830916Y-65512872D01*
X134794358Y-65502629D01*
X134777477Y-65500308D01*
X134777469Y-65500307D01*
X134526573Y-65465822D01*
X134526570Y-65465821D01*
X134509678Y-65463500D01*
X134222322Y-65463500D01*
X134205430Y-65465821D01*
X134205426Y-65465822D01*
X133954530Y-65500307D01*
X133954519Y-65500309D01*
X133937642Y-65502629D01*
X133921230Y-65507227D01*
X133921227Y-65507228D01*
X133677357Y-65575556D01*
X133677346Y-65575559D01*
X133660942Y-65580156D01*
X133645326Y-65586938D01*
X133645309Y-65586945D01*
X133413000Y-65687851D01*
X133412986Y-65687857D01*
X133397375Y-65694639D01*
X133382822Y-65703488D01*
X133382814Y-65703493D01*
X133355261Y-65720248D01*
X133230619Y-65774384D01*
X133095994Y-65792886D01*
X132961369Y-65774381D01*
X132836728Y-65720242D01*
X132809186Y-65703493D01*
X132809177Y-65703488D01*
X132794625Y-65694639D01*
X132779007Y-65687855D01*
X132778999Y-65687851D01*
X132546690Y-65586945D01*
X132546678Y-65586940D01*
X132531058Y-65580156D01*
X132514648Y-65575558D01*
X132514642Y-65575556D01*
X132290916Y-65512872D01*
X132254358Y-65502629D01*
X132237477Y-65500308D01*
X132237469Y-65500307D01*
X131986573Y-65465822D01*
X131986570Y-65465821D01*
X131969678Y-65463500D01*
X131682322Y-65463500D01*
X131665430Y-65465821D01*
X131665426Y-65465822D01*
X131414530Y-65500307D01*
X131414519Y-65500309D01*
X131397642Y-65502629D01*
X131381230Y-65507227D01*
X131381227Y-65507228D01*
X131137357Y-65575556D01*
X131137346Y-65575559D01*
X131120942Y-65580156D01*
X131105326Y-65586938D01*
X131105309Y-65586945D01*
X130873000Y-65687851D01*
X130872986Y-65687857D01*
X130857375Y-65694639D01*
X130842822Y-65703488D01*
X130842814Y-65703493D01*
X130815261Y-65720248D01*
X130690619Y-65774384D01*
X130555994Y-65792886D01*
X130421369Y-65774381D01*
X130296728Y-65720242D01*
X130269186Y-65703493D01*
X130269177Y-65703488D01*
X130254625Y-65694639D01*
X130239007Y-65687855D01*
X130238999Y-65687851D01*
X130006690Y-65586945D01*
X130006678Y-65586940D01*
X129991058Y-65580156D01*
X129974648Y-65575558D01*
X129974642Y-65575556D01*
X129750916Y-65512872D01*
X129714358Y-65502629D01*
X129697464Y-65500307D01*
X129632320Y-65491353D01*
X129499514Y-65453836D01*
X129382063Y-65381377D01*
X129288950Y-65279519D01*
X129227297Y-65156053D01*
X129201820Y-65020421D01*
X129214467Y-64882998D01*
X129264272Y-64754295D01*
X129347420Y-64644159D01*
X131822113Y-62169466D01*
X131875914Y-62122848D01*
X131935790Y-62084367D01*
X132067011Y-62012716D01*
X132278915Y-61854087D01*
X132466087Y-61666915D01*
X132624716Y-61455011D01*
X132751574Y-61222689D01*
X132844077Y-60974678D01*
X132866250Y-60872748D01*
X132906970Y-60756779D01*
X132974807Y-60654276D01*
X133065642Y-60571466D01*
X133173965Y-60513372D01*
X133293203Y-60483522D01*
X133416120Y-60483724D01*
G37*
%TD.AperFunction*%
%TA.AperFunction,NonConductor*%
G36*
X153607651Y-60124511D02*
G01*
X153728000Y-60174361D01*
X153831346Y-60253662D01*
X153910647Y-60357008D01*
X153960497Y-60477357D01*
X153977500Y-60606508D01*
X153977500Y-63146645D01*
X153977074Y-63167267D01*
X153976324Y-63185373D01*
X153973772Y-63205853D01*
X153974624Y-63226463D01*
X153974624Y-63226475D01*
X153977074Y-63285686D01*
X153977500Y-63306308D01*
X153977500Y-63325990D01*
X153978349Y-63336246D01*
X153978350Y-63336255D01*
X153979126Y-63345618D01*
X153980402Y-63366186D01*
X153983706Y-63446031D01*
X153987939Y-63466222D01*
X153989114Y-63475646D01*
X153990676Y-63485008D01*
X153992380Y-63505563D01*
X153997443Y-63525559D01*
X153997445Y-63525567D01*
X154011988Y-63582996D01*
X154016637Y-63603088D01*
X154033036Y-63681299D01*
X154040537Y-63700524D01*
X154043251Y-63709638D01*
X154046326Y-63718597D01*
X154051390Y-63738591D01*
X154059677Y-63757483D01*
X154083482Y-63811754D01*
X154091373Y-63830806D01*
X154112913Y-63886007D01*
X154120417Y-63905238D01*
X154130980Y-63922965D01*
X154135141Y-63931476D01*
X154139660Y-63939827D01*
X154147951Y-63958728D01*
X154159236Y-63976002D01*
X154159239Y-63976006D01*
X154191657Y-64025624D01*
X154202558Y-64043087D01*
X154243467Y-64111740D01*
X154256801Y-64127484D01*
X154262327Y-64135224D01*
X154268145Y-64142699D01*
X154279429Y-64159969D01*
X154293405Y-64175151D01*
X154333527Y-64218736D01*
X154347169Y-64234184D01*
X154353250Y-64241363D01*
X154353264Y-64241379D01*
X154359922Y-64249239D01*
X154367208Y-64256524D01*
X154367208Y-64256525D01*
X154373836Y-64263153D01*
X154388117Y-64278036D01*
X154442236Y-64336825D01*
X154458521Y-64349500D01*
X154471858Y-64361778D01*
X154486739Y-64376057D01*
X154739096Y-64628414D01*
X154822248Y-64738554D01*
X154872053Y-64867257D01*
X154884700Y-65004680D01*
X154859223Y-65140312D01*
X154797570Y-65263778D01*
X154704457Y-65365636D01*
X154587006Y-65438095D01*
X154454200Y-65475612D01*
X154274527Y-65500308D01*
X154274524Y-65500308D01*
X154257642Y-65502629D01*
X154241230Y-65507227D01*
X154241227Y-65507228D01*
X153997357Y-65575556D01*
X153997346Y-65575559D01*
X153980942Y-65580156D01*
X153965326Y-65586938D01*
X153965309Y-65586945D01*
X153733000Y-65687851D01*
X153732986Y-65687857D01*
X153717375Y-65694639D01*
X153702827Y-65703485D01*
X153702817Y-65703491D01*
X153675267Y-65720245D01*
X153550625Y-65774383D01*
X153416000Y-65792886D01*
X153281375Y-65774383D01*
X153156733Y-65720245D01*
X153129182Y-65703491D01*
X153129178Y-65703488D01*
X153114625Y-65694639D01*
X153099007Y-65687855D01*
X153098999Y-65687851D01*
X152866690Y-65586945D01*
X152866678Y-65586940D01*
X152851058Y-65580156D01*
X152834648Y-65575558D01*
X152834642Y-65575556D01*
X152610916Y-65512872D01*
X152574358Y-65502629D01*
X152557477Y-65500308D01*
X152557469Y-65500307D01*
X152306573Y-65465822D01*
X152306570Y-65465821D01*
X152289678Y-65463500D01*
X152002322Y-65463500D01*
X151985430Y-65465821D01*
X151985426Y-65465822D01*
X151734530Y-65500307D01*
X151734519Y-65500309D01*
X151717642Y-65502629D01*
X151701241Y-65507224D01*
X151701223Y-65507228D01*
X151690123Y-65510339D01*
X151560363Y-65528818D01*
X151430268Y-65512872D01*
X151308813Y-65463601D01*
X151204377Y-65384404D01*
X151124166Y-65280745D01*
X151073713Y-65159776D01*
X151056500Y-65029842D01*
X151056500Y-62529509D01*
X151073503Y-62400358D01*
X151123353Y-62280009D01*
X151202654Y-62176663D01*
X152156628Y-61222689D01*
X153125655Y-60253661D01*
X153229000Y-60174361D01*
X153349349Y-60124511D01*
X153478500Y-60107508D01*
X153607651Y-60124511D01*
G37*
%TD.AperFunction*%
%TA.AperFunction,NonConductor*%
G36*
X145930629Y-69353618D02*
G01*
X146055274Y-69407759D01*
X146082811Y-69424505D01*
X146082817Y-69424508D01*
X146097375Y-69433361D01*
X146113005Y-69440150D01*
X146113061Y-69440179D01*
X146222300Y-69516889D01*
X146307295Y-69619813D01*
X146361964Y-69741587D01*
X146382395Y-69873497D01*
X146367126Y-70006103D01*
X146317250Y-70129918D01*
X146236336Y-70236080D01*
X145857936Y-70614480D01*
X145844501Y-70627422D01*
X145792882Y-70675317D01*
X145792867Y-70675332D01*
X145779195Y-70688019D01*
X145767566Y-70702600D01*
X145767554Y-70702614D01*
X145723630Y-70757694D01*
X145711745Y-70772038D01*
X145687130Y-70800642D01*
X145665775Y-70825457D01*
X145665771Y-70825461D01*
X145653602Y-70839603D01*
X145643673Y-70855403D01*
X145635256Y-70866809D01*
X145627252Y-70878548D01*
X145615614Y-70893143D01*
X145606280Y-70909308D01*
X145606277Y-70909314D01*
X145571061Y-70970309D01*
X145561438Y-70986279D01*
X145523951Y-71045940D01*
X145523941Y-71045957D01*
X145514017Y-71061753D01*
X145506552Y-71078861D01*
X145499917Y-71091417D01*
X145493765Y-71104190D01*
X145484432Y-71120357D01*
X145477614Y-71137727D01*
X145477607Y-71137743D01*
X145451867Y-71203327D01*
X145444730Y-71220558D01*
X145416561Y-71285122D01*
X145416557Y-71285131D01*
X145409100Y-71302225D01*
X145406246Y-71312875D01*
X145348166Y-71427258D01*
X145259134Y-71525489D01*
X145147377Y-71596808D01*
X145020784Y-71636182D01*
X144888291Y-71640831D01*
X144759249Y-71610427D01*
X144642768Y-71547116D01*
X144569102Y-71476490D01*
X144567147Y-71478305D01*
X144554447Y-71464618D01*
X144542805Y-71450019D01*
X144477485Y-71389411D01*
X144464045Y-71376464D01*
X143521431Y-70433850D01*
X143441847Y-70330012D01*
X143391987Y-70209057D01*
X143375280Y-70079300D01*
X143392873Y-69949661D01*
X143443557Y-69829049D01*
X143523848Y-69725757D01*
X143628227Y-69646883D01*
X143749520Y-69597851D01*
X143879388Y-69582030D01*
X144008903Y-69600507D01*
X144097642Y-69625371D01*
X144382322Y-69664500D01*
X144652625Y-69664500D01*
X144669678Y-69664500D01*
X144954358Y-69625371D01*
X145231058Y-69547844D01*
X145494625Y-69433361D01*
X145527284Y-69413500D01*
X145536726Y-69407759D01*
X145661371Y-69353618D01*
X145796000Y-69335113D01*
X145930629Y-69353618D01*
G37*
%TD.AperFunction*%
%TA.AperFunction,NonConductor*%
G36*
X153550629Y-69353618D02*
G01*
X153675274Y-69407759D01*
X153702812Y-69424505D01*
X153717375Y-69433361D01*
X153732998Y-69440147D01*
X153733000Y-69440148D01*
X153965309Y-69541054D01*
X153965313Y-69541055D01*
X153980942Y-69547844D01*
X154257642Y-69625371D01*
X154542322Y-69664500D01*
X154559375Y-69664500D01*
X154768500Y-69664500D01*
X154897651Y-69681503D01*
X155018000Y-69731353D01*
X155121346Y-69810654D01*
X155200647Y-69914000D01*
X155250497Y-70034349D01*
X155267500Y-70163500D01*
X155267500Y-72344491D01*
X155250497Y-72473642D01*
X155200647Y-72593991D01*
X155121346Y-72697337D01*
X149668346Y-78150337D01*
X149565000Y-78229638D01*
X149444651Y-78279488D01*
X149315500Y-78296491D01*
X149186349Y-78279488D01*
X149066000Y-78229638D01*
X148962654Y-78150337D01*
X148883353Y-78046991D01*
X148833503Y-77926642D01*
X148816500Y-77797491D01*
X148816500Y-72813774D01*
X148833503Y-72684624D01*
X148883353Y-72564274D01*
X148962653Y-72460928D01*
X149405583Y-72017997D01*
X149564080Y-71859499D01*
X149577500Y-71846574D01*
X149642805Y-71785981D01*
X149698367Y-71716307D01*
X149710271Y-71701938D01*
X149768397Y-71634397D01*
X149778342Y-71618567D01*
X149786761Y-71607161D01*
X149794733Y-71595468D01*
X149806386Y-71580857D01*
X149850948Y-71503671D01*
X149860560Y-71487718D01*
X149907983Y-71412247D01*
X149915456Y-71395117D01*
X149922083Y-71382578D01*
X149928224Y-71369825D01*
X149937568Y-71353643D01*
X149970146Y-71270631D01*
X149977238Y-71253510D01*
X150012900Y-71171775D01*
X150017734Y-71153729D01*
X150022418Y-71140346D01*
X150026595Y-71126802D01*
X150033420Y-71109416D01*
X150053258Y-71022495D01*
X150057727Y-71004473D01*
X150080805Y-70918351D01*
X150082897Y-70899781D01*
X150085535Y-70885838D01*
X150087644Y-70871843D01*
X150091802Y-70853630D01*
X150098462Y-70764739D01*
X150100199Y-70746210D01*
X150110180Y-70657637D01*
X150106849Y-70568613D01*
X150106500Y-70549955D01*
X150106500Y-69963991D01*
X150119892Y-69849159D01*
X150159351Y-69740492D01*
X150222757Y-69643821D01*
X150306709Y-69564335D01*
X150406698Y-69506303D01*
X150558987Y-69440154D01*
X150558992Y-69440151D01*
X150574625Y-69433361D01*
X150607284Y-69413500D01*
X150616726Y-69407759D01*
X150741371Y-69353618D01*
X150876000Y-69335113D01*
X151010629Y-69353618D01*
X151135274Y-69407759D01*
X151162812Y-69424505D01*
X151177375Y-69433361D01*
X151192998Y-69440147D01*
X151193000Y-69440148D01*
X151425309Y-69541054D01*
X151425313Y-69541055D01*
X151440942Y-69547844D01*
X151717642Y-69625371D01*
X152002322Y-69664500D01*
X152272625Y-69664500D01*
X152289678Y-69664500D01*
X152574358Y-69625371D01*
X152851058Y-69547844D01*
X153114625Y-69433361D01*
X153147284Y-69413500D01*
X153156726Y-69407759D01*
X153281371Y-69353618D01*
X153416000Y-69335113D01*
X153550629Y-69353618D01*
G37*
%TD.AperFunction*%
%TA.AperFunction,NonConductor*%
G36*
X121029621Y-69567086D02*
G01*
X121141132Y-69598330D01*
X121259925Y-69648968D01*
X121361748Y-69728397D01*
X121439778Y-69831295D01*
X121488790Y-69950772D01*
X121505500Y-70078825D01*
X121505500Y-80204501D01*
X121488497Y-80333652D01*
X121438647Y-80454001D01*
X121359346Y-80557347D01*
X121256000Y-80636648D01*
X121135651Y-80686498D01*
X121006500Y-80703501D01*
X120895000Y-80703501D01*
X120765849Y-80686498D01*
X120645500Y-80636648D01*
X120542154Y-80557347D01*
X120462853Y-80454001D01*
X120413003Y-80333652D01*
X120396000Y-80204501D01*
X120396000Y-70047584D01*
X120413214Y-69917650D01*
X120463667Y-69796680D01*
X120543879Y-69693020D01*
X120648316Y-69613823D01*
X120769773Y-69564553D01*
X120899869Y-69548608D01*
X121029621Y-69567086D01*
G37*
%TD.AperFunction*%
%TA.AperFunction,NonConductor*%
G36*
X130621650Y-70580775D02*
G01*
X130741999Y-70630625D01*
X130845345Y-70709926D01*
X133719346Y-73583926D01*
X133798647Y-73687272D01*
X133848497Y-73807621D01*
X133865500Y-73936772D01*
X133865500Y-80404009D01*
X133852108Y-80518841D01*
X133812649Y-80627508D01*
X133749243Y-80724179D01*
X133665291Y-80803665D01*
X133565302Y-80861697D01*
X133413012Y-80927845D01*
X133412989Y-80927856D01*
X133397375Y-80934639D01*
X133382827Y-80943485D01*
X133382817Y-80943491D01*
X133355267Y-80960245D01*
X133230625Y-81014383D01*
X133096000Y-81032886D01*
X132961375Y-81014383D01*
X132836733Y-80960245D01*
X132809182Y-80943491D01*
X132809178Y-80943488D01*
X132794625Y-80934639D01*
X132779007Y-80927855D01*
X132778999Y-80927851D01*
X132546690Y-80826945D01*
X132546678Y-80826940D01*
X132531058Y-80820156D01*
X132514648Y-80815558D01*
X132514642Y-80815556D01*
X132270772Y-80747228D01*
X132254358Y-80742629D01*
X132237477Y-80740308D01*
X132237469Y-80740307D01*
X131986573Y-80705822D01*
X131986570Y-80705821D01*
X131969678Y-80703500D01*
X131682322Y-80703500D01*
X131665430Y-80705821D01*
X131665426Y-80705822D01*
X131414530Y-80740307D01*
X131414519Y-80740309D01*
X131397642Y-80742629D01*
X131381230Y-80747227D01*
X131381227Y-80747228D01*
X131137357Y-80815556D01*
X131137346Y-80815559D01*
X131120942Y-80820156D01*
X131105326Y-80826938D01*
X131105309Y-80826945D01*
X130873000Y-80927851D01*
X130872986Y-80927857D01*
X130857375Y-80934639D01*
X130842827Y-80943485D01*
X130842817Y-80943491D01*
X130815267Y-80960245D01*
X130690625Y-81014383D01*
X130556000Y-81032886D01*
X130421375Y-81014383D01*
X130296733Y-80960245D01*
X130269182Y-80943491D01*
X130269178Y-80943488D01*
X130254625Y-80934639D01*
X130239007Y-80927855D01*
X130238999Y-80927851D01*
X130006690Y-80826945D01*
X130006678Y-80826940D01*
X129991058Y-80820156D01*
X129974648Y-80815558D01*
X129974642Y-80815556D01*
X129730772Y-80747228D01*
X129714358Y-80742629D01*
X129697477Y-80740308D01*
X129697469Y-80740307D01*
X129446573Y-80705822D01*
X129446570Y-80705821D01*
X129429678Y-80703500D01*
X129142322Y-80703500D01*
X129125430Y-80705821D01*
X129125426Y-80705822D01*
X128874530Y-80740307D01*
X128874519Y-80740309D01*
X128857642Y-80742629D01*
X128841230Y-80747227D01*
X128841227Y-80747228D01*
X128597357Y-80815556D01*
X128597346Y-80815559D01*
X128580942Y-80820156D01*
X128565326Y-80826938D01*
X128565309Y-80826945D01*
X128333000Y-80927851D01*
X128332986Y-80927857D01*
X128317375Y-80934639D01*
X128302827Y-80943485D01*
X128302817Y-80943491D01*
X128275267Y-80960245D01*
X128150625Y-81014383D01*
X128016000Y-81032886D01*
X127881375Y-81014383D01*
X127756733Y-80960245D01*
X127729182Y-80943491D01*
X127729178Y-80943488D01*
X127714625Y-80934639D01*
X127699004Y-80927854D01*
X127698987Y-80927845D01*
X127546698Y-80861697D01*
X127446709Y-80803665D01*
X127362757Y-80724179D01*
X127299351Y-80627508D01*
X127259892Y-80518841D01*
X127246500Y-80404009D01*
X127246500Y-73809773D01*
X127263503Y-73680622D01*
X127313353Y-73560273D01*
X127392654Y-73456927D01*
X129437333Y-71412247D01*
X130139653Y-70709925D01*
X130242999Y-70630625D01*
X130363348Y-70580775D01*
X130492499Y-70563772D01*
X130621650Y-70580775D01*
G37*
%TD.AperFunction*%
%TA.AperFunction,NonConductor*%
G36*
X122506260Y-84921502D02*
G01*
X122626610Y-84971352D01*
X122729956Y-85050653D01*
X122809257Y-85153999D01*
X122859107Y-85274348D01*
X122876110Y-85403499D01*
X122859107Y-85532650D01*
X122809257Y-85652999D01*
X122729956Y-85756345D01*
X121247846Y-87238456D01*
X121144500Y-87317757D01*
X121024151Y-87367607D01*
X120895000Y-87384610D01*
X120765849Y-87367607D01*
X120645500Y-87317757D01*
X120542154Y-87238456D01*
X120462853Y-87135110D01*
X120413003Y-87014761D01*
X120396000Y-86885610D01*
X120396000Y-85403500D01*
X120413003Y-85274349D01*
X120462853Y-85154000D01*
X120542154Y-85050654D01*
X120645500Y-84971353D01*
X120765849Y-84921503D01*
X120895000Y-84904500D01*
X121507905Y-84904499D01*
X122377110Y-84904499D01*
X122506260Y-84921502D01*
G37*
%TD.AperFunction*%
%TA.AperFunction,NonConductor*%
G36*
X161336651Y-62600776D02*
G01*
X161457000Y-62650626D01*
X161560346Y-62729927D01*
X165235346Y-66404927D01*
X165314647Y-66508273D01*
X165364497Y-66628622D01*
X165381500Y-66757773D01*
X165381500Y-69596198D01*
X165366000Y-69719602D01*
X165320464Y-69835340D01*
X165316173Y-69843196D01*
X165316164Y-69843215D01*
X165307633Y-69858839D01*
X165301408Y-69875526D01*
X165301405Y-69875535D01*
X165213858Y-70110257D01*
X165213855Y-70110265D01*
X165207631Y-70126954D01*
X165203843Y-70144364D01*
X165203842Y-70144370D01*
X165158212Y-70354128D01*
X165146804Y-70406572D01*
X165145533Y-70424340D01*
X165145533Y-70424342D01*
X165136549Y-70549955D01*
X165126390Y-70692000D01*
X165146804Y-70977428D01*
X165150592Y-70994841D01*
X165199693Y-71220558D01*
X165207631Y-71257046D01*
X165213856Y-71273738D01*
X165213858Y-71273742D01*
X165301407Y-71508470D01*
X165301410Y-71508476D01*
X165307633Y-71525161D01*
X165316171Y-71540798D01*
X165316172Y-71540799D01*
X165404151Y-71701921D01*
X165444774Y-71776315D01*
X165455453Y-71790580D01*
X165455454Y-71790582D01*
X165507065Y-71859526D01*
X165616261Y-72005395D01*
X165818605Y-72207739D01*
X166047685Y-72379226D01*
X166298839Y-72516367D01*
X166566954Y-72616369D01*
X166846572Y-72677196D01*
X167082077Y-72694039D01*
X167085314Y-72694271D01*
X167131999Y-72704110D01*
X167178684Y-72694271D01*
X167417428Y-72677196D01*
X167697046Y-72616369D01*
X167965161Y-72516367D01*
X168216315Y-72379226D01*
X168445395Y-72207739D01*
X168647739Y-72005395D01*
X168819226Y-71776315D01*
X168956367Y-71525161D01*
X169056369Y-71257046D01*
X169117196Y-70977428D01*
X169137610Y-70692000D01*
X169117196Y-70406572D01*
X169056369Y-70126954D01*
X168956367Y-69858839D01*
X168947829Y-69843204D01*
X168947826Y-69843196D01*
X168943536Y-69835340D01*
X168898000Y-69719602D01*
X168882500Y-69596198D01*
X168882500Y-66757773D01*
X168899503Y-66628622D01*
X168949353Y-66508273D01*
X169028654Y-66404927D01*
X169589636Y-65843945D01*
X171280004Y-64153575D01*
X171381732Y-64075214D01*
X171500094Y-64025407D01*
X171627248Y-64007456D01*
X171754772Y-64022549D01*
X171927588Y-64066096D01*
X172059783Y-64076500D01*
X173888216Y-64076499D01*
X174020412Y-64066096D01*
X174238683Y-64011096D01*
X174443626Y-63918007D01*
X174472639Y-63897906D01*
X174476825Y-63895007D01*
X174597510Y-63833727D01*
X174730224Y-63807134D01*
X174865202Y-63817185D01*
X174992514Y-63863141D01*
X175102792Y-63941620D01*
X175187923Y-64046848D01*
X175241643Y-64171083D01*
X175260000Y-64305184D01*
X175260000Y-86052448D01*
X175242798Y-86182341D01*
X175192376Y-86303278D01*
X175112212Y-86406921D01*
X175007833Y-86486123D01*
X174886435Y-86535425D01*
X174756389Y-86551427D01*
X174626661Y-86533025D01*
X174506195Y-86481488D01*
X174403297Y-86400370D01*
X174325062Y-86295263D01*
X174262165Y-86182341D01*
X174223271Y-86112513D01*
X174182125Y-86052448D01*
X173981543Y-85759634D01*
X173975030Y-85750126D01*
X173794440Y-85532650D01*
X173701783Y-85421067D01*
X173701777Y-85421061D01*
X173694412Y-85412191D01*
X173383809Y-85101588D01*
X173374939Y-85094222D01*
X173374932Y-85094216D01*
X173067702Y-84839096D01*
X173045874Y-84820970D01*
X172947144Y-84753338D01*
X172692990Y-84579238D01*
X172692979Y-84579231D01*
X172683487Y-84572729D01*
X172299742Y-84358985D01*
X172289195Y-84354328D01*
X172289191Y-84354326D01*
X171908452Y-84186213D01*
X171908446Y-84186210D01*
X171897911Y-84181559D01*
X171481425Y-84041967D01*
X171470209Y-84039329D01*
X171470202Y-84039327D01*
X171065058Y-83944038D01*
X171065040Y-83944034D01*
X171053834Y-83941399D01*
X171042434Y-83939808D01*
X171042414Y-83939805D01*
X170630194Y-83882303D01*
X170630195Y-83882303D01*
X170618789Y-83880712D01*
X170607288Y-83880180D01*
X170607285Y-83880180D01*
X170191507Y-83860958D01*
X170180000Y-83860426D01*
X170168493Y-83860958D01*
X169752714Y-83880180D01*
X169752709Y-83880180D01*
X169741211Y-83880712D01*
X169729806Y-83882302D01*
X169729805Y-83882303D01*
X169317585Y-83939805D01*
X169317561Y-83939809D01*
X169306166Y-83941399D01*
X169294963Y-83944033D01*
X169294941Y-83944038D01*
X168889797Y-84039327D01*
X168889784Y-84039330D01*
X168878575Y-84041967D01*
X168867646Y-84045629D01*
X168867639Y-84045632D01*
X168473017Y-84177896D01*
X168473011Y-84177898D01*
X168462089Y-84181559D01*
X168451560Y-84186207D01*
X168451547Y-84186213D01*
X168070808Y-84354326D01*
X168070795Y-84354332D01*
X168060258Y-84358985D01*
X168050186Y-84364594D01*
X168050182Y-84364597D01*
X167686577Y-84567123D01*
X167686570Y-84567127D01*
X167676513Y-84572729D01*
X167667030Y-84579224D01*
X167667009Y-84579238D01*
X167323634Y-84814456D01*
X167323621Y-84814465D01*
X167314126Y-84820970D01*
X167305260Y-84828332D01*
X167305255Y-84828336D01*
X166985067Y-85094216D01*
X166985049Y-85094232D01*
X166976191Y-85101588D01*
X166968041Y-85109737D01*
X166968030Y-85109748D01*
X166673748Y-85404030D01*
X166673737Y-85404041D01*
X166665588Y-85412191D01*
X166658232Y-85421049D01*
X166658216Y-85421067D01*
X166392336Y-85741255D01*
X166384970Y-85750126D01*
X166378465Y-85759621D01*
X166378456Y-85759634D01*
X166143238Y-86103009D01*
X166143224Y-86103030D01*
X166136729Y-86112513D01*
X166131127Y-86122570D01*
X166131123Y-86122577D01*
X166034938Y-86295263D01*
X165922985Y-86496258D01*
X165918332Y-86506795D01*
X165918326Y-86506808D01*
X165750213Y-86887547D01*
X165750207Y-86887560D01*
X165745559Y-86898089D01*
X165741898Y-86909011D01*
X165741896Y-86909017D01*
X165631480Y-87238456D01*
X165605967Y-87314575D01*
X165603330Y-87325784D01*
X165603327Y-87325797D01*
X165508038Y-87730941D01*
X165508033Y-87730963D01*
X165505399Y-87742166D01*
X165503809Y-87753561D01*
X165503805Y-87753585D01*
X165451783Y-88126518D01*
X165444712Y-88177211D01*
X165444180Y-88188707D01*
X165444180Y-88188713D01*
X165429810Y-88499545D01*
X165408011Y-88624107D01*
X165355601Y-88739189D01*
X165275944Y-88837402D01*
X165174158Y-88912437D01*
X165056778Y-88959477D01*
X164931342Y-88975500D01*
X159656249Y-88975500D01*
X159650524Y-88975764D01*
X159650509Y-88975765D01*
X159338713Y-88990180D01*
X159338707Y-88990180D01*
X159327211Y-88990712D01*
X159315806Y-88992302D01*
X159315805Y-88992303D01*
X158903585Y-89049805D01*
X158903561Y-89049809D01*
X158892166Y-89051399D01*
X158880963Y-89054033D01*
X158880941Y-89054038D01*
X158475797Y-89149327D01*
X158475784Y-89149330D01*
X158464575Y-89151967D01*
X158453646Y-89155629D01*
X158453639Y-89155632D01*
X158059017Y-89287896D01*
X158059011Y-89287898D01*
X158048089Y-89291559D01*
X158037560Y-89296207D01*
X158037547Y-89296213D01*
X157656808Y-89464326D01*
X157656795Y-89464332D01*
X157646258Y-89468985D01*
X157636186Y-89474594D01*
X157636182Y-89474597D01*
X157272577Y-89677123D01*
X157272570Y-89677127D01*
X157262513Y-89682729D01*
X157253030Y-89689224D01*
X157253009Y-89689238D01*
X156909634Y-89924456D01*
X156909621Y-89924465D01*
X156900126Y-89930970D01*
X156891256Y-89938334D01*
X156891254Y-89938337D01*
X156846034Y-89975886D01*
X156742768Y-90042045D01*
X156626484Y-90081018D01*
X156504206Y-90090450D01*
X156383321Y-90069773D01*
X156271130Y-90020236D01*
X156174410Y-89944829D01*
X156013117Y-89783536D01*
X155997457Y-89766013D01*
X155997145Y-89766303D01*
X155984446Y-89752617D01*
X155972805Y-89738019D01*
X155949671Y-89716554D01*
X155907485Y-89677411D01*
X155894045Y-89664464D01*
X155133474Y-88903893D01*
X155086849Y-88850085D01*
X155048357Y-88790190D01*
X155010928Y-88721643D01*
X154964309Y-88601584D01*
X154949971Y-88473591D01*
X154968869Y-88346192D01*
X155019745Y-88227874D01*
X155099209Y-88126518D01*
X155201967Y-88048876D01*
X155321175Y-88000121D01*
X155448891Y-87983500D01*
X156675935Y-87983500D01*
X156694595Y-87983849D01*
X156783636Y-87987181D01*
X156872191Y-87977202D01*
X156890769Y-87975460D01*
X156979630Y-87968802D01*
X156997841Y-87964645D01*
X157011832Y-87962536D01*
X157025780Y-87959897D01*
X157044350Y-87957805D01*
X157130456Y-87934732D01*
X157148491Y-87930259D01*
X157235416Y-87910420D01*
X157252803Y-87903595D01*
X157266346Y-87899418D01*
X157279729Y-87894734D01*
X157297775Y-87889900D01*
X157379510Y-87854238D01*
X157396631Y-87847146D01*
X157479643Y-87814568D01*
X157495825Y-87805224D01*
X157508578Y-87799083D01*
X157521117Y-87792456D01*
X157538247Y-87784983D01*
X157613747Y-87737542D01*
X157629662Y-87727953D01*
X157706857Y-87683386D01*
X157721467Y-87671733D01*
X157733188Y-87663743D01*
X157744575Y-87655338D01*
X157760397Y-87645398D01*
X157827966Y-87587248D01*
X157842267Y-87575398D01*
X157911981Y-87519805D01*
X157972591Y-87454481D01*
X157985512Y-87441067D01*
X167802943Y-77623636D01*
X167871193Y-77566599D01*
X167948476Y-77522590D01*
X167965161Y-77516367D01*
X168216315Y-77379226D01*
X168445395Y-77207739D01*
X168647739Y-77005395D01*
X168819226Y-76776315D01*
X168956367Y-76525161D01*
X169056369Y-76257046D01*
X169117196Y-75977428D01*
X169137610Y-75692000D01*
X169117196Y-75406572D01*
X169056369Y-75126954D01*
X168956367Y-74858839D01*
X168819226Y-74607685D01*
X168647739Y-74378605D01*
X168445395Y-74176261D01*
X168216315Y-74004774D01*
X167965161Y-73867633D01*
X167948476Y-73861410D01*
X167948470Y-73861407D01*
X167713742Y-73773858D01*
X167713738Y-73773856D01*
X167697046Y-73767631D01*
X167679631Y-73763842D01*
X167679629Y-73763842D01*
X167434841Y-73710592D01*
X167417428Y-73706804D01*
X167178684Y-73689728D01*
X167131999Y-73679889D01*
X167085314Y-73689729D01*
X166864342Y-73705533D01*
X166864340Y-73705533D01*
X166846572Y-73706804D01*
X166829160Y-73710591D01*
X166829158Y-73710592D01*
X166584370Y-73763842D01*
X166584364Y-73763843D01*
X166566954Y-73767631D01*
X166550265Y-73773855D01*
X166550257Y-73773858D01*
X166315529Y-73861407D01*
X166315517Y-73861412D01*
X166298839Y-73867633D01*
X166283206Y-73876169D01*
X166283200Y-73876172D01*
X166063327Y-73996232D01*
X166063318Y-73996237D01*
X166047685Y-74004774D01*
X166033425Y-74015448D01*
X166033417Y-74015454D01*
X165832872Y-74165580D01*
X165832864Y-74165586D01*
X165818605Y-74176261D01*
X165806009Y-74188856D01*
X165806002Y-74188863D01*
X165628863Y-74366002D01*
X165628856Y-74366009D01*
X165616261Y-74378605D01*
X165605586Y-74392864D01*
X165605580Y-74392872D01*
X165455454Y-74593417D01*
X165455448Y-74593425D01*
X165444774Y-74607685D01*
X165436237Y-74623318D01*
X165436232Y-74623327D01*
X165316172Y-74843200D01*
X165316169Y-74843206D01*
X165307633Y-74858839D01*
X165301412Y-74875517D01*
X165301407Y-74875529D01*
X165213856Y-75110263D01*
X165207631Y-75126954D01*
X165203847Y-75144347D01*
X165203843Y-75144362D01*
X165199619Y-75163782D01*
X165149984Y-75296851D01*
X165064871Y-75410546D01*
X157623558Y-82851860D01*
X157523482Y-82929256D01*
X157407159Y-82978996D01*
X157282065Y-82997885D01*
X157156242Y-82984707D01*
X157037776Y-82940310D01*
X156934283Y-82867547D01*
X156852415Y-82771095D01*
X156797434Y-82657155D01*
X156776436Y-82551051D01*
X156775283Y-82551210D01*
X156772961Y-82534317D01*
X156771798Y-82517314D01*
X156713334Y-82235968D01*
X156617104Y-81965203D01*
X156484901Y-81710064D01*
X156475063Y-81696126D01*
X156443578Y-81651521D01*
X156379928Y-81527648D01*
X156352992Y-81391008D01*
X156364867Y-81252246D01*
X156414629Y-81122171D01*
X156498398Y-81010917D01*
X160199274Y-77310040D01*
X160214137Y-77295779D01*
X160227461Y-77283512D01*
X160243764Y-77270825D01*
X160297903Y-77212013D01*
X160312143Y-77197172D01*
X160326077Y-77183239D01*
X160338809Y-77168204D01*
X160352405Y-77152807D01*
X160406571Y-77093969D01*
X160417868Y-77076675D01*
X160423684Y-77069204D01*
X160429186Y-77061497D01*
X160442533Y-77045740D01*
X160483425Y-76977113D01*
X160494322Y-76959654D01*
X160538049Y-76892728D01*
X160546343Y-76873816D01*
X160550834Y-76865519D01*
X160555005Y-76856987D01*
X160565582Y-76839238D01*
X160594644Y-76764758D01*
X160602499Y-76745794D01*
X160634610Y-76672591D01*
X160639681Y-76652563D01*
X160642751Y-76643622D01*
X160645452Y-76634549D01*
X160652964Y-76615299D01*
X160669365Y-76537073D01*
X160674010Y-76516998D01*
X160688551Y-76459578D01*
X160693620Y-76439563D01*
X160695325Y-76418973D01*
X160696884Y-76409634D01*
X160698053Y-76400251D01*
X160702294Y-76380031D01*
X160705596Y-76300190D01*
X160706875Y-76279598D01*
X160707360Y-76273742D01*
X160708500Y-76259990D01*
X160708500Y-76240308D01*
X160708926Y-76219686D01*
X160711375Y-76160475D01*
X160712228Y-76139853D01*
X160709674Y-76119369D01*
X160708926Y-76101267D01*
X160708500Y-76080645D01*
X160708500Y-63082773D01*
X160725503Y-62953622D01*
X160775353Y-62833273D01*
X160854654Y-62729927D01*
X160958000Y-62650626D01*
X161078349Y-62600776D01*
X161207500Y-62583773D01*
X161336651Y-62600776D01*
G37*
%TD.AperFunction*%
%TA.AperFunction,NonConductor*%
G36*
X128150629Y-84593618D02*
G01*
X128275274Y-84647759D01*
X128302812Y-84664505D01*
X128317375Y-84673361D01*
X128332998Y-84680147D01*
X128333000Y-84680148D01*
X128565309Y-84781054D01*
X128565313Y-84781055D01*
X128580942Y-84787844D01*
X128857642Y-84865371D01*
X129142322Y-84904500D01*
X129412630Y-84904500D01*
X129418443Y-84904500D01*
X129429678Y-84904500D01*
X129429678Y-84905247D01*
X129549226Y-84913195D01*
X129675766Y-84957359D01*
X129785988Y-85033610D01*
X129871939Y-85136446D01*
X129927420Y-85258450D01*
X129948428Y-85390819D01*
X129933446Y-85524005D01*
X129886046Y-85642193D01*
X129878993Y-85652374D01*
X129869731Y-85672764D01*
X129869727Y-85672772D01*
X129795170Y-85836915D01*
X129795166Y-85836924D01*
X129785904Y-85857317D01*
X129780430Y-85879038D01*
X129780428Y-85879046D01*
X129736037Y-86055216D01*
X129730904Y-86075588D01*
X129729256Y-86096522D01*
X129729255Y-86096531D01*
X129721267Y-86198028D01*
X129721266Y-86198046D01*
X129720500Y-86207783D01*
X129720500Y-86217569D01*
X129720500Y-86217570D01*
X129720500Y-88026425D01*
X129720500Y-88026450D01*
X129720501Y-88036216D01*
X129730904Y-88168412D01*
X129736033Y-88188768D01*
X129736035Y-88188778D01*
X129745887Y-88227874D01*
X129785904Y-88386683D01*
X129795168Y-88407079D01*
X129795170Y-88407084D01*
X129869728Y-88571230D01*
X129869731Y-88571236D01*
X129878993Y-88591626D01*
X129891748Y-88610037D01*
X129891750Y-88610040D01*
X129981679Y-88739844D01*
X130030344Y-88827897D01*
X130060358Y-88923923D01*
X130070500Y-89024017D01*
X130070500Y-91260355D01*
X130051696Y-91396049D01*
X129996701Y-91521515D01*
X129909661Y-91627299D01*
X129797134Y-91705428D01*
X129667603Y-91750013D01*
X129530828Y-91757695D01*
X129397118Y-91727893D01*
X129317372Y-91698149D01*
X129317365Y-91698147D01*
X129300678Y-91691923D01*
X129283269Y-91688136D01*
X129283266Y-91688135D01*
X129059441Y-91639445D01*
X129059435Y-91639444D01*
X129042026Y-91635657D01*
X129024266Y-91634386D01*
X129024254Y-91634385D01*
X128795770Y-91618044D01*
X128778000Y-91616773D01*
X128760230Y-91618044D01*
X128531745Y-91634385D01*
X128531731Y-91634386D01*
X128513974Y-91635657D01*
X128496566Y-91639443D01*
X128496558Y-91639445D01*
X128272733Y-91688135D01*
X128272726Y-91688136D01*
X128255322Y-91691923D01*
X128238638Y-91698145D01*
X128238627Y-91698149D01*
X128024018Y-91778194D01*
X128024010Y-91778197D01*
X128007311Y-91784426D01*
X127991666Y-91792968D01*
X127991659Y-91792972D01*
X127790631Y-91902742D01*
X127790622Y-91902747D01*
X127774989Y-91911284D01*
X127760729Y-91921958D01*
X127760721Y-91921964D01*
X127577352Y-92059232D01*
X127577344Y-92059238D01*
X127563085Y-92069913D01*
X127550489Y-92082508D01*
X127550482Y-92082515D01*
X127388515Y-92244482D01*
X127388508Y-92244489D01*
X127375913Y-92257085D01*
X127365238Y-92271344D01*
X127365232Y-92271352D01*
X127227964Y-92454721D01*
X127227958Y-92454729D01*
X127217284Y-92468989D01*
X127208747Y-92484622D01*
X127208742Y-92484631D01*
X127098972Y-92685659D01*
X127098968Y-92685666D01*
X127090426Y-92701311D01*
X127084197Y-92718010D01*
X127084194Y-92718018D01*
X127004149Y-92932627D01*
X127004145Y-92932638D01*
X126997923Y-92949322D01*
X126994137Y-92966725D01*
X126994134Y-92966736D01*
X126963716Y-93106569D01*
X126917452Y-93233367D01*
X126838899Y-93343126D01*
X126733803Y-93427818D01*
X126609854Y-93481246D01*
X126476120Y-93499500D01*
X125280355Y-93499500D01*
X125183005Y-93489912D01*
X125089396Y-93461516D01*
X125003125Y-93415403D01*
X124839247Y-93305903D01*
X124839244Y-93305901D01*
X124825665Y-93296828D01*
X124811022Y-93289606D01*
X124811017Y-93289604D01*
X124575726Y-93173572D01*
X124575725Y-93173571D01*
X124561077Y-93166348D01*
X124545615Y-93161099D01*
X124545607Y-93161096D01*
X124297183Y-93076767D01*
X124297178Y-93076765D01*
X124281722Y-93071519D01*
X124265717Y-93068335D01*
X124265708Y-93068333D01*
X124150150Y-93045348D01*
X124020959Y-93000548D01*
X123908779Y-92922363D01*
X123822033Y-92816663D01*
X123767235Y-92691385D01*
X123748500Y-92555936D01*
X123748500Y-89895657D01*
X123765503Y-89766506D01*
X123815353Y-89646157D01*
X123894654Y-89542811D01*
X125310947Y-88126518D01*
X126780102Y-86657363D01*
X126908398Y-86508281D01*
X127047983Y-86286131D01*
X127152900Y-86045659D01*
X127220805Y-85792234D01*
X127250181Y-85531521D01*
X127240370Y-85269341D01*
X127238523Y-85259583D01*
X127240362Y-85138012D01*
X127274135Y-85015870D01*
X127337587Y-84906175D01*
X127426625Y-84816001D01*
X127535507Y-84751163D01*
X127595440Y-84725130D01*
X127714625Y-84673361D01*
X127747284Y-84653500D01*
X127756726Y-84647759D01*
X127881371Y-84593618D01*
X128016000Y-84575113D01*
X128150629Y-84593618D01*
G37*
%TD.AperFunction*%
%TA.AperFunction,NonConductor*%
G36*
X142764141Y-89450936D02*
G01*
X142881962Y-89500727D01*
X142983255Y-89578836D01*
X144173128Y-90768709D01*
X144258244Y-90882409D01*
X144307878Y-91015484D01*
X144318011Y-91157152D01*
X144287820Y-91295936D01*
X144219753Y-91420593D01*
X144119323Y-91521024D01*
X143994667Y-91589092D01*
X143855883Y-91619283D01*
X143644758Y-91634384D01*
X143644743Y-91634386D01*
X143626974Y-91635657D01*
X143609566Y-91639443D01*
X143609558Y-91639445D01*
X143385733Y-91688135D01*
X143385726Y-91688136D01*
X143368322Y-91691923D01*
X143351638Y-91698145D01*
X143351627Y-91698149D01*
X143137018Y-91778194D01*
X143137010Y-91778197D01*
X143120311Y-91784426D01*
X143104666Y-91792968D01*
X143104659Y-91792972D01*
X142903631Y-91902742D01*
X142903622Y-91902747D01*
X142887989Y-91911284D01*
X142873729Y-91921958D01*
X142873721Y-91921964D01*
X142690352Y-92059232D01*
X142690344Y-92059238D01*
X142676085Y-92069913D01*
X142663489Y-92082508D01*
X142663482Y-92082515D01*
X142501515Y-92244482D01*
X142501508Y-92244489D01*
X142488913Y-92257085D01*
X142478238Y-92271344D01*
X142478232Y-92271352D01*
X142340964Y-92454721D01*
X142340958Y-92454729D01*
X142330284Y-92468989D01*
X142321747Y-92484622D01*
X142321742Y-92484631D01*
X142211972Y-92685659D01*
X142211968Y-92685666D01*
X142203426Y-92701311D01*
X142197197Y-92718010D01*
X142197194Y-92718018D01*
X142117149Y-92932627D01*
X142117145Y-92932638D01*
X142110923Y-92949322D01*
X142107137Y-92966725D01*
X142107134Y-92966736D01*
X142076716Y-93106569D01*
X142030452Y-93233367D01*
X141951899Y-93343126D01*
X141846803Y-93427818D01*
X141722854Y-93481246D01*
X141589120Y-93499500D01*
X141035494Y-93499500D01*
X140774355Y-93499500D01*
X140677005Y-93489912D01*
X140583396Y-93461516D01*
X140497125Y-93415403D01*
X140333247Y-93305903D01*
X140333244Y-93305901D01*
X140319665Y-93296828D01*
X140305021Y-93289606D01*
X140305010Y-93289600D01*
X140234797Y-93254975D01*
X140120391Y-93177170D01*
X140031748Y-93070941D01*
X139975681Y-92944455D01*
X139956500Y-92807436D01*
X139956500Y-90002619D01*
X139973121Y-89874901D01*
X140021878Y-89755692D01*
X140099522Y-89652933D01*
X140200880Y-89573469D01*
X140319201Y-89522594D01*
X140446602Y-89503698D01*
X140574596Y-89518040D01*
X140674846Y-89556970D01*
X140675459Y-89555629D01*
X140691658Y-89563026D01*
X140707311Y-89571574D01*
X140955322Y-89664077D01*
X141213974Y-89720343D01*
X141478000Y-89739227D01*
X141742026Y-89720343D01*
X142000678Y-89664077D01*
X142248689Y-89571574D01*
X142391272Y-89493717D01*
X142510455Y-89447314D01*
X142637532Y-89432733D01*
X142764141Y-89450936D01*
G37*
%TD.AperFunction*%
%TA.AperFunction,NonConductor*%
G36*
X130303023Y-105686995D02*
G01*
X130423966Y-105729905D01*
X130529965Y-105802240D01*
X130614011Y-105899218D01*
X130670545Y-106014423D01*
X130753094Y-106257602D01*
X130753099Y-106257614D01*
X130758348Y-106273077D01*
X130765571Y-106287725D01*
X130765572Y-106287726D01*
X130879438Y-106518625D01*
X130888828Y-106537665D01*
X130897901Y-106551244D01*
X130897903Y-106551247D01*
X131028525Y-106746737D01*
X131052727Y-106782957D01*
X131247242Y-107004758D01*
X131469043Y-107199273D01*
X131482633Y-107208354D01*
X131482635Y-107208355D01*
X131714335Y-107363172D01*
X131713531Y-107364373D01*
X131802307Y-107432610D01*
X131881850Y-107536806D01*
X131931512Y-107658122D01*
X131947867Y-107788185D01*
X131929786Y-107918020D01*
X131878517Y-108038666D01*
X131797598Y-108141797D01*
X131692613Y-108220296D01*
X131570808Y-108268746D01*
X131449049Y-108299427D01*
X131449039Y-108299430D01*
X131427317Y-108304904D01*
X131406924Y-108314166D01*
X131406915Y-108314170D01*
X131242769Y-108388728D01*
X131242758Y-108388734D01*
X131222374Y-108397993D01*
X131203966Y-108410745D01*
X131203959Y-108410750D01*
X131055762Y-108513421D01*
X131055752Y-108513428D01*
X131037346Y-108526181D01*
X131023860Y-108539666D01*
X130915263Y-108608389D01*
X130790363Y-108647207D01*
X130659666Y-108652237D01*
X130532152Y-108623132D01*
X130416581Y-108561893D01*
X130320893Y-108472725D01*
X130251662Y-108361757D01*
X130171271Y-108184769D01*
X130171269Y-108184767D01*
X130162007Y-108164374D01*
X130033819Y-107979346D01*
X129874654Y-107820181D01*
X129689626Y-107691993D01*
X129669236Y-107682731D01*
X129669230Y-107682728D01*
X129505084Y-107608170D01*
X129505079Y-107608168D01*
X129484683Y-107598904D01*
X129462957Y-107593429D01*
X129462953Y-107593428D01*
X129286783Y-107549037D01*
X129286781Y-107549036D01*
X129266412Y-107543904D01*
X129245475Y-107542256D01*
X129245468Y-107542255D01*
X129143971Y-107534267D01*
X129143954Y-107534266D01*
X129134217Y-107533500D01*
X129124429Y-107533500D01*
X128582623Y-107533500D01*
X128447994Y-107514996D01*
X128323351Y-107460855D01*
X128217936Y-107375094D01*
X128139568Y-107264072D01*
X128094060Y-107136025D01*
X128084786Y-107000447D01*
X128112435Y-106867395D01*
X128174955Y-106746737D01*
X128267710Y-106647420D01*
X128383821Y-106576812D01*
X128514676Y-106540148D01*
X128612939Y-106526642D01*
X128688161Y-106516303D01*
X128958275Y-106440620D01*
X129215568Y-106328862D01*
X129455246Y-106183111D01*
X129672845Y-106006081D01*
X129833343Y-105834228D01*
X129932263Y-105752485D01*
X130048764Y-105698672D01*
X130175136Y-105676349D01*
X130303023Y-105686995D01*
G37*
%TD.AperFunction*%
%TA.AperFunction,NonConductor*%
G36*
X136146150Y-104934275D02*
G01*
X136266499Y-104984125D01*
X136369845Y-105063426D01*
X136835315Y-105528896D01*
X136897372Y-105604513D01*
X136943485Y-105690783D01*
X136971881Y-105784392D01*
X137010333Y-105977708D01*
X137010335Y-105977717D01*
X137013519Y-105993722D01*
X137018765Y-106009178D01*
X137018767Y-106009183D01*
X137103096Y-106257607D01*
X137103099Y-106257615D01*
X137108348Y-106273077D01*
X137115571Y-106287725D01*
X137115572Y-106287726D01*
X137229438Y-106518625D01*
X137238828Y-106537665D01*
X137247901Y-106551244D01*
X137247903Y-106551247D01*
X137378525Y-106746737D01*
X137402727Y-106782957D01*
X137597242Y-107004758D01*
X137819043Y-107199273D01*
X137832633Y-107208354D01*
X137832635Y-107208355D01*
X138064335Y-107363172D01*
X138063531Y-107364373D01*
X138152307Y-107432610D01*
X138231850Y-107536806D01*
X138281512Y-107658122D01*
X138297867Y-107788185D01*
X138279786Y-107918020D01*
X138228517Y-108038666D01*
X138147598Y-108141797D01*
X138042613Y-108220296D01*
X137920808Y-108268746D01*
X137799049Y-108299427D01*
X137799039Y-108299430D01*
X137777317Y-108304904D01*
X137756924Y-108314166D01*
X137756915Y-108314170D01*
X137592769Y-108388728D01*
X137592758Y-108388734D01*
X137572374Y-108397993D01*
X137553966Y-108410745D01*
X137553959Y-108410750D01*
X137405767Y-108513418D01*
X137405760Y-108513423D01*
X137387346Y-108526181D01*
X137371503Y-108542023D01*
X137371497Y-108542029D01*
X137244029Y-108669497D01*
X137244023Y-108669503D01*
X137228181Y-108685346D01*
X137215423Y-108703760D01*
X137215418Y-108703767D01*
X137112750Y-108851959D01*
X137112745Y-108851966D01*
X137099993Y-108870374D01*
X137090734Y-108890758D01*
X137090728Y-108890769D01*
X137016170Y-109054915D01*
X137016166Y-109054924D01*
X137006904Y-109075317D01*
X137001430Y-109097038D01*
X137001428Y-109097046D01*
X136970441Y-109220022D01*
X136951904Y-109293588D01*
X136950256Y-109314522D01*
X136950255Y-109314531D01*
X136942267Y-109416028D01*
X136942266Y-109416046D01*
X136941500Y-109425783D01*
X136941500Y-109435570D01*
X136941500Y-109435571D01*
X136941500Y-110909227D01*
X136924497Y-111038378D01*
X136874647Y-111158727D01*
X136795346Y-111262073D01*
X136692000Y-111341374D01*
X136571651Y-111391224D01*
X136442500Y-111408227D01*
X136313349Y-111391224D01*
X136193000Y-111341374D01*
X136089654Y-111262073D01*
X135238653Y-110411072D01*
X135159352Y-110307726D01*
X135109502Y-110187377D01*
X135092499Y-110058226D01*
X135092499Y-109435575D01*
X135092499Y-109435570D01*
X135092499Y-109425784D01*
X135082096Y-109293588D01*
X135027096Y-109075317D01*
X134978819Y-108969031D01*
X134943271Y-108890769D01*
X134943269Y-108890767D01*
X134934007Y-108870374D01*
X134805819Y-108685346D01*
X134646654Y-108526181D01*
X134569495Y-108472725D01*
X134480040Y-108410750D01*
X134480037Y-108410748D01*
X134461626Y-108397993D01*
X134441236Y-108388731D01*
X134441230Y-108388728D01*
X134277084Y-108314170D01*
X134277079Y-108314168D01*
X134256683Y-108304904D01*
X134234956Y-108299429D01*
X134234947Y-108299426D01*
X134113192Y-108268746D01*
X133991385Y-108220296D01*
X133886399Y-108141795D01*
X133805479Y-108038661D01*
X133754211Y-107918013D01*
X133736132Y-107788176D01*
X133752490Y-107658111D01*
X133802156Y-107536794D01*
X133881703Y-107432598D01*
X133970468Y-107364374D01*
X133969665Y-107363172D01*
X133969665Y-107363171D01*
X134214957Y-107199273D01*
X134436758Y-107004758D01*
X134631273Y-106782957D01*
X134795172Y-106537665D01*
X134925652Y-106273077D01*
X135020481Y-105993722D01*
X135062119Y-105784389D01*
X135090513Y-105690784D01*
X135136626Y-105604512D01*
X135198679Y-105528899D01*
X135664154Y-105063424D01*
X135767499Y-104984125D01*
X135887848Y-104934275D01*
X136016999Y-104917272D01*
X136146150Y-104934275D01*
G37*
%TD.AperFunction*%
%TA.AperFunction,NonConductor*%
G36*
X143640376Y-111651502D02*
G01*
X143760725Y-111701352D01*
X143864072Y-111780652D01*
X143943372Y-111883998D01*
X143993223Y-112004347D01*
X144010226Y-112133498D01*
X143993223Y-112262649D01*
X143943373Y-112382998D01*
X143864073Y-112486345D01*
X143318341Y-113032077D01*
X143215001Y-113111373D01*
X143094651Y-113161224D01*
X142965501Y-113178227D01*
X142836350Y-113161224D01*
X142716000Y-113111374D01*
X142612654Y-113032073D01*
X142533353Y-112928727D01*
X142483503Y-112808378D01*
X142466500Y-112679227D01*
X142466500Y-112133500D01*
X142483503Y-112004349D01*
X142533353Y-111884000D01*
X142612653Y-111780654D01*
X142715999Y-111701354D01*
X142836349Y-111651503D01*
X142965499Y-111634500D01*
X142995821Y-111634499D01*
X143511229Y-111634499D01*
X143640376Y-111651502D01*
G37*
%TD.AperFunction*%
%TA.AperFunction,NonConductor*%
G36*
X121024151Y-105306276D02*
G01*
X121144500Y-105356126D01*
X121247846Y-105435427D01*
X121341315Y-105528896D01*
X121403372Y-105604513D01*
X121449485Y-105690783D01*
X121477881Y-105784392D01*
X121516333Y-105977708D01*
X121516335Y-105977717D01*
X121519519Y-105993722D01*
X121524765Y-106009178D01*
X121524767Y-106009183D01*
X121609096Y-106257607D01*
X121609099Y-106257615D01*
X121614348Y-106273077D01*
X121621571Y-106287725D01*
X121621572Y-106287726D01*
X121735438Y-106518625D01*
X121744828Y-106537665D01*
X121753901Y-106551244D01*
X121753903Y-106551247D01*
X121884525Y-106746737D01*
X121908727Y-106782957D01*
X122103242Y-107004758D01*
X122325043Y-107199273D01*
X122338633Y-107208354D01*
X122338635Y-107208355D01*
X122570335Y-107363172D01*
X122569531Y-107364373D01*
X122658307Y-107432610D01*
X122737850Y-107536806D01*
X122787512Y-107658122D01*
X122803867Y-107788185D01*
X122785786Y-107918020D01*
X122734517Y-108038666D01*
X122653598Y-108141797D01*
X122548613Y-108220296D01*
X122426808Y-108268746D01*
X122305049Y-108299427D01*
X122305039Y-108299430D01*
X122283317Y-108304904D01*
X122262924Y-108314166D01*
X122262915Y-108314170D01*
X122098769Y-108388728D01*
X122098758Y-108388734D01*
X122078374Y-108397993D01*
X122059966Y-108410745D01*
X122059959Y-108410750D01*
X121911767Y-108513418D01*
X121911760Y-108513423D01*
X121893346Y-108526181D01*
X121877503Y-108542023D01*
X121877497Y-108542029D01*
X121750029Y-108669497D01*
X121750023Y-108669503D01*
X121734181Y-108685346D01*
X121721423Y-108703760D01*
X121721418Y-108703767D01*
X121618750Y-108851959D01*
X121618745Y-108851966D01*
X121605993Y-108870374D01*
X121596734Y-108890758D01*
X121596728Y-108890769D01*
X121522170Y-109054915D01*
X121522166Y-109054924D01*
X121512904Y-109075317D01*
X121507430Y-109097038D01*
X121507428Y-109097046D01*
X121476441Y-109220022D01*
X121457904Y-109293588D01*
X121456256Y-109314522D01*
X121456255Y-109314531D01*
X121448267Y-109416028D01*
X121448266Y-109416046D01*
X121447500Y-109425783D01*
X121447500Y-109435569D01*
X121447500Y-109435570D01*
X121447500Y-111544425D01*
X121447500Y-111544450D01*
X121447501Y-111554216D01*
X121457904Y-111686412D01*
X121463033Y-111706768D01*
X121463035Y-111706778D01*
X121499264Y-111850553D01*
X121512904Y-111904683D01*
X121522168Y-111925079D01*
X121522170Y-111925084D01*
X121596728Y-112089230D01*
X121596731Y-112089236D01*
X121605993Y-112109626D01*
X121618748Y-112128037D01*
X121618750Y-112128040D01*
X121622533Y-112133500D01*
X121734181Y-112294654D01*
X121750029Y-112310502D01*
X121801346Y-112361819D01*
X121880647Y-112465165D01*
X121930497Y-112585514D01*
X121947500Y-112714665D01*
X121947500Y-113652935D01*
X121947150Y-113671595D01*
X121943819Y-113760636D01*
X121945908Y-113779182D01*
X121945909Y-113779191D01*
X121953794Y-113849171D01*
X121955535Y-113867740D01*
X121960801Y-113938009D01*
X121960804Y-113938028D01*
X121962198Y-113956630D01*
X121966349Y-113974820D01*
X121967903Y-113985126D01*
X121969447Y-114122778D01*
X121933320Y-114255613D01*
X121862273Y-114373523D01*
X121761713Y-114467533D01*
X121650027Y-114524968D01*
X121646317Y-114525904D01*
X121625918Y-114535169D01*
X121625914Y-114535171D01*
X121461769Y-114609728D01*
X121461758Y-114609734D01*
X121441374Y-114618993D01*
X121422966Y-114631745D01*
X121422959Y-114631750D01*
X121274767Y-114734418D01*
X121274760Y-114734423D01*
X121256346Y-114747181D01*
X121240499Y-114763027D01*
X121223299Y-114777388D01*
X121221837Y-114775637D01*
X121144500Y-114834982D01*
X121024151Y-114884832D01*
X120895000Y-114901835D01*
X120765849Y-114884832D01*
X120645500Y-114834982D01*
X120542154Y-114755681D01*
X120462853Y-114652335D01*
X120413003Y-114531986D01*
X120396000Y-114402835D01*
X120396000Y-105788273D01*
X120413003Y-105659122D01*
X120462853Y-105538773D01*
X120542154Y-105435427D01*
X120645500Y-105356126D01*
X120765849Y-105306276D01*
X120895000Y-105289273D01*
X121024151Y-105306276D01*
G37*
%TD.AperFunction*%
%TA.AperFunction,NonConductor*%
G36*
X130189027Y-111295071D02*
G01*
X130309602Y-111329121D01*
X130417895Y-111392133D01*
X130507078Y-111480134D01*
X130571529Y-111587576D01*
X130600941Y-111686654D01*
X130601904Y-111686412D01*
X130625650Y-111780652D01*
X130656904Y-111904683D01*
X130666168Y-111925079D01*
X130666170Y-111925084D01*
X130740728Y-112089230D01*
X130740731Y-112089236D01*
X130749993Y-112109626D01*
X130762748Y-112128037D01*
X130762750Y-112128040D01*
X130766533Y-112133500D01*
X130878181Y-112294654D01*
X131037346Y-112453819D01*
X131222374Y-112582007D01*
X131427317Y-112675096D01*
X131645588Y-112730096D01*
X131777783Y-112740500D01*
X132410226Y-112740499D01*
X132539376Y-112757502D01*
X132659726Y-112807352D01*
X132763072Y-112886653D01*
X134191695Y-114315276D01*
X134272407Y-114421083D01*
X134322284Y-114544461D01*
X134337776Y-114676634D01*
X134317784Y-114808201D01*
X134263728Y-114929806D01*
X134184049Y-115027183D01*
X134181843Y-115028978D01*
X134170220Y-115041422D01*
X134170218Y-115041425D01*
X133995004Y-115229033D01*
X133994996Y-115229042D01*
X133983373Y-115241488D01*
X133973550Y-115255403D01*
X133973541Y-115255415D01*
X133825517Y-115465118D01*
X133825510Y-115465128D01*
X133815688Y-115479044D01*
X133807854Y-115494162D01*
X133807846Y-115494176D01*
X133689753Y-115722087D01*
X133681912Y-115737220D01*
X133676207Y-115753271D01*
X133676204Y-115753279D01*
X133590243Y-115995148D01*
X133584536Y-116011207D01*
X133525376Y-116295901D01*
X133524213Y-116312891D01*
X133524212Y-116312905D01*
X133518081Y-116402552D01*
X133494114Y-116524858D01*
X133440587Y-116637410D01*
X133360838Y-116733187D01*
X133259842Y-116806214D01*
X133143900Y-116851936D01*
X133020244Y-116867500D01*
X129552772Y-116867500D01*
X129423621Y-116850497D01*
X129303272Y-116800647D01*
X129199926Y-116721346D01*
X125594654Y-113116073D01*
X125515353Y-113012727D01*
X125465503Y-112892378D01*
X125448500Y-112763227D01*
X125448500Y-112714665D01*
X125465503Y-112585514D01*
X125515353Y-112465165D01*
X125594654Y-112361819D01*
X125594654Y-112361818D01*
X125661819Y-112294654D01*
X125790007Y-112109626D01*
X125883096Y-111904683D01*
X125938096Y-111686412D01*
X125939059Y-111686654D01*
X125968463Y-111587594D01*
X126032911Y-111480148D01*
X126122093Y-111392143D01*
X126230386Y-111329127D01*
X126350962Y-111295074D01*
X126476220Y-111292130D01*
X126598263Y-111320480D01*
X126709397Y-111378338D01*
X126763704Y-111415962D01*
X126850374Y-111476007D01*
X126870767Y-111485269D01*
X126870769Y-111485271D01*
X126871335Y-111485528D01*
X127055317Y-111569096D01*
X127273588Y-111624096D01*
X127405783Y-111634500D01*
X129134216Y-111634499D01*
X129266412Y-111624096D01*
X129484683Y-111569096D01*
X129689626Y-111476007D01*
X129830607Y-111378334D01*
X129941731Y-111320481D01*
X130063771Y-111292129D01*
X130189027Y-111295071D01*
G37*
%TD.AperFunction*%
%TA.AperFunction,NonConductor*%
G36*
X144660632Y-118404877D02*
G01*
X144785274Y-118459018D01*
X144815847Y-118477610D01*
X145082550Y-118593456D01*
X145362544Y-118671906D01*
X145650612Y-118711500D01*
X145924334Y-118711500D01*
X145941388Y-118711500D01*
X146163204Y-118681012D01*
X146300969Y-118681273D01*
X146433417Y-118719197D01*
X146550446Y-118791893D01*
X146643136Y-118893820D01*
X146704421Y-119017208D01*
X146729631Y-119152651D01*
X146716843Y-119289826D01*
X146667032Y-119418276D01*
X146583995Y-119528210D01*
X146127748Y-119984457D01*
X146127744Y-119984461D01*
X146127745Y-119984461D01*
X145892458Y-120219748D01*
X145883171Y-120231601D01*
X145883161Y-120231613D01*
X145850397Y-120273433D01*
X145831112Y-120296574D01*
X145795882Y-120336341D01*
X145795876Y-120336347D01*
X145785895Y-120347615D01*
X145777340Y-120360008D01*
X145777332Y-120360019D01*
X145747151Y-120403742D01*
X145729300Y-120428002D01*
X145701210Y-120463858D01*
X145600083Y-120560997D01*
X145475922Y-120626164D01*
X145338533Y-120654214D01*
X145198764Y-120642932D01*
X145067652Y-120593209D01*
X144955552Y-120508971D01*
X143839922Y-119393341D01*
X143756622Y-119282935D01*
X143706826Y-119153905D01*
X143694362Y-119016162D01*
X143720185Y-118880289D01*
X143782312Y-118756722D01*
X143875971Y-118654956D01*
X143993959Y-118582809D01*
X144236153Y-118477610D01*
X144266725Y-118459018D01*
X144391368Y-118404877D01*
X144526000Y-118386372D01*
X144660632Y-118404877D01*
G37*
%TD.AperFunction*%
%TA.AperFunction,NonConductor*%
G36*
X139786378Y-120385503D02*
G01*
X139906727Y-120435353D01*
X140010073Y-120514654D01*
X141117916Y-121622497D01*
X141196867Y-121725238D01*
X141246703Y-121844843D01*
X141264066Y-121973247D01*
X141247783Y-122101792D01*
X141198953Y-122221812D01*
X141120868Y-122325213D01*
X141018793Y-122405024D01*
X140899611Y-122455863D01*
X140771358Y-122474303D01*
X140642680Y-122459101D01*
X140522255Y-122411281D01*
X140215817Y-122240597D01*
X140205742Y-122234985D01*
X140195195Y-122230328D01*
X140195191Y-122230326D01*
X139814452Y-122062213D01*
X139814446Y-122062210D01*
X139803911Y-122057559D01*
X139387425Y-121917967D01*
X139376209Y-121915329D01*
X139376202Y-121915327D01*
X138971058Y-121820038D01*
X138971040Y-121820034D01*
X138959834Y-121817399D01*
X138948434Y-121815808D01*
X138948414Y-121815805D01*
X138536194Y-121758303D01*
X138536195Y-121758303D01*
X138524789Y-121756712D01*
X138513290Y-121756180D01*
X138513286Y-121756180D01*
X138201490Y-121741765D01*
X138201476Y-121741764D01*
X138195751Y-121741500D01*
X138189996Y-121741500D01*
X129081193Y-121741500D01*
X128962463Y-121727169D01*
X128850553Y-121685000D01*
X128751891Y-121617415D01*
X128672143Y-121528295D01*
X128615889Y-121422760D01*
X128560534Y-121279872D01*
X128556370Y-121269123D01*
X128467138Y-121089922D01*
X128425570Y-120970497D01*
X128415357Y-120844455D01*
X128437156Y-120719893D01*
X128489566Y-120604811D01*
X128569223Y-120506598D01*
X128671009Y-120431563D01*
X128788389Y-120384523D01*
X128913825Y-120368500D01*
X135504818Y-120368500D01*
X139657227Y-120368500D01*
X139786378Y-120385503D01*
G37*
%TD.AperFunction*%
%TA.AperFunction,NonConductor*%
G36*
X174886444Y-110293909D02*
G01*
X175007839Y-110343212D01*
X175112216Y-110422415D01*
X175192378Y-110526057D01*
X175242798Y-110646993D01*
X175260000Y-110776884D01*
X175260000Y-120220715D01*
X175239828Y-120361160D01*
X175180943Y-120490250D01*
X175088105Y-120597548D01*
X174968821Y-120674380D01*
X174832734Y-120714532D01*
X174690848Y-120714759D01*
X174554634Y-120675043D01*
X174513089Y-120656172D01*
X174513081Y-120656169D01*
X174492683Y-120646904D01*
X174470957Y-120641429D01*
X174470953Y-120641428D01*
X174294783Y-120597037D01*
X174294781Y-120597036D01*
X174274412Y-120591904D01*
X174253475Y-120590256D01*
X174253468Y-120590255D01*
X174151971Y-120582267D01*
X174151954Y-120582266D01*
X174142217Y-120581500D01*
X174132429Y-120581500D01*
X172323574Y-120581500D01*
X172323548Y-120581500D01*
X172313784Y-120581501D01*
X172304027Y-120582268D01*
X172304022Y-120582269D01*
X172202527Y-120590256D01*
X172202524Y-120590256D01*
X172181588Y-120591904D01*
X172161233Y-120597032D01*
X172161221Y-120597035D01*
X171985046Y-120641428D01*
X171985038Y-120641430D01*
X171963317Y-120646904D01*
X171942924Y-120656166D01*
X171942915Y-120656170D01*
X171778769Y-120730728D01*
X171778758Y-120730734D01*
X171758374Y-120739993D01*
X171739966Y-120752745D01*
X171739959Y-120752750D01*
X171591767Y-120855418D01*
X171591760Y-120855423D01*
X171573346Y-120868181D01*
X171557503Y-120884023D01*
X171557497Y-120884029D01*
X171430029Y-121011497D01*
X171430023Y-121011503D01*
X171414181Y-121027346D01*
X171401423Y-121045760D01*
X171401418Y-121045767D01*
X171298750Y-121193959D01*
X171298745Y-121193966D01*
X171285993Y-121212374D01*
X171276734Y-121232758D01*
X171276728Y-121232769D01*
X171202170Y-121396915D01*
X171202166Y-121396924D01*
X171192904Y-121417317D01*
X171187430Y-121439038D01*
X171187428Y-121439046D01*
X171146450Y-121601671D01*
X171137904Y-121635588D01*
X171136256Y-121656522D01*
X171136255Y-121656531D01*
X171128267Y-121758028D01*
X171128266Y-121758046D01*
X171127500Y-121767783D01*
X171127500Y-121777570D01*
X171127500Y-121777571D01*
X171127500Y-122826534D01*
X171110769Y-122954667D01*
X171061697Y-123074207D01*
X170983574Y-123177138D01*
X170881641Y-123256558D01*
X170762732Y-123307141D01*
X170634822Y-123325494D01*
X170506488Y-123310387D01*
X170386338Y-123262835D01*
X170129821Y-123120457D01*
X170118208Y-123115473D01*
X170118201Y-123115470D01*
X169791858Y-122975426D01*
X169780242Y-122970441D01*
X169417280Y-122856561D01*
X169044660Y-122779985D01*
X169032097Y-122778707D01*
X169032081Y-122778705D01*
X168678788Y-122742779D01*
X168678775Y-122742778D01*
X168666204Y-122741500D01*
X168285796Y-122741500D01*
X168273225Y-122742778D01*
X168273211Y-122742779D01*
X167919918Y-122778705D01*
X167919899Y-122778707D01*
X167907340Y-122779985D01*
X167894951Y-122782530D01*
X167894951Y-122782531D01*
X167547108Y-122854015D01*
X167547104Y-122854015D01*
X167534720Y-122856561D01*
X167522661Y-122860344D01*
X167522659Y-122860345D01*
X167183814Y-122966658D01*
X167183806Y-122966660D01*
X167171758Y-122970441D01*
X167160145Y-122975424D01*
X167160141Y-122975426D01*
X166833798Y-123115470D01*
X166833783Y-123115477D01*
X166822179Y-123120457D01*
X166811139Y-123126584D01*
X166811122Y-123126593D01*
X166781665Y-123142944D01*
X166661513Y-123190498D01*
X166533178Y-123205605D01*
X166405268Y-123187252D01*
X166286359Y-123136669D01*
X166184426Y-123057249D01*
X166106304Y-122954318D01*
X166057231Y-122834778D01*
X166040500Y-122706645D01*
X166040500Y-119268413D01*
X166057503Y-119139262D01*
X166107353Y-119018913D01*
X166186654Y-118915567D01*
X166456125Y-118646096D01*
X166758716Y-118343505D01*
X166758715Y-118343505D01*
X167088374Y-118013845D01*
X167190473Y-117935268D01*
X167309293Y-117885449D01*
X167436907Y-117867714D01*
X167564809Y-117883243D01*
X167684471Y-117931002D01*
X167787916Y-118007808D01*
X167868248Y-118108539D01*
X167904441Y-118168409D01*
X167904450Y-118168423D01*
X167912246Y-118181318D01*
X167921541Y-118193182D01*
X168105379Y-118427835D01*
X168117458Y-118443252D01*
X168352748Y-118678542D01*
X168614682Y-118883754D01*
X168627577Y-118891549D01*
X168627581Y-118891552D01*
X168886543Y-119048100D01*
X168886547Y-119048102D01*
X168899443Y-119055898D01*
X169202877Y-119192463D01*
X169520559Y-119291456D01*
X169847858Y-119351436D01*
X170180000Y-119371527D01*
X170512142Y-119351436D01*
X170839441Y-119291456D01*
X171157123Y-119192463D01*
X171460557Y-119055898D01*
X171745318Y-118883754D01*
X172007252Y-118678542D01*
X172242542Y-118443252D01*
X172447754Y-118181318D01*
X172619898Y-117896557D01*
X172756463Y-117593123D01*
X172855456Y-117275441D01*
X172915436Y-116948142D01*
X172935527Y-116616000D01*
X172915436Y-116283858D01*
X172855456Y-115956559D01*
X172756463Y-115638877D01*
X172619898Y-115335443D01*
X172571519Y-115255415D01*
X172455552Y-115063581D01*
X172455549Y-115063577D01*
X172447754Y-115050682D01*
X172242542Y-114788748D01*
X172007252Y-114553458D01*
X171983910Y-114535171D01*
X171777582Y-114373523D01*
X171745318Y-114348246D01*
X171732416Y-114340446D01*
X171732411Y-114340443D01*
X171672544Y-114304252D01*
X171571811Y-114223920D01*
X171495004Y-114120475D01*
X171447244Y-114000813D01*
X171431714Y-113872910D01*
X171449449Y-113745295D01*
X171499268Y-113626475D01*
X171577845Y-113524376D01*
X173616717Y-111485505D01*
X173616727Y-111485493D01*
X173694412Y-111407809D01*
X173757244Y-111332142D01*
X173772356Y-111314775D01*
X173838625Y-111242083D01*
X173897893Y-111163597D01*
X173912208Y-111145527D01*
X173975030Y-111069874D01*
X174030623Y-110988716D01*
X174044078Y-110970017D01*
X174089985Y-110909227D01*
X174103336Y-110891548D01*
X174155125Y-110807903D01*
X174167665Y-110788660D01*
X174223271Y-110707487D01*
X174271141Y-110621541D01*
X174282805Y-110601693D01*
X174334576Y-110518083D01*
X174334577Y-110518081D01*
X174336208Y-110519091D01*
X174403308Y-110428951D01*
X174506206Y-110347837D01*
X174626672Y-110296304D01*
X174756399Y-110277905D01*
X174886444Y-110293909D01*
G37*
%TD.AperFunction*%
%TA.AperFunction,NonConductor*%
G36*
X156169651Y-118074989D02*
G01*
X156290000Y-118124839D01*
X156393346Y-118204140D01*
X156472647Y-118307486D01*
X156522497Y-118427835D01*
X156539500Y-118556986D01*
X156539500Y-122537146D01*
X156519747Y-122676154D01*
X156462052Y-122804157D01*
X156370983Y-122911021D01*
X156253749Y-122988284D01*
X156119632Y-123029832D01*
X155979251Y-123032373D01*
X155843720Y-122995707D01*
X155821176Y-122986033D01*
X155796450Y-122975422D01*
X155796443Y-122975419D01*
X155784842Y-122970441D01*
X155421880Y-122856561D01*
X155049260Y-122779985D01*
X155036697Y-122778707D01*
X155036681Y-122778705D01*
X154683388Y-122742779D01*
X154683375Y-122742778D01*
X154670804Y-122741500D01*
X154290396Y-122741500D01*
X154277825Y-122742778D01*
X154277811Y-122742779D01*
X153924518Y-122778705D01*
X153924499Y-122778707D01*
X153911940Y-122779985D01*
X153899551Y-122782530D01*
X153899551Y-122782531D01*
X153551708Y-122854015D01*
X153551704Y-122854015D01*
X153539320Y-122856561D01*
X153527261Y-122860344D01*
X153527259Y-122860345D01*
X153188414Y-122966658D01*
X153188406Y-122966660D01*
X153176358Y-122970441D01*
X153164745Y-122975424D01*
X153164741Y-122975426D01*
X152838398Y-123115470D01*
X152838383Y-123115477D01*
X152826779Y-123120457D01*
X152815737Y-123126586D01*
X152815723Y-123126593D01*
X152505230Y-123298930D01*
X152505218Y-123298937D01*
X152494171Y-123305069D01*
X152483805Y-123312283D01*
X152483792Y-123312292D01*
X152192317Y-123515165D01*
X152192309Y-123515170D01*
X152181946Y-123522384D01*
X152172362Y-123530611D01*
X152172355Y-123530617D01*
X151902904Y-123761933D01*
X151902893Y-123761942D01*
X151893309Y-123770171D01*
X151884606Y-123779326D01*
X151884596Y-123779336D01*
X151639938Y-124036716D01*
X151639931Y-124036723D01*
X151631220Y-124045888D01*
X151623487Y-124055877D01*
X151623470Y-124055898D01*
X151599096Y-124087388D01*
X151500977Y-124183322D01*
X151380436Y-124248902D01*
X151246590Y-124279168D01*
X151109561Y-124271831D01*
X150979712Y-124227447D01*
X150866863Y-124149372D01*
X150779547Y-124043510D01*
X150724368Y-123917868D01*
X150705500Y-123781946D01*
X150705500Y-123392986D01*
X150722503Y-123263835D01*
X150772353Y-123143486D01*
X150851654Y-123040140D01*
X155687654Y-118204140D01*
X155791000Y-118124839D01*
X155911349Y-118074989D01*
X156040500Y-118057986D01*
X156169651Y-118074989D01*
G37*
%TD.AperFunction*%
%TA.AperFunction,NonConductor*%
G36*
X151380436Y-128735098D02*
G01*
X151500977Y-128800678D01*
X151599096Y-128896612D01*
X151623470Y-128928101D01*
X151623479Y-128928112D01*
X151631220Y-128938112D01*
X151893309Y-129213829D01*
X152181946Y-129461616D01*
X152494171Y-129678931D01*
X152826779Y-129863543D01*
X153176358Y-130013559D01*
X153539320Y-130127439D01*
X153911940Y-130204015D01*
X154290396Y-130242500D01*
X154658153Y-130242500D01*
X154670804Y-130242500D01*
X155049260Y-130204015D01*
X155421880Y-130127439D01*
X155784842Y-130013559D01*
X156134421Y-129863543D01*
X156257740Y-129795095D01*
X156382517Y-129746399D01*
X156515762Y-129732648D01*
X156647863Y-129754838D01*
X156769302Y-129811368D01*
X156871328Y-129898166D01*
X156946587Y-130008975D01*
X156965950Y-130047860D01*
X156983469Y-130083044D01*
X156993259Y-130103900D01*
X157028323Y-130183311D01*
X157028331Y-130183328D01*
X157032985Y-130193867D01*
X157038594Y-130203938D01*
X157038598Y-130203945D01*
X157080847Y-130279797D01*
X157091595Y-130300188D01*
X157135424Y-130388208D01*
X157141492Y-130398009D01*
X157141497Y-130398017D01*
X157187187Y-130471808D01*
X157198865Y-130491680D01*
X157246729Y-130577612D01*
X157253234Y-130587108D01*
X157253242Y-130587121D01*
X157302313Y-130658756D01*
X157314895Y-130678065D01*
X157360598Y-130751877D01*
X157360603Y-130751885D01*
X157366664Y-130761673D01*
X157373599Y-130770857D01*
X157373609Y-130770871D01*
X157425927Y-130840152D01*
X157439386Y-130858857D01*
X157494970Y-130939999D01*
X157502339Y-130948873D01*
X157557790Y-131015650D01*
X157572099Y-131033714D01*
X157631375Y-131112209D01*
X157639137Y-131120724D01*
X157639150Y-131120739D01*
X157697628Y-131184886D01*
X157712759Y-131202274D01*
X157768216Y-131269057D01*
X157768223Y-131269064D01*
X157775588Y-131277934D01*
X157783739Y-131286085D01*
X160325308Y-133827654D01*
X160404609Y-133931000D01*
X160454459Y-134051349D01*
X160471462Y-134180500D01*
X160454459Y-134309651D01*
X160404609Y-134430000D01*
X160325308Y-134533346D01*
X160221962Y-134612647D01*
X160101613Y-134662497D01*
X159972462Y-134679500D01*
X155689986Y-134679500D01*
X155560835Y-134662497D01*
X155440486Y-134612647D01*
X155337140Y-134533346D01*
X150851654Y-130047860D01*
X150772353Y-129944514D01*
X150722503Y-129824165D01*
X150705500Y-129695014D01*
X150705500Y-129202054D01*
X150724368Y-129066132D01*
X150779547Y-128940490D01*
X150866863Y-128834628D01*
X150979712Y-128756553D01*
X151109561Y-128712169D01*
X151246590Y-128704832D01*
X151380436Y-128735098D01*
G37*
%TD.AperFunction*%
%TA.AperFunction,NonConductor*%
G36*
X121042156Y-136962830D02*
G01*
X121162811Y-137018594D01*
X121163969Y-137019330D01*
X121174449Y-137026781D01*
X121510949Y-137217227D01*
X121522869Y-137222436D01*
X121522875Y-137222439D01*
X121522961Y-137222491D01*
X121534227Y-137228123D01*
X121533739Y-137229098D01*
X121639818Y-137294118D01*
X121732828Y-137394929D01*
X121794877Y-137517255D01*
X121821276Y-137651853D01*
X121810031Y-137788555D01*
X121761992Y-137917030D01*
X121680788Y-138027572D01*
X121572554Y-138111829D01*
X121423978Y-138197609D01*
X121423960Y-138197620D01*
X121411404Y-138204870D01*
X121399775Y-138213527D01*
X121399762Y-138213536D01*
X121192982Y-138367479D01*
X121072470Y-138433594D01*
X120938491Y-138464320D01*
X120801211Y-138457326D01*
X120671049Y-138413142D01*
X120557880Y-138335120D01*
X120470293Y-138229182D01*
X120414932Y-138103366D01*
X120396000Y-137967219D01*
X120396000Y-137439638D01*
X120413703Y-137307903D01*
X120465555Y-137185516D01*
X120547878Y-137081159D01*
X120654830Y-137002237D01*
X120778823Y-136954351D01*
X120911059Y-136940896D01*
X121042156Y-136962830D01*
G37*
%TD.AperFunction*%
%TA.AperFunction,NonConductor*%
G36*
X174890151Y-136032916D02*
G01*
X175010500Y-136082766D01*
X175113846Y-136162067D01*
X175193147Y-136265413D01*
X175242997Y-136385762D01*
X175260000Y-136514913D01*
X175260000Y-137967219D01*
X175241068Y-138103366D01*
X175185707Y-138229182D01*
X175098120Y-138335120D01*
X174984951Y-138413142D01*
X174854789Y-138457326D01*
X174717509Y-138464320D01*
X174583530Y-138433594D01*
X174463018Y-138367479D01*
X174256237Y-138213536D01*
X174256232Y-138213532D01*
X174244596Y-138204870D01*
X174232030Y-138197615D01*
X174232027Y-138197613D01*
X173954473Y-138037367D01*
X173954463Y-138037362D01*
X173941904Y-138030111D01*
X173928581Y-138024364D01*
X173928577Y-138024362D01*
X173634295Y-137897421D01*
X173634288Y-137897418D01*
X173620971Y-137891674D01*
X173607069Y-137887512D01*
X173607058Y-137887508D01*
X173430382Y-137834614D01*
X173312180Y-137781682D01*
X173211581Y-137700114D01*
X173135362Y-137595404D01*
X173088657Y-137474606D01*
X173074613Y-137345857D01*
X173094176Y-137217830D01*
X173146027Y-137099150D01*
X173226674Y-136997811D01*
X173330680Y-136920642D01*
X173542348Y-136802745D01*
X173653414Y-136740882D01*
X173653420Y-136740878D01*
X173663487Y-136735271D01*
X174025874Y-136487030D01*
X174363809Y-136206412D01*
X174408154Y-136162066D01*
X174511500Y-136082766D01*
X174631849Y-136032916D01*
X174761000Y-136015913D01*
X174890151Y-136032916D01*
G37*
%TD.AperFunction*%
%TA.AperFunction,NonConductor*%
G36*
X170596470Y-137461653D02*
G01*
X170722882Y-137517642D01*
X170829079Y-137606168D01*
X170906908Y-137720437D01*
X170950396Y-137851675D01*
X170956203Y-137989809D01*
X170923884Y-138124234D01*
X170855920Y-138244632D01*
X170757529Y-138341760D01*
X170672693Y-138404917D01*
X170672683Y-138404924D01*
X170661047Y-138413588D01*
X170650489Y-138423548D01*
X170650483Y-138423554D01*
X170417378Y-138643477D01*
X170417367Y-138643487D01*
X170406817Y-138653442D01*
X170397489Y-138664557D01*
X170397482Y-138664566D01*
X170239387Y-138852977D01*
X170142103Y-138941850D01*
X170024949Y-139002160D01*
X169896093Y-139029703D01*
X169764520Y-139022557D01*
X169639405Y-138981221D01*
X169529471Y-138908577D01*
X169442385Y-138809691D01*
X169384218Y-138691458D01*
X169359027Y-138562122D01*
X169368568Y-138430701D01*
X169388430Y-138335120D01*
X169422148Y-138172862D01*
X169440303Y-137907447D01*
X169464270Y-137785141D01*
X169517797Y-137672589D01*
X169597546Y-137576813D01*
X169698542Y-137503786D01*
X169814484Y-137458064D01*
X169938140Y-137442500D01*
X170459547Y-137442500D01*
X170596470Y-137461653D01*
G37*
%TD.AperFunction*%
%TA.AperFunction,NonConductor*%
G36*
X147285651Y-134355989D02*
G01*
X147406000Y-134405839D01*
X147509346Y-134485140D01*
X151458060Y-138433854D01*
X151526258Y-138518889D01*
X151574364Y-138616703D01*
X151600084Y-138722630D01*
X151647716Y-139090539D01*
X151647718Y-139090554D01*
X151649367Y-139103285D01*
X151738177Y-139479602D01*
X151742400Y-139491744D01*
X151742403Y-139491752D01*
X151754160Y-139525549D01*
X151770356Y-139572111D01*
X151770511Y-139572555D01*
X151797236Y-139705312D01*
X151787282Y-139840366D01*
X151741383Y-139967770D01*
X151662918Y-140078142D01*
X151557666Y-140163352D01*
X151433380Y-140217125D01*
X151299212Y-140235500D01*
X151045773Y-140235500D01*
X150916622Y-140218497D01*
X150796273Y-140168647D01*
X150692927Y-140089346D01*
X146803654Y-136200073D01*
X146724353Y-136096727D01*
X146674503Y-135976378D01*
X146657500Y-135847227D01*
X146657500Y-134837986D01*
X146674503Y-134708835D01*
X146724353Y-134588486D01*
X146803654Y-134485140D01*
X146907000Y-134405839D01*
X147027349Y-134355989D01*
X147156500Y-134338986D01*
X147285651Y-134355989D01*
G37*
%TD.AperFunction*%
%TA.AperFunction,NonConductor*%
G36*
X142782935Y-128589630D02*
G01*
X142904333Y-128638931D01*
X143008712Y-128718134D01*
X143088876Y-128821777D01*
X143139297Y-128942714D01*
X143156500Y-129072607D01*
X143156500Y-136736935D01*
X143156151Y-136755595D01*
X143154387Y-136802745D01*
X143152819Y-136844636D01*
X143154908Y-136863182D01*
X143154909Y-136863191D01*
X143162794Y-136933171D01*
X143164535Y-136951740D01*
X143169801Y-137022010D01*
X143169804Y-137022030D01*
X143171198Y-137040630D01*
X143175349Y-137058821D01*
X143177462Y-137072833D01*
X143180104Y-137086801D01*
X143182195Y-137105350D01*
X143187023Y-137123371D01*
X143187025Y-137123378D01*
X143205259Y-137191428D01*
X143209749Y-137209534D01*
X143225425Y-137278215D01*
X143225427Y-137278222D01*
X143229580Y-137296416D01*
X143236396Y-137313784D01*
X143240579Y-137327344D01*
X143245269Y-137340749D01*
X143250100Y-137358775D01*
X143257564Y-137375883D01*
X143257568Y-137375894D01*
X143285735Y-137440454D01*
X143292873Y-137457686D01*
X143318611Y-137523265D01*
X143318614Y-137523271D01*
X143325432Y-137540643D01*
X143334765Y-137556808D01*
X143340924Y-137569597D01*
X143347553Y-137582140D01*
X143355017Y-137599247D01*
X143402417Y-137674684D01*
X143412044Y-137690661D01*
X143447274Y-137751681D01*
X143447279Y-137751688D01*
X143456614Y-137767857D01*
X143468257Y-137782457D01*
X143476271Y-137794211D01*
X143484673Y-137805595D01*
X143494602Y-137821397D01*
X143506776Y-137835543D01*
X143506781Y-137835550D01*
X143552738Y-137888953D01*
X143564643Y-137903321D01*
X143575576Y-137917030D01*
X143620195Y-137972981D01*
X143633879Y-137985677D01*
X143633881Y-137985680D01*
X143685512Y-138033586D01*
X143698953Y-138046534D01*
X148188073Y-142535654D01*
X148267374Y-142639000D01*
X148317224Y-142759349D01*
X148334227Y-142888500D01*
X148317224Y-143017651D01*
X148267374Y-143138000D01*
X148188073Y-143241346D01*
X148084727Y-143320647D01*
X147964378Y-143370497D01*
X147835227Y-143387500D01*
X125808328Y-143387500D01*
X125668693Y-143367565D01*
X125540215Y-143309352D01*
X125433159Y-143217513D01*
X125356080Y-143099386D01*
X125315135Y-142964408D01*
X125313597Y-142823366D01*
X125351588Y-142687528D01*
X125426073Y-142567748D01*
X125473849Y-142510811D01*
X125665913Y-142218793D01*
X125822777Y-141906451D01*
X125826711Y-141895642D01*
X125897077Y-141779561D01*
X125997305Y-141686120D01*
X126119169Y-141623465D01*
X126253482Y-141596320D01*
X126390114Y-141606732D01*
X126518759Y-141653915D01*
X126589230Y-141691437D01*
X126633058Y-141714773D01*
X126644317Y-141720955D01*
X126747870Y-141779561D01*
X126764949Y-141789227D01*
X126791614Y-141800880D01*
X126826301Y-141817664D01*
X126840640Y-141825299D01*
X126840647Y-141825302D01*
X126851998Y-141831346D01*
X126980430Y-141883577D01*
X126992218Y-141888549D01*
X127119247Y-141944065D01*
X127146983Y-141952919D01*
X127183189Y-141966038D01*
X127210166Y-141977009D01*
X127326505Y-142010873D01*
X127343246Y-142015746D01*
X127355538Y-142019496D01*
X127487588Y-142061652D01*
X127507170Y-142065743D01*
X127516074Y-142067605D01*
X127553475Y-142076941D01*
X127581413Y-142085074D01*
X127594056Y-142087378D01*
X127594065Y-142087380D01*
X127674930Y-142102115D01*
X127717837Y-142109934D01*
X127730336Y-142112378D01*
X127866067Y-142140743D01*
X127895002Y-142143733D01*
X127933159Y-142149173D01*
X127961803Y-142154394D01*
X128100028Y-142165093D01*
X128112770Y-142166244D01*
X128250673Y-142180500D01*
X128279777Y-142180500D01*
X128318287Y-142181988D01*
X128320386Y-142182150D01*
X128347304Y-142184234D01*
X128485865Y-142180664D01*
X128498714Y-142180500D01*
X136234176Y-142180500D01*
X136240589Y-142180500D01*
X136530142Y-142165574D01*
X136912191Y-142106072D01*
X137286097Y-142007602D01*
X137647896Y-141871209D01*
X137993754Y-141698338D01*
X138320004Y-141490822D01*
X138623187Y-141250860D01*
X138900091Y-140980997D01*
X139147779Y-140684092D01*
X139363627Y-140363294D01*
X139545346Y-140022002D01*
X139691009Y-139663834D01*
X139799074Y-139292587D01*
X139868394Y-138912197D01*
X139898234Y-138526696D01*
X139888278Y-138140169D01*
X139838633Y-137756715D01*
X139749823Y-137380398D01*
X139622790Y-137015206D01*
X139458882Y-136665012D01*
X139452262Y-136653987D01*
X139266449Y-136344541D01*
X139266445Y-136344535D01*
X139259835Y-136333527D01*
X139027759Y-136024266D01*
X138765115Y-135740505D01*
X138557313Y-135557874D01*
X138484336Y-135493736D01*
X138484334Y-135493734D01*
X138474686Y-135485255D01*
X138464214Y-135477810D01*
X138464210Y-135477807D01*
X138170028Y-135268667D01*
X138170023Y-135268664D01*
X138159551Y-135261219D01*
X138148364Y-135254887D01*
X138148360Y-135254885D01*
X137981514Y-135160457D01*
X137823051Y-135070773D01*
X137811291Y-135065633D01*
X137811280Y-135065628D01*
X137480520Y-134921077D01*
X137480511Y-134921073D01*
X137468753Y-134915935D01*
X137456531Y-134912033D01*
X137456517Y-134912028D01*
X137112661Y-134802258D01*
X137112655Y-134802256D01*
X137100412Y-134798348D01*
X137087837Y-134795720D01*
X137087825Y-134795717D01*
X136734519Y-134721887D01*
X136734517Y-134721886D01*
X136721933Y-134719257D01*
X136709156Y-134717936D01*
X136709142Y-134717934D01*
X136350108Y-134680821D01*
X136350104Y-134680820D01*
X136337327Y-134679500D01*
X136324479Y-134679500D01*
X132543040Y-134679500D01*
X132413476Y-134662386D01*
X132292798Y-134612218D01*
X132189286Y-134532436D01*
X132110039Y-134428514D01*
X132060493Y-134307580D01*
X132027026Y-134180500D01*
X132021602Y-134159903D01*
X132017064Y-134147867D01*
X132013637Y-134137130D01*
X132010033Y-134126324D01*
X132006600Y-134113936D01*
X132001908Y-134101961D01*
X132001906Y-134101953D01*
X131946061Y-133959406D01*
X131943804Y-133953537D01*
X131885209Y-133798104D01*
X131879458Y-133786599D01*
X131874944Y-133776270D01*
X131870258Y-133765913D01*
X131865561Y-133753922D01*
X131789438Y-133606407D01*
X131786527Y-133600675D01*
X131769112Y-133565834D01*
X131712338Y-133452246D01*
X131705443Y-133441406D01*
X131699888Y-133431590D01*
X131694148Y-133421747D01*
X131688251Y-133410319D01*
X131597412Y-133271486D01*
X131593933Y-133266093D01*
X131511727Y-133136852D01*
X131504822Y-133125996D01*
X131496833Y-133115903D01*
X131490278Y-133106682D01*
X131483592Y-133097529D01*
X131476552Y-133086769D01*
X131468444Y-133076792D01*
X131468440Y-133076786D01*
X131371892Y-132957978D01*
X131367925Y-132953033D01*
X131264860Y-132822813D01*
X131255896Y-132813615D01*
X131248372Y-132805054D01*
X131240810Y-132796670D01*
X131232707Y-132786699D01*
X131115336Y-132669328D01*
X131110822Y-132664756D01*
X131003971Y-132555117D01*
X131003969Y-132555115D01*
X130994997Y-132545909D01*
X130985126Y-132537674D01*
X130975693Y-132528943D01*
X130975977Y-132528635D01*
X130960498Y-132514490D01*
X130540354Y-132094346D01*
X130461053Y-131991000D01*
X130411203Y-131870651D01*
X130394200Y-131741500D01*
X130411203Y-131612349D01*
X130461053Y-131492000D01*
X130540354Y-131388654D01*
X130643700Y-131309353D01*
X130764049Y-131259503D01*
X130893200Y-131242500D01*
X138189996Y-131242500D01*
X138195751Y-131242500D01*
X138524789Y-131227288D01*
X138959834Y-131166601D01*
X139387425Y-131066033D01*
X139803911Y-130926441D01*
X140205742Y-130749015D01*
X140589487Y-130535271D01*
X140951874Y-130287030D01*
X141289809Y-130006412D01*
X141600412Y-129695809D01*
X141881030Y-129357874D01*
X142129271Y-128995487D01*
X142221563Y-128829790D01*
X142299797Y-128724686D01*
X142402694Y-128643567D01*
X142523160Y-128592030D01*
X142652889Y-128573628D01*
X142782935Y-128589630D01*
G37*
%TD.AperFunction*%
%TA.AperFunction,NonConductor*%
G36*
X169407901Y-139128938D02*
G01*
X169532703Y-139183654D01*
X169638049Y-139270092D01*
X169716083Y-139381806D01*
X169760986Y-139510465D01*
X169769409Y-139646474D01*
X169740723Y-139779690D01*
X169718644Y-139840351D01*
X169718640Y-139840363D01*
X169713681Y-139853989D01*
X169710336Y-139868099D01*
X169710336Y-139868102D01*
X169636424Y-140179959D01*
X169636420Y-140179977D01*
X169633077Y-140194086D01*
X169631391Y-140208503D01*
X169631391Y-140208508D01*
X169594185Y-140526818D01*
X169594184Y-140526832D01*
X169592500Y-140541241D01*
X169592500Y-140890759D01*
X169594184Y-140905168D01*
X169594185Y-140905181D01*
X169630435Y-141215311D01*
X169633077Y-141237914D01*
X169636421Y-141252025D01*
X169636424Y-141252040D01*
X169686499Y-141463322D01*
X169713681Y-141578011D01*
X169718640Y-141591637D01*
X169718642Y-141591642D01*
X169794797Y-141800875D01*
X169833223Y-141906451D01*
X169854075Y-141947971D01*
X169983569Y-142205816D01*
X169983574Y-142205825D01*
X169990087Y-142218793D01*
X170182151Y-142510811D01*
X170191482Y-142521931D01*
X170229927Y-142567748D01*
X170304412Y-142687528D01*
X170342403Y-142823366D01*
X170340865Y-142964408D01*
X170299920Y-143099386D01*
X170222841Y-143217513D01*
X170115785Y-143309352D01*
X169987307Y-143367565D01*
X169847672Y-143387500D01*
X169048990Y-143387500D01*
X168913296Y-143368696D01*
X168787829Y-143313701D01*
X168682045Y-143226661D01*
X168603917Y-143114134D01*
X168559332Y-142984602D01*
X168551650Y-142847827D01*
X168581452Y-142714118D01*
X168658077Y-142508678D01*
X168714343Y-142250026D01*
X168733227Y-141986000D01*
X168714343Y-141721974D01*
X168658077Y-141463322D01*
X168565574Y-141215311D01*
X168438716Y-140982989D01*
X168280087Y-140771085D01*
X168092915Y-140583913D01*
X168093491Y-140583336D01*
X168020786Y-140502205D01*
X167962991Y-140390772D01*
X167934834Y-140268442D01*
X167938097Y-140142955D01*
X167972574Y-140022253D01*
X168036082Y-139913975D01*
X168124604Y-139824972D01*
X168232537Y-139760877D01*
X168315931Y-139724654D01*
X168315929Y-139724654D01*
X168331568Y-139717862D01*
X168571246Y-139572111D01*
X168788845Y-139395081D01*
X168907129Y-139268429D01*
X169012866Y-139182472D01*
X169137915Y-139128324D01*
X169272950Y-139110024D01*
X169407901Y-139128938D01*
G37*
%TD.AperFunction*%
M02*
