M48
; DRILL file {KiCad (7.0.0)} date Mon Apr  3 22:11:33 2023
; FORMAT={-:-/ absolute / inch / decimal}
; #@! TF.CreationDate,2023-04-03T22:11:33-05:00
; #@! TF.GenerationSoftware,Kicad,Pcbnew,(7.0.0)
; #@! TF.FileFunction,Plated,1,2,PTH
FMAT,2
INCH
; #@! TA.AperFunction,Plated,PTH,ComponentDrill
T1C0.0295
; #@! TA.AperFunction,Plated,PTH,ComponentDrill
T2C0.0303
; #@! TA.AperFunction,Plated,PTH,ViaDrill
T3C0.0315
; #@! TA.AperFunction,Plated,PTH,ComponentDrill
T4C0.0315
; #@! TA.AperFunction,Plated,PTH,ComponentDrill
T5C0.0335
; #@! TA.AperFunction,Plated,PTH,ComponentDrill
T6C0.0354
; #@! TA.AperFunction,Plated,PTH,ComponentDrill
T7C0.0394
; #@! TA.AperFunction,Plated,PTH,ComponentDrill
T8C0.0433
; #@! TA.AperFunction,Plated,PTH,ComponentDrill
T9C0.0492
; #@! TA.AperFunction,Plated,PTH,ComponentDrill
T10C0.0669
; #@! TA.AperFunction,Plated,PTH,ComponentDrill
T11C0.0787
%
G90
G05
T1
X4.885Y-3.61
X4.885Y-3.81
X4.885Y-4.01
X4.885Y-4.21
X5.245Y-3.61
X5.245Y-3.81
X5.245Y-4.01
X5.245Y-4.21
X5.505Y-3.61
X5.505Y-3.81
X5.505Y-4.01
X5.505Y-4.21
X5.865Y-3.61
X5.865Y-3.81
X5.865Y-4.01
X5.865Y-4.21
X6.115Y-3.61
X6.115Y-3.81
X6.115Y-4.01
X6.115Y-4.21
T2
X4.9171Y-4.4438
X5.4171Y-4.4438
X5.5171Y-4.4438
X5.6171Y-4.4438
X5.7171Y-4.4438
X5.8171Y-4.4438
T3
X5.065Y-2.29
X5.47Y-2.29
X5.665Y-4.25
X5.67Y-2.35
X5.87Y-2.29
X5.97Y-2.29
X6.215Y-2.4912
X6.27Y-2.35
X6.37Y-2.29
X6.83Y-3.62
T4
X4.795Y-3.43
X5.065Y-3.655
X5.065Y-3.855
X5.065Y-3.945
X5.065Y-4.145
X5.095Y-3.43
X5.185Y-3.43
X5.485Y-3.43
X5.685Y-3.655
X5.685Y-3.855
X5.685Y-3.945
X5.685Y-4.145
X6.295Y-3.8043
X6.295Y-4.0043
X6.48Y-4.515
X6.48Y-4.815
T5
X6.605Y-2.6616
X6.605Y-2.8584
T6
X4.83Y-2.44
X5.14Y-5.56
X5.535Y-5.56
X6.04Y-5.56
X6.5Y-5.56
X6.81Y-2.44
T7
X4.79Y-2.66
X4.79Y-3.26
X4.89Y-2.66
X4.89Y-3.26
X4.99Y-2.66
X4.99Y-3.26
X5.09Y-2.66
X5.09Y-3.26
X5.17Y-2.185
X5.19Y-2.66
X5.19Y-3.26
X5.27Y-2.185
X5.29Y-2.66
X5.29Y-3.26
X5.37Y-2.185
X5.39Y-2.66
X5.39Y-3.26
X5.47Y-2.185
X5.49Y-2.66
X5.49Y-3.26
X5.57Y-2.185
X5.59Y-2.66
X5.59Y-3.26
X5.67Y-2.185
X5.69Y-2.66
X5.69Y-3.26
X5.77Y-2.185
X5.79Y-2.66
X5.79Y-3.26
X5.87Y-2.185
X5.89Y-2.66
X5.89Y-3.26
X5.97Y-2.185
X5.99Y-2.66
X5.99Y-3.26
X6.07Y-2.185
X6.09Y-2.66
X6.09Y-3.26
X6.17Y-2.185
X6.27Y-2.185
X6.37Y-2.185
X6.47Y-2.185
T8
X5.675Y-4.64
X5.675Y-4.94
X5.6771Y-5.05
X5.6771Y-5.35
X5.805Y-4.64
X5.805Y-4.94
X5.8071Y-5.05
X5.8071Y-5.35
T9
X6.73Y-3.8488
X6.73Y-4.9512
T11
X4.9278Y-4.69
X5.2309Y-4.69
X5.9869Y-4.69
X6.29Y-4.69
T10
G00X4.8761Y-5.1296
M15
G01X4.8761Y-5.2004
M16
G05
G00X5.4271Y-5.1296
M15
G01X5.4271Y-5.2004
M16
G05
G00X6.069Y-5.1296
M15
G01X6.069Y-5.2004
M16
G05
G00X6.62Y-5.1296
M15
G01X6.62Y-5.2004
M16
G05
T0
M30
