%TF.GenerationSoftware,KiCad,Pcbnew,(7.0.0)*%
%TF.CreationDate,2023-03-22T18:36:37-05:00*%
%TF.ProjectId,Bluetooth Multimeter,426c7565-746f-46f7-9468-204d756c7469,rev?*%
%TF.SameCoordinates,Original*%
%TF.FileFunction,Soldermask,Top*%
%TF.FilePolarity,Negative*%
%FSLAX46Y46*%
G04 Gerber Fmt 4.6, Leading zero omitted, Abs format (unit mm)*
G04 Created by KiCad (PCBNEW (7.0.0)) date 2023-03-22 18:36:37*
%MOMM*%
%LPD*%
G01*
G04 APERTURE LIST*
%ADD10O,1.600000X1.600000*%
%ADD11R,1.600000X1.600000*%
%ADD12C,4.000000*%
%ADD13R,2.000000X2.000000*%
%ADD14C,2.000000*%
%ADD15C,3.000000*%
%ADD16R,1.700000X1.700000*%
%ADD17R,2.200000X2.200000*%
%ADD18O,2.200000X2.200000*%
%ADD19C,1.600000*%
%ADD20C,1.700000*%
%ADD21C,5.000000*%
%ADD22O,1.700000X1.700000*%
%ADD23R,1.750000X1.750000*%
%ADD24C,1.750000*%
%ADD25C,1.500000*%
G04 APERTURE END LIST*
D10*
%TO.C,D9*%
X158986999Y-104774999D03*
D11*
X164066999Y-104774999D03*
%TD*%
%TO.C,D8*%
X143763999Y-102090999D03*
D10*
X143763999Y-97010999D03*
%TD*%
D11*
%TO.C,D7*%
X143763999Y-109583999D03*
D10*
X143763999Y-104503999D03*
%TD*%
%TO.C,D6*%
X128269999Y-97137999D03*
D11*
X128269999Y-102217999D03*
%TD*%
%TO.C,D5*%
X128269999Y-109583999D03*
D10*
X128269999Y-104503999D03*
%TD*%
D12*
%TO.C,F1*%
X163044000Y-138430000D03*
X155344000Y-138430000D03*
X136144000Y-138430000D03*
X128444000Y-138430000D03*
%TD*%
D13*
%TO.C,K3*%
X139191999Y-110489999D03*
D14*
X139192000Y-105410000D03*
X139192000Y-100330000D03*
X139192000Y-95250000D03*
%TD*%
D15*
%TO.C,H4*%
X172593000Y-140716000D03*
%TD*%
D16*
%TO.C,J4*%
X123189999Y-121157999D03*
%TD*%
D17*
%TO.C,D2*%
X163321999Y-107441999D03*
D18*
X163321999Y-115061999D03*
%TD*%
D16*
%TO.C,J7*%
X172973999Y-61975999D03*
%TD*%
D13*
%TO.C,K5*%
X154685999Y-110489999D03*
D14*
X154686000Y-105410000D03*
X154686000Y-100330000D03*
X154686000Y-95250000D03*
%TD*%
D17*
%TO.C,D1*%
X160019999Y-115061999D03*
D18*
X160019999Y-107441999D03*
%TD*%
D16*
%TO.C,J3*%
X123189999Y-133857999D03*
%TD*%
D15*
%TO.C,H3*%
X123063000Y-140716000D03*
%TD*%
D19*
%TO.C,R1*%
X167386000Y-135353000D03*
D10*
X167385999Y-137892999D03*
%TD*%
D15*
%TO.C,R2*%
X170180000Y-116616000D03*
X170180000Y-88616000D03*
%TD*%
%TO.C,H1*%
X123063000Y-56134000D03*
%TD*%
D20*
%TO.C,F2*%
X168476000Y-127508000D03*
D21*
X168476000Y-126492000D03*
D20*
X168476000Y-125476000D03*
X154480600Y-127508000D03*
D21*
X154480600Y-126492000D03*
D20*
X154480600Y-125476000D03*
X138176000Y-127508000D03*
D21*
X138176000Y-126492000D03*
D20*
X138176000Y-125476000D03*
X124180600Y-127508000D03*
D21*
X124180600Y-126492000D03*
D20*
X124180600Y-125476000D03*
%TD*%
D16*
%TO.C,J1*%
X173227999Y-122681999D03*
%TD*%
%TO.C,J2*%
X172719999Y-133857999D03*
%TD*%
%TO.C,J6*%
X122681999Y-61975999D03*
%TD*%
D13*
%TO.C,K1*%
X123697999Y-110489999D03*
D14*
X123698000Y-105410000D03*
X123698000Y-100330000D03*
X123698000Y-95250000D03*
%TD*%
D16*
%TO.C,J5*%
X131820999Y-87121999D03*
D22*
X134360999Y-87121999D03*
%TD*%
D16*
%TO.C,DS1*%
X131317999Y-55625999D03*
D22*
X133857999Y-55625999D03*
X136397999Y-55625999D03*
X138937999Y-55625999D03*
X141477999Y-55625999D03*
X144017999Y-55625999D03*
X146557999Y-55625999D03*
X149097999Y-55625999D03*
X151637999Y-55625999D03*
X154177999Y-55625999D03*
X156717999Y-55625999D03*
X159257999Y-55625999D03*
X161797999Y-55625999D03*
X164337999Y-55625999D03*
%TD*%
D23*
%TO.C,RN1*%
X122935999Y-116585999D03*
D24*
X135636000Y-116586000D03*
X138176000Y-116586000D03*
X140716000Y-116586000D03*
X143256000Y-116586000D03*
X145796000Y-116586000D03*
%TD*%
D17*
%TO.C,D4*%
X163067999Y-101345999D03*
D18*
X163067999Y-93725999D03*
%TD*%
D25*
%TO.C,LS1*%
X167132000Y-75692000D03*
X167132000Y-70692000D03*
%TD*%
D15*
%TO.C,H2*%
X172593000Y-56134000D03*
%TD*%
D16*
%TO.C,U1*%
X121665999Y-82803999D03*
D20*
X124206000Y-82804000D03*
X126746000Y-82804000D03*
X129286000Y-82804000D03*
X131826000Y-82804000D03*
X134366000Y-82804000D03*
X136906000Y-82804000D03*
X139446000Y-82804000D03*
X141986000Y-82804000D03*
X144526000Y-82804000D03*
X147066000Y-82804000D03*
X149606000Y-82804000D03*
X152146000Y-82804000D03*
X154686000Y-82804000D03*
X154686000Y-67564000D03*
X152146000Y-67564000D03*
X149606000Y-67564000D03*
X147066000Y-67564000D03*
X144526000Y-67564000D03*
X141986000Y-67564000D03*
X139446000Y-67564000D03*
X136906000Y-67564000D03*
X134366000Y-67564000D03*
X131826000Y-67564000D03*
X129286000Y-67564000D03*
X126746000Y-67564000D03*
X124206000Y-67564000D03*
X121666000Y-67564000D03*
%TD*%
D13*
%TO.C,K2*%
X132841999Y-110489999D03*
D14*
X132842000Y-105410000D03*
X132842000Y-100330000D03*
X132842000Y-95250000D03*
%TD*%
D13*
%TO.C,K4*%
X148335999Y-110489999D03*
D14*
X148336000Y-105410000D03*
X148336000Y-100330000D03*
X148336000Y-95250000D03*
%TD*%
D17*
%TO.C,D3*%
X159765999Y-93725999D03*
D18*
X159765999Y-101345999D03*
%TD*%
M02*
