M48
; DRILL file {KiCad 7.0.1} date Tue Mar 21 13:08:07 2023
; FORMAT={-:-/ absolute / inch / decimal}
; #@! TF.CreationDate,2023-03-21T13:08:07-05:00
; #@! TF.GenerationSoftware,Kicad,Pcbnew,7.0.1
; #@! TF.FileFunction,MixedPlating,1,2
FMAT,2
INCH
; #@! TA.AperFunction,Plated,PTH,ViaDrill
T1C0.0295
; #@! TA.AperFunction,Plated,PTH,ComponentDrill
T2C0.0295
; #@! TA.AperFunction,Plated,PTH,ComponentDrill
T3C0.0303
; #@! TA.AperFunction,Plated,PTH,ComponentDrill
T4C0.0315
; #@! TA.AperFunction,Plated,PTH,ComponentDrill
T5C0.0335
; #@! TA.AperFunction,Plated,PTH,ComponentDrill
T6C0.0354
; #@! TA.AperFunction,Plated,PTH,ComponentDrill
T7C0.0433
; #@! TA.AperFunction,Plated,PTH,ComponentDrill
T8C0.0492
; #@! TA.AperFunction,Plated,PTH,ComponentDrill
T9C0.0669
; #@! TA.AperFunction,Plated,PTH,ComponentDrill
T10C0.0800
; #@! TA.AperFunction,NonPlated,NPTH,ComponentDrill
T11C0.1181
%
G90
G05
T1
X5.06Y-2.33
X5.16Y-2.38
X5.1898Y-3.59
X5.2898Y-3.5298
X5.3895Y-3.5654
X5.47Y-2.42
X5.49Y-3.6
X5.54Y-3.48
X5.65Y-2.42
X5.69Y-3.43
X5.77Y-2.33
X5.93Y-3.53
X5.935Y-4.505
X6.17Y-2.33
X6.37Y-2.3816
X6.47Y-2.33
X6.6Y-5.62
X6.86Y-5.05
T2
X4.87Y-3.75
X4.87Y-3.95
X4.87Y-4.15
X4.87Y-4.35
X5.23Y-3.75
X5.23Y-3.95
X5.23Y-4.15
X5.23Y-4.35
X5.48Y-3.75
X5.48Y-3.95
X5.48Y-4.15
X5.48Y-4.35
X5.84Y-3.75
X5.84Y-3.95
X5.84Y-4.15
X5.84Y-4.35
X6.09Y-3.75
X6.09Y-3.95
X6.09Y-4.15
X6.09Y-4.35
T3
X4.84Y-4.59
X5.34Y-4.59
X5.44Y-4.59
X5.54Y-4.59
X5.64Y-4.59
X5.74Y-4.59
T4
X4.78Y-4.78
X4.78Y-5.19
X4.83Y-2.44
X5.05Y-3.72
X5.05Y-4.02
X5.05Y-4.11
X5.05Y-4.41
X5.66Y-3.72
X5.66Y-4.02
X5.66Y-4.11
X5.66Y-4.41
X6.29Y-3.81
X6.29Y-4.11
X6.59Y-5.3289
X6.59Y-5.4289
X6.81Y-2.44
X6.85Y-5.2
X6.86Y-4.78
T5
X6.58Y-2.7831
X6.58Y-2.98
T6
X4.79Y-2.65
X4.79Y-3.25
X4.89Y-2.65
X4.89Y-3.25
X4.99Y-2.65
X4.99Y-3.25
X5.09Y-2.65
X5.09Y-3.25
X5.17Y-2.22
X5.1898Y-3.43
X5.19Y-2.65
X5.19Y-3.25
X5.27Y-2.22
X5.2898Y-3.43
X5.29Y-2.65
X5.29Y-3.25
X5.37Y-2.22
X5.39Y-2.65
X5.39Y-3.25
X5.47Y-2.22
X5.49Y-2.65
X5.49Y-3.25
X5.57Y-2.22
X5.59Y-2.65
X5.59Y-3.25
X5.67Y-2.22
X5.69Y-2.65
X5.69Y-3.25
X5.77Y-2.22
X5.79Y-2.65
X5.79Y-3.25
X5.87Y-2.22
X5.89Y-2.65
X5.89Y-3.25
X5.97Y-2.22
X5.99Y-2.65
X5.99Y-3.25
X6.07Y-2.22
X6.09Y-2.65
X6.09Y-3.25
X6.17Y-2.22
X6.27Y-2.22
X6.37Y-2.22
X6.47Y-2.22
T7
X6.29Y-4.21
X6.29Y-4.61
X6.31Y-3.3
X6.31Y-3.7
X6.42Y-4.21
X6.42Y-4.61
X6.44Y-3.3
X6.44Y-3.7
T8
X6.7Y-3.4888
X6.7Y-4.5912
T10
X5.08Y-5.49
X5.38Y-5.49
X6.12Y-5.49
X6.42Y-5.49
T11
X4.86Y-2.23
X4.86Y-5.52
X6.78Y-2.23
X6.78Y-5.52
T9
G00X4.948Y-4.9446
M15
G01X4.948Y-5.0154
M16
G05
G00X5.499Y-4.9446
M15
G01X5.499Y-5.0154
M16
G05
G00X6.139Y-4.9446
M15
G01X6.139Y-5.0154
M16
G05
G00X6.69Y-4.9446
M15
G01X6.69Y-5.0154
M16
G05
T0
M30
