%TF.GenerationSoftware,KiCad,Pcbnew,7.0.1*%
%TF.CreationDate,2023-03-23T10:58:47-05:00*%
%TF.ProjectId,Bluetooth Multimeter,426c7565-746f-46f7-9468-204d756c7469,rev?*%
%TF.SameCoordinates,Original*%
%TF.FileFunction,Copper,L1,Top*%
%TF.FilePolarity,Positive*%
%FSLAX46Y46*%
G04 Gerber Fmt 4.6, Leading zero omitted, Abs format (unit mm)*
G04 Created by KiCad (PCBNEW 7.0.1) date 2023-03-23 10:58:47*
%MOMM*%
%LPD*%
G01*
G04 APERTURE LIST*
%TA.AperFunction,ComponentPad*%
%ADD10R,2.000000X2.000000*%
%TD*%
%TA.AperFunction,ComponentPad*%
%ADD11C,2.000000*%
%TD*%
%TA.AperFunction,ComponentPad*%
%ADD12R,1.700000X1.700000*%
%TD*%
%TA.AperFunction,ComponentPad*%
%ADD13R,2.200000X2.200000*%
%TD*%
%TA.AperFunction,ComponentPad*%
%ADD14O,2.200000X2.200000*%
%TD*%
%TA.AperFunction,ComponentPad*%
%ADD15R,1.600000X1.600000*%
%TD*%
%TA.AperFunction,ComponentPad*%
%ADD16O,1.600000X1.600000*%
%TD*%
%TA.AperFunction,ComponentPad*%
%ADD17C,1.600000*%
%TD*%
%TA.AperFunction,ComponentPad*%
%ADD18C,3.000000*%
%TD*%
%TA.AperFunction,ComponentPad*%
%ADD19C,1.700000*%
%TD*%
%TA.AperFunction,ComponentPad*%
%ADD20C,5.000000*%
%TD*%
%TA.AperFunction,ComponentPad*%
%ADD21O,1.700000X1.700000*%
%TD*%
%TA.AperFunction,ComponentPad*%
%ADD22R,1.750000X1.750000*%
%TD*%
%TA.AperFunction,ComponentPad*%
%ADD23C,1.750000*%
%TD*%
%TA.AperFunction,ComponentPad*%
%ADD24C,1.500000*%
%TD*%
%TA.AperFunction,ComponentPad*%
%ADD25C,4.000000*%
%TD*%
%TA.AperFunction,ViaPad*%
%ADD26C,1.200000*%
%TD*%
%TA.AperFunction,Conductor*%
%ADD27C,0.400000*%
%TD*%
%TA.AperFunction,Conductor*%
%ADD28C,1.000000*%
%TD*%
%TA.AperFunction,Conductor*%
%ADD29C,5.000000*%
%TD*%
%TA.AperFunction,Conductor*%
%ADD30C,7.000000*%
%TD*%
G04 APERTURE END LIST*
D10*
%TO.P,K3,1,COM*%
%TO.N,Net-(K3-COM)*%
X139192000Y-110490000D03*
D11*
%TO.P,K3,3,K*%
%TO.N,/High Range Control*%
X139192000Y-105410000D03*
%TO.P,K3,5,A*%
%TO.N,GND*%
X139192000Y-100330000D03*
%TO.P,K3,7,NO*%
%TO.N,/V{slash}Ohm ADC In*%
X139192000Y-95250000D03*
%TD*%
D12*
%TO.P,J4,1,Pin_1*%
%TO.N,/A In*%
X123190000Y-121158000D03*
%TD*%
D13*
%TO.P,D2,1,K*%
%TO.N,/mA ADC In*%
X163322000Y-107442000D03*
D14*
%TO.P,D2,2,A*%
%TO.N,/Input Common*%
X163322000Y-115062000D03*
%TD*%
D15*
%TO.P,D8,1,K*%
%TO.N,/UH Range Control*%
X143764000Y-102091000D03*
D16*
%TO.P,D8,2,A*%
%TO.N,GND*%
X143764000Y-97011000D03*
%TD*%
D12*
%TO.P,J7,1,Pin_1*%
%TO.N,GND*%
X172974000Y-61976000D03*
%TD*%
D10*
%TO.P,K5,1,COM*%
%TO.N,/Ohm Vout*%
X154686000Y-110490000D03*
D11*
%TO.P,K5,3,K*%
%TO.N,/V{slash}Ohm Control*%
X154686000Y-105410000D03*
%TO.P,K5,5,A*%
%TO.N,GND*%
X154686000Y-100330000D03*
%TO.P,K5,7,NO*%
%TO.N,/Input Common*%
X154686000Y-95250000D03*
%TD*%
D13*
%TO.P,D1,1,K*%
%TO.N,/Input Common*%
X160020000Y-115062000D03*
D14*
%TO.P,D1,2,A*%
%TO.N,/mA ADC In*%
X160020000Y-107442000D03*
%TD*%
D12*
%TO.P,J3,1,Pin_1*%
%TO.N,/mA In*%
X123190000Y-133858000D03*
%TD*%
D15*
%TO.P,D9,1,K*%
%TO.N,/V{slash}Ohm Control*%
X164067000Y-104775000D03*
D16*
%TO.P,D9,2,A*%
%TO.N,GND*%
X158987000Y-104775000D03*
%TD*%
D17*
%TO.P,R1,1*%
%TO.N,/Input Common*%
X167386000Y-135353000D03*
D16*
%TO.P,R1,2*%
%TO.N,/mA ADC In*%
X167386000Y-137893000D03*
%TD*%
D18*
%TO.P,R2,1*%
%TO.N,/A ADC In*%
X170180000Y-116616000D03*
%TO.P,R2,2*%
%TO.N,/Input Common*%
X170180000Y-88616000D03*
%TD*%
D15*
%TO.P,D6,1,K*%
%TO.N,/Med Range Control*%
X128270000Y-102218000D03*
D16*
%TO.P,D6,2,A*%
%TO.N,GND*%
X128270000Y-97138000D03*
%TD*%
D19*
%TO.P,F2,1*%
%TO.N,/A In*%
X124180600Y-125476000D03*
D20*
X124180600Y-126492000D03*
D19*
X124180600Y-127508000D03*
%TO.P,F2,2*%
X138176000Y-125476000D03*
D20*
X138176000Y-126492000D03*
D19*
X138176000Y-127508000D03*
%TO.P,F2,3*%
%TO.N,/A ADC In*%
X154480600Y-125476000D03*
D20*
X154480600Y-126492000D03*
D19*
X154480600Y-127508000D03*
%TO.P,F2,4*%
X168476000Y-125476000D03*
D20*
X168476000Y-126492000D03*
D19*
X168476000Y-127508000D03*
%TD*%
D12*
%TO.P,J1,1,Pin_1*%
%TO.N,/V{slash}Ohm In*%
X173228000Y-122682000D03*
%TD*%
D15*
%TO.P,D5,1,K*%
%TO.N,/Low Range Control*%
X128270000Y-109584000D03*
D16*
%TO.P,D5,2,A*%
%TO.N,GND*%
X128270000Y-104504000D03*
%TD*%
D12*
%TO.P,J2,1,Pin_1*%
%TO.N,/Input Common*%
X172720000Y-133858000D03*
%TD*%
%TO.P,J6,1,Pin_1*%
%TO.N,+3.3V*%
X122682000Y-61976000D03*
%TD*%
D10*
%TO.P,K1,1,COM*%
%TO.N,/V{slash}Ohm In*%
X123698000Y-110490000D03*
D11*
%TO.P,K1,3,K*%
%TO.N,/Low Range Control*%
X123698000Y-105410000D03*
%TO.P,K1,5,A*%
%TO.N,GND*%
X123698000Y-100330000D03*
%TO.P,K1,7,NO*%
%TO.N,/V{slash}Ohm ADC In*%
X123698000Y-95250000D03*
%TD*%
D12*
%TO.P,J5,1,Pin_1*%
%TO.N,/V{slash}Ohm ADC In*%
X131821000Y-87122000D03*
D21*
%TO.P,J5,2,Pin_2*%
%TO.N,/Input Common*%
X134361000Y-87122000D03*
%TD*%
D12*
%TO.P,DS1,1,T_IRQ*%
%TO.N,/TOUCH IRQ*%
X131318000Y-55626000D03*
D21*
%TO.P,DS1,2,T_DO(MISO)*%
%TO.N,/MISO*%
X133858000Y-55626000D03*
%TO.P,DS1,3,T_DIN(MOSI)*%
%TO.N,/MOSI*%
X136398000Y-55626000D03*
%TO.P,DS1,4,T_CS*%
%TO.N,/TOUCH CS*%
X138938000Y-55626000D03*
%TO.P,DS1,5,T_CLK(SCK)*%
%TO.N,/SCK*%
X141478000Y-55626000D03*
%TO.P,DS1,6,SDO(MISO)*%
%TO.N,/MISO*%
X144018000Y-55626000D03*
%TO.P,DS1,7,LED*%
%TO.N,+3.3V*%
X146558000Y-55626000D03*
%TO.P,DS1,8,SCK*%
%TO.N,/SCK*%
X149098000Y-55626000D03*
%TO.P,DS1,9,SDI(MOSI)*%
%TO.N,/MOSI*%
X151638000Y-55626000D03*
%TO.P,DS1,10,DC*%
%TO.N,/TFT DC*%
X154178000Y-55626000D03*
%TO.P,DS1,11,RESET*%
%TO.N,+3.3V*%
X156718000Y-55626000D03*
%TO.P,DS1,12,CS*%
%TO.N,/TFT CS*%
X159258000Y-55626000D03*
%TO.P,DS1,13,GND*%
%TO.N,GND*%
X161798000Y-55626000D03*
%TO.P,DS1,14,VCC*%
%TO.N,+3.3V*%
X164338000Y-55626000D03*
%TD*%
D22*
%TO.P,RN1,1,9M*%
%TO.N,unconnected-(RN1-9M-Pad1)*%
X122936000Y-116586000D03*
D23*
%TO.P,RN1,2,900k*%
%TO.N,/V{slash}Ohm In*%
X135636000Y-116586000D03*
%TO.P,RN1,3,90k*%
%TO.N,Net-(K2-COM)*%
X138176000Y-116586000D03*
%TO.P,RN1,4,9k*%
%TO.N,Net-(K3-COM)*%
X140716000Y-116586000D03*
%TO.P,RN1,5,1k*%
%TO.N,Net-(K4-COM)*%
X143256000Y-116586000D03*
%TO.P,RN1,6,COM*%
%TO.N,/Ohm Vout*%
X145796000Y-116586000D03*
%TD*%
D15*
%TO.P,D7,1,K*%
%TO.N,/High Range Control*%
X143764000Y-109584000D03*
D16*
%TO.P,D7,2,A*%
%TO.N,GND*%
X143764000Y-104504000D03*
%TD*%
D13*
%TO.P,D4,1,K*%
%TO.N,/A ADC In*%
X163068000Y-101346000D03*
D14*
%TO.P,D4,2,A*%
%TO.N,/Input Common*%
X163068000Y-93726000D03*
%TD*%
D24*
%TO.P,LS1,1*%
%TO.N,/Speaker Control*%
X167132000Y-75692000D03*
%TO.P,LS1,2*%
%TO.N,GND*%
X167132000Y-70692000D03*
%TD*%
D25*
%TO.P,F1,1*%
%TO.N,/mA In*%
X128444000Y-138430000D03*
%TO.P,F1,2*%
X136144000Y-138430000D03*
%TO.P,F1,3*%
%TO.N,/mA ADC In*%
X155344000Y-138430000D03*
%TO.P,F1,4*%
X163044000Y-138430000D03*
%TD*%
D12*
%TO.P,U1,1,Reset*%
%TO.N,unconnected-(U1-Reset-Pad1)*%
X121666000Y-82804000D03*
D19*
%TO.P,U1,2,3.3V*%
%TO.N,+3.3V*%
X124206000Y-82804000D03*
%TO.P,U1,3,Enable*%
%TO.N,unconnected-(U1-Enable-Pad3)*%
X126746000Y-82804000D03*
%TO.P,U1,4,VHI*%
%TO.N,unconnected-(U1-VHI-Pad4)*%
X129286000Y-82804000D03*
%TO.P,U1,5,A0/14*%
%TO.N,/V{slash}Ohm ADC In*%
X131826000Y-82804000D03*
%TO.P,U1,6,A1/15*%
%TO.N,/Input Common*%
X134366000Y-82804000D03*
%TO.P,U1,7,A2/16*%
%TO.N,/Ohm Vout*%
X136906000Y-82804000D03*
%TO.P,U1,8,A3/17*%
%TO.N,/mA ADC In*%
X139446000Y-82804000D03*
%TO.P,U1,9,A4/18*%
%TO.N,/A ADC In*%
X141986000Y-82804000D03*
%TO.P,U1,10,A5/19*%
%TO.N,/Speaker Control*%
X144526000Y-82804000D03*
%TO.P,U1,11,SCK/25*%
%TO.N,/SCK*%
X147066000Y-82804000D03*
%TO.P,U1,12,MOSI/24*%
%TO.N,/MOSI*%
X149606000Y-82804000D03*
%TO.P,U1,13,MISO/23*%
%TO.N,/MISO*%
X152146000Y-82804000D03*
%TO.P,U1,14,D2/2*%
%TO.N,/TFT CS*%
X154686000Y-82804000D03*
%TO.P,U1,15,RX/0*%
%TO.N,unconnected-(U1-RX{slash}0-Pad15)*%
X154686000Y-67564000D03*
%TO.P,U1,16,TX/1*%
%TO.N,unconnected-(U1-TX{slash}1-Pad16)*%
X152146000Y-67564000D03*
%TO.P,U1,17,SDA/21*%
%TO.N,/TFT DC*%
X149606000Y-67564000D03*
%TO.P,U1,18,SCL/22*%
%TO.N,/TOUCH CS*%
X147066000Y-67564000D03*
%TO.P,U1,19,D5/5!*%
%TO.N,unconnected-(U1-D5{slash}5!-Pad19)*%
X144526000Y-67564000D03*
%TO.P,U1,20,D7/7*%
%TO.N,/TOUCH IRQ*%
X141986000Y-67564000D03*
%TO.P,U1,21,D9/9*%
%TO.N,/V{slash}Ohm Control*%
X139446000Y-67564000D03*
%TO.P,U1,22,D10/10*%
%TO.N,/UH Range Control*%
X136906000Y-67564000D03*
%TO.P,U1,23,D11/11*%
%TO.N,/High Range Control*%
X134366000Y-67564000D03*
%TO.P,U1,24,D12/12*%
%TO.N,/Med Range Control*%
X131826000Y-67564000D03*
%TO.P,U1,25,D13/13*%
%TO.N,/Low Range Control*%
X129286000Y-67564000D03*
%TO.P,U1,26,VBUS*%
%TO.N,unconnected-(U1-VBUS-Pad26)*%
X126746000Y-67564000D03*
%TO.P,U1,27,GND*%
%TO.N,GND*%
X124206000Y-67564000D03*
%TO.P,U1,28,VBAT*%
%TO.N,unconnected-(U1-VBAT-Pad28)*%
X121666000Y-67564000D03*
%TD*%
D10*
%TO.P,K2,1,COM*%
%TO.N,Net-(K2-COM)*%
X132842000Y-110490000D03*
D11*
%TO.P,K2,3,K*%
%TO.N,/Med Range Control*%
X132842000Y-105410000D03*
%TO.P,K2,5,A*%
%TO.N,GND*%
X132842000Y-100330000D03*
%TO.P,K2,7,NO*%
%TO.N,/V{slash}Ohm ADC In*%
X132842000Y-95250000D03*
%TD*%
D10*
%TO.P,K4,1,COM*%
%TO.N,Net-(K4-COM)*%
X148336000Y-110490000D03*
D11*
%TO.P,K4,3,K*%
%TO.N,/UH Range Control*%
X148336000Y-105410000D03*
%TO.P,K4,5,A*%
%TO.N,GND*%
X148336000Y-100330000D03*
%TO.P,K4,7,NO*%
%TO.N,/V{slash}Ohm ADC In*%
X148336000Y-95250000D03*
%TD*%
D13*
%TO.P,D3,1,K*%
%TO.N,/Input Common*%
X159766000Y-93726000D03*
D14*
%TO.P,D3,2,A*%
%TO.N,/A ADC In*%
X159766000Y-101346000D03*
%TD*%
D26*
%TO.N,+3.3V*%
X156718000Y-59182000D03*
X146558000Y-59182000D03*
X164338000Y-59182000D03*
X128524000Y-59182000D03*
%TO.N,GND*%
X161798000Y-60492000D03*
X131064000Y-60452000D03*
%TO.N,/Input Common*%
X134361000Y-89657000D03*
X153416000Y-89662000D03*
%TO.N,/mA ADC In*%
X141478000Y-87884000D03*
%TO.N,/A ADC In*%
X143518254Y-86224746D03*
%TO.N,/MISO*%
X135001000Y-58039000D03*
X144018000Y-58039000D03*
%TO.N,/V{slash}Ohm In*%
X173228000Y-127000000D03*
X166878000Y-141986000D03*
%TO.N,/V{slash}Ohm ADC In*%
X128778000Y-93472000D03*
X143891000Y-93472000D03*
%TO.N,/Ohm Vout*%
X150749000Y-114427000D03*
X136906000Y-91142299D03*
%TD*%
D27*
%TO.N,+3.3V*%
X156718000Y-59182000D02*
X146558000Y-59182000D01*
X146558000Y-59182000D02*
X128524000Y-59182000D01*
X164338000Y-59182000D02*
X156718000Y-59182000D01*
D28*
%TO.N,GND*%
X127381000Y-85344000D02*
X128016000Y-84709000D01*
X128270000Y-97028000D02*
X127381000Y-96139000D01*
X147574000Y-80137000D02*
X128905000Y-80137000D01*
X161798000Y-60492000D02*
X161798000Y-65913000D01*
D27*
X128016000Y-84709000D02*
X128016000Y-81026000D01*
D28*
X131064000Y-60452000D02*
X131104000Y-60492000D01*
X127381000Y-96139000D02*
X127381000Y-85344000D01*
X143764000Y-97028000D02*
X128270000Y-97028000D01*
X131104000Y-60492000D02*
X161798000Y-60492000D01*
X161798000Y-65913000D02*
X147574000Y-80137000D01*
X128905000Y-80137000D02*
X128016000Y-81026000D01*
%TO.N,/Input Common*%
X134361000Y-89657000D02*
X152151000Y-89657000D01*
X152151000Y-89657000D02*
X153411000Y-89657000D01*
X153411000Y-89657000D02*
X153416000Y-89662000D01*
%TO.N,/mA ADC In*%
X141478000Y-87884000D02*
X155321000Y-87884000D01*
D29*
X155344000Y-138430000D02*
X163044000Y-138430000D01*
D28*
X156972000Y-105949634D02*
X158464366Y-107442000D01*
X158464366Y-107442000D02*
X160020000Y-107442000D01*
X155321000Y-87884000D02*
X156972000Y-89535000D01*
X156972000Y-89535000D02*
X156972000Y-105949634D01*
D30*
%TO.N,/A ADC In*%
X170180000Y-99060000D02*
X170180000Y-116616000D01*
D28*
X163195000Y-86233000D02*
X143526508Y-86233000D01*
D30*
X165862000Y-99060000D02*
X161417000Y-99060000D01*
D28*
X165862000Y-99060000D02*
X165862000Y-88900000D01*
D30*
X165862000Y-99060000D02*
X170180000Y-99060000D01*
X170180000Y-116616000D02*
X160304000Y-126492000D01*
X154480600Y-126492000D02*
X168476000Y-126492000D01*
X160304000Y-126492000D02*
X154480600Y-126492000D01*
D28*
X143526508Y-86233000D02*
X143518254Y-86224746D01*
X165862000Y-88900000D02*
X163195000Y-86233000D01*
D27*
%TO.N,/MISO*%
X144018000Y-58039000D02*
X135001000Y-58039000D01*
D29*
%TO.N,/mA In*%
X136144000Y-138430000D02*
X128444000Y-138430000D01*
D30*
%TO.N,/A In*%
X138176000Y-126492000D02*
X124180600Y-126492000D01*
D28*
%TO.N,/V{slash}Ohm In*%
X173228000Y-129032000D02*
X169418000Y-132842000D01*
X169418000Y-132842000D02*
X169418000Y-138938000D01*
X166878000Y-141478000D02*
X166878000Y-141986000D01*
X169418000Y-138938000D02*
X166878000Y-141478000D01*
X173228000Y-127000000D02*
X173228000Y-129032000D01*
%TO.N,/V{slash}Ohm ADC In*%
X143891000Y-93472000D02*
X128778000Y-93472000D01*
%TO.N,/Ohm Vout*%
X145796000Y-112522000D02*
X147701000Y-114427000D01*
X137330701Y-91567000D02*
X136906000Y-91142299D01*
X145796000Y-91948000D02*
X145796000Y-112522000D01*
X147701000Y-114427000D02*
X150749000Y-114427000D01*
X145415000Y-91567000D02*
X145796000Y-91948000D01*
X145415000Y-91567000D02*
X137330701Y-91567000D01*
%TD*%
%TA.AperFunction,NonConductor*%
G36*
X121072469Y-58416406D02*
G01*
X121192981Y-58482521D01*
X121357959Y-58605341D01*
X121411404Y-58645130D01*
X121714096Y-58819889D01*
X121942818Y-58918550D01*
X122056145Y-58986486D01*
X122147671Y-59081790D01*
X122210975Y-59197776D01*
X122241616Y-59326310D01*
X122237446Y-59458380D01*
X122198758Y-59584726D01*
X122128264Y-59696487D01*
X122030908Y-59785827D01*
X121913516Y-59846482D01*
X121784319Y-59874199D01*
X121635591Y-59885903D01*
X121559201Y-59905152D01*
X121417317Y-59940904D01*
X121417315Y-59940904D01*
X121417314Y-59940905D01*
X121212374Y-60033992D01*
X121179173Y-60056995D01*
X121058488Y-60118274D01*
X120925774Y-60144866D01*
X120790796Y-60134815D01*
X120663485Y-60088859D01*
X120553207Y-60010380D01*
X120468077Y-59905152D01*
X120414357Y-59780917D01*
X120396000Y-59646816D01*
X120396000Y-58882781D01*
X120414932Y-58746634D01*
X120470293Y-58620818D01*
X120557880Y-58514880D01*
X120671049Y-58436859D01*
X120801211Y-58392674D01*
X120938490Y-58385680D01*
X121072469Y-58416406D01*
G37*
%TD.AperFunction*%
%TA.AperFunction,NonConductor*%
G36*
X174854789Y-58392674D02*
G01*
X174984951Y-58436859D01*
X175098120Y-58514880D01*
X175185707Y-58620818D01*
X175241068Y-58746634D01*
X175260000Y-58882781D01*
X175260000Y-59646816D01*
X175241643Y-59780917D01*
X175187923Y-59905152D01*
X175102793Y-60010380D01*
X174992515Y-60088859D01*
X174865204Y-60134815D01*
X174730226Y-60144866D01*
X174597512Y-60118274D01*
X174476827Y-60056995D01*
X174443625Y-60033992D01*
X174341154Y-59987448D01*
X174238683Y-59940904D01*
X174020412Y-59885904D01*
X173986868Y-59883264D01*
X173871677Y-59874198D01*
X173742481Y-59846480D01*
X173625090Y-59785824D01*
X173527735Y-59696483D01*
X173457242Y-59584722D01*
X173418555Y-59458377D01*
X173414386Y-59326307D01*
X173445027Y-59197773D01*
X173508331Y-59081788D01*
X173599857Y-58986485D01*
X173713176Y-58918552D01*
X173941904Y-58819889D01*
X174244596Y-58645130D01*
X174363397Y-58556685D01*
X174463019Y-58482521D01*
X174583531Y-58416406D01*
X174717510Y-58385680D01*
X174854789Y-58392674D01*
G37*
%TD.AperFunction*%
%TA.AperFunction,NonConductor*%
G36*
X129089316Y-53406857D02*
G01*
X129213551Y-53460577D01*
X129318779Y-53545707D01*
X129397258Y-53655985D01*
X129443213Y-53783296D01*
X129453265Y-53918274D01*
X129426673Y-54050988D01*
X129394045Y-54115245D01*
X129394567Y-54115482D01*
X129375993Y-54156373D01*
X129375993Y-54156374D01*
X129282904Y-54361317D01*
X129227904Y-54579588D01*
X129223842Y-54631208D01*
X129217500Y-54711787D01*
X129217500Y-56540217D01*
X129227903Y-56672414D01*
X129240194Y-56721189D01*
X129255187Y-56854602D01*
X129234069Y-56987184D01*
X129178369Y-57109337D01*
X129092119Y-57212220D01*
X128981563Y-57288385D01*
X128854702Y-57332319D01*
X128720720Y-57340843D01*
X128523994Y-57326772D01*
X128259973Y-57345656D01*
X128001321Y-57401922D01*
X127753311Y-57494425D01*
X127520988Y-57621283D01*
X127309084Y-57779912D01*
X127121912Y-57967084D01*
X126963283Y-58178988D01*
X126836425Y-58411311D01*
X126743922Y-58659321D01*
X126687656Y-58917973D01*
X126668772Y-59182000D01*
X126687656Y-59446026D01*
X126743922Y-59704678D01*
X126836425Y-59952688D01*
X126963283Y-60185011D01*
X127121912Y-60396915D01*
X127309084Y-60584087D01*
X127520988Y-60742716D01*
X127753311Y-60869574D01*
X128001321Y-60962077D01*
X128259973Y-61018343D01*
X128524000Y-61037227D01*
X128788026Y-61018343D01*
X128849214Y-61005032D01*
X128976648Y-60994087D01*
X129102685Y-61015898D01*
X129219036Y-61069033D01*
X129318056Y-61150002D01*
X129393240Y-61253483D01*
X129503283Y-61455011D01*
X129661912Y-61666915D01*
X129849084Y-61854087D01*
X130060988Y-62012716D01*
X130293311Y-62139574D01*
X130541321Y-62232077D01*
X130799973Y-62288343D01*
X131064000Y-62307227D01*
X131328026Y-62288343D01*
X131328026Y-62288342D01*
X131486341Y-62253904D01*
X131592410Y-62242500D01*
X159548500Y-62242500D01*
X159677651Y-62259503D01*
X159798000Y-62309353D01*
X159901346Y-62388654D01*
X159980647Y-62492000D01*
X160030497Y-62612349D01*
X160047500Y-62741500D01*
X160047500Y-64981227D01*
X160030497Y-65110378D01*
X159980647Y-65230727D01*
X159901346Y-65334073D01*
X157623557Y-67611861D01*
X157523482Y-67689256D01*
X157407160Y-67738997D01*
X157282067Y-67757886D01*
X157156244Y-67744709D01*
X157037779Y-67700313D01*
X156934286Y-67627551D01*
X156852417Y-67531102D01*
X156797435Y-67417163D01*
X156772875Y-67293066D01*
X156771798Y-67277314D01*
X156713334Y-66995968D01*
X156617104Y-66725203D01*
X156484901Y-66470064D01*
X156319189Y-66235302D01*
X156319188Y-66235301D01*
X156319186Y-66235298D01*
X156123054Y-66025293D01*
X156123053Y-66025292D01*
X155900147Y-65843945D01*
X155696729Y-65720243D01*
X155654629Y-65694641D01*
X155654626Y-65694639D01*
X155654625Y-65694639D01*
X155391058Y-65580156D01*
X155391056Y-65580155D01*
X155391055Y-65580155D01*
X155114355Y-65502627D01*
X154829681Y-65463500D01*
X154829678Y-65463500D01*
X154542322Y-65463500D01*
X154542319Y-65463500D01*
X154257644Y-65502627D01*
X153980944Y-65580155D01*
X153717372Y-65694640D01*
X153675273Y-65720242D01*
X153550629Y-65774383D01*
X153416000Y-65792887D01*
X153281371Y-65774383D01*
X153156727Y-65720242D01*
X153114627Y-65694640D01*
X153114625Y-65694639D01*
X152851058Y-65580156D01*
X152851056Y-65580155D01*
X152851055Y-65580155D01*
X152574355Y-65502627D01*
X152289681Y-65463500D01*
X152289678Y-65463500D01*
X152002322Y-65463500D01*
X152002319Y-65463500D01*
X151717644Y-65502627D01*
X151440944Y-65580155D01*
X151177372Y-65694640D01*
X151135273Y-65720242D01*
X151010629Y-65774383D01*
X150876000Y-65792887D01*
X150741371Y-65774383D01*
X150616727Y-65720242D01*
X150574627Y-65694640D01*
X150574625Y-65694639D01*
X150311058Y-65580156D01*
X150311056Y-65580155D01*
X150311055Y-65580155D01*
X150034355Y-65502627D01*
X149749681Y-65463500D01*
X149749678Y-65463500D01*
X149462322Y-65463500D01*
X149462319Y-65463500D01*
X149177644Y-65502627D01*
X148900944Y-65580155D01*
X148637372Y-65694640D01*
X148595273Y-65720242D01*
X148470629Y-65774383D01*
X148336000Y-65792887D01*
X148201371Y-65774383D01*
X148076727Y-65720242D01*
X148034627Y-65694640D01*
X148034625Y-65694639D01*
X147771058Y-65580156D01*
X147771056Y-65580155D01*
X147771055Y-65580155D01*
X147494355Y-65502627D01*
X147209681Y-65463500D01*
X147209678Y-65463500D01*
X146922322Y-65463500D01*
X146922319Y-65463500D01*
X146637644Y-65502627D01*
X146360944Y-65580155D01*
X146097372Y-65694640D01*
X146055273Y-65720242D01*
X145930629Y-65774383D01*
X145796000Y-65792887D01*
X145661371Y-65774383D01*
X145536727Y-65720242D01*
X145494627Y-65694640D01*
X145494625Y-65694639D01*
X145231058Y-65580156D01*
X145231056Y-65580155D01*
X145231055Y-65580155D01*
X144954355Y-65502627D01*
X144669681Y-65463500D01*
X144669678Y-65463500D01*
X144382322Y-65463500D01*
X144382319Y-65463500D01*
X144097644Y-65502627D01*
X143820944Y-65580155D01*
X143557372Y-65694640D01*
X143515273Y-65720242D01*
X143390629Y-65774383D01*
X143256000Y-65792887D01*
X143121371Y-65774383D01*
X142996727Y-65720242D01*
X142954627Y-65694640D01*
X142954625Y-65694639D01*
X142691058Y-65580156D01*
X142691056Y-65580155D01*
X142691055Y-65580155D01*
X142414355Y-65502627D01*
X142129681Y-65463500D01*
X142129678Y-65463500D01*
X141842322Y-65463500D01*
X141842319Y-65463500D01*
X141557644Y-65502627D01*
X141280944Y-65580155D01*
X141017372Y-65694640D01*
X140975273Y-65720242D01*
X140850629Y-65774383D01*
X140716000Y-65792887D01*
X140581371Y-65774383D01*
X140456727Y-65720242D01*
X140414627Y-65694640D01*
X140414625Y-65694639D01*
X140151058Y-65580156D01*
X140151056Y-65580155D01*
X140151055Y-65580155D01*
X139874355Y-65502627D01*
X139589681Y-65463500D01*
X139589678Y-65463500D01*
X139302322Y-65463500D01*
X139302319Y-65463500D01*
X139017644Y-65502627D01*
X138740944Y-65580155D01*
X138477372Y-65694640D01*
X138435273Y-65720242D01*
X138310629Y-65774383D01*
X138176000Y-65792887D01*
X138041371Y-65774383D01*
X137916727Y-65720242D01*
X137874627Y-65694640D01*
X137874625Y-65694639D01*
X137611058Y-65580156D01*
X137611056Y-65580155D01*
X137611055Y-65580155D01*
X137334355Y-65502627D01*
X137049681Y-65463500D01*
X137049678Y-65463500D01*
X136762322Y-65463500D01*
X136762319Y-65463500D01*
X136477644Y-65502627D01*
X136200944Y-65580155D01*
X135937372Y-65694640D01*
X135895273Y-65720242D01*
X135770629Y-65774383D01*
X135636000Y-65792887D01*
X135501371Y-65774383D01*
X135376727Y-65720242D01*
X135334627Y-65694640D01*
X135334625Y-65694639D01*
X135071058Y-65580156D01*
X135071056Y-65580155D01*
X135071055Y-65580155D01*
X134794355Y-65502627D01*
X134509681Y-65463500D01*
X134509678Y-65463500D01*
X134222322Y-65463500D01*
X134222319Y-65463500D01*
X133937644Y-65502627D01*
X133660944Y-65580155D01*
X133397370Y-65694641D01*
X133355270Y-65720243D01*
X133230625Y-65774383D01*
X133095996Y-65792887D01*
X132961367Y-65774382D01*
X132836725Y-65720241D01*
X132794625Y-65694639D01*
X132531058Y-65580156D01*
X132531056Y-65580155D01*
X132531055Y-65580155D01*
X132254355Y-65502627D01*
X131969681Y-65463500D01*
X131969678Y-65463500D01*
X131682322Y-65463500D01*
X131682319Y-65463500D01*
X131397644Y-65502627D01*
X131120944Y-65580155D01*
X130857370Y-65694641D01*
X130815270Y-65720243D01*
X130690625Y-65774383D01*
X130555996Y-65792887D01*
X130421367Y-65774382D01*
X130296725Y-65720241D01*
X130254625Y-65694639D01*
X129991058Y-65580156D01*
X129991056Y-65580155D01*
X129991055Y-65580155D01*
X129714355Y-65502627D01*
X129429681Y-65463500D01*
X129429678Y-65463500D01*
X129142322Y-65463500D01*
X129142319Y-65463500D01*
X128857644Y-65502627D01*
X128580944Y-65580155D01*
X128317370Y-65694641D01*
X128275270Y-65720243D01*
X128150625Y-65774383D01*
X128015996Y-65792887D01*
X127881367Y-65774382D01*
X127756725Y-65720241D01*
X127714625Y-65694639D01*
X127451058Y-65580156D01*
X127451056Y-65580155D01*
X127451055Y-65580155D01*
X127174355Y-65502627D01*
X126889681Y-65463500D01*
X126889678Y-65463500D01*
X126602322Y-65463500D01*
X126602319Y-65463500D01*
X126317644Y-65502627D01*
X126040944Y-65580155D01*
X125777370Y-65694641D01*
X125735270Y-65720243D01*
X125610625Y-65774383D01*
X125475996Y-65792887D01*
X125341367Y-65774382D01*
X125216725Y-65720241D01*
X125174625Y-65694639D01*
X124911058Y-65580156D01*
X124911056Y-65580155D01*
X124911055Y-65580155D01*
X124634355Y-65502627D01*
X124349681Y-65463500D01*
X124349678Y-65463500D01*
X124062322Y-65463500D01*
X124062319Y-65463500D01*
X123777644Y-65502627D01*
X123500944Y-65580155D01*
X123237370Y-65694641D01*
X123195270Y-65720243D01*
X123070625Y-65774383D01*
X122935996Y-65792887D01*
X122801367Y-65774382D01*
X122676725Y-65720241D01*
X122634625Y-65694639D01*
X122371058Y-65580156D01*
X122371056Y-65580155D01*
X122371055Y-65580155D01*
X122094355Y-65502627D01*
X121809681Y-65463500D01*
X121809678Y-65463500D01*
X121522322Y-65463500D01*
X121522319Y-65463500D01*
X121237644Y-65502627D01*
X121029628Y-65560911D01*
X120899868Y-65579391D01*
X120769772Y-65563446D01*
X120648316Y-65514175D01*
X120543879Y-65434978D01*
X120463667Y-65331319D01*
X120413214Y-65210349D01*
X120396000Y-65080415D01*
X120396000Y-64305184D01*
X120414357Y-64171083D01*
X120468077Y-64046848D01*
X120553207Y-63941620D01*
X120663485Y-63863141D01*
X120790796Y-63817185D01*
X120925774Y-63807134D01*
X121058488Y-63833726D01*
X121179171Y-63895004D01*
X121212374Y-63918007D01*
X121417317Y-64011096D01*
X121635588Y-64066096D01*
X121767783Y-64076500D01*
X123596216Y-64076499D01*
X123596217Y-64076499D01*
X123622655Y-64074418D01*
X123728412Y-64066096D01*
X123946683Y-64011096D01*
X124151626Y-63918007D01*
X124336654Y-63789819D01*
X124495819Y-63630654D01*
X124624007Y-63445626D01*
X124717096Y-63240683D01*
X124772096Y-63022412D01*
X124782500Y-62890217D01*
X124782499Y-61061784D01*
X124772096Y-60929588D01*
X124717096Y-60711317D01*
X124624007Y-60506374D01*
X124495819Y-60321346D01*
X124495817Y-60321343D01*
X124336656Y-60162182D01*
X124184827Y-60056995D01*
X124151626Y-60033993D01*
X123946683Y-59940904D01*
X123946681Y-59940903D01*
X123912245Y-59925262D01*
X123798777Y-59853959D01*
X123708378Y-59755030D01*
X123647566Y-59635612D01*
X123620727Y-59504316D01*
X123629797Y-59370612D01*
X123674123Y-59244144D01*
X123750507Y-59134033D01*
X123853439Y-59048220D01*
X123975486Y-58992899D01*
X124090971Y-58958326D01*
X124411904Y-58819889D01*
X124714596Y-58645130D01*
X124994953Y-58436412D01*
X125021559Y-58411311D01*
X125249183Y-58196558D01*
X125263926Y-58178988D01*
X125473849Y-57928811D01*
X125665913Y-57636793D01*
X125822777Y-57324451D01*
X125942319Y-56996011D01*
X126022923Y-56655914D01*
X126063500Y-56308759D01*
X126063500Y-55959241D01*
X126022923Y-55612086D01*
X125942319Y-55271989D01*
X125822777Y-54943549D01*
X125665913Y-54631207D01*
X125473849Y-54339189D01*
X125438076Y-54296557D01*
X125363979Y-54208250D01*
X125289495Y-54088469D01*
X125251505Y-53952632D01*
X125253044Y-53811590D01*
X125293989Y-53676613D01*
X125371068Y-53558486D01*
X125478124Y-53466647D01*
X125606601Y-53408435D01*
X125746236Y-53388500D01*
X128955215Y-53388500D01*
X129089316Y-53406857D01*
G37*
%TD.AperFunction*%
%TA.AperFunction,NonConductor*%
G36*
X153550625Y-69353617D02*
G01*
X153675270Y-69407757D01*
X153717370Y-69433358D01*
X153717375Y-69433361D01*
X153980942Y-69547844D01*
X154135998Y-69591288D01*
X154257644Y-69625372D01*
X154451328Y-69651993D01*
X154584134Y-69689509D01*
X154701586Y-69761967D01*
X154794700Y-69863825D01*
X154856354Y-69987292D01*
X154881831Y-70122924D01*
X154869184Y-70260347D01*
X154819380Y-70389051D01*
X154736227Y-70499191D01*
X146995073Y-78240346D01*
X146891727Y-78319647D01*
X146771378Y-78369497D01*
X146642227Y-78386500D01*
X128947064Y-78386500D01*
X128928405Y-78386151D01*
X128920492Y-78385854D01*
X128839363Y-78382819D01*
X128839361Y-78382819D01*
X128750805Y-78392796D01*
X128732237Y-78394537D01*
X128643368Y-78401197D01*
X128638613Y-78402283D01*
X128583482Y-78411650D01*
X128578650Y-78412195D01*
X128492571Y-78435259D01*
X128474478Y-78439746D01*
X128387580Y-78459580D01*
X128383051Y-78461358D01*
X128329927Y-78478839D01*
X128325232Y-78480097D01*
X128243534Y-78515740D01*
X128226304Y-78522877D01*
X128143354Y-78555432D01*
X128139140Y-78557866D01*
X128089218Y-78583068D01*
X128084752Y-78585016D01*
X128009282Y-78632436D01*
X127993311Y-78642059D01*
X127916141Y-78686613D01*
X127912337Y-78689648D01*
X127866731Y-78722007D01*
X127862605Y-78724599D01*
X127795058Y-78782728D01*
X127780696Y-78794627D01*
X127711020Y-78850193D01*
X127650410Y-78915514D01*
X127637467Y-78928950D01*
X126731899Y-79834518D01*
X126603603Y-79983601D01*
X126464018Y-80205750D01*
X126359099Y-80446227D01*
X126349939Y-80480415D01*
X126309020Y-80584609D01*
X126245904Y-80677060D01*
X126163769Y-80753115D01*
X126066746Y-80808947D01*
X125777376Y-80934638D01*
X125735273Y-80960242D01*
X125610629Y-81014383D01*
X125476000Y-81032887D01*
X125341371Y-81014383D01*
X125216727Y-80960242D01*
X125174627Y-80934640D01*
X125174625Y-80934639D01*
X124911058Y-80820156D01*
X124911056Y-80820155D01*
X124911055Y-80820155D01*
X124634355Y-80742627D01*
X124349681Y-80703500D01*
X124349678Y-80703500D01*
X124062322Y-80703500D01*
X124062319Y-80703500D01*
X123777646Y-80742627D01*
X123598430Y-80792841D01*
X123500942Y-80820156D01*
X123500938Y-80820157D01*
X123500933Y-80820159D01*
X123470436Y-80833405D01*
X123336851Y-80870433D01*
X123198233Y-80869282D01*
X123065281Y-80830041D01*
X123043516Y-80820155D01*
X122930683Y-80768904D01*
X122712412Y-80713904D01*
X122580217Y-80703500D01*
X122580212Y-80703500D01*
X122580153Y-80703500D01*
X120894999Y-80703500D01*
X120765850Y-80686498D01*
X120645500Y-80636648D01*
X120542154Y-80557347D01*
X120462853Y-80454001D01*
X120413003Y-80333652D01*
X120396000Y-80204501D01*
X120396000Y-70047585D01*
X120413214Y-69917651D01*
X120463667Y-69796681D01*
X120543879Y-69693022D01*
X120648316Y-69613825D01*
X120769772Y-69564554D01*
X120899868Y-69548609D01*
X121029628Y-69567089D01*
X121237644Y-69625372D01*
X121522319Y-69664500D01*
X121522322Y-69664500D01*
X121809678Y-69664500D01*
X121809681Y-69664500D01*
X122094355Y-69625372D01*
X122157470Y-69607688D01*
X122371058Y-69547844D01*
X122634625Y-69433361D01*
X122676727Y-69407757D01*
X122801371Y-69353617D01*
X122936000Y-69335113D01*
X123070629Y-69353617D01*
X123195272Y-69407757D01*
X123237375Y-69433361D01*
X123500942Y-69547844D01*
X123655998Y-69591288D01*
X123777644Y-69625372D01*
X124062319Y-69664500D01*
X124062322Y-69664500D01*
X124349678Y-69664500D01*
X124349681Y-69664500D01*
X124634355Y-69625372D01*
X124697470Y-69607688D01*
X124911058Y-69547844D01*
X125174625Y-69433361D01*
X125216727Y-69407757D01*
X125341371Y-69353617D01*
X125476000Y-69335113D01*
X125610629Y-69353617D01*
X125735272Y-69407757D01*
X125777375Y-69433361D01*
X126040942Y-69547844D01*
X126195998Y-69591288D01*
X126317644Y-69625372D01*
X126602319Y-69664500D01*
X126602322Y-69664500D01*
X126889678Y-69664500D01*
X126889681Y-69664500D01*
X127174355Y-69625372D01*
X127237470Y-69607688D01*
X127451058Y-69547844D01*
X127714625Y-69433361D01*
X127756727Y-69407757D01*
X127881371Y-69353617D01*
X128016000Y-69335113D01*
X128150629Y-69353617D01*
X128275272Y-69407757D01*
X128317375Y-69433361D01*
X128580942Y-69547844D01*
X128735998Y-69591288D01*
X128857644Y-69625372D01*
X129142319Y-69664500D01*
X129142322Y-69664500D01*
X129429678Y-69664500D01*
X129429681Y-69664500D01*
X129714355Y-69625372D01*
X129777470Y-69607688D01*
X129991058Y-69547844D01*
X130254625Y-69433361D01*
X130296727Y-69407757D01*
X130421371Y-69353617D01*
X130556000Y-69335113D01*
X130690629Y-69353617D01*
X130815272Y-69407757D01*
X130857375Y-69433361D01*
X131120942Y-69547844D01*
X131275998Y-69591288D01*
X131397644Y-69625372D01*
X131682319Y-69664500D01*
X131682322Y-69664500D01*
X131969678Y-69664500D01*
X131969681Y-69664500D01*
X132254355Y-69625372D01*
X132317470Y-69607688D01*
X132531058Y-69547844D01*
X132794625Y-69433361D01*
X132836727Y-69407757D01*
X132961371Y-69353617D01*
X133096000Y-69335113D01*
X133230629Y-69353617D01*
X133355272Y-69407757D01*
X133397375Y-69433361D01*
X133660942Y-69547844D01*
X133815998Y-69591288D01*
X133937644Y-69625372D01*
X134222319Y-69664500D01*
X134222322Y-69664500D01*
X134509678Y-69664500D01*
X134509681Y-69664500D01*
X134794355Y-69625372D01*
X134857470Y-69607688D01*
X135071058Y-69547844D01*
X135334625Y-69433361D01*
X135376725Y-69407758D01*
X135501367Y-69353618D01*
X135635996Y-69335113D01*
X135770625Y-69353617D01*
X135895270Y-69407757D01*
X135937370Y-69433358D01*
X135937375Y-69433361D01*
X136200942Y-69547844D01*
X136355998Y-69591288D01*
X136477644Y-69625372D01*
X136762319Y-69664500D01*
X136762322Y-69664500D01*
X137049678Y-69664500D01*
X137049681Y-69664500D01*
X137334355Y-69625372D01*
X137397470Y-69607688D01*
X137611058Y-69547844D01*
X137874625Y-69433361D01*
X137916725Y-69407758D01*
X138041367Y-69353618D01*
X138175996Y-69335113D01*
X138310625Y-69353617D01*
X138435270Y-69407757D01*
X138477370Y-69433358D01*
X138477375Y-69433361D01*
X138740942Y-69547844D01*
X138895998Y-69591288D01*
X139017644Y-69625372D01*
X139302319Y-69664500D01*
X139302322Y-69664500D01*
X139589678Y-69664500D01*
X139589681Y-69664500D01*
X139874355Y-69625372D01*
X139937470Y-69607688D01*
X140151058Y-69547844D01*
X140414625Y-69433361D01*
X140456725Y-69407758D01*
X140581367Y-69353618D01*
X140715996Y-69335113D01*
X140850625Y-69353617D01*
X140975270Y-69407757D01*
X141017370Y-69433358D01*
X141017375Y-69433361D01*
X141280942Y-69547844D01*
X141435998Y-69591288D01*
X141557644Y-69625372D01*
X141842319Y-69664500D01*
X141842322Y-69664500D01*
X142129678Y-69664500D01*
X142129681Y-69664500D01*
X142414355Y-69625372D01*
X142477470Y-69607688D01*
X142691058Y-69547844D01*
X142954625Y-69433361D01*
X142996725Y-69407758D01*
X143121367Y-69353618D01*
X143255996Y-69335113D01*
X143390625Y-69353617D01*
X143515270Y-69407757D01*
X143557370Y-69433358D01*
X143557375Y-69433361D01*
X143820942Y-69547844D01*
X143975998Y-69591288D01*
X144097644Y-69625372D01*
X144382319Y-69664500D01*
X144382322Y-69664500D01*
X144669678Y-69664500D01*
X144669681Y-69664500D01*
X144954355Y-69625372D01*
X145017470Y-69607688D01*
X145231058Y-69547844D01*
X145494625Y-69433361D01*
X145536725Y-69407758D01*
X145661367Y-69353618D01*
X145795996Y-69335113D01*
X145930625Y-69353617D01*
X146055270Y-69407757D01*
X146097370Y-69433358D01*
X146097375Y-69433361D01*
X146360942Y-69547844D01*
X146515998Y-69591288D01*
X146637644Y-69625372D01*
X146922319Y-69664500D01*
X146922322Y-69664500D01*
X147209678Y-69664500D01*
X147209681Y-69664500D01*
X147494355Y-69625372D01*
X147557470Y-69607688D01*
X147771058Y-69547844D01*
X148034625Y-69433361D01*
X148076725Y-69407758D01*
X148201367Y-69353618D01*
X148335996Y-69335113D01*
X148470625Y-69353617D01*
X148595270Y-69407757D01*
X148637370Y-69433358D01*
X148637375Y-69433361D01*
X148900942Y-69547844D01*
X149055998Y-69591288D01*
X149177644Y-69625372D01*
X149462319Y-69664500D01*
X149462322Y-69664500D01*
X149749678Y-69664500D01*
X149749681Y-69664500D01*
X150034355Y-69625372D01*
X150097470Y-69607688D01*
X150311058Y-69547844D01*
X150574625Y-69433361D01*
X150616725Y-69407758D01*
X150741367Y-69353618D01*
X150875996Y-69335113D01*
X151010625Y-69353617D01*
X151135270Y-69407757D01*
X151177370Y-69433358D01*
X151177375Y-69433361D01*
X151440942Y-69547844D01*
X151595998Y-69591288D01*
X151717644Y-69625372D01*
X152002319Y-69664500D01*
X152002322Y-69664500D01*
X152289678Y-69664500D01*
X152289681Y-69664500D01*
X152574355Y-69625372D01*
X152637470Y-69607688D01*
X152851058Y-69547844D01*
X153114625Y-69433361D01*
X153156725Y-69407758D01*
X153281367Y-69353618D01*
X153415996Y-69335113D01*
X153550625Y-69353617D01*
G37*
%TD.AperFunction*%
%TA.AperFunction,NonConductor*%
G36*
X140850629Y-84593617D02*
G01*
X140975272Y-84647757D01*
X141017375Y-84673361D01*
X141280942Y-84787844D01*
X141481082Y-84843920D01*
X141606828Y-84898732D01*
X141712898Y-84985713D01*
X141791277Y-85098288D01*
X141836041Y-85227952D01*
X141843809Y-85364905D01*
X141813992Y-85498798D01*
X141732182Y-85718140D01*
X141664115Y-85842796D01*
X141563685Y-85943227D01*
X141439029Y-86011295D01*
X141300246Y-86041486D01*
X141213973Y-86047656D01*
X140955321Y-86103922D01*
X140707311Y-86196425D01*
X140474988Y-86323283D01*
X140263084Y-86481912D01*
X140075912Y-86669084D01*
X139917283Y-86880988D01*
X139790425Y-87113311D01*
X139697924Y-87361316D01*
X139697923Y-87361322D01*
X139664802Y-87513574D01*
X139618541Y-87640366D01*
X139539987Y-87750126D01*
X139434891Y-87834818D01*
X139310942Y-87888246D01*
X139177208Y-87906500D01*
X136947045Y-87906500D01*
X136812416Y-87887996D01*
X136687772Y-87833855D01*
X136582358Y-87748094D01*
X136503990Y-87637072D01*
X136458482Y-87509024D01*
X136449208Y-87373447D01*
X136466408Y-87122000D01*
X136446798Y-86835314D01*
X136388334Y-86553968D01*
X136292104Y-86283203D01*
X136159901Y-86028064D01*
X135994189Y-85793302D01*
X135864659Y-85654609D01*
X135789473Y-85549623D01*
X135743743Y-85428852D01*
X135730536Y-85300390D01*
X135750738Y-85172841D01*
X135802995Y-85054748D01*
X135883807Y-84954019D01*
X135987761Y-84877401D01*
X136107897Y-84830026D01*
X136236166Y-84815067D01*
X136363975Y-84833523D01*
X136477642Y-84865371D01*
X136477644Y-84865371D01*
X136477647Y-84865372D01*
X136762319Y-84904500D01*
X136762322Y-84904500D01*
X137049678Y-84904500D01*
X137049681Y-84904500D01*
X137334355Y-84865372D01*
X137410918Y-84843920D01*
X137611058Y-84787844D01*
X137874625Y-84673361D01*
X137916727Y-84647757D01*
X138041371Y-84593617D01*
X138176000Y-84575113D01*
X138310629Y-84593617D01*
X138435272Y-84647757D01*
X138477375Y-84673361D01*
X138740942Y-84787844D01*
X138857858Y-84820602D01*
X139017644Y-84865372D01*
X139302319Y-84904500D01*
X139302322Y-84904500D01*
X139589678Y-84904500D01*
X139589681Y-84904500D01*
X139874355Y-84865372D01*
X139950918Y-84843920D01*
X140151058Y-84787844D01*
X140414625Y-84673361D01*
X140456727Y-84647757D01*
X140581371Y-84593617D01*
X140716000Y-84575113D01*
X140850629Y-84593617D01*
G37*
%TD.AperFunction*%
%TA.AperFunction,NonConductor*%
G36*
X162392378Y-88000503D02*
G01*
X162512727Y-88050353D01*
X162616073Y-88129654D01*
X163965346Y-89478927D01*
X164044647Y-89582273D01*
X164094497Y-89702622D01*
X164111500Y-89831773D01*
X164111500Y-90928983D01*
X164095683Y-91053622D01*
X164049236Y-91170359D01*
X163975103Y-91271795D01*
X163877984Y-91351499D01*
X163764034Y-91404418D01*
X163640479Y-91427198D01*
X163515150Y-91418395D01*
X163488931Y-91413179D01*
X163375459Y-91390608D01*
X163068000Y-91370457D01*
X162760540Y-91390608D01*
X162509614Y-91440521D01*
X162458341Y-91450720D01*
X162458339Y-91450720D01*
X162458337Y-91450721D01*
X162166573Y-91549761D01*
X162045508Y-91609464D01*
X161920096Y-91651741D01*
X161787981Y-91659563D01*
X161658456Y-91632380D01*
X161540634Y-91572103D01*
X161485625Y-91533992D01*
X161349143Y-91472000D01*
X161280683Y-91440904D01*
X161062412Y-91385904D01*
X160930217Y-91375500D01*
X160930212Y-91375500D01*
X160930194Y-91375500D01*
X159221498Y-91375500D01*
X159092350Y-91358498D01*
X158972000Y-91308648D01*
X158868654Y-91229347D01*
X158789353Y-91126001D01*
X158739503Y-91005652D01*
X158722500Y-90876501D01*
X158722500Y-89577062D01*
X158722849Y-89558399D01*
X158726181Y-89469366D01*
X158726181Y-89469364D01*
X158716198Y-89380773D01*
X158714459Y-89362214D01*
X158707802Y-89273373D01*
X158707802Y-89273370D01*
X158706724Y-89268650D01*
X158697349Y-89213471D01*
X158697194Y-89212095D01*
X158696806Y-89208650D01*
X158673734Y-89122545D01*
X158669256Y-89104493D01*
X158649420Y-89017584D01*
X158647651Y-89013077D01*
X158630154Y-88959902D01*
X158628901Y-88955226D01*
X158593264Y-88873546D01*
X158586120Y-88856299D01*
X158553570Y-88773361D01*
X158551141Y-88769154D01*
X158525928Y-88719211D01*
X158523984Y-88714754D01*
X158523980Y-88714748D01*
X158509712Y-88682044D01*
X158472174Y-88546308D01*
X158474056Y-88405491D01*
X158515207Y-88270807D01*
X158592351Y-88152985D01*
X158699341Y-88061409D01*
X158827657Y-88003373D01*
X158967078Y-87983500D01*
X162263227Y-87983500D01*
X162392378Y-88000503D01*
G37*
%TD.AperFunction*%
%TA.AperFunction,NonConductor*%
G36*
X129759651Y-88623669D02*
G01*
X129880000Y-88673519D01*
X129983346Y-88752820D01*
X130166343Y-88935817D01*
X130166346Y-88935819D01*
X130351374Y-89064007D01*
X130556317Y-89157096D01*
X130774588Y-89212096D01*
X130906783Y-89222500D01*
X132010113Y-89222499D01*
X132133516Y-89237999D01*
X132249255Y-89283537D01*
X132350137Y-89356283D01*
X132429895Y-89451718D01*
X132483574Y-89563913D01*
X132507839Y-89685898D01*
X132524656Y-89921026D01*
X132580922Y-90179678D01*
X132673425Y-90427688D01*
X132800283Y-90660011D01*
X132979921Y-90899980D01*
X133035952Y-90973000D01*
X133085802Y-91093349D01*
X133102805Y-91222500D01*
X133085802Y-91351651D01*
X133035952Y-91472000D01*
X132956651Y-91575346D01*
X132853305Y-91654647D01*
X132732956Y-91704497D01*
X132603805Y-91721500D01*
X129630500Y-91721500D01*
X129501349Y-91704497D01*
X129381000Y-91654647D01*
X129277654Y-91575346D01*
X129198353Y-91472000D01*
X129148503Y-91351651D01*
X129131500Y-91222500D01*
X129131500Y-89105666D01*
X129148503Y-88976515D01*
X129198353Y-88856166D01*
X129277654Y-88752820D01*
X129381000Y-88673519D01*
X129501349Y-88623669D01*
X129630500Y-88606666D01*
X129759651Y-88623669D01*
G37*
%TD.AperFunction*%
%TA.AperFunction,NonConductor*%
G36*
X170049399Y-53408435D02*
G01*
X170177876Y-53466647D01*
X170284932Y-53558486D01*
X170362011Y-53676613D01*
X170402956Y-53811590D01*
X170404495Y-53952632D01*
X170366505Y-54088469D01*
X170292021Y-54208250D01*
X170182152Y-54339187D01*
X169990085Y-54631208D01*
X169833224Y-54943546D01*
X169713681Y-55271987D01*
X169633076Y-55612089D01*
X169592500Y-55959242D01*
X169592500Y-56308758D01*
X169633076Y-56655910D01*
X169703889Y-56954698D01*
X169713681Y-56996011D01*
X169824547Y-57300615D01*
X169833224Y-57324453D01*
X169990085Y-57636791D01*
X170182152Y-57928812D01*
X170406816Y-58196558D01*
X170661047Y-58436413D01*
X170908747Y-58620818D01*
X170941404Y-58645130D01*
X171244096Y-58819889D01*
X171565029Y-58958326D01*
X171680507Y-58992897D01*
X171802560Y-59048221D01*
X171905493Y-59134033D01*
X171981876Y-59244145D01*
X172026202Y-59370613D01*
X172035272Y-59504316D01*
X172008433Y-59635612D01*
X171947621Y-59755030D01*
X171857222Y-59853959D01*
X171743755Y-59925262D01*
X171709318Y-59940903D01*
X171709317Y-59940904D01*
X171556360Y-60010380D01*
X171504372Y-60033994D01*
X171319343Y-60162182D01*
X171160182Y-60321343D01*
X171031993Y-60506373D01*
X171031993Y-60506374D01*
X170938904Y-60711317D01*
X170883904Y-60929588D01*
X170876868Y-61018996D01*
X170873500Y-61061787D01*
X170873500Y-62890217D01*
X170883903Y-63022408D01*
X170883903Y-63022411D01*
X170883904Y-63022412D01*
X170938904Y-63240683D01*
X171031993Y-63445626D01*
X171114345Y-63564494D01*
X171160182Y-63630656D01*
X171319343Y-63789817D01*
X171319346Y-63789819D01*
X171504374Y-63918007D01*
X171709317Y-64011096D01*
X171927588Y-64066096D01*
X172059783Y-64076500D01*
X173888216Y-64076499D01*
X173888217Y-64076499D01*
X173914655Y-64074418D01*
X174020412Y-64066096D01*
X174238683Y-64011096D01*
X174443626Y-63918007D01*
X174476828Y-63895004D01*
X174597512Y-63833726D01*
X174730226Y-63807134D01*
X174865204Y-63817185D01*
X174992515Y-63863141D01*
X175102793Y-63941620D01*
X175187923Y-64046848D01*
X175241643Y-64171083D01*
X175260000Y-64305184D01*
X175260000Y-96496448D01*
X175242798Y-96626341D01*
X175192376Y-96747278D01*
X175112212Y-96850921D01*
X175007833Y-96930124D01*
X174886435Y-96979425D01*
X174756389Y-96995427D01*
X174626661Y-96977025D01*
X174506195Y-96925488D01*
X174403297Y-96844370D01*
X174325062Y-96739263D01*
X174260280Y-96622957D01*
X174223271Y-96556513D01*
X173975030Y-96194126D01*
X173694412Y-95856191D01*
X173383809Y-95545588D01*
X173297069Y-95473560D01*
X173045877Y-95264972D01*
X172983875Y-95222500D01*
X172683487Y-95016729D01*
X172573775Y-94955620D01*
X172299741Y-94802984D01*
X171897909Y-94625557D01*
X171481427Y-94485967D01*
X171280290Y-94438660D01*
X171053834Y-94385399D01*
X170618789Y-94324712D01*
X170289751Y-94309500D01*
X170289752Y-94309500D01*
X170180000Y-94304426D01*
X170081756Y-94308968D01*
X170058712Y-94309500D01*
X168111500Y-94309500D01*
X167982349Y-94292497D01*
X167862000Y-94242647D01*
X167758654Y-94163346D01*
X167679353Y-94060000D01*
X167629503Y-93939651D01*
X167612500Y-93810500D01*
X167612500Y-91123442D01*
X167631853Y-90985819D01*
X167688413Y-90858870D01*
X167777790Y-90752445D01*
X167893054Y-90674797D01*
X168025262Y-90631950D01*
X168164159Y-90627228D01*
X168298972Y-90660997D01*
X168419243Y-90730637D01*
X168614682Y-90883754D01*
X168899443Y-91055898D01*
X169045964Y-91121842D01*
X169202877Y-91192463D01*
X169520562Y-91291457D01*
X169847851Y-91351435D01*
X169847853Y-91351435D01*
X169847858Y-91351436D01*
X170180000Y-91371527D01*
X170512142Y-91351436D01*
X170512147Y-91351435D01*
X170512148Y-91351435D01*
X170839437Y-91291457D01*
X170839439Y-91291456D01*
X170839441Y-91291456D01*
X171157123Y-91192463D01*
X171460557Y-91055898D01*
X171745318Y-90883754D01*
X172007252Y-90678542D01*
X172242542Y-90443252D01*
X172447754Y-90181318D01*
X172619898Y-89896557D01*
X172756463Y-89593123D01*
X172855456Y-89275441D01*
X172866813Y-89213471D01*
X172915435Y-88948148D01*
X172915435Y-88948147D01*
X172915436Y-88948142D01*
X172935527Y-88616000D01*
X172915436Y-88283858D01*
X172915435Y-88283851D01*
X172855457Y-87956562D01*
X172756463Y-87638877D01*
X172727274Y-87574023D01*
X172619898Y-87335443D01*
X172447754Y-87050682D01*
X172314808Y-86880989D01*
X172242540Y-86788745D01*
X172007254Y-86553459D01*
X171745317Y-86348245D01*
X171460558Y-86176102D01*
X171157122Y-86039536D01*
X170839437Y-85940542D01*
X170512148Y-85880564D01*
X170180000Y-85860473D01*
X169847851Y-85880564D01*
X169520562Y-85940542D01*
X169202877Y-86039536D01*
X168899441Y-86176102D01*
X168614682Y-86348245D01*
X168352745Y-86553459D01*
X168117459Y-86788745D01*
X167912245Y-87050682D01*
X167740103Y-87335440D01*
X167736642Y-87343131D01*
X167663552Y-87459451D01*
X167561513Y-87551433D01*
X167438258Y-87612105D01*
X167303131Y-87636867D01*
X167166372Y-87623844D01*
X167038346Y-87574023D01*
X166928759Y-87491178D01*
X164462535Y-85024954D01*
X164449587Y-85011513D01*
X164388980Y-84946194D01*
X164319322Y-84890644D01*
X164304951Y-84878737D01*
X164274089Y-84852178D01*
X164237397Y-84820602D01*
X164233277Y-84818013D01*
X164187651Y-84785640D01*
X164183857Y-84782614D01*
X164183853Y-84782611D01*
X164183851Y-84782610D01*
X164106663Y-84738045D01*
X164090721Y-84728440D01*
X164015247Y-84681017D01*
X164015243Y-84681015D01*
X164015238Y-84681012D01*
X164010791Y-84679072D01*
X163960848Y-84653860D01*
X163956643Y-84651432D01*
X163873678Y-84618870D01*
X163856453Y-84611735D01*
X163774769Y-84576097D01*
X163770073Y-84574839D01*
X163716946Y-84557357D01*
X163712424Y-84555582D01*
X163712417Y-84555580D01*
X163712416Y-84555580D01*
X163625521Y-84535746D01*
X163607430Y-84531259D01*
X163521351Y-84508195D01*
X163516532Y-84507652D01*
X163461378Y-84498281D01*
X163456630Y-84497198D01*
X163456626Y-84497197D01*
X163456623Y-84497197D01*
X163367740Y-84490535D01*
X163349171Y-84488794D01*
X163280392Y-84481044D01*
X163260636Y-84478819D01*
X163260635Y-84478819D01*
X163171595Y-84482151D01*
X163152936Y-84482500D01*
X157002576Y-84482500D01*
X156876171Y-84466224D01*
X156758011Y-84418459D01*
X156655805Y-84342319D01*
X156576221Y-84242773D01*
X156524449Y-84126313D01*
X156503867Y-84000537D01*
X156515817Y-83873650D01*
X156559521Y-83753928D01*
X156592918Y-83689472D01*
X156617104Y-83642797D01*
X156713334Y-83372032D01*
X156771798Y-83090686D01*
X156791408Y-82804000D01*
X156771798Y-82517314D01*
X156713334Y-82235968D01*
X156617104Y-81965203D01*
X156484901Y-81710064D01*
X156319189Y-81475302D01*
X156319188Y-81475301D01*
X156319186Y-81475298D01*
X156123054Y-81265293D01*
X156123053Y-81265292D01*
X155900147Y-81083945D01*
X155777386Y-81009292D01*
X155654629Y-80934641D01*
X155654626Y-80934639D01*
X155654625Y-80934639D01*
X155391058Y-80820156D01*
X155391056Y-80820155D01*
X155391055Y-80820155D01*
X155114355Y-80742627D01*
X154829681Y-80703500D01*
X154829678Y-80703500D01*
X154542322Y-80703500D01*
X154542319Y-80703500D01*
X154257644Y-80742627D01*
X153980944Y-80820155D01*
X153717372Y-80934640D01*
X153675273Y-80960242D01*
X153550629Y-81014383D01*
X153416000Y-81032887D01*
X153281371Y-81014383D01*
X153156727Y-80960242D01*
X153114627Y-80934640D01*
X153114625Y-80934639D01*
X152851058Y-80820156D01*
X152851056Y-80820155D01*
X152851055Y-80820155D01*
X152574355Y-80742627D01*
X152289681Y-80703500D01*
X152289678Y-80703500D01*
X152002322Y-80703500D01*
X152002319Y-80703500D01*
X151717644Y-80742627D01*
X151440944Y-80820155D01*
X151177372Y-80934640D01*
X151135273Y-80960242D01*
X151010629Y-81014383D01*
X150876000Y-81032887D01*
X150741371Y-81014383D01*
X150616727Y-80960242D01*
X150574621Y-80934636D01*
X150324963Y-80826195D01*
X150206968Y-80754046D01*
X150113309Y-80652279D01*
X150051182Y-80528713D01*
X150025359Y-80392840D01*
X150037823Y-80255097D01*
X150087619Y-80126067D01*
X150170916Y-80015664D01*
X154494581Y-75691999D01*
X165126389Y-75691999D01*
X165146804Y-75977432D01*
X165207629Y-76257042D01*
X165307634Y-76525164D01*
X165444771Y-76776311D01*
X165444774Y-76776315D01*
X165616261Y-77005395D01*
X165818605Y-77207739D01*
X166047685Y-77379226D01*
X166047688Y-77379228D01*
X166298835Y-77516365D01*
X166298839Y-77516367D01*
X166566954Y-77616369D01*
X166566957Y-77616370D01*
X166846567Y-77677195D01*
X166846572Y-77677196D01*
X167132000Y-77697610D01*
X167417428Y-77677196D01*
X167557236Y-77646782D01*
X167697042Y-77616370D01*
X167697042Y-77616369D01*
X167697046Y-77616369D01*
X167965161Y-77516367D01*
X168216315Y-77379226D01*
X168445395Y-77207739D01*
X168647739Y-77005395D01*
X168819226Y-76776315D01*
X168956367Y-76525161D01*
X169056369Y-76257046D01*
X169117196Y-75977428D01*
X169137610Y-75692000D01*
X169117196Y-75406572D01*
X169056369Y-75126954D01*
X168956367Y-74858839D01*
X168819226Y-74607685D01*
X168647739Y-74378605D01*
X168445395Y-74176261D01*
X168216315Y-74004774D01*
X168216311Y-74004771D01*
X167965164Y-73867634D01*
X167697042Y-73767629D01*
X167417432Y-73706804D01*
X167218822Y-73692599D01*
X167178684Y-73689728D01*
X167131999Y-73679889D01*
X167085314Y-73689729D01*
X166846567Y-73706804D01*
X166566957Y-73767629D01*
X166298835Y-73867634D01*
X166047688Y-74004771D01*
X165818602Y-74176263D01*
X165616263Y-74378602D01*
X165444771Y-74607688D01*
X165307634Y-74858835D01*
X165207629Y-75126957D01*
X165146804Y-75406567D01*
X165126389Y-75691999D01*
X154494581Y-75691999D01*
X159494579Y-70692000D01*
X165126389Y-70692000D01*
X165146804Y-70977432D01*
X165207629Y-71257042D01*
X165307634Y-71525164D01*
X165444771Y-71776311D01*
X165444774Y-71776315D01*
X165616261Y-72005395D01*
X165818605Y-72207739D01*
X166047685Y-72379226D01*
X166047688Y-72379228D01*
X166298835Y-72516365D01*
X166298839Y-72516367D01*
X166566954Y-72616369D01*
X166566957Y-72616370D01*
X166846567Y-72677195D01*
X166846572Y-72677196D01*
X167080326Y-72693914D01*
X167085314Y-72694271D01*
X167131999Y-72704110D01*
X167178684Y-72694271D01*
X167417428Y-72677196D01*
X167557236Y-72646782D01*
X167697042Y-72616370D01*
X167697042Y-72616369D01*
X167697046Y-72616369D01*
X167965161Y-72516367D01*
X168216315Y-72379226D01*
X168445395Y-72207739D01*
X168647739Y-72005395D01*
X168819226Y-71776315D01*
X168956367Y-71525161D01*
X169056369Y-71257046D01*
X169117196Y-70977428D01*
X169137610Y-70692000D01*
X169117196Y-70406572D01*
X169056369Y-70126954D01*
X168956367Y-69858839D01*
X168865824Y-69693022D01*
X168819228Y-69607688D01*
X168788836Y-69567089D01*
X168647739Y-69378605D01*
X168445395Y-69176261D01*
X168216315Y-69004774D01*
X168216311Y-69004771D01*
X167965164Y-68867634D01*
X167697042Y-68767629D01*
X167417432Y-68706804D01*
X167131999Y-68686389D01*
X166846567Y-68706804D01*
X166566957Y-68767629D01*
X166298835Y-68867634D01*
X166047688Y-69004771D01*
X165818602Y-69176263D01*
X165616263Y-69378602D01*
X165444771Y-69607688D01*
X165307634Y-69858835D01*
X165207629Y-70126957D01*
X165146804Y-70406567D01*
X165126389Y-70692000D01*
X159494579Y-70692000D01*
X163006067Y-67180512D01*
X163019485Y-67167588D01*
X163084805Y-67106981D01*
X163140359Y-67037316D01*
X163152263Y-67022949D01*
X163210398Y-66955397D01*
X163212976Y-66951293D01*
X163245373Y-66905634D01*
X163248386Y-66901857D01*
X163292968Y-66824636D01*
X163302541Y-66808750D01*
X163349984Y-66733246D01*
X163351924Y-66728797D01*
X163377142Y-66678844D01*
X163379568Y-66674643D01*
X163412139Y-66591651D01*
X163419246Y-66574494D01*
X163454901Y-66492774D01*
X163456158Y-66488079D01*
X163473651Y-66434922D01*
X163475420Y-66430416D01*
X163495257Y-66343498D01*
X163499733Y-66325450D01*
X163522805Y-66239350D01*
X163523347Y-66234533D01*
X163532722Y-66179360D01*
X163533802Y-66174630D01*
X163540460Y-66085764D01*
X163542203Y-66067187D01*
X163543111Y-66059122D01*
X163552181Y-65978636D01*
X163548849Y-65889594D01*
X163548500Y-65870936D01*
X163548500Y-61516724D01*
X163567074Y-61381847D01*
X163621414Y-61257010D01*
X163707473Y-61151508D01*
X163818846Y-61073195D01*
X163947241Y-61027900D01*
X164083100Y-61018996D01*
X164337999Y-61037227D01*
X164337999Y-61037226D01*
X164338000Y-61037227D01*
X164602026Y-61018343D01*
X164860678Y-60962077D01*
X165108689Y-60869574D01*
X165341011Y-60742716D01*
X165552915Y-60584087D01*
X165740087Y-60396915D01*
X165898716Y-60185011D01*
X166025574Y-59952689D01*
X166118077Y-59704678D01*
X166174343Y-59446026D01*
X166193227Y-59182000D01*
X166174343Y-58917974D01*
X166137070Y-58746634D01*
X166118077Y-58659321D01*
X166025574Y-58411311D01*
X165898716Y-58178988D01*
X165740087Y-57967084D01*
X165704320Y-57931317D01*
X165620822Y-57820555D01*
X165571040Y-57691088D01*
X165558821Y-57552919D01*
X165585108Y-57416724D01*
X165647871Y-57293027D01*
X165742252Y-57191393D01*
X165775053Y-57164708D01*
X165971189Y-56954698D01*
X166136901Y-56719936D01*
X166269104Y-56464797D01*
X166365334Y-56194032D01*
X166423798Y-55912686D01*
X166443408Y-55626000D01*
X166423798Y-55339314D01*
X166365334Y-55057968D01*
X166269104Y-54787203D01*
X166136901Y-54532064D01*
X165971189Y-54297302D01*
X165906549Y-54228090D01*
X165831721Y-54123771D01*
X165785983Y-54003806D01*
X165772369Y-53876142D01*
X165791780Y-53749230D01*
X165842929Y-53631471D01*
X165922433Y-53530661D01*
X166025026Y-53453473D01*
X166143919Y-53405016D01*
X166271240Y-53388500D01*
X169909764Y-53388500D01*
X170049399Y-53408435D01*
G37*
%TD.AperFunction*%
%TA.AperFunction,NonConductor*%
G36*
X142718923Y-98797005D02*
G01*
X142785529Y-98825937D01*
X142787125Y-98822264D01*
X143075720Y-98947618D01*
X143075725Y-98947620D01*
X143345839Y-99023303D01*
X143519328Y-99047148D01*
X143650181Y-99083812D01*
X143766292Y-99154420D01*
X143859047Y-99253736D01*
X143921567Y-99374395D01*
X143949216Y-99507447D01*
X143939942Y-99643024D01*
X143894434Y-99771072D01*
X143816067Y-99882094D01*
X143710652Y-99967855D01*
X143586008Y-100021996D01*
X143451380Y-100040500D01*
X142899783Y-100040500D01*
X142767591Y-100050903D01*
X142658452Y-100078404D01*
X142549317Y-100105904D01*
X142549315Y-100105904D01*
X142549314Y-100105905D01*
X142344371Y-100198994D01*
X142192779Y-100304017D01*
X142066984Y-100367037D01*
X141928597Y-100392436D01*
X141788621Y-100378196D01*
X141658184Y-100325449D01*
X141547657Y-100238388D01*
X141465825Y-100123934D01*
X141419196Y-99991187D01*
X141397496Y-99882094D01*
X141370481Y-99746278D01*
X141275652Y-99466923D01*
X141265800Y-99437899D01*
X141240103Y-99305479D01*
X141250812Y-99171016D01*
X141297144Y-99044333D01*
X141375714Y-98934689D01*
X141480781Y-98850094D01*
X141604666Y-98796732D01*
X141738318Y-98778500D01*
X142584291Y-98778500D01*
X142718923Y-98797005D01*
G37*
%TD.AperFunction*%
%TA.AperFunction,NonConductor*%
G36*
X125622186Y-96866444D02*
G01*
X125737106Y-96917222D01*
X125835699Y-96995096D01*
X125911717Y-97095127D01*
X125930611Y-97127853D01*
X125930613Y-97127856D01*
X125930614Y-97127857D01*
X125933640Y-97131651D01*
X125966013Y-97177277D01*
X125968602Y-97181397D01*
X125987341Y-97203172D01*
X126026737Y-97248951D01*
X126038644Y-97263322D01*
X126094195Y-97332981D01*
X126128609Y-97364913D01*
X126196243Y-97442056D01*
X126246672Y-97531403D01*
X126277763Y-97629175D01*
X126290924Y-97692510D01*
X126384863Y-97956828D01*
X126513919Y-98205896D01*
X126675688Y-98435069D01*
X126867155Y-98640081D01*
X127084754Y-98817111D01*
X127324433Y-98962863D01*
X127581720Y-99074618D01*
X127581725Y-99074620D01*
X127851839Y-99150303D01*
X128025330Y-99174148D01*
X128156182Y-99210811D01*
X128270000Y-99280025D01*
X128383819Y-99210812D01*
X128514671Y-99174148D01*
X128688161Y-99150303D01*
X128958275Y-99074620D01*
X129215568Y-98962862D01*
X129225137Y-98957043D01*
X129399280Y-98851145D01*
X129523924Y-98797004D01*
X129658552Y-98778500D01*
X130295682Y-98778500D01*
X130429334Y-98796732D01*
X130553219Y-98850094D01*
X130658286Y-98934689D01*
X130736856Y-99044333D01*
X130783188Y-99171016D01*
X130793897Y-99305479D01*
X130768200Y-99437899D01*
X130663519Y-99746277D01*
X130605964Y-100035625D01*
X130605599Y-100041202D01*
X130579846Y-100169957D01*
X130521398Y-100287536D01*
X130434304Y-100385799D01*
X130324593Y-100457941D01*
X130199862Y-100498968D01*
X130068748Y-100506039D01*
X129940328Y-100478664D01*
X129823495Y-100418738D01*
X129689626Y-100325993D01*
X129484683Y-100232904D01*
X129266412Y-100177904D01*
X129134217Y-100167500D01*
X129134213Y-100167500D01*
X128582621Y-100167500D01*
X128447992Y-100148996D01*
X128323349Y-100094855D01*
X128270000Y-100051453D01*
X128216653Y-100094855D01*
X128092009Y-100148996D01*
X127957381Y-100167500D01*
X127405783Y-100167500D01*
X127273591Y-100177903D01*
X127189895Y-100198993D01*
X127055317Y-100232904D01*
X127055315Y-100232904D01*
X127055314Y-100232905D01*
X126850374Y-100325992D01*
X126716503Y-100418739D01*
X126599668Y-100478664D01*
X126471247Y-100506039D01*
X126340131Y-100498967D01*
X126215399Y-100457938D01*
X126105688Y-100385793D01*
X126018595Y-100287528D01*
X125960150Y-100169946D01*
X125934399Y-100041189D01*
X125934354Y-100040500D01*
X125934034Y-100035620D01*
X125876481Y-99746278D01*
X125781652Y-99466923D01*
X125651172Y-99202336D01*
X125641927Y-99188500D01*
X125487275Y-98957045D01*
X125422434Y-98883109D01*
X125292758Y-98735242D01*
X125292755Y-98735240D01*
X125292754Y-98735238D01*
X125070959Y-98540729D01*
X125070960Y-98540729D01*
X125070957Y-98540727D01*
X124908172Y-98431958D01*
X124825667Y-98376829D01*
X124825665Y-98376828D01*
X124561077Y-98246348D01*
X124561073Y-98246346D01*
X124543215Y-98237540D01*
X124428809Y-98159735D01*
X124340165Y-98053506D01*
X124284098Y-97927020D01*
X124264917Y-97790000D01*
X124284098Y-97652980D01*
X124340165Y-97526494D01*
X124428809Y-97420265D01*
X124543215Y-97342460D01*
X124561073Y-97333653D01*
X124561077Y-97333652D01*
X124825665Y-97203172D01*
X125070957Y-97039273D01*
X125150569Y-96969454D01*
X125254691Y-96899176D01*
X125373083Y-96857125D01*
X125498226Y-96845979D01*
X125622186Y-96866444D01*
G37*
%TD.AperFunction*%
%TA.AperFunction,NonConductor*%
G36*
X125832042Y-101707447D02*
G01*
X125957325Y-101754600D01*
X126065564Y-101833361D01*
X126148972Y-101938062D01*
X126201545Y-102061168D01*
X126219500Y-102193820D01*
X126219500Y-103082217D01*
X126229903Y-103214408D01*
X126229903Y-103214411D01*
X126229904Y-103214412D01*
X126284904Y-103432683D01*
X126284905Y-103432686D01*
X126284906Y-103432688D01*
X126307965Y-103483455D01*
X126345409Y-103605202D01*
X126350809Y-103732464D01*
X126323814Y-103856946D01*
X126321747Y-103862761D01*
X126262975Y-103978023D01*
X126176545Y-104074301D01*
X126068267Y-104145122D01*
X125945422Y-104185725D01*
X125816267Y-104193381D01*
X125689485Y-104167574D01*
X125573600Y-104110040D01*
X125476401Y-104024646D01*
X125292758Y-103815242D01*
X125292755Y-103815240D01*
X125292754Y-103815238D01*
X125119893Y-103663643D01*
X125070957Y-103620727D01*
X124865508Y-103483450D01*
X124825667Y-103456829D01*
X124776714Y-103432688D01*
X124561077Y-103326348D01*
X124561073Y-103326346D01*
X124543215Y-103317540D01*
X124428809Y-103239735D01*
X124340165Y-103133506D01*
X124284098Y-103007020D01*
X124264917Y-102870000D01*
X124284098Y-102732980D01*
X124340165Y-102606494D01*
X124428809Y-102500265D01*
X124543215Y-102422460D01*
X124561073Y-102413653D01*
X124561077Y-102413652D01*
X124825665Y-102283172D01*
X125070957Y-102119273D01*
X125292758Y-101924758D01*
X125345335Y-101864805D01*
X125446294Y-101776914D01*
X125566989Y-101719021D01*
X125698732Y-101695296D01*
X125832042Y-101707447D01*
G37*
%TD.AperFunction*%
%TA.AperFunction,NonConductor*%
G36*
X130973007Y-101719020D02*
G01*
X131093703Y-101776912D01*
X131194663Y-101864803D01*
X131247242Y-101924758D01*
X131469043Y-102119273D01*
X131714332Y-102283170D01*
X131714338Y-102283174D01*
X131996784Y-102422461D01*
X132111190Y-102500265D01*
X132199834Y-102606494D01*
X132255901Y-102732980D01*
X132275082Y-102870000D01*
X132255901Y-103007019D01*
X132199834Y-103133505D01*
X132111190Y-103239734D01*
X131996785Y-103317539D01*
X131714334Y-103456828D01*
X131469045Y-103620724D01*
X131247241Y-103815243D01*
X131063597Y-104024647D01*
X130966399Y-104110040D01*
X130850513Y-104167574D01*
X130723731Y-104193381D01*
X130594577Y-104185725D01*
X130471731Y-104145122D01*
X130363454Y-104074301D01*
X130277024Y-103978023D01*
X130218252Y-103862761D01*
X130216185Y-103856946D01*
X130189190Y-103732462D01*
X130194591Y-103605199D01*
X130232034Y-103483454D01*
X130255096Y-103432683D01*
X130310096Y-103214412D01*
X130320500Y-103082217D01*
X130320499Y-102193818D01*
X130338454Y-102061169D01*
X130391026Y-101938063D01*
X130474433Y-101833362D01*
X130582673Y-101754601D01*
X130707955Y-101707448D01*
X130841264Y-101695296D01*
X130973007Y-101719020D01*
G37*
%TD.AperFunction*%
%TA.AperFunction,NonConductor*%
G36*
X141326042Y-101707447D02*
G01*
X141451325Y-101754600D01*
X141559564Y-101833361D01*
X141642972Y-101938061D01*
X141695545Y-102061168D01*
X141713500Y-102193820D01*
X141713500Y-102955216D01*
X141723903Y-103087408D01*
X141723903Y-103087411D01*
X141723904Y-103087412D01*
X141778904Y-103305683D01*
X141793956Y-103338822D01*
X141827287Y-103412203D01*
X141864730Y-103533942D01*
X141870134Y-103661194D01*
X141843148Y-103785664D01*
X141815754Y-103862742D01*
X141756990Y-103978004D01*
X141670562Y-104074289D01*
X141562284Y-104145116D01*
X141439437Y-104185724D01*
X141310278Y-104193383D01*
X141183493Y-104167577D01*
X141067604Y-104110043D01*
X140970402Y-104024647D01*
X140904490Y-103949489D01*
X140786758Y-103815242D01*
X140786755Y-103815240D01*
X140786754Y-103815238D01*
X140613893Y-103663643D01*
X140564957Y-103620727D01*
X140359508Y-103483450D01*
X140319667Y-103456829D01*
X140270714Y-103432688D01*
X140055077Y-103326348D01*
X140055073Y-103326346D01*
X140037215Y-103317540D01*
X139922809Y-103239735D01*
X139834165Y-103133506D01*
X139778098Y-103007020D01*
X139758917Y-102870000D01*
X139778098Y-102732980D01*
X139834165Y-102606494D01*
X139922809Y-102500265D01*
X140037215Y-102422460D01*
X140055073Y-102413653D01*
X140055077Y-102413652D01*
X140319665Y-102283172D01*
X140564957Y-102119273D01*
X140786758Y-101924758D01*
X140839335Y-101864805D01*
X140940293Y-101776914D01*
X141060989Y-101719021D01*
X141192732Y-101695296D01*
X141326042Y-101707447D01*
G37*
%TD.AperFunction*%
%TA.AperFunction,NonConductor*%
G36*
X130303025Y-105686994D02*
G01*
X130423968Y-105729904D01*
X130529968Y-105802241D01*
X130614014Y-105899218D01*
X130670545Y-106014420D01*
X130758348Y-106273077D01*
X130887557Y-106535087D01*
X130888829Y-106537667D01*
X130914985Y-106576812D01*
X131052727Y-106782957D01*
X131052729Y-106782959D01*
X131247241Y-107004758D01*
X131396922Y-107136024D01*
X131469043Y-107199273D01*
X131714335Y-107363172D01*
X131714339Y-107363174D01*
X131724947Y-107370262D01*
X131821033Y-107454052D01*
X131892752Y-107559455D01*
X131935421Y-107679591D01*
X131946256Y-107806619D01*
X131924548Y-107932246D01*
X131871717Y-108048272D01*
X131791208Y-108147125D01*
X131688279Y-108222350D01*
X131569647Y-108269039D01*
X131427318Y-108304903D01*
X131222374Y-108397993D01*
X131000429Y-108551757D01*
X130999237Y-108550037D01*
X130948337Y-108588532D01*
X130820576Y-108638355D01*
X130684078Y-108651518D01*
X130549150Y-108627029D01*
X130425984Y-108566736D01*
X130323881Y-108475194D01*
X130250557Y-108359325D01*
X130162007Y-108164374D01*
X130033819Y-107979346D01*
X130033817Y-107979343D01*
X129874656Y-107820182D01*
X129808494Y-107774345D01*
X129689626Y-107691993D01*
X129484683Y-107598904D01*
X129266412Y-107543904D01*
X129134217Y-107533500D01*
X129134213Y-107533500D01*
X128582621Y-107533500D01*
X128447992Y-107514996D01*
X128323349Y-107460855D01*
X128270000Y-107417453D01*
X128216653Y-107460855D01*
X128092009Y-107514996D01*
X127957381Y-107533500D01*
X127405783Y-107533500D01*
X127273591Y-107543903D01*
X127164452Y-107571404D01*
X127055317Y-107598904D01*
X127055315Y-107598904D01*
X127055314Y-107598905D01*
X126850374Y-107691993D01*
X126665343Y-107820182D01*
X126506182Y-107979343D01*
X126377993Y-108164374D01*
X126289447Y-108359316D01*
X126216115Y-108475197D01*
X126114009Y-108566740D01*
X125990839Y-108627032D01*
X125855908Y-108651519D01*
X125719407Y-108638351D01*
X125591645Y-108588523D01*
X125540762Y-108550037D01*
X125539571Y-108551757D01*
X125429063Y-108475197D01*
X125317626Y-108397993D01*
X125112683Y-108304904D01*
X125112681Y-108304903D01*
X125112680Y-108304903D01*
X124970353Y-108269039D01*
X124851721Y-108222351D01*
X124748791Y-108147125D01*
X124668283Y-108048272D01*
X124615451Y-107932246D01*
X124593743Y-107806618D01*
X124604578Y-107679591D01*
X124647248Y-107559454D01*
X124718966Y-107454051D01*
X124815053Y-107370261D01*
X124825655Y-107363176D01*
X124825665Y-107363172D01*
X125070957Y-107199273D01*
X125292758Y-107004758D01*
X125487273Y-106782957D01*
X125651172Y-106537665D01*
X125781652Y-106273077D01*
X125869457Y-106014413D01*
X125925985Y-105899220D01*
X126010030Y-105802242D01*
X126116030Y-105729905D01*
X126236972Y-105686995D01*
X126364859Y-105676348D01*
X126491232Y-105698670D01*
X126607734Y-105752483D01*
X126706658Y-105834230D01*
X126867155Y-106006081D01*
X127084754Y-106183111D01*
X127324433Y-106328863D01*
X127581720Y-106440618D01*
X127581725Y-106440620D01*
X127851839Y-106516303D01*
X128025330Y-106540148D01*
X128156182Y-106576811D01*
X128270000Y-106646025D01*
X128383819Y-106576812D01*
X128514671Y-106540148D01*
X128688161Y-106516303D01*
X128958275Y-106440620D01*
X129215568Y-106328862D01*
X129455246Y-106183111D01*
X129672845Y-106006081D01*
X129833344Y-105834227D01*
X129932264Y-105752484D01*
X130048765Y-105698670D01*
X130175138Y-105676348D01*
X130303025Y-105686994D01*
G37*
%TD.AperFunction*%
%TA.AperFunction,NonConductor*%
G36*
X141985232Y-105698670D02*
G01*
X142101734Y-105752483D01*
X142200658Y-105834230D01*
X142361155Y-106006081D01*
X142578754Y-106183111D01*
X142818433Y-106328863D01*
X143075720Y-106440618D01*
X143075725Y-106440620D01*
X143345839Y-106516303D01*
X143519328Y-106540148D01*
X143650181Y-106576812D01*
X143766292Y-106647420D01*
X143859047Y-106746736D01*
X143921567Y-106867395D01*
X143949216Y-107000447D01*
X143939942Y-107136024D01*
X143894434Y-107264072D01*
X143816067Y-107375094D01*
X143710652Y-107460855D01*
X143586008Y-107514996D01*
X143451380Y-107533500D01*
X142899783Y-107533500D01*
X142767591Y-107543903D01*
X142658452Y-107571404D01*
X142549317Y-107598904D01*
X142549315Y-107598904D01*
X142549314Y-107598905D01*
X142344374Y-107691993D01*
X142159343Y-107820182D01*
X142000182Y-107979343D01*
X141871993Y-108164374D01*
X141783447Y-108359316D01*
X141710115Y-108475197D01*
X141608009Y-108566740D01*
X141484839Y-108627032D01*
X141349908Y-108651519D01*
X141213407Y-108638351D01*
X141085645Y-108588523D01*
X141034762Y-108550037D01*
X141033571Y-108551757D01*
X140923063Y-108475197D01*
X140811626Y-108397993D01*
X140606683Y-108304904D01*
X140606681Y-108304903D01*
X140606680Y-108304903D01*
X140464353Y-108269039D01*
X140345721Y-108222351D01*
X140242791Y-108147125D01*
X140162283Y-108048272D01*
X140109451Y-107932246D01*
X140087743Y-107806618D01*
X140098578Y-107679591D01*
X140141248Y-107559454D01*
X140212966Y-107454051D01*
X140309053Y-107370261D01*
X140319655Y-107363176D01*
X140319665Y-107363172D01*
X140564957Y-107199273D01*
X140786758Y-107004758D01*
X140981273Y-106782957D01*
X141145172Y-106537665D01*
X141275652Y-106273077D01*
X141363457Y-106014413D01*
X141419985Y-105899220D01*
X141504030Y-105802242D01*
X141610030Y-105729905D01*
X141730972Y-105686995D01*
X141858859Y-105676348D01*
X141985232Y-105698670D01*
G37*
%TD.AperFunction*%
%TA.AperFunction,NonConductor*%
G36*
X123470440Y-84774595D02*
G01*
X123500942Y-84787844D01*
X123777642Y-84865371D01*
X123777646Y-84865372D01*
X124062319Y-84904500D01*
X124062322Y-84904500D01*
X124349678Y-84904500D01*
X124349681Y-84904500D01*
X124634355Y-84865372D01*
X124710918Y-84843920D01*
X124911058Y-84787844D01*
X124930511Y-84779394D01*
X125055636Y-84743551D01*
X125185781Y-84741287D01*
X125312083Y-84772759D01*
X125425950Y-84835824D01*
X125519632Y-84926193D01*
X125586756Y-85037715D01*
X125622754Y-85162802D01*
X125624210Y-85241041D01*
X125625421Y-85240996D01*
X125630151Y-85367405D01*
X125630500Y-85386064D01*
X125630500Y-92901038D01*
X125612424Y-93034127D01*
X125559507Y-93157575D01*
X125475581Y-93262437D01*
X125366728Y-93341116D01*
X125240833Y-93387913D01*
X125107017Y-93399437D01*
X124974975Y-93374853D01*
X124854274Y-93315944D01*
X124825665Y-93296828D01*
X124561077Y-93166348D01*
X124281722Y-93071519D01*
X124233499Y-93061927D01*
X123992381Y-93013966D01*
X123698000Y-92994671D01*
X123403618Y-93013966D01*
X123114277Y-93071519D01*
X122834919Y-93166349D01*
X122570336Y-93296827D01*
X122325045Y-93460724D01*
X122103242Y-93655242D01*
X121908724Y-93877045D01*
X121744827Y-94122336D01*
X121614349Y-94386919D01*
X121519519Y-94666277D01*
X121492327Y-94802985D01*
X121461966Y-94955620D01*
X121442671Y-95250000D01*
X121452318Y-95397189D01*
X121461966Y-95544381D01*
X121519519Y-95833722D01*
X121614347Y-96113074D01*
X121744829Y-96377667D01*
X121781591Y-96432685D01*
X121908727Y-96622957D01*
X121908729Y-96622959D01*
X122103241Y-96844758D01*
X122254063Y-96977025D01*
X122325043Y-97039273D01*
X122570332Y-97203170D01*
X122570338Y-97203174D01*
X122852784Y-97342461D01*
X122967190Y-97420265D01*
X123055834Y-97526494D01*
X123111901Y-97652980D01*
X123131082Y-97790000D01*
X123111901Y-97927019D01*
X123055834Y-98053505D01*
X122967190Y-98159734D01*
X122852785Y-98237539D01*
X122570334Y-98376828D01*
X122325045Y-98540724D01*
X122103242Y-98735242D01*
X121908724Y-98957045D01*
X121744827Y-99202336D01*
X121614349Y-99466919D01*
X121519519Y-99746277D01*
X121461966Y-100035618D01*
X121442671Y-100329999D01*
X121461966Y-100624381D01*
X121496575Y-100798374D01*
X121519519Y-100913722D01*
X121614348Y-101193077D01*
X121744828Y-101457665D01*
X121908727Y-101702957D01*
X121908729Y-101702959D01*
X122103241Y-101924758D01*
X122258787Y-102061168D01*
X122325043Y-102119273D01*
X122570332Y-102283170D01*
X122570338Y-102283174D01*
X122852784Y-102422461D01*
X122967190Y-102500265D01*
X123055834Y-102606494D01*
X123111901Y-102732980D01*
X123131082Y-102870000D01*
X123111901Y-103007019D01*
X123055834Y-103133505D01*
X122967190Y-103239734D01*
X122852785Y-103317539D01*
X122570334Y-103456828D01*
X122325045Y-103620724D01*
X122103242Y-103815242D01*
X121908724Y-104037045D01*
X121744827Y-104282336D01*
X121614349Y-104546919D01*
X121519519Y-104826277D01*
X121461966Y-105115618D01*
X121442671Y-105409999D01*
X121461966Y-105704381D01*
X121481432Y-105802242D01*
X121519519Y-105993722D01*
X121614348Y-106273077D01*
X121743557Y-106535087D01*
X121744829Y-106537667D01*
X121770985Y-106576812D01*
X121908727Y-106782957D01*
X121908729Y-106782959D01*
X122103241Y-107004758D01*
X122252922Y-107136024D01*
X122325043Y-107199273D01*
X122570335Y-107363172D01*
X122570339Y-107363174D01*
X122580947Y-107370262D01*
X122677033Y-107454052D01*
X122748752Y-107559455D01*
X122791421Y-107679591D01*
X122802256Y-107806619D01*
X122780548Y-107932246D01*
X122727717Y-108048272D01*
X122647208Y-108147125D01*
X122544279Y-108222350D01*
X122425647Y-108269039D01*
X122283318Y-108304903D01*
X122078374Y-108397993D01*
X121893343Y-108526182D01*
X121734182Y-108685343D01*
X121704072Y-108728805D01*
X121605993Y-108870374D01*
X121512904Y-109075317D01*
X121457904Y-109293588D01*
X121449249Y-109403567D01*
X121447500Y-109425787D01*
X121447500Y-111554217D01*
X121457903Y-111686408D01*
X121457903Y-111686411D01*
X121457904Y-111686412D01*
X121512904Y-111904683D01*
X121605993Y-112109626D01*
X121688345Y-112228494D01*
X121734182Y-112294656D01*
X121893343Y-112453817D01*
X121893346Y-112453819D01*
X122078374Y-112582007D01*
X122283317Y-112675096D01*
X122501588Y-112730096D01*
X122633783Y-112740500D01*
X124762216Y-112740499D01*
X124762217Y-112740499D01*
X124788655Y-112738418D01*
X124894412Y-112730096D01*
X125112683Y-112675096D01*
X125317626Y-112582007D01*
X125502654Y-112453819D01*
X125661819Y-112294654D01*
X125790007Y-112109626D01*
X125883096Y-111904683D01*
X125938096Y-111686412D01*
X125938096Y-111686406D01*
X125942831Y-111667617D01*
X125994293Y-111540505D01*
X126078413Y-111432201D01*
X126188839Y-111350886D01*
X126317229Y-111302700D01*
X126453887Y-111291284D01*
X126588493Y-111317499D01*
X126710876Y-111379362D01*
X126850374Y-111476007D01*
X127055317Y-111569096D01*
X127273588Y-111624096D01*
X127405783Y-111634500D01*
X129134216Y-111634499D01*
X129134217Y-111634499D01*
X129160655Y-111632418D01*
X129266412Y-111624096D01*
X129484683Y-111569096D01*
X129689626Y-111476007D01*
X129829120Y-111379364D01*
X129951506Y-111317499D01*
X130086112Y-111291285D01*
X130222770Y-111302701D01*
X130351160Y-111350886D01*
X130461585Y-111432201D01*
X130545705Y-111540504D01*
X130597167Y-111667616D01*
X130651692Y-111883999D01*
X130656904Y-111904683D01*
X130749993Y-112109626D01*
X130832345Y-112228494D01*
X130878182Y-112294656D01*
X131037343Y-112453817D01*
X131037346Y-112453819D01*
X131222374Y-112582007D01*
X131427317Y-112675096D01*
X131645588Y-112730096D01*
X131777783Y-112740500D01*
X133906216Y-112740499D01*
X133906217Y-112740499D01*
X133932655Y-112738418D01*
X134038412Y-112730096D01*
X134256683Y-112675096D01*
X134461626Y-112582007D01*
X134646654Y-112453819D01*
X134805819Y-112294654D01*
X134934007Y-112109626D01*
X135027096Y-111904683D01*
X135082096Y-111686412D01*
X135092500Y-111554217D01*
X135092499Y-109425784D01*
X135082096Y-109293588D01*
X135027096Y-109075317D01*
X134934007Y-108870374D01*
X134805819Y-108685346D01*
X134805817Y-108685343D01*
X134646656Y-108526182D01*
X134573059Y-108475194D01*
X134461626Y-108397993D01*
X134256683Y-108304904D01*
X134256681Y-108304903D01*
X134256680Y-108304903D01*
X134114353Y-108269039D01*
X133995721Y-108222351D01*
X133892791Y-108147125D01*
X133812283Y-108048272D01*
X133759451Y-107932246D01*
X133737743Y-107806618D01*
X133748578Y-107679591D01*
X133791248Y-107559454D01*
X133862966Y-107454051D01*
X133959053Y-107370261D01*
X133969655Y-107363176D01*
X133969665Y-107363172D01*
X134214957Y-107199273D01*
X134436758Y-107004758D01*
X134631273Y-106782957D01*
X134795172Y-106537665D01*
X134925652Y-106273077D01*
X135020481Y-105993722D01*
X135078034Y-105704380D01*
X135097329Y-105410000D01*
X135078034Y-105115620D01*
X135020481Y-104826278D01*
X134925652Y-104546923D01*
X134795172Y-104282336D01*
X134631275Y-104037045D01*
X134554490Y-103949489D01*
X134436758Y-103815242D01*
X134436755Y-103815240D01*
X134436754Y-103815238D01*
X134263893Y-103663643D01*
X134214957Y-103620727D01*
X134009508Y-103483450D01*
X133969667Y-103456829D01*
X133920714Y-103432688D01*
X133705077Y-103326348D01*
X133705073Y-103326346D01*
X133687215Y-103317540D01*
X133572809Y-103239735D01*
X133484165Y-103133506D01*
X133428098Y-103007020D01*
X133408917Y-102870000D01*
X133428098Y-102732980D01*
X133484165Y-102606494D01*
X133572809Y-102500265D01*
X133687215Y-102422460D01*
X133705073Y-102413653D01*
X133705077Y-102413652D01*
X133969665Y-102283172D01*
X134214957Y-102119273D01*
X134436758Y-101924758D01*
X134631273Y-101702957D01*
X134795172Y-101457665D01*
X134925652Y-101193077D01*
X135020481Y-100913722D01*
X135078034Y-100624380D01*
X135097329Y-100330000D01*
X135078034Y-100035620D01*
X135020481Y-99746278D01*
X134925652Y-99466923D01*
X134915800Y-99437899D01*
X134890103Y-99305479D01*
X134900812Y-99171016D01*
X134947144Y-99044333D01*
X135025714Y-98934689D01*
X135130781Y-98850094D01*
X135254666Y-98796732D01*
X135388318Y-98778500D01*
X136645682Y-98778500D01*
X136779334Y-98796732D01*
X136903219Y-98850094D01*
X137008286Y-98934689D01*
X137086856Y-99044333D01*
X137133188Y-99171016D01*
X137143897Y-99305479D01*
X137118200Y-99437899D01*
X137013519Y-99746277D01*
X136955966Y-100035618D01*
X136936671Y-100329999D01*
X136955966Y-100624381D01*
X136990575Y-100798374D01*
X137013519Y-100913722D01*
X137108348Y-101193077D01*
X137238828Y-101457665D01*
X137402727Y-101702957D01*
X137402729Y-101702959D01*
X137597241Y-101924758D01*
X137752787Y-102061168D01*
X137819043Y-102119273D01*
X138064332Y-102283170D01*
X138064338Y-102283174D01*
X138346784Y-102422461D01*
X138461190Y-102500265D01*
X138549834Y-102606494D01*
X138605901Y-102732980D01*
X138625082Y-102870000D01*
X138605901Y-103007019D01*
X138549834Y-103133505D01*
X138461190Y-103239734D01*
X138346785Y-103317539D01*
X138064334Y-103456828D01*
X137819045Y-103620724D01*
X137597242Y-103815242D01*
X137402724Y-104037045D01*
X137238827Y-104282336D01*
X137108349Y-104546919D01*
X137013519Y-104826277D01*
X136955966Y-105115618D01*
X136936671Y-105409999D01*
X136955966Y-105704381D01*
X136975432Y-105802242D01*
X137013519Y-105993722D01*
X137108348Y-106273077D01*
X137237557Y-106535087D01*
X137238829Y-106537667D01*
X137264985Y-106576812D01*
X137402727Y-106782957D01*
X137402729Y-106782959D01*
X137597241Y-107004758D01*
X137746922Y-107136024D01*
X137819043Y-107199273D01*
X138064335Y-107363172D01*
X138064339Y-107363174D01*
X138074947Y-107370262D01*
X138171033Y-107454052D01*
X138242752Y-107559455D01*
X138285421Y-107679591D01*
X138296256Y-107806619D01*
X138274548Y-107932246D01*
X138221717Y-108048272D01*
X138141208Y-108147125D01*
X138038279Y-108222350D01*
X137919647Y-108269039D01*
X137777318Y-108304903D01*
X137572374Y-108397993D01*
X137387343Y-108526182D01*
X137228182Y-108685343D01*
X137198072Y-108728805D01*
X137099993Y-108870374D01*
X137006904Y-109075317D01*
X136951904Y-109293588D01*
X136943249Y-109403567D01*
X136941500Y-109425787D01*
X136941500Y-111554217D01*
X136951903Y-111686408D01*
X136951903Y-111686411D01*
X136951904Y-111686412D01*
X137006904Y-111904683D01*
X137099993Y-112109626D01*
X137182345Y-112228494D01*
X137228182Y-112294656D01*
X137387343Y-112453817D01*
X137387346Y-112453819D01*
X137572374Y-112582007D01*
X137777317Y-112675096D01*
X137995588Y-112730096D01*
X138127783Y-112740500D01*
X140256216Y-112740499D01*
X140256217Y-112740499D01*
X140282655Y-112738418D01*
X140388412Y-112730096D01*
X140606683Y-112675096D01*
X140811626Y-112582007D01*
X140996654Y-112453819D01*
X141155819Y-112294654D01*
X141284007Y-112109626D01*
X141377096Y-111904683D01*
X141432096Y-111686412D01*
X141432096Y-111686406D01*
X141436831Y-111667617D01*
X141488293Y-111540505D01*
X141572413Y-111432201D01*
X141682839Y-111350886D01*
X141811229Y-111302700D01*
X141947887Y-111291284D01*
X142082493Y-111317499D01*
X142204876Y-111379362D01*
X142344374Y-111476007D01*
X142549317Y-111569096D01*
X142767588Y-111624096D01*
X142899783Y-111634500D01*
X143546502Y-111634499D01*
X143675650Y-111651502D01*
X143796000Y-111701352D01*
X143899346Y-111780652D01*
X143978647Y-111883999D01*
X144028497Y-112004348D01*
X144045500Y-112133499D01*
X144045500Y-112479936D01*
X144045151Y-112498595D01*
X144041819Y-112587635D01*
X144051794Y-112676171D01*
X144053535Y-112694740D01*
X144060197Y-112783623D01*
X144060198Y-112783630D01*
X144061281Y-112788378D01*
X144070652Y-112843532D01*
X144071195Y-112848351D01*
X144094259Y-112934430D01*
X144098746Y-112952521D01*
X144115270Y-113024913D01*
X144118582Y-113039424D01*
X144120357Y-113043946D01*
X144137839Y-113097073D01*
X144139097Y-113101769D01*
X144174735Y-113183453D01*
X144181870Y-113200678D01*
X144214432Y-113283643D01*
X144214433Y-113283644D01*
X144216860Y-113287848D01*
X144242072Y-113337791D01*
X144244012Y-113342238D01*
X144244015Y-113342243D01*
X144244017Y-113342247D01*
X144291440Y-113417721D01*
X144301045Y-113433663D01*
X144345610Y-113510851D01*
X144345611Y-113510853D01*
X144345614Y-113510857D01*
X144348640Y-113514651D01*
X144381013Y-113560277D01*
X144383602Y-113564397D01*
X144416178Y-113602250D01*
X144441737Y-113631951D01*
X144453644Y-113646322D01*
X144509194Y-113715980D01*
X144574513Y-113776587D01*
X144587954Y-113789535D01*
X144601238Y-113802819D01*
X144684183Y-113912587D01*
X144733999Y-114040833D01*
X144746900Y-114177809D01*
X144721905Y-114313102D01*
X144660914Y-114436426D01*
X144568563Y-114538407D01*
X144451873Y-114611293D01*
X144319715Y-114649542D01*
X144182134Y-114650247D01*
X144049591Y-114613354D01*
X143969450Y-114578544D01*
X143689452Y-114500092D01*
X143401391Y-114460500D01*
X143401388Y-114460500D01*
X143110612Y-114460500D01*
X143110609Y-114460500D01*
X142822547Y-114500092D01*
X142542549Y-114578544D01*
X142275846Y-114694389D01*
X142245266Y-114712986D01*
X142120623Y-114767124D01*
X141985995Y-114785627D01*
X141851368Y-114767122D01*
X141726726Y-114712982D01*
X141696151Y-114694389D01*
X141429450Y-114578544D01*
X141149452Y-114500092D01*
X140861391Y-114460500D01*
X140861388Y-114460500D01*
X140570612Y-114460500D01*
X140570609Y-114460500D01*
X140282547Y-114500092D01*
X140002549Y-114578544D01*
X139735846Y-114694389D01*
X139705266Y-114712986D01*
X139580623Y-114767124D01*
X139445995Y-114785627D01*
X139311368Y-114767122D01*
X139186726Y-114712982D01*
X139156151Y-114694389D01*
X138889450Y-114578544D01*
X138609452Y-114500092D01*
X138321391Y-114460500D01*
X138321388Y-114460500D01*
X138030612Y-114460500D01*
X138030609Y-114460500D01*
X137742547Y-114500092D01*
X137462549Y-114578544D01*
X137195846Y-114694389D01*
X137165266Y-114712986D01*
X137040623Y-114767124D01*
X136905995Y-114785627D01*
X136771368Y-114767122D01*
X136646726Y-114712982D01*
X136616151Y-114694389D01*
X136349450Y-114578544D01*
X136069452Y-114500092D01*
X135781391Y-114460500D01*
X135781388Y-114460500D01*
X135490612Y-114460500D01*
X135490609Y-114460500D01*
X135202547Y-114500092D01*
X134922549Y-114578544D01*
X134655844Y-114694390D01*
X134407405Y-114845469D01*
X134181841Y-115028979D01*
X133983371Y-115241489D01*
X133815688Y-115479042D01*
X133681912Y-115737219D01*
X133584536Y-116011208D01*
X133525376Y-116295898D01*
X133505533Y-116586000D01*
X133525376Y-116876101D01*
X133544194Y-116966656D01*
X133584536Y-117160793D01*
X133670296Y-117402095D01*
X133681912Y-117434780D01*
X133815688Y-117692957D01*
X133983371Y-117930510D01*
X134181841Y-118143020D01*
X134407405Y-118326530D01*
X134655844Y-118477609D01*
X134748894Y-118518026D01*
X134922550Y-118593456D01*
X135140435Y-118654504D01*
X135259765Y-118705458D01*
X135361924Y-118785455D01*
X135440004Y-118889085D01*
X135488727Y-119009344D01*
X135504797Y-119138098D01*
X135487129Y-119266642D01*
X135436917Y-119386286D01*
X135357556Y-119488940D01*
X135254412Y-119567662D01*
X135134459Y-119617130D01*
X135005807Y-119634000D01*
X125341166Y-119634000D01*
X125212015Y-119616997D01*
X125091666Y-119567147D01*
X124988320Y-119487846D01*
X124844656Y-119344182D01*
X124693729Y-119239620D01*
X124659626Y-119215993D01*
X124659625Y-119215992D01*
X124657589Y-119214582D01*
X124564929Y-119131508D01*
X124495706Y-119028089D01*
X124454228Y-118910757D01*
X124443072Y-118786810D01*
X124462934Y-118663957D01*
X124512578Y-118549840D01*
X124588917Y-118451556D01*
X124774817Y-118265656D01*
X124774817Y-118265655D01*
X124774819Y-118265654D01*
X124903007Y-118080626D01*
X124996096Y-117875683D01*
X125051096Y-117657412D01*
X125061500Y-117525217D01*
X125061499Y-115646784D01*
X125051096Y-115514588D01*
X124996096Y-115296317D01*
X124903007Y-115091374D01*
X124774819Y-114906346D01*
X124774817Y-114906343D01*
X124615656Y-114747182D01*
X124534599Y-114691026D01*
X124430626Y-114618993D01*
X124225683Y-114525904D01*
X124007412Y-114470904D01*
X123875217Y-114460500D01*
X123875212Y-114460500D01*
X121996782Y-114460500D01*
X121864591Y-114470903D01*
X121755452Y-114498403D01*
X121646317Y-114525904D01*
X121646315Y-114525904D01*
X121646314Y-114525905D01*
X121441374Y-114618993D01*
X121256343Y-114747182D01*
X121247846Y-114755680D01*
X121144500Y-114834981D01*
X121024151Y-114884831D01*
X120895000Y-114901834D01*
X120765849Y-114884831D01*
X120645500Y-114834981D01*
X120542154Y-114755680D01*
X120462853Y-114652334D01*
X120413003Y-114531985D01*
X120396000Y-114402834D01*
X120396000Y-85403500D01*
X120413003Y-85274349D01*
X120462853Y-85154000D01*
X120542154Y-85050654D01*
X120645500Y-84971353D01*
X120765849Y-84921503D01*
X120895000Y-84904500D01*
X122580217Y-84904499D01*
X122606655Y-84902418D01*
X122712412Y-84894096D01*
X122930683Y-84839096D01*
X123065287Y-84777956D01*
X123198237Y-84738716D01*
X123336858Y-84737566D01*
X123470440Y-84774595D01*
G37*
%TD.AperFunction*%
%TA.AperFunction,NonConductor*%
G36*
X121024151Y-118287169D02*
G01*
X121144500Y-118337019D01*
X121247846Y-118416320D01*
X121256341Y-118424815D01*
X121256344Y-118424817D01*
X121256346Y-118424819D01*
X121441374Y-118553007D01*
X121441378Y-118553009D01*
X121472946Y-118574879D01*
X121565607Y-118657953D01*
X121634829Y-118761372D01*
X121676308Y-118878704D01*
X121687464Y-119002650D01*
X121667602Y-119125503D01*
X121617959Y-119239620D01*
X121541621Y-119337904D01*
X121376183Y-119503342D01*
X121305179Y-119605831D01*
X121209997Y-119708670D01*
X121089975Y-119780990D01*
X120954578Y-119817089D01*
X120814482Y-119814119D01*
X120680737Y-119772315D01*
X120563887Y-119694974D01*
X120473148Y-119588195D01*
X120415675Y-119460397D01*
X120396000Y-119321658D01*
X120396000Y-118769166D01*
X120413003Y-118640015D01*
X120462853Y-118519666D01*
X120542154Y-118416320D01*
X120645500Y-118337019D01*
X120765849Y-118287169D01*
X120895000Y-118270166D01*
X121024151Y-118287169D01*
G37*
%TD.AperFunction*%
%TA.AperFunction,NonConductor*%
G36*
X174897560Y-118709324D02*
G01*
X175015807Y-118760235D01*
X175117092Y-118839704D01*
X175194676Y-118942442D01*
X175243393Y-119061609D01*
X175260000Y-119189274D01*
X175260000Y-120220716D01*
X175239828Y-120361161D01*
X175180943Y-120490251D01*
X175088105Y-120597549D01*
X174968821Y-120674380D01*
X174832735Y-120714533D01*
X174690849Y-120714760D01*
X174554638Y-120675045D01*
X174492683Y-120646904D01*
X174274412Y-120591904D01*
X174142217Y-120581500D01*
X174142213Y-120581500D01*
X174124889Y-120581500D01*
X173985566Y-120561655D01*
X173857323Y-120503700D01*
X173750363Y-120412244D01*
X173673191Y-120294561D01*
X173631946Y-120160011D01*
X173629908Y-120019296D01*
X173667240Y-119883608D01*
X173740971Y-119763740D01*
X173745919Y-119757779D01*
X173757241Y-119744145D01*
X173772343Y-119726790D01*
X173838625Y-119654084D01*
X173897906Y-119575580D01*
X173912198Y-119557538D01*
X173975030Y-119481874D01*
X174030618Y-119400724D01*
X174044073Y-119382025D01*
X174103333Y-119303552D01*
X174103333Y-119303551D01*
X174103336Y-119303548D01*
X174155106Y-119219934D01*
X174167658Y-119200670D01*
X174223271Y-119119487D01*
X174271135Y-119033553D01*
X174282797Y-119013706D01*
X174334576Y-118930083D01*
X174334580Y-118930074D01*
X174336744Y-118926580D01*
X174418072Y-118826781D01*
X174522226Y-118751110D01*
X174642274Y-118704604D01*
X174770224Y-118690359D01*
X174897560Y-118709324D01*
G37*
%TD.AperFunction*%
%TA.AperFunction,NonConductor*%
G36*
X174890151Y-130198275D02*
G01*
X175010500Y-130248125D01*
X175113846Y-130327426D01*
X175193147Y-130430772D01*
X175242997Y-130551121D01*
X175260000Y-130680272D01*
X175260000Y-131724834D01*
X175242997Y-131853985D01*
X175193147Y-131974334D01*
X175113846Y-132077680D01*
X175010500Y-132156981D01*
X174890151Y-132206831D01*
X174761000Y-132223834D01*
X174631849Y-132206831D01*
X174511500Y-132156981D01*
X174408154Y-132077680D01*
X174374656Y-132044182D01*
X174273836Y-131974334D01*
X174189626Y-131915993D01*
X173984683Y-131822904D01*
X173984679Y-131822902D01*
X173981188Y-131822023D01*
X173859294Y-131773522D01*
X173754252Y-131694929D01*
X173673324Y-131591676D01*
X173622103Y-131470899D01*
X173604129Y-131340946D01*
X173620645Y-131210801D01*
X173670509Y-131089457D01*
X173750268Y-130985311D01*
X174408158Y-130327421D01*
X174511500Y-130248125D01*
X174631850Y-130198275D01*
X174761000Y-130181272D01*
X174890151Y-130198275D01*
G37*
%TD.AperFunction*%
%TA.AperFunction,NonConductor*%
G36*
X121093917Y-130129469D02*
G01*
X121213782Y-130203207D01*
X121314726Y-130287030D01*
X121677113Y-130535271D01*
X121770177Y-130587107D01*
X122060852Y-130749012D01*
X122060854Y-130749013D01*
X122060858Y-130749015D01*
X122233088Y-130825062D01*
X122349634Y-130897083D01*
X122442205Y-130998090D01*
X122503815Y-131120466D01*
X122529820Y-131254985D01*
X122518260Y-131391507D01*
X122470006Y-131519738D01*
X122388696Y-131630012D01*
X122280460Y-131714016D01*
X122153457Y-131765416D01*
X121925318Y-131822903D01*
X121720374Y-131915993D01*
X121535343Y-132044182D01*
X121376182Y-132203343D01*
X121305179Y-132305831D01*
X121209997Y-132408670D01*
X121089975Y-132480990D01*
X120954578Y-132517089D01*
X120814482Y-132514119D01*
X120680737Y-132472315D01*
X120563887Y-132394974D01*
X120473148Y-132288195D01*
X120415675Y-132160397D01*
X120396000Y-132021658D01*
X120396000Y-130587107D01*
X120415846Y-130447780D01*
X120473804Y-130319535D01*
X120565265Y-130212573D01*
X120682954Y-130135402D01*
X120817509Y-130094161D01*
X120958228Y-130092129D01*
X121093917Y-130129469D01*
G37*
%TD.AperFunction*%
%TA.AperFunction,NonConductor*%
G36*
X165371944Y-133495504D02*
G01*
X165496588Y-133549645D01*
X165602002Y-133635406D01*
X165680370Y-133746428D01*
X165725878Y-133874476D01*
X165735152Y-134010054D01*
X165707503Y-134143106D01*
X165644982Y-134263765D01*
X165629919Y-134285103D01*
X165500864Y-134534169D01*
X165410553Y-134788280D01*
X165347925Y-134909091D01*
X165254988Y-135008490D01*
X165138653Y-135079085D01*
X165007573Y-135115627D01*
X164871494Y-135115398D01*
X164740537Y-135078415D01*
X164368755Y-134915935D01*
X164000412Y-134798347D01*
X163687352Y-134732927D01*
X163621933Y-134719257D01*
X163515690Y-134708274D01*
X163397002Y-134681070D01*
X163288436Y-134625929D01*
X163196457Y-134546134D01*
X163126543Y-134446438D01*
X163082857Y-134332777D01*
X163068000Y-134211920D01*
X163068000Y-133976000D01*
X163085003Y-133846849D01*
X163134853Y-133726500D01*
X163214154Y-133623154D01*
X163317500Y-133543853D01*
X163437849Y-133494003D01*
X163567000Y-133477000D01*
X165237315Y-133477000D01*
X165371944Y-133495504D01*
G37*
%TD.AperFunction*%
%TA.AperFunction,NonConductor*%
G36*
X128154151Y-133494003D02*
G01*
X128274500Y-133543853D01*
X128377846Y-133623154D01*
X128457147Y-133726500D01*
X128506997Y-133846849D01*
X128524000Y-133976000D01*
X128524000Y-134196457D01*
X128508088Y-134321464D01*
X128461368Y-134438498D01*
X128386819Y-134540097D01*
X128289194Y-134619780D01*
X128174721Y-134672466D01*
X128083039Y-134688972D01*
X128083272Y-134690468D01*
X127675813Y-134753926D01*
X127369774Y-134834523D01*
X127301903Y-134852398D01*
X127301901Y-134852398D01*
X127301900Y-134852399D01*
X126940098Y-134988793D01*
X126594247Y-135161660D01*
X126267998Y-135369176D01*
X126040485Y-135549247D01*
X125921976Y-135618897D01*
X125788960Y-135653570D01*
X125651531Y-135650634D01*
X125520117Y-135610313D01*
X125404690Y-135535665D01*
X125314011Y-135432356D01*
X125254960Y-135308225D01*
X125232018Y-135172692D01*
X125246926Y-135036047D01*
X125280096Y-134904412D01*
X125290500Y-134772217D01*
X125290500Y-133976000D01*
X125307503Y-133846849D01*
X125357353Y-133726500D01*
X125436654Y-133623154D01*
X125540000Y-133543853D01*
X125660349Y-133494003D01*
X125789500Y-133477000D01*
X128025000Y-133477000D01*
X128154151Y-133494003D01*
G37*
%TD.AperFunction*%
%TA.AperFunction,NonConductor*%
G36*
X121089975Y-135235010D02*
G01*
X121209997Y-135307330D01*
X121305179Y-135410169D01*
X121376182Y-135512656D01*
X121535343Y-135671817D01*
X121535346Y-135671819D01*
X121720374Y-135800007D01*
X121925317Y-135893096D01*
X122143588Y-135948096D01*
X122275783Y-135958500D01*
X124104216Y-135958499D01*
X124104217Y-135958499D01*
X124130655Y-135956418D01*
X124236412Y-135948096D01*
X124454683Y-135893096D01*
X124556888Y-135846672D01*
X124688635Y-135807612D01*
X124826045Y-135805969D01*
X124958693Y-135841870D01*
X125076518Y-135912591D01*
X125170585Y-136012769D01*
X125233760Y-136134807D01*
X125261250Y-136269450D01*
X125250973Y-136406485D01*
X125203706Y-136535520D01*
X125042652Y-136837999D01*
X124896990Y-137196167D01*
X124785128Y-137580455D01*
X124727270Y-137708468D01*
X124636024Y-137815282D01*
X124518623Y-137892431D01*
X124384371Y-137933799D01*
X124243909Y-137936110D01*
X124108370Y-137899179D01*
X124092726Y-137892431D01*
X124090974Y-137891675D01*
X123756133Y-137791430D01*
X123411929Y-137730738D01*
X123324719Y-137725658D01*
X123150305Y-137715500D01*
X122975695Y-137715500D01*
X122826196Y-137724207D01*
X122714070Y-137730738D01*
X122369866Y-137791430D01*
X122035029Y-137891674D01*
X121714096Y-138030111D01*
X121411399Y-138204873D01*
X121192981Y-138367479D01*
X121072469Y-138433594D01*
X120938490Y-138464320D01*
X120801211Y-138457326D01*
X120671049Y-138413141D01*
X120557880Y-138335120D01*
X120470293Y-138229182D01*
X120414932Y-138103366D01*
X120396000Y-137967219D01*
X120396000Y-135694342D01*
X120415675Y-135555603D01*
X120473148Y-135427805D01*
X120563887Y-135321026D01*
X120680737Y-135243685D01*
X120814482Y-135201881D01*
X120954578Y-135198911D01*
X121089975Y-135235010D01*
G37*
%TD.AperFunction*%
%TA.AperFunction,NonConductor*%
G36*
X174890151Y-135509169D02*
G01*
X175010500Y-135559019D01*
X175113846Y-135638320D01*
X175193147Y-135741666D01*
X175242997Y-135862015D01*
X175260000Y-135991166D01*
X175260000Y-137967219D01*
X175241068Y-138103366D01*
X175185707Y-138229182D01*
X175098120Y-138335120D01*
X174984951Y-138413141D01*
X174854789Y-138457326D01*
X174717510Y-138464320D01*
X174583531Y-138433594D01*
X174463019Y-138367479D01*
X174244600Y-138204873D01*
X174244596Y-138204870D01*
X173941904Y-138030111D01*
X173620971Y-137891674D01*
X173286136Y-137791431D01*
X173286133Y-137791430D01*
X172941929Y-137730738D01*
X172854719Y-137725658D01*
X172680305Y-137715500D01*
X172505695Y-137715500D01*
X172356196Y-137724207D01*
X172244070Y-137730738D01*
X171899866Y-137791430D01*
X171864394Y-137802049D01*
X171810610Y-137818151D01*
X171679940Y-137838959D01*
X171548391Y-137824690D01*
X171425217Y-137776348D01*
X171319080Y-137697332D01*
X171237442Y-137593197D01*
X171186044Y-137471267D01*
X171168500Y-137340114D01*
X171168500Y-136448160D01*
X171187235Y-136312711D01*
X171242032Y-136187433D01*
X171328778Y-136081733D01*
X171440959Y-136003548D01*
X171570150Y-135958748D01*
X171706650Y-135950698D01*
X171805783Y-135958500D01*
X173634216Y-135958499D01*
X173634217Y-135958499D01*
X173660655Y-135956418D01*
X173766412Y-135948096D01*
X173984683Y-135893096D01*
X174189626Y-135800007D01*
X174374654Y-135671819D01*
X174374656Y-135671816D01*
X174408154Y-135638320D01*
X174511500Y-135559019D01*
X174631849Y-135509169D01*
X174761000Y-135492166D01*
X174890151Y-135509169D01*
G37*
%TD.AperFunction*%
%TA.AperFunction,NonConductor*%
G36*
X126417969Y-141610407D02*
G01*
X126532137Y-141657464D01*
X126764949Y-141789227D01*
X127015189Y-141898588D01*
X127119244Y-141944064D01*
X127487587Y-142061652D01*
X127553281Y-142075380D01*
X127866067Y-142140743D01*
X128049220Y-142159675D01*
X128076309Y-142162476D01*
X128194998Y-142189681D01*
X128303565Y-142244823D01*
X128395543Y-142324617D01*
X128465457Y-142424313D01*
X128509143Y-142537974D01*
X128524000Y-142658831D01*
X128524000Y-142888500D01*
X128506997Y-143017651D01*
X128457147Y-143138000D01*
X128377846Y-143241346D01*
X128274500Y-143320647D01*
X128154151Y-143370497D01*
X128025000Y-143387500D01*
X125808329Y-143387500D01*
X125668694Y-143367565D01*
X125540217Y-143309353D01*
X125433161Y-143217514D01*
X125356082Y-143099387D01*
X125315137Y-142964410D01*
X125313598Y-142823368D01*
X125351588Y-142687530D01*
X125426072Y-142567750D01*
X125438472Y-142552971D01*
X125473849Y-142510811D01*
X125665913Y-142218793D01*
X125822777Y-141906451D01*
X125822778Y-141906446D01*
X125835820Y-141880479D01*
X125837740Y-141881443D01*
X125873710Y-141811167D01*
X125955249Y-141718422D01*
X126057066Y-141648541D01*
X126172927Y-141605803D01*
X126295735Y-141592827D01*
X126417969Y-141610407D01*
G37*
%TD.AperFunction*%
%TA.AperFunction,NonConductor*%
G36*
X154815481Y-91128595D02*
G01*
X154945863Y-91172639D01*
X155059256Y-91250622D01*
X155147035Y-91356613D01*
X155202523Y-91482551D01*
X155221500Y-91618856D01*
X155221500Y-92496992D01*
X155203060Y-92631392D01*
X155149102Y-92755859D01*
X155063614Y-92861193D01*
X154952915Y-92939609D01*
X154825187Y-92985312D01*
X154689868Y-92994924D01*
X154686004Y-92994670D01*
X154391618Y-93013966D01*
X154102277Y-93071519D01*
X153822919Y-93166349D01*
X153558336Y-93296827D01*
X153313045Y-93460724D01*
X153091242Y-93655242D01*
X152896724Y-93877045D01*
X152732827Y-94122336D01*
X152602349Y-94386919D01*
X152507519Y-94666277D01*
X152449966Y-94955618D01*
X152430671Y-95250000D01*
X152449966Y-95544381D01*
X152507519Y-95833722D01*
X152602347Y-96113074D01*
X152732829Y-96377667D01*
X152769591Y-96432685D01*
X152896727Y-96622957D01*
X152896729Y-96622959D01*
X153091241Y-96844758D01*
X153242063Y-96977025D01*
X153313043Y-97039273D01*
X153558332Y-97203170D01*
X153558338Y-97203174D01*
X153840784Y-97342461D01*
X153955190Y-97420265D01*
X154043834Y-97526494D01*
X154099901Y-97652980D01*
X154119082Y-97790000D01*
X154099901Y-97927019D01*
X154043834Y-98053505D01*
X153955190Y-98159734D01*
X153840785Y-98237539D01*
X153558334Y-98376828D01*
X153313045Y-98540724D01*
X153091242Y-98735242D01*
X152896724Y-98957045D01*
X152732827Y-99202336D01*
X152602349Y-99466919D01*
X152507519Y-99746277D01*
X152449966Y-100035618D01*
X152430671Y-100330000D01*
X152449966Y-100624381D01*
X152484575Y-100798374D01*
X152507519Y-100913722D01*
X152602348Y-101193077D01*
X152732828Y-101457665D01*
X152896727Y-101702957D01*
X152896729Y-101702959D01*
X153091241Y-101924758D01*
X153246787Y-102061168D01*
X153313043Y-102119273D01*
X153558332Y-102283170D01*
X153558338Y-102283174D01*
X153840784Y-102422461D01*
X153955190Y-102500265D01*
X154043834Y-102606494D01*
X154099901Y-102732980D01*
X154119082Y-102870000D01*
X154099901Y-103007019D01*
X154043834Y-103133505D01*
X153955190Y-103239734D01*
X153840785Y-103317539D01*
X153558334Y-103456828D01*
X153313045Y-103620724D01*
X153091242Y-103815242D01*
X152896724Y-104037045D01*
X152732827Y-104282336D01*
X152602349Y-104546919D01*
X152507519Y-104826277D01*
X152449966Y-105115618D01*
X152430671Y-105410000D01*
X152449966Y-105704381D01*
X152469432Y-105802242D01*
X152507519Y-105993722D01*
X152602348Y-106273077D01*
X152731557Y-106535087D01*
X152732829Y-106537667D01*
X152758985Y-106576812D01*
X152896727Y-106782957D01*
X152896729Y-106782959D01*
X153091241Y-107004758D01*
X153240922Y-107136024D01*
X153313043Y-107199273D01*
X153558335Y-107363172D01*
X153558339Y-107363174D01*
X153568947Y-107370262D01*
X153665033Y-107454052D01*
X153736752Y-107559455D01*
X153779421Y-107679591D01*
X153790256Y-107806619D01*
X153768548Y-107932246D01*
X153715717Y-108048272D01*
X153635208Y-108147125D01*
X153532279Y-108222350D01*
X153413647Y-108269039D01*
X153271318Y-108304903D01*
X153066374Y-108397993D01*
X152881343Y-108526182D01*
X152722182Y-108685343D01*
X152692072Y-108728805D01*
X152593993Y-108870374D01*
X152500904Y-109075317D01*
X152445904Y-109293588D01*
X152437249Y-109403567D01*
X152435500Y-109425787D01*
X152435500Y-111554217D01*
X152445903Y-111686408D01*
X152445903Y-111686411D01*
X152445904Y-111686412D01*
X152500904Y-111904683D01*
X152593993Y-112109626D01*
X152676345Y-112228494D01*
X152722182Y-112294656D01*
X152881343Y-112453817D01*
X152881346Y-112453819D01*
X153066374Y-112582007D01*
X153271317Y-112675096D01*
X153489588Y-112730096D01*
X153621783Y-112740500D01*
X155750216Y-112740499D01*
X155750217Y-112740499D01*
X155776655Y-112738418D01*
X155882412Y-112730096D01*
X156100683Y-112675096D01*
X156305626Y-112582007D01*
X156490654Y-112453819D01*
X156649819Y-112294654D01*
X156778007Y-112109626D01*
X156871096Y-111904683D01*
X156926096Y-111686412D01*
X156936500Y-111554217D01*
X156936499Y-109447387D01*
X156956373Y-109307963D01*
X157014412Y-109179644D01*
X157105993Y-109072652D01*
X157223821Y-108995510D01*
X157358510Y-108954363D01*
X157499332Y-108952488D01*
X157635069Y-108990034D01*
X157648590Y-108995934D01*
X157698526Y-109021145D01*
X157702723Y-109023568D01*
X157785682Y-109056126D01*
X157802915Y-109063265D01*
X157884589Y-109098900D01*
X157889270Y-109100154D01*
X157942430Y-109117646D01*
X157946950Y-109119420D01*
X158033846Y-109139253D01*
X158051920Y-109143735D01*
X158138016Y-109166805D01*
X158142827Y-109167347D01*
X158197999Y-109176720D01*
X158202736Y-109177802D01*
X158202739Y-109177802D01*
X158202743Y-109177803D01*
X158289721Y-109184320D01*
X158395051Y-109203739D01*
X158493811Y-109245188D01*
X158581451Y-109306758D01*
X158586035Y-109310778D01*
X158842221Y-109481956D01*
X158842224Y-109481957D01*
X158842228Y-109481960D01*
X159118573Y-109618238D01*
X159410341Y-109717280D01*
X159712540Y-109777391D01*
X160020000Y-109797543D01*
X160327460Y-109777391D01*
X160629659Y-109717280D01*
X160921427Y-109618238D01*
X161042490Y-109558536D01*
X161167901Y-109516258D01*
X161300017Y-109508436D01*
X161429542Y-109535619D01*
X161547364Y-109595896D01*
X161602374Y-109634007D01*
X161807317Y-109727096D01*
X162025588Y-109782096D01*
X162157783Y-109792500D01*
X164486216Y-109792499D01*
X164486217Y-109792499D01*
X164542675Y-109788056D01*
X164618412Y-109782096D01*
X164808574Y-109734178D01*
X164936897Y-109719095D01*
X165064793Y-109737464D01*
X165183684Y-109788056D01*
X165285601Y-109867477D01*
X165363709Y-109970403D01*
X165412772Y-110089934D01*
X165429500Y-110218054D01*
X165429500Y-112709701D01*
X165411424Y-112842791D01*
X165358507Y-112966238D01*
X165274581Y-113071100D01*
X165165727Y-113149780D01*
X165039832Y-113196576D01*
X164906016Y-113208100D01*
X164773973Y-113183516D01*
X164653271Y-113124605D01*
X164499772Y-113022040D01*
X164223427Y-112885762D01*
X164223423Y-112885760D01*
X164223422Y-112885760D01*
X163931662Y-112786721D01*
X163931661Y-112786720D01*
X163931659Y-112786720D01*
X163830472Y-112766592D01*
X163629459Y-112726608D01*
X163322000Y-112706457D01*
X163014540Y-112726608D01*
X162763614Y-112776521D01*
X162712341Y-112786720D01*
X162712339Y-112786720D01*
X162712337Y-112786721D01*
X162420573Y-112885761D01*
X162299508Y-112945464D01*
X162174096Y-112987741D01*
X162041981Y-112995563D01*
X161912456Y-112968380D01*
X161794634Y-112908103D01*
X161739625Y-112869992D01*
X161637154Y-112823448D01*
X161534683Y-112776904D01*
X161316412Y-112721904D01*
X161184217Y-112711500D01*
X161184212Y-112711500D01*
X158855782Y-112711500D01*
X158723591Y-112721903D01*
X158614452Y-112749404D01*
X158505317Y-112776904D01*
X158505315Y-112776904D01*
X158505314Y-112776905D01*
X158300374Y-112869993D01*
X158115343Y-112998182D01*
X157956182Y-113157343D01*
X157848956Y-113312116D01*
X157827993Y-113342374D01*
X157734904Y-113547317D01*
X157713578Y-113631951D01*
X157679904Y-113765588D01*
X157669500Y-113897787D01*
X157669500Y-116226217D01*
X157679903Y-116358408D01*
X157679903Y-116358411D01*
X157679904Y-116358412D01*
X157734904Y-116576683D01*
X157827993Y-116781626D01*
X157893444Y-116876099D01*
X157956182Y-116966656D01*
X158115343Y-117125817D01*
X158115346Y-117125819D01*
X158300374Y-117254007D01*
X158505317Y-117347096D01*
X158723588Y-117402096D01*
X158855783Y-117412500D01*
X161184216Y-117412499D01*
X161184217Y-117412499D01*
X161210655Y-117410418D01*
X161316412Y-117402096D01*
X161380285Y-117386001D01*
X161508923Y-117370921D01*
X161637115Y-117389458D01*
X161756217Y-117440364D01*
X161858206Y-117520209D01*
X161936208Y-117623613D01*
X161984970Y-117743610D01*
X162001204Y-117872114D01*
X161983818Y-118000467D01*
X161933982Y-118120021D01*
X161855056Y-118222722D01*
X161527939Y-118549840D01*
X160589929Y-119487849D01*
X160486587Y-119567147D01*
X160366238Y-119616997D01*
X160237087Y-119634000D01*
X155829000Y-119634000D01*
X155829000Y-121242500D01*
X155811997Y-121371651D01*
X155762147Y-121492000D01*
X155682846Y-121595346D01*
X155579500Y-121674647D01*
X155459151Y-121724497D01*
X155330000Y-121741500D01*
X154370849Y-121741500D01*
X154074714Y-121755190D01*
X154041810Y-121756712D01*
X153962439Y-121767784D01*
X153606766Y-121817399D01*
X153480875Y-121847007D01*
X153179172Y-121917967D01*
X152762690Y-122057557D01*
X152360858Y-122234984D01*
X151977114Y-122448728D01*
X151614722Y-122696972D01*
X151276789Y-122977589D01*
X150966189Y-123288189D01*
X150685572Y-123626122D01*
X150437328Y-123988514D01*
X150223584Y-124372258D01*
X150046157Y-124774090D01*
X149906567Y-125190572D01*
X149899664Y-125219923D01*
X149805999Y-125618166D01*
X149745312Y-126053211D01*
X149725026Y-126492000D01*
X149745312Y-126930789D01*
X149805999Y-127365834D01*
X149842888Y-127522678D01*
X149906567Y-127793427D01*
X150046157Y-128209909D01*
X150223584Y-128611741D01*
X150437328Y-128995485D01*
X150685572Y-129357877D01*
X150844625Y-129549416D01*
X150966188Y-129695809D01*
X151276791Y-130006412D01*
X151325135Y-130046556D01*
X151567874Y-130248125D01*
X151614726Y-130287030D01*
X151977113Y-130535271D01*
X152360853Y-130749012D01*
X152360858Y-130749015D01*
X152762690Y-130926442D01*
X153179172Y-131066032D01*
X153179175Y-131066033D01*
X153606766Y-131166601D01*
X154041811Y-131227288D01*
X154370849Y-131242500D01*
X155330000Y-131242500D01*
X155459151Y-131259503D01*
X155579500Y-131309353D01*
X155682846Y-131388654D01*
X155762147Y-131492000D01*
X155811997Y-131612349D01*
X155829000Y-131741500D01*
X155829000Y-133613000D01*
X155811997Y-133742151D01*
X155762147Y-133862500D01*
X155682846Y-133965846D01*
X155579500Y-134045147D01*
X155469139Y-134090859D01*
X155448000Y-134111999D01*
X155448000Y-134195220D01*
X155432088Y-134320228D01*
X155385367Y-134437264D01*
X155310816Y-134538863D01*
X155213190Y-134618546D01*
X155098715Y-134671231D01*
X154974692Y-134693558D01*
X154957859Y-134694425D01*
X154575813Y-134753926D01*
X154269774Y-134834523D01*
X154201903Y-134852398D01*
X154201901Y-134852398D01*
X154201900Y-134852399D01*
X153840098Y-134988793D01*
X153494247Y-135161660D01*
X153167997Y-135369176D01*
X152864818Y-135609135D01*
X152864812Y-135609140D01*
X152864813Y-135609140D01*
X152621082Y-135846674D01*
X152587902Y-135879010D01*
X152340224Y-136175903D01*
X152124369Y-136496711D01*
X151942654Y-136837995D01*
X151796992Y-137196161D01*
X151688924Y-137567418D01*
X151619606Y-137947798D01*
X151589766Y-138333301D01*
X151599722Y-138719833D01*
X151649367Y-139103286D01*
X151738176Y-139479602D01*
X151865210Y-139844794D01*
X152029116Y-140194985D01*
X152029118Y-140194988D01*
X152228165Y-140526473D01*
X152460241Y-140835734D01*
X152722885Y-141119495D01*
X152722888Y-141119497D01*
X152722893Y-141119503D01*
X153013305Y-141374738D01*
X153013310Y-141374741D01*
X153013314Y-141374745D01*
X153328449Y-141598781D01*
X153664949Y-141789227D01*
X153709299Y-141808609D01*
X154019244Y-141944064D01*
X154387587Y-142061652D01*
X154453281Y-142075380D01*
X154766067Y-142140743D01*
X154951942Y-142159957D01*
X155000310Y-142164957D01*
X155118999Y-142192162D01*
X155227565Y-142247304D01*
X155319543Y-142327098D01*
X155389457Y-142426794D01*
X155433143Y-142540455D01*
X155448000Y-142661312D01*
X155448000Y-142888500D01*
X155430997Y-143017651D01*
X155381147Y-143138000D01*
X155301846Y-143241346D01*
X155198500Y-143320647D01*
X155078151Y-143370497D01*
X154949000Y-143387500D01*
X136643000Y-143387500D01*
X136513849Y-143370497D01*
X136393500Y-143320647D01*
X136290154Y-143241346D01*
X136210853Y-143138000D01*
X136161003Y-143017651D01*
X136144000Y-142888500D01*
X136144000Y-142653013D01*
X136163885Y-142513549D01*
X136221956Y-142385201D01*
X136313585Y-142278198D01*
X136431467Y-142201067D01*
X136566209Y-142159957D01*
X136689576Y-142140743D01*
X136912191Y-142106072D01*
X137286097Y-142007602D01*
X137647896Y-141871209D01*
X137993754Y-141698338D01*
X138320004Y-141490822D01*
X138623187Y-141250860D01*
X138900091Y-140980997D01*
X139147779Y-140684092D01*
X139363627Y-140363294D01*
X139545346Y-140022002D01*
X139691009Y-139663834D01*
X139799074Y-139292587D01*
X139868394Y-138912197D01*
X139898234Y-138526696D01*
X139888278Y-138140169D01*
X139838633Y-137756715D01*
X139749823Y-137380398D01*
X139622790Y-137015206D01*
X139458882Y-136665012D01*
X139259835Y-136333527D01*
X139027759Y-136024266D01*
X138765115Y-135740505D01*
X138765111Y-135740501D01*
X138765106Y-135740496D01*
X138474694Y-135485261D01*
X138474686Y-135485255D01*
X138159551Y-135261219D01*
X137823051Y-135070773D01*
X137823046Y-135070771D01*
X137823043Y-135070769D01*
X137468755Y-134915935D01*
X137100412Y-134798347D01*
X136721933Y-134719257D01*
X136591689Y-134705793D01*
X136473002Y-134678589D01*
X136364436Y-134623447D01*
X136272457Y-134543653D01*
X136202543Y-134443957D01*
X136158857Y-134330296D01*
X136144000Y-134209439D01*
X136144000Y-133976000D01*
X136161003Y-133846849D01*
X136210853Y-133726500D01*
X136290154Y-133623154D01*
X136393500Y-133543853D01*
X136513849Y-133494003D01*
X136643000Y-133477000D01*
X136906000Y-133477000D01*
X136906000Y-131741500D01*
X136923003Y-131612349D01*
X136972853Y-131492000D01*
X137052154Y-131388654D01*
X137155500Y-131309353D01*
X137275849Y-131259503D01*
X137405000Y-131242500D01*
X138285742Y-131242500D01*
X138285751Y-131242500D01*
X138614789Y-131227288D01*
X139049834Y-131166601D01*
X139477425Y-131066033D01*
X139718291Y-130985303D01*
X139893909Y-130926442D01*
X140123519Y-130825059D01*
X140295742Y-130749015D01*
X140679487Y-130535271D01*
X141041874Y-130287030D01*
X141379809Y-130006412D01*
X141690412Y-129695809D01*
X141971030Y-129357874D01*
X142219271Y-128995487D01*
X142433015Y-128611742D01*
X142610441Y-128209911D01*
X142750033Y-127793425D01*
X142850601Y-127365834D01*
X142911288Y-126930789D01*
X142931574Y-126492000D01*
X142911288Y-126053211D01*
X142850601Y-125618166D01*
X142750033Y-125190575D01*
X142741011Y-125163657D01*
X142610442Y-124774090D01*
X142433015Y-124372258D01*
X142310124Y-124151626D01*
X142219271Y-123988513D01*
X141971030Y-123626126D01*
X141690412Y-123288191D01*
X141379809Y-122977588D01*
X141293069Y-122905560D01*
X141041877Y-122696972D01*
X140940644Y-122627626D01*
X140679487Y-122448729D01*
X140568159Y-122386720D01*
X140295741Y-122234984D01*
X139893909Y-122057557D01*
X139477427Y-121917967D01*
X139276291Y-121870660D01*
X139049834Y-121817399D01*
X138614789Y-121756712D01*
X138285751Y-121741500D01*
X138285742Y-121741500D01*
X137405000Y-121741500D01*
X137275849Y-121724497D01*
X137155500Y-121674647D01*
X137052154Y-121595346D01*
X136972853Y-121492000D01*
X136923003Y-121371651D01*
X136906000Y-121242500D01*
X136906000Y-119634000D01*
X136266193Y-119634000D01*
X136137541Y-119617130D01*
X136017588Y-119567662D01*
X135914444Y-119488940D01*
X135835083Y-119386286D01*
X135784871Y-119266642D01*
X135767203Y-119138098D01*
X135783273Y-119009344D01*
X135831996Y-118889085D01*
X135910076Y-118785455D01*
X136012235Y-118705458D01*
X136131565Y-118654504D01*
X136349450Y-118593456D01*
X136616153Y-118477610D01*
X136646727Y-118459017D01*
X136771365Y-118404878D01*
X136905995Y-118386372D01*
X137040626Y-118404876D01*
X137165269Y-118459015D01*
X137195847Y-118477610D01*
X137462550Y-118593456D01*
X137680435Y-118654504D01*
X137742547Y-118671907D01*
X138030609Y-118711500D01*
X138030612Y-118711500D01*
X138321388Y-118711500D01*
X138321391Y-118711500D01*
X138609452Y-118671907D01*
X138609456Y-118671906D01*
X138889450Y-118593456D01*
X139156153Y-118477610D01*
X139186727Y-118459017D01*
X139311365Y-118404878D01*
X139445995Y-118386372D01*
X139580626Y-118404876D01*
X139705269Y-118459015D01*
X139735847Y-118477610D01*
X140002550Y-118593456D01*
X140220435Y-118654504D01*
X140282547Y-118671907D01*
X140570609Y-118711500D01*
X140570612Y-118711500D01*
X140861388Y-118711500D01*
X140861391Y-118711500D01*
X141149452Y-118671907D01*
X141149456Y-118671906D01*
X141429450Y-118593456D01*
X141696153Y-118477610D01*
X141726727Y-118459017D01*
X141851365Y-118404878D01*
X141985995Y-118386372D01*
X142120626Y-118404876D01*
X142245269Y-118459015D01*
X142275847Y-118477610D01*
X142542550Y-118593456D01*
X142760435Y-118654504D01*
X142822547Y-118671907D01*
X143110609Y-118711500D01*
X143110612Y-118711500D01*
X143401388Y-118711500D01*
X143401391Y-118711500D01*
X143689452Y-118671907D01*
X143689456Y-118671906D01*
X143969450Y-118593456D01*
X144236153Y-118477610D01*
X144266727Y-118459017D01*
X144391365Y-118404878D01*
X144525995Y-118386372D01*
X144660626Y-118404876D01*
X144785269Y-118459015D01*
X144815847Y-118477610D01*
X145082550Y-118593456D01*
X145300435Y-118654504D01*
X145362547Y-118671907D01*
X145650609Y-118711500D01*
X145650612Y-118711500D01*
X145941388Y-118711500D01*
X145941391Y-118711500D01*
X146229452Y-118671907D01*
X146229456Y-118671906D01*
X146509450Y-118593456D01*
X146776153Y-118477610D01*
X146806723Y-118459020D01*
X147024594Y-118326530D01*
X147066000Y-118292844D01*
X147250157Y-118143022D01*
X147448627Y-117930512D01*
X147616312Y-117692956D01*
X147750088Y-117434780D01*
X147847464Y-117160793D01*
X147906624Y-116876099D01*
X147922606Y-116642445D01*
X147946573Y-116520141D01*
X148000100Y-116407589D01*
X148079849Y-116311813D01*
X148180845Y-116238786D01*
X148296787Y-116193064D01*
X148420443Y-116177500D01*
X150056994Y-116177500D01*
X150145593Y-116185428D01*
X150217552Y-116205169D01*
X150226320Y-116207076D01*
X150226322Y-116207077D01*
X150314303Y-116226216D01*
X150484973Y-116263343D01*
X150749000Y-116282227D01*
X151013026Y-116263343D01*
X151271678Y-116207077D01*
X151519689Y-116114574D01*
X151752011Y-115987716D01*
X151963915Y-115829087D01*
X152151087Y-115641915D01*
X152309716Y-115430011D01*
X152436574Y-115197689D01*
X152529077Y-114949678D01*
X152585343Y-114691026D01*
X152604227Y-114427000D01*
X152585343Y-114162974D01*
X152529077Y-113904322D01*
X152491218Y-113802819D01*
X152436574Y-113656311D01*
X152309716Y-113423988D01*
X152151087Y-113212084D01*
X151963915Y-113024912D01*
X151752011Y-112866283D01*
X151519688Y-112739425D01*
X151271678Y-112646922D01*
X151013026Y-112590656D01*
X150950093Y-112586155D01*
X150816222Y-112557766D01*
X150695097Y-112494077D01*
X150595829Y-112399880D01*
X150525882Y-112282258D01*
X150490519Y-112150058D01*
X150492397Y-112013223D01*
X150511598Y-111948603D01*
X150510122Y-111948231D01*
X150521095Y-111904685D01*
X150521096Y-111904683D01*
X150576096Y-111686412D01*
X150586500Y-111554217D01*
X150586499Y-109425784D01*
X150576096Y-109293588D01*
X150521096Y-109075317D01*
X150428007Y-108870374D01*
X150299819Y-108685346D01*
X150299817Y-108685343D01*
X150140656Y-108526182D01*
X150067059Y-108475194D01*
X149955626Y-108397993D01*
X149750683Y-108304904D01*
X149750681Y-108304903D01*
X149750680Y-108304903D01*
X149608353Y-108269039D01*
X149489721Y-108222351D01*
X149386791Y-108147125D01*
X149306283Y-108048272D01*
X149253451Y-107932246D01*
X149231743Y-107806618D01*
X149242578Y-107679591D01*
X149285248Y-107559454D01*
X149356966Y-107454051D01*
X149453053Y-107370261D01*
X149463655Y-107363176D01*
X149463665Y-107363172D01*
X149708957Y-107199273D01*
X149930758Y-107004758D01*
X150125273Y-106782957D01*
X150289172Y-106537665D01*
X150419652Y-106273077D01*
X150514481Y-105993722D01*
X150572034Y-105704380D01*
X150591329Y-105410000D01*
X150572034Y-105115620D01*
X150514481Y-104826278D01*
X150419652Y-104546923D01*
X150289172Y-104282336D01*
X150125275Y-104037045D01*
X150048490Y-103949489D01*
X149930758Y-103815242D01*
X149930755Y-103815240D01*
X149930754Y-103815238D01*
X149757893Y-103663643D01*
X149708957Y-103620727D01*
X149503508Y-103483450D01*
X149463667Y-103456829D01*
X149414714Y-103432688D01*
X149199077Y-103326348D01*
X149199073Y-103326346D01*
X149181215Y-103317540D01*
X149066809Y-103239735D01*
X148978165Y-103133506D01*
X148922098Y-103007020D01*
X148902917Y-102870000D01*
X148922098Y-102732980D01*
X148978165Y-102606494D01*
X149066809Y-102500265D01*
X149181215Y-102422460D01*
X149199073Y-102413653D01*
X149199077Y-102413652D01*
X149463665Y-102283172D01*
X149708957Y-102119273D01*
X149930758Y-101924758D01*
X150125273Y-101702957D01*
X150289172Y-101457665D01*
X150419652Y-101193077D01*
X150514481Y-100913722D01*
X150572034Y-100624380D01*
X150591329Y-100330000D01*
X150572034Y-100035620D01*
X150514481Y-99746278D01*
X150419652Y-99466923D01*
X150289172Y-99202336D01*
X150279927Y-99188500D01*
X150125275Y-98957045D01*
X150060434Y-98883109D01*
X149930758Y-98735242D01*
X149930755Y-98735240D01*
X149930754Y-98735238D01*
X149708959Y-98540729D01*
X149708960Y-98540729D01*
X149708957Y-98540727D01*
X149546172Y-98431958D01*
X149463667Y-98376829D01*
X149463665Y-98376828D01*
X149199077Y-98246348D01*
X149199073Y-98246346D01*
X149181215Y-98237540D01*
X149066809Y-98159735D01*
X148978165Y-98053506D01*
X148922098Y-97927020D01*
X148902917Y-97790000D01*
X148922098Y-97652980D01*
X148978165Y-97526494D01*
X149066809Y-97420265D01*
X149181215Y-97342460D01*
X149199073Y-97333653D01*
X149199077Y-97333652D01*
X149463665Y-97203172D01*
X149708957Y-97039273D01*
X149930758Y-96844758D01*
X150125273Y-96622957D01*
X150289172Y-96377665D01*
X150419652Y-96113077D01*
X150514481Y-95833722D01*
X150572034Y-95544380D01*
X150591329Y-95250000D01*
X150572034Y-94955620D01*
X150514481Y-94666278D01*
X150419652Y-94386923D01*
X150289172Y-94122336D01*
X150247521Y-94060000D01*
X150125275Y-93877045D01*
X149930754Y-93655238D01*
X149708959Y-93460729D01*
X149708960Y-93460729D01*
X149708957Y-93460727D01*
X149492273Y-93315943D01*
X149463667Y-93296829D01*
X149463663Y-93296827D01*
X149199077Y-93166348D01*
X148919722Y-93071519D01*
X148871499Y-93061927D01*
X148630381Y-93013966D01*
X148336000Y-92994671D01*
X148078133Y-93011572D01*
X147942818Y-93001962D01*
X147815088Y-92956260D01*
X147704388Y-92877844D01*
X147618899Y-92772509D01*
X147564941Y-92648042D01*
X147546500Y-92513641D01*
X147546500Y-91990044D01*
X147546849Y-91971386D01*
X147549975Y-91887842D01*
X147570888Y-91762392D01*
X147622834Y-91646304D01*
X147702439Y-91547118D01*
X147804533Y-91471277D01*
X147922482Y-91423707D01*
X148048626Y-91407500D01*
X152085506Y-91407500D01*
X152216494Y-91407500D01*
X152710588Y-91407500D01*
X152799186Y-91415428D01*
X152884966Y-91438960D01*
X152893322Y-91442077D01*
X153030877Y-91472000D01*
X153151973Y-91498343D01*
X153416000Y-91517227D01*
X153680026Y-91498343D01*
X153938678Y-91442077D01*
X154186689Y-91349574D01*
X154419011Y-91222716D01*
X154421306Y-91220997D01*
X154423464Y-91219383D01*
X154543955Y-91152892D01*
X154678027Y-91121842D01*
X154815481Y-91128595D01*
G37*
%TD.AperFunction*%
%TA.AperFunction,NonConductor*%
G36*
X164628055Y-141903889D02*
G01*
X164746275Y-141934421D01*
X164853541Y-141992749D01*
X164943431Y-142075380D01*
X165010564Y-142177367D01*
X165050919Y-142292604D01*
X165097922Y-142508675D01*
X165174548Y-142714118D01*
X165204350Y-142847827D01*
X165196668Y-142984602D01*
X165152083Y-143114134D01*
X165073955Y-143226661D01*
X164968171Y-143313701D01*
X164842704Y-143368696D01*
X164707010Y-143387500D01*
X163567000Y-143387500D01*
X163437849Y-143370497D01*
X163317500Y-143320647D01*
X163214154Y-143241346D01*
X163134853Y-143138000D01*
X163085003Y-143017651D01*
X163068000Y-142888500D01*
X163068000Y-142649275D01*
X163087885Y-142509811D01*
X163145956Y-142381463D01*
X163237585Y-142274460D01*
X163355468Y-142197329D01*
X163490210Y-142156219D01*
X163812186Y-142106073D01*
X163812188Y-142106072D01*
X163812191Y-142106072D01*
X164186097Y-142007602D01*
X164387306Y-141931748D01*
X164505959Y-141902981D01*
X164628055Y-141903889D01*
G37*
%TD.AperFunction*%
%TA.AperFunction,NonConductor*%
G36*
X169538944Y-141665990D02*
G01*
X169661081Y-141722020D01*
X169763839Y-141808609D01*
X169839763Y-141919474D01*
X169884022Y-142007600D01*
X169990085Y-142218791D01*
X170097077Y-142381463D01*
X170182151Y-142510811D01*
X170195689Y-142526945D01*
X170229928Y-142567750D01*
X170304412Y-142687530D01*
X170342402Y-142823368D01*
X170340863Y-142964410D01*
X170299918Y-143099387D01*
X170222839Y-143217514D01*
X170115783Y-143309353D01*
X169987306Y-143367565D01*
X169847671Y-143387500D01*
X169048990Y-143387500D01*
X168913296Y-143368696D01*
X168787829Y-143313701D01*
X168682045Y-143226661D01*
X168603917Y-143114134D01*
X168559332Y-142984602D01*
X168551650Y-142847827D01*
X168581452Y-142714118D01*
X168591369Y-142687530D01*
X168658077Y-142508678D01*
X168714343Y-142250026D01*
X168720116Y-142223489D01*
X168749001Y-142133128D01*
X168794465Y-142049866D01*
X168854861Y-141976717D01*
X169040999Y-141790579D01*
X169147943Y-141709223D01*
X169272722Y-141659351D01*
X169406284Y-141644583D01*
X169538944Y-141665990D01*
G37*
%TD.AperFunction*%
M02*
